<?xml version="1.0" encoding="UTF-8"?>
<svg width="8px" height="8px" viewBox="0 0 8 8" version="1.1" xmlns="http://www.w3.org/2000/svg" xmlns:xlink="http://www.w3.org/1999/xlink">
    <title>Combined Shape</title>
    <g id="Symbols" stroke="none" stroke-width="1" fill="none" fill-rule="evenodd">
        <g id="discount-banner" transform="translate(-1902.000000, -9.000000)" fill="#DAE5CD" fill-rule="nonzero">
            <g id="X" transform="translate(1892.000000, 0.000000)">
                <path d="M14,8.45 C14.3418906,8.45 14.6236714,8.70092612 14.6621815,9.02419627 L14.6666667,9.1 L14.6663333,12.349 L18,12.35 C18.3681898,12.35 18.6666667,12.6410149 18.6666667,13 C18.6666667,13.3333433 18.4093065,13.6080797 18.0777474,13.645627 L18,13.65 L14.6663333,13.65 L14.6666667,16.9 C14.6666667,17.2589851 14.3681898,17.55 14,17.55 C13.6581094,17.55 13.3763286,17.2990739 13.3378185,16.9758037 L13.3333333,16.9 L13.3323333,13.65 L10,13.65 C9.63181017,13.65 9.33333333,13.3589851 9.33333333,13 C9.33333333,12.6666567 9.59069346,12.3919203 9.92225258,12.354373 L10,12.35 L13.3323333,12.349 L13.3333333,9.1 C13.3333333,8.74101491 13.6318102,8.45 14,8.45 Z" id="Combined-Shape" transform="translate(14.000000, 13.000000) rotate(-315.000000) translate(-14.000000, -13.000000) "></path>
            </g>
        </g>
    </g>
</svg>