<svg width="22" height="20" fill="none" xmlns="http://www.w3.org/2000/svg"><path d="M11.079 16.443l-.232-.122-.232.122-5.798 3.034a.199.199 0 01-.265-.073.16.16 0 01-.017-.105l1.11-6.446.045-.26-.19-.184L.9 7.944a.163.163 0 01-.001-.237.198.198 0 01.127-.055l6.332-.374.302-.018.124-.275L10.671.608a.197.197 0 01.352 0l2.888 6.377.124.275.302.018 6.332.374a.18.18 0 01.178.183.167.167 0 01-.052.11l-4.602 4.464-.19.184.046.26 1.11 6.446c.015.083-.041.18-.154.198l.08.494-.08-.494a.205.205 0 01-.128-.02l-5.798-3.034z" fill="#F6F6F6" stroke="#CFCFCF"/></svg>