<?xml version="1.0" encoding="UTF-8"?>
<svg width="13px" height="10px" viewBox="0 0 13 10" version="1.1" xmlns="http://www.w3.org/2000/svg" xmlns:xlink="http://www.w3.org/1999/xlink">
    <title>twitter</title>
    <g id="Symbols" stroke="none" stroke-width="1" fill="none" fill-rule="evenodd">
        <g id="Footer" transform="translate(-1610.000000, -33.000000)" fill="#000615">
            <g id="contacts" transform="translate(287.000000, 20.000000)">
                <g id="social" transform="translate(1268.000000, 3.000000)">
                    <g id="twitter" transform="translate(46.000000, 0.000000)">
                        <path d="M21.65625,11.1875 C21.3072899,11.6979192 20.8854191,12.1328107 20.390625,12.4921875 C20.3958334,12.5651045 20.3984375,12.6744784 20.3984375,12.8203125 C20.3984375,13.4973992 20.2994802,14.1731737 20.1015625,14.8476562 C19.9036448,15.5221388 19.6028666,16.1692677 19.1992188,16.7890625 C18.7955709,17.4088573 18.315107,17.9570289 17.7578125,18.4335938 C17.200518,18.9101586 16.5286498,19.2903632 15.7421875,19.5742188 C14.9557252,19.8580743 14.1145878,20 13.21875,20 C11.8072846,20 10.5156309,19.6223996 9.34375,18.8671875 C9.52604258,18.8880209 9.72916555,18.8984375 9.953125,18.8984375 C11.1250059,18.8984375 12.1692662,18.5390661 13.0859375,17.8203125 C12.5390598,17.8098958 12.0494813,17.6419287 11.6171875,17.3164062 C11.1848937,16.9908838 10.8880216,16.5755234 10.7265625,16.0703125 C10.8984384,16.0963543 11.0572909,16.109375 11.203125,16.109375 C11.4270845,16.109375 11.6484364,16.0807295 11.8671875,16.0234375 C11.2838512,15.9036452 10.8007832,15.6132836 10.4179688,15.1523438 C10.0351543,14.6914039 9.84375,14.156253 9.84375,13.546875 L9.84375,13.515625 C10.1979184,13.7135427 10.578123,13.8203124 10.984375,13.8359375 C10.6406233,13.6067697 10.3671885,13.3072935 10.1640625,12.9375 C9.96093648,12.5677065 9.859375,12.1666688 9.859375,11.734375 C9.859375,11.2760394 9.97395719,10.8515645 10.203125,10.4609375 C10.8333365,11.236983 11.6002559,11.8580706 12.5039062,12.3242188 C13.4075566,12.7903669 14.3749948,13.0494789 15.40625,13.1015625 C15.3645831,12.9036448 15.34375,12.7109384 15.34375,12.5234375 C15.34375,11.8255173 15.5898413,11.2304712 16.0820312,10.7382812 C16.5742212,10.2460913 17.1692673,10 17.8671875,10 C18.5963578,10 19.210935,10.2656223 19.7109375,10.796875 C20.2786487,10.6874995 20.8124975,10.4843765 21.3125,10.1875 C21.1197907,10.7864613 20.7500027,11.2499984 20.203125,11.578125 C20.6875024,11.5260414 21.1718726,11.3958344 21.65625,11.1875 Z"></path>
                    </g>
                </g>
            </g>
        </g>
    </g>
</svg>