<?xml version="1.0" encoding="UTF-8"?>
<svg width="18px" height="18px" viewBox="0 0 18 18" version="1.1" xmlns="http://www.w3.org/2000/svg" xmlns:xlink="http://www.w3.org/1999/xlink">
    <title>Combined Shape</title>
    <g id="Paraphrasing-Tool" stroke="none" stroke-width="1" fill="none" fill-rule="evenodd">
        <g id="Paraphrasing-Tool-States" transform="translate(-1453.000000, -3509.000000)" fill="#746C5F" fill-rule="nonzero">
            <g id="Forma" transform="translate(402.000000, 3242.000000)">
                <g id="icons" transform="translate(1045.000000, 49.000000)">
                    <g id="icon" transform="translate(0.000000, 212.000000)">
                        <path d="M21,12.1 C22.3807119,12.1 23.5,13.2192881 23.5,14.6 L23.5,14.6 L23.5,21 C23.5,22.3807119 22.3807119,23.5 21,23.5 L21,23.5 L14.6,23.5 C13.2192881,23.5 12.1,22.3807119 12.1,21 L12.1,21 L12.1,14.6 C12.1,13.2192881 13.2192881,12.1 14.6,12.1 L14.6,12.1 Z M21,13.1 L14.6,13.1 C13.7715729,13.1 13.1,13.7715729 13.1,14.6 L13.1,14.6 L13.1,21 C13.1,21.8284271 13.7715729,22.5 14.6,22.5 L14.6,22.5 L21,22.5 C21.8284271,22.5 22.5,21.8284271 22.5,21 L22.5,21 L22.5,14.6 C22.5,13.7715729 21.8284271,13.1 21,13.1 L21,13.1 Z M15.8,6.5 C16.909372,6.5 17.8178282,7.36022265 17.8947273,8.45002658 L17.9,8.6 L17.9,9.4 C17.9,9.67614237 17.6761424,9.9 17.4,9.9 C17.1545401,9.9 16.9503916,9.72312484 16.9080557,9.48987563 L16.9,9.4 L16.9,8.6 C16.9,8.03298766 16.4709893,7.56617613 15.9198571,7.50645465 L15.8,7.5 L8.6,7.5 C8.03298766,7.5 7.56617613,7.9290107 7.50645465,8.48014288 L7.5,8.6 L7.5,15.8 C7.5,16.3670123 7.9290107,16.8338239 8.48014288,16.8935453 L8.6,16.9 L9.4,16.9 C9.67614237,16.9 9.9,17.1238576 9.9,17.4 C9.9,17.6454599 9.72312484,17.8496084 9.48987563,17.8919443 L9.4,17.9 L8.6,17.9 C7.49062802,17.9 6.58217181,17.0397774 6.50527273,15.9499734 L6.5,15.8 L6.5,8.6 C6.5,7.49062802 7.36022265,6.58217181 8.45002658,6.50527273 L8.6,6.5 L15.8,6.5 Z" id="Combined-Shape"></path>
                    </g>
                </g>
            </g>
        </g>
    </g>
</svg>