<svg width="16" height="18" viewBox="0 0 16 18" fill="none" xmlns="http://www.w3.org/2000/svg">
<path fill-rule="evenodd" clip-rule="evenodd" d="M9.8 0.5C10.9094 0.5 11.8178 1.36022 11.8947 2.45003L11.9 2.6V3.7H13.8H15.4C15.6761 3.7 15.9 3.92386 15.9 4.2C15.9 4.44546 15.7231 4.64961 15.4899 4.69194L15.4 4.7H14.3V15.4C14.3 16.5094 13.4398 17.4178 12.35 17.4947L12.2 17.5H4.2C3.09063 17.5 2.18217 16.6398 2.10527 15.55L2.1 15.4V4.7H1C0.723858 4.7 0.5 4.47614 0.5 4.2C0.5 3.95454 0.676875 3.75039 0.910124 3.70806L1 3.7H2.6H4.5V2.6C4.5 1.49063 5.36022 0.582172 6.45003 0.505273L6.6 0.5H9.8ZM5 4.7H3.1V15.4C3.1 15.967 3.52901 16.4338 4.08014 16.4935L4.2 16.5H12.2C12.767 16.5 13.2338 16.071 13.2935 15.5199L13.3 15.4V4.7H11.4H5ZM10.9 3.7H5.5V2.6L5.50645 2.48014C5.56618 1.92901 6.03299 1.5 6.6 1.5H9.8L9.91986 1.50645C10.471 1.56618 10.9 2.03299 10.9 2.6V3.7ZM6.6 7.7C6.84546 7.7 7.04961 7.87687 7.09194 8.11012L7.1 8.2V13C7.1 13.2761 6.87614 13.5 6.6 13.5C6.35454 13.5 6.15039 13.3231 6.10806 13.0899L6.1 13V8.2C6.1 7.92386 6.32386 7.7 6.6 7.7ZM10.2919 8.11012C10.2496 7.87687 10.0455 7.7 9.8 7.7C9.52386 7.7 9.3 7.92386 9.3 8.2V13L9.30806 13.0899C9.35039 13.3231 9.55454 13.5 9.8 13.5C10.0761 13.5 10.3 13.2761 10.3 13V8.2L10.2919 8.11012Z" fill="#746C5F"/>
</svg>
