<?xml version="1.0" encoding="UTF-8"?>
<svg width="28px" height="35px" viewBox="0 0 28 35" version="1.1" xmlns="http://www.w3.org/2000/svg" xmlns:xlink="http://www.w3.org/1999/xlink">
    <title>icon</title>
    <g id="Paraphrasing-Tool" stroke="none" stroke-width="1" fill="none" fill-rule="evenodd">
        <g id="Paraphrasing-Tool-States" transform="translate(-1508.000000, -4857.000000)" fill-rule="nonzero">
            <g id="Download-Drop-Down" transform="translate(1428.000000, 4833.000000)">
                <g id="Group-6" transform="translate(27.000000, 24.142136)">
                    <g id="icon" transform="translate(53.000000, 0.000000)">
                        <path d="M26.6799595,0 L5.38945476,0 C5.03929101,0 4.70325656,0.13934389 4.45561276,0.387671628 L0.386643571,4.4674599 C0.138726596,4.71553921 0,5.05245442 0,5.40378491 L0,32.6749913 L0,32.6747424 C0,33.0260857 0.138974367,33.36302 0.386643571,33.611577 C0.634065004,33.8601532 0.970086753,34 1.32048556,34 L26.6795148,34 C27.0299263,34 27.3659671,33.8601596 27.6133568,33.611577 C27.861026,33.3630009 28,33.0260857 28,32.6747424 L28,1.32419366 C28,0.973098855 27.861026,0.636425709 27.6133568,0.388123451 C27.3656876,0.139795713 27.0296658,0.000452155522 26.6795148,0.000452155522 L26.6799595,0 Z M25.5074951,21.967552 L13.2441085,21.967552 L13.2441085,20.9809678 C13.2438603,20.7117338 13.1368999,20.4534561 12.9470503,20.2630698 C12.7569529,20.0727153 12.499106,19.965967 12.2306113,19.9662155 L2.4944874,19.9662155 L2.4944874,7.41287377 L5.30351004,7.41287377 C5.82788846,7.41287377 6.33067905,7.20386162 6.7014459,6.83235736 C7.07195862,6.46061104 7.28042285,5.95648357 7.28017508,5.43070449 L7.28017508,2.49974414 L25.5072156,2.49974414 L25.5074951,21.967552 Z" id="Shape" fill="#746C5F"></path>
                        <path d="M6.01956112,31.4836816 C6.94076045,31.4836816 7.71107368,31.1635895 8.33050081,30.5234054 C8.94992795,29.8832213 9.25964151,29.0885649 9.25964151,28.1394362 C9.25964151,27.1903075 8.94992795,26.3956511 8.33050081,25.755467 C7.71107368,25.1152829 6.94076045,24.7951908 6.01956112,24.7951908 L6.01956112,24.7951908 L3.30361138,24.7951908 L3.30361138,31.4836816 L6.01956112,31.4836816 Z M6.01956112,29.8306689 L5.05706665,29.8306689 L5.05706665,26.4482035 L6.01956112,26.4482035 C6.48333733,26.4482035 6.86134671,26.6026758 7.15358926,26.9116204 C7.4458318,27.220565 7.59195308,27.6298369 7.59195308,28.1394362 C7.59195308,28.6490355 7.4458318,29.0583074 7.15358926,29.367252 C6.86134671,29.6761966 6.48333733,29.8306689 6.01956112,29.8306689 L6.01956112,29.8306689 Z M13.8116368,31.6270064 C14.790014,31.6270064 15.6159169,31.2925819 16.2893453,30.6237328 C16.9691269,29.9485137 17.3090177,29.1204149 17.3090177,28.1394362 C17.3090177,27.1584576 16.9707152,26.3319512 16.2941102,25.6599171 C15.6175051,24.987883 14.790014,24.651866 13.8116368,24.651866 C12.8332596,24.651866 12.0057685,24.987883 11.3291634,25.6599171 C10.6525584,26.3319512 10.3142559,27.1584576 10.3142559,28.1394362 C10.3142559,29.1204149 10.6525584,29.9469212 11.3291634,30.6189553 C12.0057685,31.2909894 12.8332596,31.6270064 13.8116368,31.6270064 Z M13.8116368,29.9548837 C13.2970358,29.9548837 12.8682016,29.7860789 12.5251343,29.4484694 C12.182067,29.1044899 12.0105333,28.6681455 12.0105333,28.1394362 C12.0105333,27.6107269 12.182067,27.175975 12.5251343,26.8351805 C12.8682016,26.494386 13.2970358,26.3239887 13.8116368,26.3239887 C14.3262378,26.3239887 14.755072,26.494386 15.0981393,26.8351805 C15.4412067,27.175975 15.6127403,27.6107269 15.6127403,28.1394362 C15.6127403,28.6681455 15.4412067,29.1028974 15.0981393,29.4436919 C14.755072,29.7844864 14.3262378,29.9548837 13.8116368,29.9548837 Z M21.8419537,31.6270064 C22.4518512,31.6270064 23.0125122,31.4852741 23.5239366,31.2018095 C24.0353611,30.9183449 24.4371946,30.5313679 24.7294371,30.0408786 L24.7294371,30.0408786 L23.2523416,29.1809298 C23.1252797,29.4229894 22.936275,29.6124967 22.6853276,29.7494515 C22.4343802,29.8864063 22.1532555,29.9548837 21.8419537,29.9548837 C21.3082934,29.9548837 20.877871,29.7876714 20.5506864,29.4532469 C20.2235018,29.1188224 20.0599095,28.6808855 20.0599095,28.1394362 C20.0599095,27.597987 20.2235018,27.1600501 20.5506864,26.8256255 C20.877871,26.491201 21.3082934,26.3239887 21.8419537,26.3239887 C22.1532555,26.3239887 22.4343802,26.3924661 22.6853276,26.5294209 C22.936275,26.6663757 23.1252797,26.852698 23.2523416,27.0883877 L23.2523416,27.0883877 L24.7294371,26.2379938 C24.4371946,25.7538745 24.0337728,25.36849 23.5191718,25.0818404 C23.0045708,24.7951908 22.4454981,24.651866 21.8419537,24.651866 C20.8381641,24.651866 20.0074964,24.9846981 19.3499507,25.6503621 C18.692405,26.3160262 18.3636321,27.1457176 18.3636321,28.1394362 C18.3636321,29.1331548 18.692405,29.9628462 19.3499507,30.6285103 C20.0074964,31.2941744 20.8381641,31.6270064 21.8419537,31.6270064 Z" id="DOC" fill="#FFFFFF"></path>
                    </g>
                </g>
            </g>
        </g>
    </g>
</svg>