<?xml version="1.0" encoding="UTF-8"?>
<svg width="28px" height="35px" viewBox="0 0 28 35" version="1.1" xmlns="http://www.w3.org/2000/svg" xmlns:xlink="http://www.w3.org/1999/xlink">
    <title>icon</title>
    <g id="Paraphrasing-Tool" stroke="none" stroke-width="1" fill="none" fill-rule="evenodd">
        <g id="Paraphrasing-Tool-States" transform="translate(-1561.000000, -4857.000000)" fill-rule="nonzero">
            <g id="Download-Drop-Down" transform="translate(1428.000000, 4833.000000)">
                <g id="Group-6" transform="translate(27.000000, 24.142136)">
                    <g id="icon" transform="translate(106.000000, 0.000000)">
                        <path d="M26.6799595,0 L5.38945476,0 C5.03929101,0 4.70325656,0.13934389 4.45561276,0.387671628 L0.386643571,4.4674599 C0.138726596,4.71553921 0,5.05245442 0,5.40378491 L0,32.6749913 L0,32.6747424 C0,33.0260857 0.138974367,33.36302 0.386643571,33.611577 C0.634065004,33.8601532 0.970086753,34 1.32048556,34 L26.6795148,34 C27.0299263,34 27.3659671,33.8601596 27.6133568,33.611577 C27.861026,33.3630009 28,33.0260857 28,32.6747424 L28,1.32419366 C28,0.973098855 27.861026,0.636425709 27.6133568,0.388123451 C27.3656876,0.139795713 27.0296658,0.000452155522 26.6795148,0.000452155522 L26.6799595,0 Z M25.5074951,21.967552 L13.2441085,21.967552 L13.2441085,20.9809678 C13.2438603,20.7117338 13.1368999,20.4534561 12.9470503,20.2630698 C12.7569529,20.0727153 12.499106,19.965967 12.2306113,19.9662155 L2.4944874,19.9662155 L2.4944874,7.41287377 L5.30351004,7.41287377 C5.82788846,7.41287377 6.33067905,7.20386162 6.7014459,6.83235736 C7.07195862,6.46061104 7.28042285,5.95648357 7.28017508,5.43070449 L7.28017508,2.49974414 L25.5072156,2.49974414 L25.5074951,21.967552 Z" id="Shape" fill="#746C5F"></path>
                        <path d="M3.85950753,31.4836816 C4.78070685,31.4836816 5.55102008,31.1635895 6.17044722,30.5234054 C6.78987435,29.8832213 7.09958792,29.0885649 7.09958792,28.1394362 C7.09958792,27.1903075 6.78987435,26.3956511 6.17044722,25.755467 C5.55102008,25.1152829 4.78070685,24.7951908 3.85950753,24.7951908 L3.85950753,24.7951908 L1.14355779,24.7951908 L1.14355779,31.4836816 L3.85950753,31.4836816 Z M3.85950753,29.8306689 L2.89701306,29.8306689 L2.89701306,26.4482035 L3.85950753,26.4482035 C4.32328374,26.4482035 4.70129312,26.6026758 4.99353566,26.9116204 C5.28577821,27.220565 5.43189948,27.6298369 5.43189948,28.1394362 C5.43189948,28.6490355 5.28577821,29.0583074 4.99353566,29.367252 C4.70129312,29.6761966 4.32328374,29.8306689 3.85950753,29.8306689 L3.85950753,29.8306689 Z M10.8892114,31.6270064 C11.8675886,31.6270064 12.6934914,31.2925819 13.3669199,30.6237328 C14.0467015,29.9485137 14.3865923,29.1204149 14.3865923,28.1394362 C14.3865923,27.1584576 14.0482897,26.3319512 13.3716847,25.6599171 C12.6950797,24.987883 11.8675886,24.651866 10.8892114,24.651866 C9.91083414,24.651866 9.08334302,24.987883 8.406738,25.6599171 C7.73013297,26.3319512 7.39183046,27.1584576 7.39183046,28.1394362 C7.39183046,29.1204149 7.73013297,29.9469212 8.406738,30.6189553 C9.08334302,31.2909894 9.91083414,31.6270064 10.8892114,31.6270064 Z M10.8892114,29.9548837 C10.3746104,29.9548837 9.94577618,29.7860789 9.60270885,29.4484694 C9.25964151,29.1044899 9.08810784,28.6681455 9.08810784,28.1394362 C9.08810784,27.6107269 9.25964151,27.175975 9.60270885,26.8351805 C9.94577618,26.494386 10.3746104,26.3239887 10.8892114,26.3239887 C11.4038124,26.3239887 11.8326465,26.494386 12.1757139,26.8351805 C12.5187812,27.175975 12.6903149,27.6107269 12.6903149,28.1394362 C12.6903149,28.6681455 12.5187812,29.1028974 12.1757139,29.4436919 C11.8326465,29.7844864 11.4038124,29.9548837 10.8892114,29.9548837 Z M18.1571564,31.6270064 C18.7670539,31.6270064 19.3277148,31.4852741 19.8391393,31.2018095 C20.3505638,30.9183449 20.7523973,30.5313679 21.0446398,30.0408786 L21.0446398,30.0408786 L19.5675443,29.1809298 C19.4404824,29.4229894 19.2514777,29.6124967 19.0005303,29.7494515 C18.7495829,29.8864063 18.4684582,29.9548837 18.1571564,29.9548837 C17.6234961,29.9548837 17.1930736,29.7876714 16.8658891,29.4532469 C16.5387045,29.1188224 16.3751122,28.6808855 16.3751122,28.1394362 C16.3751122,27.597987 16.5387045,27.1600501 16.8658891,26.8256255 C17.1930736,26.491201 17.6234961,26.3239887 18.1571564,26.3239887 C18.4684582,26.3239887 18.7495829,26.3924661 19.0005303,26.5294209 C19.2514777,26.6663757 19.4404824,26.852698 19.5675443,27.0883877 L19.5675443,27.0883877 L21.0446398,26.2379938 C20.7523973,25.7538745 20.3489755,25.36849 19.8343745,25.0818404 C19.3197735,24.7951908 18.7607008,24.651866 18.1571564,24.651866 C17.1533668,24.651866 16.3226991,24.9846981 15.6651534,25.6503621 C15.0076077,26.3160262 14.6788348,27.1457176 14.6788348,28.1394362 C14.6788348,29.1331548 15.0076077,29.9628462 15.6651534,30.6285103 C16.3226991,31.2941744 17.1533668,31.6270064 18.1571564,31.6270064 Z M22.8044482,31.4836816 L23.8527095,29.706454 L24.9009708,31.4836816 L26.8069004,31.4836816 L24.8056743,28.0821063 L26.7401929,24.7951908 L24.8247336,24.7951908 L23.8527095,26.4482035 L22.8806854,24.7951908 L20.9652261,24.7951908 L22.8997447,28.0725513 L20.8889889,31.4836816 L22.8044482,31.4836816 Z" id="DOCX" fill="#FFFFFF"></path>
                    </g>
                </g>
            </g>
        </g>
    </g>
</svg>