<?xml version="1.0" encoding="UTF-8"?>
<svg width="18px" height="18px" viewBox="0 0 18 18" version="1.1" xmlns="http://www.w3.org/2000/svg" xmlns:xlink="http://www.w3.org/1999/xlink">
    <title>Combined Shape</title>
    <g id="Paraphrasing-Tool" stroke="none" stroke-width="1" fill="none" fill-rule="evenodd">
        <g id="Paraphrasing-Tool-States" transform="translate(-1453.000000, -3547.000000)" fill="#746C5F" fill-rule="nonzero">
            <g id="Forma" transform="translate(402.000000, 3242.000000)">
                <g id="icons" transform="translate(1045.000000, 49.000000)">
                    <g id="Group-7" transform="translate(0.000000, 212.000000)">
                        <g id="icon" transform="translate(0.000000, 38.000000)">
                            <path d="M23,17.1666667 C23.2454599,17.1666667 23.4496084,17.3435418 23.4919443,17.576791 L23.5,17.6666667 L23.5,21.2222222 C23.5,22.4277882 22.5634167,23.4146035 21.3781729,23.4947451 L21.2222222,23.5 L8.77777778,23.5 C7.57221176,23.5 6.5853965,22.5634167 6.5052549,21.3781729 L6.5,21.2222222 L6.5,17.6666667 C6.5,17.3905243 6.72385763,17.1666667 7,17.1666667 C7.24545989,17.1666667 7.44960837,17.3435418 7.49194433,17.576791 L7.5,17.6666667 L7.5,21.2222222 C7.5,21.8838133 8.00280521,22.427968 8.64713242,22.493403 L8.77777778,22.5 L21.2222222,22.5 C21.8838133,22.5 22.427968,21.9971948 22.493403,21.3528676 L22.5,21.2222222 L22.5,17.6666667 C22.5,17.3905243 22.7238576,17.1666667 23,17.1666667 Z M15,6.5 C15.2454599,6.5 15.4496084,6.67687516 15.4919443,6.91012437 L15.5,7 L15.5,16.456 L19.0908911,12.8686688 C19.2644574,12.6951025 19.5338818,12.6758173 19.7287499,12.8108134 L19.7979978,12.8686688 C19.9715642,13.0422352 19.9908493,13.3116596 19.8558533,13.5065277 L19.7979978,13.5757756 L15.3535534,18.0202201 L15.3399556,18.0333169 C15.3278899,18.0445094 15.3152708,18.0551136 15.3021439,18.0650839 L15.3535534,18.0202201 C15.3267191,18.0470543 15.2975936,18.0702008 15.2668065,18.0896596 C15.2556825,18.0966473 15.2440467,18.1033733 15.2321272,18.1096323 C15.2182757,18.1169171 15.2045389,18.1233152 15.1905951,18.1290561 C15.1780251,18.1342582 15.1647369,18.1391086 15.1511992,18.1433982 C15.1368121,18.14791 15.1224519,18.1517456 15.1079775,18.1549322 C15.0944257,18.1579693 15.0803581,18.160453 15.0661011,18.162336 C15.0514822,18.1642357 15.0370401,18.1655102 15.0225752,18.1661599 C15.0151294,18.1664978 15.0075844,18.1666667 15,18.1666667 L14.9774248,18.1661599 C14.9629599,18.1655102 14.9485178,18.1642357 14.9341425,18.1623363 L15,18.1666667 C14.96282,18.1666667 14.9265879,18.1626086 14.8917224,18.1549111 C14.8775481,18.1517456 14.8631879,18.14791 14.8489884,18.1434253 C14.8352631,18.1391086 14.8219749,18.1342582 14.8089634,18.1288744 C14.7954611,18.1233152 14.7817243,18.1169171 14.7682418,18.1098617 C14.7559533,18.1033733 14.7443175,18.0966473 14.7329897,18.0894787 C14.7272981,18.0859335 14.7214636,18.0820721 14.7156945,18.0780755 L14.6978561,18.0650839 C14.6847292,18.0551136 14.6721101,18.0445094 14.6600444,18.0333169 L14.6464466,18.0202201 L10.2020022,13.5757756 C10.00674,13.3805135 10.00674,13.063931 10.2020022,12.8686688 C10.3755685,12.6951025 10.6449929,12.6758173 10.8398611,12.8108134 L10.9091089,12.8686688 L14.5,16.46 L14.5,7 C14.5,6.72385763 14.7238576,6.5 15,6.5 Z" id="Combined-Shape"></path>
                        </g>
                    </g>
                </g>
            </g>
        </g>
    </g>
</svg>