<?xml version="1.0" encoding="UTF-8"?>
<svg width="8px" height="13px" viewBox="0 0 8 13" version="1.1" xmlns="http://www.w3.org/2000/svg" xmlns:xlink="http://www.w3.org/1999/xlink">
    <title>facebook</title>
    <g id="Symbols" stroke="none" stroke-width="1" fill="none" fill-rule="evenodd">
        <g id="Footer" transform="translate(-1566.000000, -31.000000)" fill="#000615">
            <g id="contacts" transform="translate(287.000000, 20.000000)">
                <g id="facebook" transform="translate(1268.000000, 3.000000)">
                    <path d="M18.4921875,8.09375 L18.4921875,10.15625 L17.265625,10.15625 C16.8177061,10.15625 16.5156258,10.2499991 16.359375,10.4375 C16.2031242,10.6250009 16.125,10.9062481 16.125,11.28125 L16.125,12.7578125 L18.4140625,12.7578125 L18.109375,15.0703125 L16.125,15.0703125 L16.125,21 L13.734375,21 L13.734375,15.0703125 L11.7421875,15.0703125 L11.7421875,12.7578125 L13.734375,12.7578125 L13.734375,11.0546875 C13.734375,10.0859327 14.0052056,9.33463809 14.546875,8.80078125 C15.0885444,8.26692441 15.8098913,8 16.7109375,8 C17.4765663,8 18.0703104,8.03124969 18.4921875,8.09375 Z"></path>
                </g>
            </g>
        </g>
    </g>
</svg>