<?xml version="1.0" encoding="UTF-8"?>
<svg width="18px" height="18px" viewBox="0 0 18 18" version="1.1" xmlns="http://www.w3.org/2000/svg" xmlns:xlink="http://www.w3.org/1999/xlink">
    <title>Combined Shape</title>
    <g id="Paraphrasing-Tool" stroke="none" stroke-width="1" fill="none" fill-rule="evenodd">
        <g id="Paraphrasing-Tool-States" transform="translate(-1453.000000, -3387.000000)" fill="#746C5F" fill-rule="nonzero">
            <g id="Forma" transform="translate(402.000000, 3242.000000)">
                <g id="icons" transform="translate(1045.000000, 49.000000)">
                    <g id="icon" transform="translate(0.000000, 90.000000)">
                        <path d="M12.3535534,16.6464466 C12.5271197,16.820013 12.5464049,17.0894374 12.4114088,17.2843055 L12.3535534,17.3535534 C12.179987,17.5271197 11.9105626,17.5464049 11.7156945,17.4114088 L11.6464466,17.3535534 L6.64644661,12.3535534 L6.63458875,12.3412864 C6.62210709,12.3279281 6.61034933,12.3138848 6.599378,12.2992191 L6.64644661,12.3535534 C6.61961234,12.3267191 6.59646582,12.2975936 6.57700705,12.2668065 C6.57001934,12.2556825 6.56329334,12.2440467 6.55703434,12.2321272 C6.54909047,12.2170161 6.54216174,12.20197 6.53601876,12.1866817 C6.53139416,12.1752265 6.52710683,12.1633127 6.52326842,12.1511992 C6.51844802,12.1358347 6.51439613,12.1204743 6.51108568,12.1049871 C6.50889169,12.0949543 6.50700676,12.0845638 6.50544807,12.0740669 C6.5023875,12.0532373 6.500611,12.0324012 6.50013238,12.0115408 C6.50004222,12.0075746 6.5,12.0037922 6.5,12 L6.50024048,11.984446 C6.50084421,11.9649268 6.50258467,11.9454363 6.50546187,11.9260822 L6.5,12 C6.5,11.963903 6.50382515,11.9286993 6.51109223,11.8947723 C6.51439613,11.8795257 6.51844802,11.8641653 6.52324135,11.8489884 C6.5275581,11.8352631 6.53240845,11.8219749 6.53779224,11.8089634 C6.54335147,11.7954611 6.54974961,11.7817243 6.55680497,11.7682418 C6.56329334,11.7559533 6.57001934,11.7443175 6.57718801,11.7329897 C6.58073319,11.7272981 6.58459457,11.7214636 6.58859116,11.7156945 L6.60158273,11.6978561 C6.61192025,11.6842458 6.6229392,11.6711813 6.63458875,11.6587136 L6.64644661,11.6464466 L11.6464466,6.64644661 C11.8417088,6.45118446 12.1582912,6.45118446 12.3535534,6.64644661 C12.5271197,6.82001296 12.5464049,7.08943736 12.4114088,7.2843055 L12.3535534,7.35355339 L8.206,11.5 L19,11.5 C21.4142733,11.5 23.3844891,13.4012365 23.495102,15.7881643 L23.5,16 L23.5,23 C23.5,23.2761424 23.2761424,23.5 23,23.5 C22.7545401,23.5 22.5503916,23.3231248 22.5080557,23.0898756 L22.5,23 L22.5,16 C22.5,14.1314366 21.0357224,12.6048736 19.1920352,12.5051789 L19,12.5 L8.206,12.5 L12.3535534,16.6464466 Z" id="Combined-Shape" transform="translate(15.000000, 15.000000) scale(-1, 1) translate(-15.000000, -15.000000) "></path>
                    </g>
                </g>
            </g>
        </g>
    </g>
</svg>