<?xml version="1.0" encoding="UTF-8"?>
<svg width="28px" height="35px" viewBox="0 0 28 35" version="1.1" xmlns="http://www.w3.org/2000/svg" xmlns:xlink="http://www.w3.org/1999/xlink">
    <title>icon</title>
    <g id="Paraphrasing-Tool" stroke="none" stroke-width="1" fill="none" fill-rule="evenodd">
        <g id="Paraphrasing-Tool-States" transform="translate(-1455.000000, -4857.000000)" fill-rule="nonzero">
            <g id="Download-Drop-Down" transform="translate(1428.000000, 4833.000000)">
                <g id="icon" transform="translate(27.000000, 24.142136)">
                    <path d="M26.6799595,0 L5.38945476,0 C5.03929101,0 4.70325656,0.13934389 4.45561276,0.387671628 L0.386643571,4.4674599 C0.138726596,4.71553921 0,5.05245442 0,5.40378491 L0,32.6749913 L0,32.6747424 C0,33.0260857 0.138974367,33.36302 0.386643571,33.611577 C0.634065004,33.8601532 0.970086753,34 1.32048556,34 L26.6795148,34 C27.0299263,34 27.3659671,33.8601596 27.6133568,33.611577 C27.861026,33.3630009 28,33.0260857 28,32.6747424 L28,1.32419366 C28,0.973098855 27.861026,0.636425709 27.6133568,0.388123451 C27.3656876,0.139795713 27.0296658,0.000452155522 26.6795148,0.000452155522 L26.6799595,0 Z M25.5074951,21.967552 L13.2441085,21.967552 L13.2441085,20.9809678 C13.2438603,20.7117338 13.1368999,20.4534561 12.9470503,20.2630698 C12.7569529,20.0727153 12.499106,19.965967 12.2306113,19.9662155 L2.4944874,19.9662155 L2.4944874,7.41287377 L5.30351004,7.41287377 C5.82788846,7.41287377 6.33067905,7.20386162 6.7014459,6.83235736 C7.07195862,6.46061104 7.28042285,5.95648357 7.28017508,5.43070449 L7.28017508,2.49974414 L25.5072156,2.49974414 L25.5074951,21.967552 Z" id="Shape" fill="#746C5F"></path>
                    <path d="M6.91534805,31.3403568 L6.91534805,29.3338096 L7.80160534,29.3338096 C8.47503381,29.3338096 9.0404596,29.1140449 9.49788272,28.6745155 C9.95530583,28.2349861 10.1840174,27.6744268 10.1840174,26.9928378 C10.1840174,26.3112487 9.95530583,25.7506895 9.49788272,25.3111601 C9.0404596,24.8716307 8.47503381,24.651866 7.80160534,24.651866 L7.80160534,24.651866 L5.20954102,24.651866 L5.20954102,31.3403568 L6.91534805,31.3403568 Z M7.80160534,27.7094618 L6.91534805,27.7094618 L6.91534805,26.2857688 L7.80160534,26.2857688 C7.9921983,26.2857688 8.15261405,26.3510612 8.28285257,26.481646 C8.4130911,26.6122308 8.47821036,26.7826281 8.47821036,26.9928378 C8.47821036,27.2030475 8.4130911,27.3750373 8.28285257,27.5088071 C8.15261405,27.6425769 7.9921983,27.7094618 7.80160534,27.7094618 L7.80160534,27.7094618 Z M14.0879966,31.3403568 C15.0091959,31.3403568 15.7795092,31.0202647 16.3989363,30.3800806 C17.0183634,29.7398965 17.328077,28.9452401 17.328077,27.9961114 C17.328077,27.0469827 17.0183634,26.2523263 16.3989363,25.6121422 C15.7795092,24.9719581 15.0091959,24.651866 14.0879966,24.651866 L14.0879966,24.651866 L11.3720469,24.651866 L11.3720469,31.3403568 L14.0879966,31.3403568 Z M14.0879966,29.6873441 L13.1255021,29.6873441 L13.1255021,26.3048787 L14.0879966,26.3048787 C14.5517728,26.3048787 14.9297822,26.459351 15.2220247,26.7682956 C15.5142673,27.0772402 15.6603886,27.4865121 15.6603886,27.9961114 C15.6603886,28.5057107 15.5142673,28.9149826 15.2220247,29.2239272 C14.9297822,29.5328718 14.5517728,29.6873441 14.0879966,29.6873441 L14.0879966,29.6873441 Z M20.3457989,31.3403568 L20.3457989,29.04716 L22.6900924,29.04716 L22.6900924,27.3941472 L20.3457989,27.3941472 L20.3457989,26.3048787 L22.7377406,26.3048787 L22.7377406,24.651866 L18.6399919,24.651866 L18.6399919,31.3403568 L20.3457989,31.3403568 Z" id="PDF" fill="#FFFFFF"></path>
                </g>
            </g>
        </g>
    </g>
</svg>