<?xml version="1.0" encoding="UTF-8"?>
<svg width="18px" height="18px" viewBox="0 0 18 18" version="1.1" xmlns="http://www.w3.org/2000/svg" xmlns:xlink="http://www.w3.org/1999/xlink">
    <title>phone-fill</title>
    <g id="Symbols" stroke="none" stroke-width="1" fill="none" fill-rule="evenodd">
        <g id="Header/static-dd" transform="translate(-1344.000000, -31.000000)">
            <g id="Tel" transform="translate(1339.000000, 26.000000)">
                <g id="phone-fill" transform="translate(5.000000, 5.000000)">
                    <polygon id="Path" points="0 0 18 0 18 18 0 18"></polygon>
                    <path d="M15.75,12.315 L15.75,14.967 C15.7501785,15.3609708 15.4455044,15.6879221 15.0525,15.7155 C14.72475,15.738 14.457,15.7499998 14.25,15.7499998 C7.62225,15.7499998 2.25,10.37775 2.25,3.7499998 C2.25,3.543 2.26125,3.27525 2.2845,2.9475 C2.31207792,2.55449558 2.63902921,2.24982153 3.033,2.2499998 L5.685,2.2499998 C5.87773052,2.24980486 6.03922704,2.39573544 6.0585,2.5875 C6.07575,2.76 6.0915,2.89725 6.1065,3.0015 C6.25555068,4.0416924 6.56100211,5.05337383 7.0125,6.00225 C7.08375,6.15225 7.03725,6.3315 6.90225,6.4275 L5.28375,7.584 C6.27334001,9.88983853 8.11091147,11.72741 10.41675,12.717 L11.57175,11.1015 C11.6691754,10.9652968 11.8500668,10.9182587 12.0015,10.98975 C12.9502661,11.4403992 13.9616846,11.745089 15.0015,11.8935 C15.10575,11.9085 15.243,11.925 15.414,11.9415 C15.6054674,11.9611319 15.750984,12.1225289 15.7507503,12.315 L15.75,12.315 Z" id="Path" fill="#4FC371" fill-rule="nonzero"></path>
                </g>
            </g>
        </g>
    </g>
</svg>