<svg width="22" height="20" fill="none" xmlns="http://www.w3.org/2000/svg"><path d="M11.219 16.487l-.209-.11-.208.11-5.799 3.034a.249.249 0 01-.331-.093.21.21 0 01-.023-.137l1.11-6.447.04-.234-.17-.165L1.027 7.98a.213.213 0 010-.309.248.248 0 01.158-.07l6.332-.373.272-.016.112-.247L10.789.587a.247.247 0 01.443 0l2.888 6.378.112.247.271.016 6.332.374a.23.23 0 01.225.236.217.217 0 01-.067.142l-4.602 4.465-.17.165.04.234 1.11 6.447a.226.226 0 01-.195.256.255.255 0 01-.159-.026l-5.798-3.034z" fill="#FDA650" stroke="#F59C44" stroke-width=".9"/></svg>