<svg width="10" height="10" viewBox="0 0 10 10" fill="none" xmlns="http://www.w3.org/2000/svg">
<path d="M9.35355 0.646447L9.70711 0.292893L9.70711 0.292893L9.35355 0.646447ZM9.35355 1.35355L9.70711 1.70711V1.70711L9.35355 1.35355ZM8.64645 0.646447L9 1V1L8.64645 0.646447ZM5 4.29289L4.64645 4.64645C4.84171 4.84171 5.15829 4.84171 5.35355 4.64645L5 4.29289ZM1.35355 0.646447L1 1L1 1L1.35355 0.646447ZM0.646447 0.646447L1 1L1 1L0.646447 0.646447ZM0.646447 1.35355L1 1L1 1L0.646447 1.35355ZM4.29289 5L4.64645 5.35355C4.84171 5.15829 4.84171 4.84171 4.64645 4.64645L4.29289 5ZM0.646447 8.64645L1 9H1L0.646447 8.64645ZM0.646447 9.35355L0.292893 9.70711L0.292893 9.70711L0.646447 9.35355ZM1.35355 9.35355L1.70711 9.70711H1.70711L1.35355 9.35355ZM5 5.70711L5.35355 5.35355C5.25979 5.25979 5.13261 5.20711 5 5.20711C4.86739 5.20711 4.74021 5.25979 4.64645 5.35355L5 5.70711ZM9.35355 9.35355L9.70711 9.70711L9.70711 9.70711L9.35355 9.35355ZM5.70711 5L5.35355 4.64645C5.25979 4.74021 5.20711 4.86739 5.20711 5C5.20711 5.13261 5.25979 5.25979 5.35355 5.35355L5.70711 5ZM9 1V1L9.70711 1.70711C10.0976 1.31658 10.0976 0.683418 9.70711 0.292893L9 1ZM9 1L9 1L9.70711 0.292893C9.31658 -0.0976304 8.68342 -0.0976316 8.29289 0.292893L9 1ZM5.35355 4.64645L9 1L8.29289 0.292893L4.64645 3.93934L5.35355 4.64645ZM1 1L4.64645 4.64645L5.35355 3.93934L1.70711 0.292893L1 1ZM1 1H1L1.70711 0.292893C1.31658 -0.0976311 0.683417 -0.0976311 0.292893 0.292893L1 1ZM1 1V1L0.292893 0.292893C-0.0976311 0.683417 -0.0976311 1.31658 0.292893 1.70711L1 1ZM4.64645 4.64645L1 1L0.292893 1.70711L3.93934 5.35355L4.64645 4.64645ZM1 9L4.64645 5.35355L3.93934 4.64645L0.292893 8.29289L1 9ZM1 9L1 9L0.292893 8.29289C-0.0976316 8.68342 -0.0976304 9.31658 0.292893 9.70711L1 9ZM1 9H1L0.292893 9.70711C0.683418 10.0976 1.31658 10.0976 1.70711 9.70711L1 9ZM4.64645 5.35355L1 9L1.70711 9.70711L5.35355 6.06066L4.64645 5.35355ZM9 9L5.35355 5.35355L4.64645 6.06066L8.29289 9.70711L9 9ZM9 9L9 9L8.29289 9.70711C8.68342 10.0976 9.31658 10.0976 9.70711 9.70711L9 9ZM9 9L9 9L9.70711 9.70711C10.0976 9.31658 10.0976 8.68342 9.70711 8.29289L9 9ZM5.35355 5.35355L9 9L9.70711 8.29289L6.06066 4.64645L5.35355 5.35355ZM9 1L5.35355 4.64645L6.06066 5.35355L9.70711 1.70711L9 1Z" fill="#746C5F"/>
</svg>
