<?xml version="1.0" standalone="no"?>
<!DOCTYPE svg PUBLIC "-//W3C//DTD SVG 1.1//EN" "http://www.w3.org/Graphics/SVG/1.1/DTD/svg11.dtd" >
<svg xmlns="http://www.w3.org/2000/svg" xmlns:xlink="http://www.w3.org/1999/xlink" version="1.1">
<metadata>
Created by FontForge 20170731 at Fri Dec 10 10:13:41 2021
 By Aleksey,,,
Copyright (c) 2013 Schick Toikka. All rights reserved. Noe Display is a trademark of Schick Toikka. Unauthorised copying or modification of any of its data is illegal. | wf-rip by planemo
</metadata>
<defs>
<font id="NoeDisplay-Bold" horiz-adv-x="1050" >
  <font-face 
    font-family="Noe Display"
    font-weight="700"
    font-stretch="normal"
    units-per-em="2048"
    panose-1="2 10 8 0 9 4 0 0 0 2"
    ascent="1536"
    descent="-512"
    x-height="1014"
    cap-height="1440"
    bbox="-463 -532 2456 2034"
    underline-thickness="38"
    underline-position="-243"
    unicode-range="U+0020-FB02"
  />
<missing-glyph horiz-adv-x="1228" 
d="M1114 -512h-999v2048h999v-2048zM594 512l-440 950v-1900zM635 512l440 -946v1896zM614 467l-436 -942h875zM178 1499l436 -942l437 942h-873z" />
    <glyph glyph-name="fi" unicode="fi" horiz-adv-x="1294" 
d="M1153 147q0 -19 3.5 -27t17.5 -22l100 -94v-4h-574v4l101 94q12 12 15 20.5t3 28.5v793q0 20 -8 26.5t-25 6.5h-294v-823q0 -18 4 -27t18 -21l117 -98v-4h-592v4l100 94q12 12 15.5 20.5t3.5 28.5v826h-109v41h109q10 221 144 333.5t368 112.5q183 0 385 -55l-129 -303
h-4l-154 293q-9 16 -18.5 21t-30.5 5h-31q-97 0 -146.5 -80t-49.5 -231v-96h661v-867z" />
    <glyph glyph-name="fl" unicode="fl" horiz-adv-x="1316" 
d="M1180 147q0 -20 3 -27.5t15 -21.5l100 -94v-4h-571v4l98 94q13 12 16 20t3 29v1190q0 27 -19 39q-66 41 -143 41q-190 0 -190 -297v-106h249v-41h-249v-813q0 -19 6 -28.5t24 -22.5l152 -105v-4h-635v4l100 94q12 12 15.5 20.5t3.5 28.5v826h-109v41h109
q9 221 134.5 333.5t332.5 112.5q124 0 225 -53l330 86v-1346z" />
    <glyph glyph-name="f_b" unicode="fb" horiz-adv-x="1898" 
d="M813 -16v1353q0 16 -3.5 24t-16.5 15q-70 41 -138 41q-85 0 -124 -67.5t-39 -229.5v-106h249v-41h-249v-813q0 -19 6 -28.5t24 -22.5l152 -105v-4h-635v4l100 94q12 12 15.5 20.5t3.5 28.5v826h-109v41h109q9 221 129.5 333.5t316.5 112.5q119 0 213 -53l330 86v-688
q102 225 319 225q177 0 281 -140.5t104 -373.5q0 -236 -126.5 -384t-331.5 -148q-173 0 -254 108l-322 -108h-4zM1300 866q-89 0 -153 -88v-661q45 -45 119 -45q51 0 90.5 20t72.5 66.5t50.5 134.5t17.5 213q0 360 -197 360z" />
    <glyph glyph-name="f_h" unicode="fh" horiz-adv-x="1939" 
d="M1821 598q0 -74 -3 -244.5t-3 -206.5q0 -21 3.5 -29t16.5 -20l100 -94v-4h-573v4l96 94q21 21 21 47q0 7 3 178t3 228q0 74 -7 127.5t-24 96t-49 64t-78 21.5q-87 0 -151 -92v-621q0 -20 3 -28.5t15 -20.5l102 -94v-4h-573v4l98 94q14 12 17.5 20.5t3.5 28.5v1190
q0 16 -4 24t-17 15q-64 41 -139 41q-190 0 -190 -297v-106h249v-41h-249v-813q0 -19 6 -28.5t24 -22.5l152 -105v-4h-635v4l100 94q12 12 15.5 20.5t3.5 28.5v826h-109v41h109q9 221 134 333.5t331 112.5q128 0 223 -53l330 86v-702q38 113 120 176t205 63q156 0 238 -110
t82 -322z" />
    <glyph glyph-name="f_j" unicode="fj" horiz-adv-x="1255" 
d="M1147 76q0 -254 -128.5 -395.5t-365.5 -145.5q-5 0 -24.5 1t-24.5 1v4q209 42 209 420v979q0 21 -5.5 27t-21.5 6h-294v-823q0 -18 4 -27t18 -21l117 -98v-4h-592v4l100 94q12 12 15.5 20.5t3.5 28.5v826h-109v41h109q10 221 142.5 333.5t365.5 112.5q183 0 387 -55
l-129 -303h-4l-156 293q-8 16 -15 20t-28 4q-8 2 -37 2q-94 0 -143 -80t-49 -231v-96h655v-938z" />
    <glyph glyph-name="f_k" unicode="fk" horiz-adv-x="1873" 
d="M1763 147q17 -33 47 -63l84 -80v-4h-432l-227 483q-11 25 -37 25q-11 0 -22 -8v-353q0 -20 3 -28.5t15 -20.5l102 -94v-4h-573v4l98 94q14 12 17.5 20.5t3.5 28.5v1190q0 15 -4 22.5t-17 16.5q-61 41 -139 41q-190 0 -190 -297v-106h249v-41h-249v-813q0 -19 6 -28.5
t24 -22.5l152 -105v-4h-635v4l100 94q12 12 15.5 20.5t3.5 28.5v826h-109v41h109q9 222 134 334t335 112q121 0 219 -53l330 86v-971l329 248q22 16 6 41l-139 199v4h502v-4l-375 -285q-13 -9 -15 -16t3 -21z" />
    <glyph glyph-name=".notdef" horiz-adv-x="1228" 
d="M1114 -512h-999v2048h999v-2048zM594 512l-440 950v-1900zM635 512l440 -946v1896zM614 467l-436 -942h875zM178 1499l436 -942l437 942h-873z" />
    <glyph glyph-name=".null" horiz-adv-x="0" 
 />
    <glyph glyph-name="nonmarkingreturn" horiz-adv-x="682" 
 />
    <glyph glyph-name="space" unicode=" " horiz-adv-x="403" 
 />
    <glyph glyph-name="exclam" unicode="!" horiz-adv-x="634" 
d="M559 1440l-242 -991h-4l-237 991h483zM152 139q0 71 47.5 116.5t115.5 45.5q70 0 118 -45.5t48 -116.5q0 -68 -48 -111.5t-118 -43.5q-68 0 -115.5 43.5t-47.5 111.5z" />
    <glyph glyph-name="quotedbl" unicode="&#x22;" horiz-adv-x="741" 
d="M305 1253l-110 -319h-5l-110 319q-14 40 -14 78q0 57 32.5 93t94.5 36t94 -36t32 -93q0 -34 -14 -78zM664 1253l-113 -319h-4l-111 319q-14 40 -14 78q0 57 32.5 93t94.5 36q63 0 95 -36t32 -93q0 -38 -12 -78z" />
    <glyph glyph-name="numbersign" unicode="#" horiz-adv-x="1204" 
d="M1006 440h-275l-110 -387l-37 13l106 374h-319l-111 -387l-37 13l107 374h-258v39h268l119 416h-258v39h270l115 403l41 -12l-113 -391h317l115 403l41 -12l-113 -391h259v-39h-271l-119 -416h263v-39zM502 895l-119 -416h317l119 416h-317z" />
    <glyph glyph-name="dollar" unicode="$" horiz-adv-x="1165" 
d="M541 -20q-96 0 -212 15t-208 42v489h4l270 -467q11 -19 18.5 -25t26.5 -9q41 -7 86 -7q31 0 47 2v496l-114 55q-65 31 -111 57.5t-100.5 69t-88.5 87.5t-57.5 109t-23.5 138q0 187 133.5 302t361.5 124v166h39v-164q200 0 392 -47v-467h-5l-276 443q-19 28 -41 30
q-20 2 -59 2h-11v-481l103 -49q55 -26 91 -45t82 -46.5t75.5 -51.5t61 -57.5t49 -68.5t29 -80t11.5 -96q0 -195 -136.5 -320t-365.5 -142v-197h-39v193h-32zM805 254q0 81 -45.5 134.5t-147.5 107.5v-469q90 19 141.5 77t51.5 150zM379 1196q0 -79 47 -131t147 -104v456
q-89 -12 -141.5 -70.5t-52.5 -150.5z" />
    <glyph glyph-name="percent" unicode="%" horiz-adv-x="1396" 
d="M401 1430q-52 0 -68 -60.5t-16 -214.5q0 -78 3 -124.5t11.5 -83.5t25.5 -52.5t44 -15.5q54 0 71 61t17 213q0 155 -17 216t-71 61zM401 1460q149 0 222 -81t73 -226q0 -142 -73 -223.5t-222 -81.5q-146 0 -218 81.5t-72 225.5q0 142 72 223.5t218 81.5zM985 563
q-52 0 -68 -60t-16 -214q0 -155 16 -216t68 -61q54 0 71 61.5t17 213.5q0 155 -17 215.5t-71 60.5zM985 594q149 0 222 -81t73 -226q0 -142 -73 -223.5t-222 -81.5q-146 0 -218.5 82t-72.5 225q0 142 72.5 223.5t218.5 81.5zM1229 1436l-1030 -1456l-33 26l1030 1454z" />
    <glyph glyph-name="ampersand" unicode="&#x26;" horiz-adv-x="1579" 
d="M461 -20q-180 0 -293 92t-113 241q0 71 27.5 130t79.5 103t109 75.5t132 60.5q-94 105 -138 194.5t-44 192.5q0 171 115 281t321 110q174 0 282 -75.5t108 -210.5q0 -227 -353 -328l316 -342q63 -67 90 -92q31 40 46 60.5t36.5 58t27.5 63.5q4 19 -2.5 32.5t-29.5 43.5
l-158 200v4h508v-4l-207 -211q-38 -41 -66 -86q-85 -129 -131 -186q91 -85 147 -115t111 -30q56 0 103 38t71 111h5q4 -29 4 -67q0 -158 -87 -251t-233 -93q-93 0 -174 41.5t-184 136.5q-206 -178 -426 -178zM733 315l-315 349q-96 -96 -96 -224q0 -73 28 -136.5t74 -106
t104 -67t119 -24.5q128 0 217 74q-53 51 -131 135zM485 1225q0 -84 42.5 -163.5t150.5 -197.5q133 124 133 301q0 128 -47 194t-119 66t-116 -54t-44 -146z" />
    <glyph glyph-name="quotesingle" unicode="'" horiz-adv-x="385" 
d="M305 1253l-110 -319h-5l-110 319q-14 47 -14 78q0 57 32.5 93t94.5 36t94 -36t32 -93q0 -31 -14 -78z" />
    <glyph glyph-name="parenleft" unicode="(" horiz-adv-x="696" 
d="M111 598q0 488 295 766q108 102 268 147l2 -4q-102 -83 -168 -219q-77 -158 -110 -322.5t-33 -367.5t33 -367.5t110 -322.5q66 -136 168 -219l-2 -4q-160 45 -268 147q-295 278 -295 766z" />
    <glyph glyph-name="parenright" unicode=")" horiz-adv-x="696" 
d="M586 598q0 -258 -78 -449.5t-215 -316.5q-111 -102 -270 -147l-3 4q102 83 168 219q78 159 111 323.5t33 366.5t-33 366.5t-111 323.5q-66 136 -168 219l3 4q159 -45 270 -147q137 -125 215 -316.5t78 -449.5z" />
    <glyph glyph-name="asterisk" unicode="*" horiz-adv-x="866" 
d="M813 1065l-377 16l309 -209l-215 -155l-102 356l-102 -354l-215 155l309 207l-367 -14l82 254l287 -229l-121 348h266l-133 -348l295 227z" />
    <glyph glyph-name="plus" unicode="+" horiz-adv-x="1105" 
d="M104 643v39h428v432h41v-432h431v-39h-431v-430h-41v430h-428z" />
    <glyph glyph-name="comma" unicode="," horiz-adv-x="497" 
d="M84 -270l-2 4q73 38 116.5 110t43.5 142q0 15 -6.5 21t-24.5 9q-57 9 -91 49t-34 97q0 64 42.5 106.5t109.5 42.5q73 0 119 -51t46 -141q0 -134 -92 -247t-227 -142z" />
    <glyph glyph-name="hyphen" unicode="-" horiz-adv-x="718" 
d="M94 485v41h533v-41h-533z" />
    <glyph glyph-name="period" unicode="." horiz-adv-x="497" 
d="M84 139q0 70 48 116t116 46q70 0 118 -45.5t48 -116.5q0 -68 -48 -111.5t-118 -43.5q-68 0 -116 44t-48 111z" />
    <glyph glyph-name="slash" unicode="/" horiz-adv-x="778" 
d="M713 1499l-609 -1814l-38 12l608 1814z" />
    <glyph glyph-name="zero" unicode="0" horiz-adv-x="1394" 
d="M696 18q58 0 101.5 35.5t75.5 115.5t48.5 218t16.5 334q0 197 -16.5 334.5t-49 216.5t-75 114t-101.5 35q-78 0 -129 -62.5t-80.5 -220t-29.5 -417.5q0 -261 29.5 -419.5t80.5 -221t129 -62.5zM696 1460q294 0 454.5 -184t160.5 -557q0 -372 -160.5 -555.5t-454.5 -183.5
q-293 0 -453.5 184t-160.5 557t160.5 556t453.5 183z" />
    <glyph glyph-name="one" unicode="1" horiz-adv-x="831" 
d="M608 1477v-1291q0 -21 3.5 -29.5t19.5 -19.5l162 -133v-4h-707v4l164 133q14 11 17 19.5t3 29.5v951q0 20 -3.5 28.5t-16.5 12.5l-191 69v4z" />
    <glyph glyph-name="two" unicode="2" horiz-adv-x="1155" 
d="M1059 1071q0 -62 -17.5 -121t-46 -110t-78 -105.5t-97.5 -98.5t-122.5 -99t-136 -96.5t-153.5 -100.5l-91 -59h531q42 0 55 5.5t37 30.5l135 148h4l-71 -465h-965v4l256 307q105 126 188 248q109 160 154 275.5t45 248.5q0 166 -53.5 251t-147.5 85q-32 0 -53 -6
q-20 -5 -31 -29l-174 -411h-4l-160 370q107 51 239.5 84t264.5 33q238 0 365 -106.5t127 -282.5z" />
    <glyph glyph-name="three" unicode="3" horiz-adv-x="1179" 
d="M1114 401q0 -192 -161 -306.5t-466 -114.5q-235 0 -430 69l164 410h4l152 -406q8 -19 19 -27t32 -8h45q116 0 192 100.5t76 260.5q0 159 -76.5 248t-250.5 112v4q284 61 284 377q0 135 -56 217t-146 82q-29 0 -45 -2q-26 -5 -39 -35l-174 -409h-5l-159 370
q103 51 235.5 84t263.5 33q221 0 354.5 -95t133.5 -259q0 -146 -89 -228t-259 -118v-4q185 -19 293 -113.5t108 -241.5z" />
    <glyph glyph-name="four" unicode="4" horiz-adv-x="1234" 
d="M598 1440h295v-1032h43q23 0 32.5 4.5t20.5 23.5l211 363h4l-39 -432h-272v-183q0 -17 4 -25t18 -22l146 -133v-4h-676v4l147 131q25 20 25 49v183h-549v2zM76 408h481v862z" />
    <glyph glyph-name="five" unicode="5" horiz-adv-x="1175" 
d="M1112 455q0 -120 -44.5 -211.5t-127 -148.5t-194 -86t-250.5 -29q-107 0 -224 18t-206 49l155 408h4l158 -402q8 -20 17.5 -27.5t31.5 -7.5h47q114 0 189 104t75 281q0 163 -84 258t-247 95q-120 0 -238 -68l-4 2l35 754l409 -17q94 -4 134 -4q166 0 237 66l59 55h5
l-23 -198q-14 -122 -83 -164.5t-222 -42.5q-90 0 -133 2l-357 14l-18 -412q112 73 214 106.5t224 33.5q212 0 336.5 -119t124.5 -309z" />
    <glyph glyph-name="six" unicode="6" horiz-adv-x="1294" 
d="M815 905q186 0 299 -110.5t113 -315.5q0 -228 -148.5 -363.5t-398.5 -135.5q-290 0 -444 191.5t-154 539.5q0 366 170.5 557.5t503.5 191.5q213 0 418 -71l-162 -355h-4l-195 359q-9 18 -18 23t-35 5h-27q-145 0 -210 -155.5t-68 -507.5q138 147 360 147zM643 811
q-98 0 -188 -78v-22q0 -693 221 -693q92 0 151.5 107.5t59.5 294.5q0 178 -59.5 284.5t-184.5 106.5z" />
    <glyph glyph-name="seven" unicode="7" horiz-adv-x="1075" 
d="M885 1096q-123 -382 -246 -1096h-430q143 315 330 640.5t327 516.5h-653q-24 0 -34 -5t-25 -24l-113 -133h-4l47 445h1001v-4l-155 -242q-28 -45 -45 -98z" />
    <glyph glyph-name="eight" unicode="8" horiz-adv-x="1222" 
d="M616 -20q-238 0 -388 97.5t-150 248.5q0 120 91 197.5t253 105.5l-12 8q-57 39 -96.5 69.5t-80 70.5t-64.5 79.5t-39 90t-15 106.5q0 185 138.5 296t354.5 111q125 0 232.5 -38t176 -115t68.5 -179q0 -115 -82.5 -185.5t-224.5 -94.5l80 -43q157 -84 233 -177t76 -231
q0 -84 -36.5 -159t-104.5 -133t-174 -91.5t-236 -33.5zM670 492l-232 129q-110 -85 -110 -287q0 -129 88.5 -221.5t220.5 -92.5q109 0 177.5 59.5t68.5 162.5q0 78 -50 132.5t-163 117.5zM383 1219q0 -87 55.5 -151t177.5 -132l144 -80q86 89 86 250q0 138 -66.5 226.5
t-179.5 88.5q-95 0 -156 -55t-61 -147z" />
    <glyph glyph-name="nine" unicode="9" horiz-adv-x="1294" 
d="M494 535q-82 0 -157.5 27.5t-136.5 79.5t-97.5 136t-36.5 189q0 223 149 358t399 135q293 0 444.5 -188t151.5 -545q0 -347 -172 -547t-491 -200q-218 0 -428 75l153 363h4l201 -371q10 -19 18.5 -23t34.5 -6h33q142 0 207 156.5t70 505.5q-133 -145 -346 -145zM657 625
q89 0 183 84v18q0 192 -15 328t-45 215.5t-69.5 115t-92.5 35.5q-93 0 -152.5 -108.5t-59.5 -300.5q0 -83 14 -151t43 -122t78.5 -84t115.5 -30z" />
    <glyph glyph-name="colon" unicode=":" horiz-adv-x="497" 
d="M84 139q0 70 48 116t116 46q70 0 118 -45.5t48 -116.5q0 -68 -48 -111.5t-118 -43.5q-68 0 -116 44t-48 111zM84 815q0 70 48 116t116 46q70 0 118 -45.5t48 -116.5q0 -68 -48 -112t-118 -44q-68 0 -116 44t-48 112z" />
    <glyph glyph-name="semicolon" unicode=";" horiz-adv-x="497" 
d="M84 -270l-2 4q73 38 116.5 110t43.5 142q0 15 -6.5 21t-24.5 9q-57 9 -91 49t-34 97q0 64 42.5 106.5t109.5 42.5q73 0 119 -51t46 -141q0 -134 -92 -247t-227 -142zM84 815q0 70 48 116t116 46q70 0 118 -45.5t48 -116.5q0 -68 -48 -112t-118 -44q-68 0 -116 44t-48 112
z" />
    <glyph glyph-name="less" unicode="&#x3c;" horiz-adv-x="1105" 
d="M119 664l799 366l14 -39l-723 -329l723 -330l-14 -39l-799 366v5z" />
    <glyph glyph-name="equal" unicode="=" horiz-adv-x="1105" 
d="M102 827v39h902v-39h-902zM102 461v39h902v-39h-902z" />
    <glyph glyph-name="greater" unicode="&#x3e;" horiz-adv-x="1105" 
d="M188 1030l799 -366v-5l-799 -366l-14 39l721 330l-721 329z" />
    <glyph glyph-name="question" unicode="?" horiz-adv-x="937" 
d="M944 1130q0 -151 -162 -284q-29 -23 -120 -89t-111 -83q-54 -45 -72.5 -85.5t-15.5 -113.5l-4 -2q-88 29 -134 82.5t-46 122.5q0 53 27.5 100t78.5 99l53 52q53 52 68 68q90 100 90 209q0 94 -52 153.5t-126 59.5h-27q-43 0 -57 -33l-176 -413h-4l-160 370q110 51 242 84
t249 33q219 0 339 -89t120 -241zM268 139q0 71 47.5 116.5t114.5 45.5q70 0 118 -45.5t48 -116.5q0 -68 -48 -111.5t-118 -43.5q-67 0 -114.5 43.5t-47.5 111.5z" />
    <glyph glyph-name="at" unicode="@" horiz-adv-x="2056" 
d="M1954 662q0 -134 -41 -257.5t-112.5 -216.5t-174 -148.5t-219.5 -55.5q-136 0 -223.5 71.5t-87.5 204.5q0 34 6 72l-6 2q-57 -163 -141.5 -256.5t-194.5 -93.5q-101 0 -171.5 82t-70.5 233q0 186 73 355t197 272.5t263 103.5q140 0 204 -92l320 94l4 -4l-166 -659
q-27 -118 -27 -174q0 -150 117 -150q65 0 136.5 46t133 125t102 198.5t40.5 251.5q0 209 -100 376t-282.5 262t-416.5 95q-200 0 -379 -76.5t-310 -208.5t-207.5 -320t-76.5 -401q0 -157 47 -290.5t128.5 -229.5t191 -163.5t236 -100.5t262.5 -33q261 0 516 156l18 -33
q-252 -162 -538 -162q-138 0 -267.5 32.5t-245.5 101.5t-202 168t-136.5 241.5t-50.5 312.5q0 223 80.5 418.5t217.5 332t324.5 215.5t395.5 79q187 0 344.5 -60t264 -164.5t166 -246.5t59.5 -305zM1094 391q10 24 74.5 254t74.5 273q-19 28 -69 28q-64 0 -117 -48t-90 -120
q-54 -106 -89.5 -247.5t-35.5 -264.5q0 -116 71 -116q41 0 89 67t92 174z" />
    <glyph glyph-name="A" unicode="A" horiz-adv-x="1343" 
d="M301 502l-53 -164q-7 -25 -5 -35.5t21 -36.5l182 -262v-4h-485v4l197 262q23 29 30.5 42.5t16.5 43.5l284 873q10 29 8 40t-20 31l-121 140v4h482l383 -1215q9 -30 41 -84l86 -137v-4h-607v4l99 137q15 20 4 56l-96 305h-447zM528 1206l-215 -663h422z" />
    <glyph glyph-name="B" unicode="B" horiz-adv-x="1380" 
d="M31 1440h733q244 0 380 -82.5t136 -247.5q0 -154 -113 -243t-311 -107v-4q211 -5 340 -97.5t129 -255.5q0 -191 -141 -297t-385 -106h-768v4l137 129q12 12 15 20.5t3 28.5v1075q0 21 -3 29.5t-15 20.5l-137 129v4zM657 729h-100v-647q0 -29 8 -35t41 -6h58
q137 0 200.5 89t63.5 261q0 168 -64.5 253t-206.5 85zM557 1358v-588h98q116 0 177 85t61 239q0 140 -59.5 222.5t-169.5 82.5h-70q-23 0 -30 -7.5t-7 -33.5z" />
    <glyph glyph-name="C" unicode="C" horiz-adv-x="1296" 
d="M1200 1421v-503h-4l-311 471q-12 20 -25 26t-43 6h-29q-85 0 -146 -49.5t-96.5 -144.5t-52 -220.5t-16.5 -289.5q0 -166 17.5 -292t54.5 -218.5t98.5 -140.5t145.5 -48h22q30 0 43 5.5t25 23.5l313 483h4v-514q-193 -36 -436 -36q-180 0 -316.5 52.5t-222 150t-128 231.5
t-42.5 303q0 344 182.5 543.5t518.5 199.5q232 0 444 -39z" />
    <glyph glyph-name="D" unicode="D" horiz-adv-x="1474" 
d="M31 0v4l137 129q12 12 15 20.5t3 28.5v1075q0 21 -3 29.5t-15 20.5l-137 129v4h684q348 0 528 -183t180 -505q0 -357 -195.5 -554.5t-551.5 -197.5h-645zM600 41h43q194 0 277.5 168.5t83.5 513.5q0 339 -81.5 507.5t-265.5 168.5h-65q-22 0 -28.5 -6.5t-6.5 -32.5v-1278
q0 -28 7 -34.5t36 -6.5z" />
    <glyph glyph-name="E" unicode="E" horiz-adv-x="1243" 
d="M1128 1440v-496h-4l-264 422q-12 20 -23 26.5t-34 6.5h-211q-22 0 -28.5 -7t-6.5 -34v-617h139q20 2 30 6.5t24 22.5l184 213h4v-522h-4l-184 213q-15 17 -25 21.5t-31 4.5h-137v-618q0 -27 6.5 -34t28.5 -7h235q27 0 39.5 5.5t22.5 23.5l254 434h4v-504h-1116v4l137 129
q12 12 15 20.5t3 28.5v1075q0 21 -3 29.5t-15 20.5l-137 129v4h1097z" />
    <glyph glyph-name="F" unicode="F" horiz-adv-x="1177" 
d="M1128 1440v-496h-4l-264 422q-12 20 -23 26.5t-34 6.5h-211q-22 0 -28.5 -6.5t-6.5 -32.5v-619h139q20 2 30 6.5t24 22.5l184 213h4v-522h-4l-184 213q-15 17 -25 21.5t-31 4.5h-137v-505q0 -19 4 -27.5t19 -20.5l188 -143v-4h-737v4l137 129q12 12 15 20.5t3 28.5v1075
q0 21 -3 29.5t-15 20.5l-137 129v4h1097z" />
    <glyph glyph-name="G" unicode="G" horiz-adv-x="1417" 
d="M1237 1413v-502h-4l-320 478q-12 20 -23.5 26t-39.5 6h-35q-92 0 -158.5 -47.5t-105.5 -139.5t-56.5 -213t-17.5 -280q0 -260 33.5 -418t97.5 -226t166 -68q57 0 103 18q11 6 14.5 12.5t3.5 20.5v364q0 24 -3 33.5t-15 24.5l-115 131v4h637v-4l-115 -131
q-12 -15 -15 -24.5t-3 -33.5v-464l-312 55q-129 -55 -268 -55q-291 0 -462 197t-171 542q0 340 188 540.5t527 200.5q256 0 469 -47z" />
    <glyph glyph-name="H" unicode="H" horiz-adv-x="1589" 
d="M1403 1257v-1075q0 -20 3 -28.5t15 -20.5l135 -129v-4h-679v4l135 129q13 13 16.5 21.5t3.5 27.5v535h-475v-535q0 -20 3.5 -28.5t17.5 -20.5l135 -129v-4h-682v4l137 129q12 12 15 20.5t3 28.5v1075q0 21 -3 29.5t-15 20.5l-137 129v4h682v-4l-135 -129
q-14 -12 -17.5 -21t-3.5 -29v-499h475v499q0 21 -3.5 29.5t-16.5 20.5l-135 129v4h679v-4l-135 -129q-12 -12 -15 -20.5t-3 -29.5z" />
    <glyph glyph-name="I" unicode="I" horiz-adv-x="745" 
d="M557 182q0 -20 3.5 -28.5t17.5 -20.5l135 -129v-4h-682v4l137 129q12 12 15 20.5t3 28.5v1075q0 21 -3 29.5t-15 20.5l-137 129v4h682v-4l-135 -129q-14 -12 -17.5 -21t-3.5 -29v-1075z" />
    <glyph glyph-name="J" unicode="J" horiz-adv-x="686" 
d="M158 121v1136q0 20 -3.5 29t-17.5 21l-135 129v4h682v-4l-135 -129q-14 -12 -17.5 -21t-3.5 -29v-1015q0 -309 -165.5 -486.5t-479.5 -187.5l-2 4q277 141 277 549z" />
    <glyph glyph-name="K" unicode="K" horiz-adv-x="1454" 
d="M557 1257v-1075q0 -20 3.5 -28.5t17.5 -20.5l135 -129v-4h-682v4l137 129q12 12 15 20.5t3 28.5v1075q0 21 -3 29.5t-15 20.5l-137 129v4h682v-4l-135 -129q-14 -12 -17.5 -21t-3.5 -29zM1309 195q26 -44 61 -76l119 -115v-4h-490l-426 702l428 465q17 20 16.5 28.5
t-16.5 31.5l-155 209v4h635v-4l-340 -213q-43 -27 -60 -40t-45 -42l-188 -199z" />
    <glyph glyph-name="L" unicode="L" horiz-adv-x="1189" 
d="M186 182v1075q0 21 -3 29.5t-15 20.5l-137 129v4h682v-4l-135 -129q-14 -12 -17.5 -21t-3.5 -29v-1175q0 -27 6.5 -34t28.5 -7h192q26 0 37.5 6t22.5 23l284 462h5v-532h-1102v4l137 129q12 12 15 20.5t3 28.5z" />
    <glyph glyph-name="M" unicode="M" horiz-adv-x="1820" 
d="M1632 182q0 -20 3.5 -28.5t17.5 -20.5l135 -129v-4h-682v4l137 129q12 12 15.5 20.5t3.5 28.5v824q0 60 6 122l-463 -1144h-4l-479 1052q-36 80 -39 90v-782q0 -24 4 -34t22 -34l207 -272v-4h-510v4l207 272q19 25 23 35t4 33v811q0 25 -3 34t-16 25l-168 222v4h490
l428 -934l377 934h440v-4l-135 -150q-14 -14 -17.5 -22t-3.5 -29v-1053z" />
    <glyph glyph-name="N" unicode="N" horiz-adv-x="1447" 
d="M1243 0h-250l-706 1094v-750q0 -22 4 -31.5t20 -31.5l211 -277v-4h-510v4l205 275q18 23 22.5 33t4.5 32v774q0 39 -19 66l-205 252v4h484l696 -1082v738q0 24 -3.5 34t-20.5 31l-209 275v4h510v-4l-207 -275q-3 -4 -8 -11t-6.5 -9.5l-4.5 -7.5t-4 -8t-2 -7.5t-1.5 -9.5
t-0.5 -12v-1096z" />
    <glyph glyph-name="O" unicode="O" horiz-adv-x="1499" 
d="M750 18q89 0 148 69t91.5 226.5t32.5 407.5t-32.5 407t-91.5 225t-148 68t-148.5 -68t-92 -225t-32.5 -407t32.5 -407.5t92 -226.5t148.5 -69zM750 1460q329 0 511.5 -189.5t182.5 -551.5q0 -360 -182.5 -549.5t-511.5 -189.5t-512 189.5t-183 549.5q0 362 183 551.5
t512 189.5z" />
    <glyph glyph-name="P" unicode="P" horiz-adv-x="1333" 
d="M690 535h-133v-338q0 -21 4 -30.5t19 -21.5l192 -141v-4h-741v4l137 129q12 12 15 20.5t3 28.5v1075q0 21 -3 29.5t-15 20.5l-137 129v4h710q90 0 169 -13t152.5 -45t125.5 -80.5t83.5 -124t31.5 -171.5q0 -158 -79.5 -265.5t-214.5 -156.5t-319 -49zM557 1360v-785h94
q124 0 194 112.5t70 307.5q0 184 -64.5 294t-178.5 110h-78q-24 0 -30.5 -6.5t-6.5 -32.5z" />
    <glyph glyph-name="Q" unicode="Q" horiz-adv-x="1499" 
d="M1094 -483q-125 0 -293 51l-412 123q-92 28 -151 28q-54 0 -70 -2l-2 4l326 293q-210 64 -323.5 243t-113.5 462q0 362 183 551.5t512 189.5t511.5 -189.5t182.5 -551.5q0 -360 -182.5 -549.5t-511.5 -189.5q-116 0 -215 24l-72 -63l459 -123q148 -41 274 -41
q109 0 211 51l90 45l4 -2l-92 -164q-109 -190 -315 -190zM750 18q89 0 148 69t91.5 226.5t32.5 407.5t-32.5 407t-91.5 225t-148 68t-148.5 -68t-92 -225t-32.5 -407t32.5 -407.5t92 -226.5t148.5 -69z" />
    <glyph glyph-name="R" unicode="R" horiz-adv-x="1425" 
d="M664 672h-107v-492q0 -20 3.5 -28.5t17.5 -20.5l137 -127v-4h-684v4l137 129q12 12 15 20.5t3 28.5v1075q0 21 -3 29.5t-15 20.5l-137 129v4h790q98 0 181 -20.5t150.5 -63t105.5 -115.5t38 -170q0 -164 -117.5 -262t-330.5 -113v-4l264 -78l186 -442q14 -36 56 -78
l88 -90v-4h-479l-254 647q-5 9 -8.5 13.5t-12.5 8t-24 3.5zM557 1360v-647h107q237 0 237 336q0 350 -229 350h-78q-24 0 -30.5 -6.5t-6.5 -32.5z" />
    <glyph glyph-name="S" unicode="S" horiz-adv-x="1159" 
d="M1114 446q0 -210 -157 -338t-416 -128q-96 0 -212 15t-208 42v489h4l270 -467q11 -20 19 -26.5t26 -9.5q39 -5 86 -5q127 0 203 62t76 174q0 96 -64 155t-219 132l-63 30q-64 30 -110.5 56.5t-101 69t-89 87.5t-57.5 109.5t-23 138.5q0 195 144.5 311.5t387.5 116.5
q202 0 394 -47v-467h-5l-276 443q-10 15 -18 20t-23 8q-23 4 -59 4q-109 0 -176.5 -60t-67.5 -165q0 -38 12.5 -71t32 -57.5t55.5 -50t70.5 -44t89.5 -45.5l76 -37q55 -26 91 -45t82 -46.5t75.5 -51.5t61 -57.5t49 -68.5t29 -80t11.5 -96z" />
    <glyph glyph-name="T" unicode="T" horiz-adv-x="1298" 
d="M834 197q0 -23 3.5 -32t18.5 -22l152 -139v-4h-717v4l151 139q15 15 19 23.5t4 30.5v1202h-117q-25 0 -33.5 -5.5t-19.5 -27.5l-252 -479h-4v553h1221v-553h-5l-251 479q-10 22 -19.5 27.5t-34.5 5.5h-116v-1202z" />
    <glyph glyph-name="U" unicode="U" horiz-adv-x="1378" 
d="M715 -20q-292 0 -424.5 117t-132.5 392v766q0 20 -3.5 29t-17.5 21l-123 131v4h662v-4l-127 -131q-14 -12 -17.5 -21t-3.5 -29v-743q0 -243 78.5 -349t235.5 -106q148 0 229.5 116.5t81.5 346.5v576q0 24 -4.5 35t-22.5 32l-200 273v4h497v-4l-200 -273
q-18 -21 -22.5 -32t-4.5 -35v-572q0 -267 -112.5 -405.5t-368.5 -138.5z" />
    <glyph glyph-name="V" unicode="V" horiz-adv-x="1292" 
d="M494 1298q-16 -24 -7 -53l324 -1018l270 871q7 25 4.5 36.5t-20.5 36.5l-182 265v4h483v-4l-195 -260q-22 -28 -30 -43t-17 -46l-338 -1087h-286l-389 1214q-13 41 -41 84l-86 138v4h608v-4z" />
    <glyph glyph-name="W" unicode="W" horiz-adv-x="2080" 
d="M1288 0l-252 819l-260 -819h-287l-378 1214q-9 30 -41 84l-86 138v4h606v-4l-98 -138q-15 -21 -5 -53l314 -1016l213 666l-99 319q-11 38 -34 78l-80 144v4h596v-4l-99 -138q-16 -23 -6 -53l307 -1014l269 867q7 25 4.5 37.5t-19.5 35.5l-184 265v4h485v-4l-194 -260
q-23 -30 -31.5 -45t-17.5 -44l-336 -1087h-287z" />
    <glyph glyph-name="X" unicode="X" horiz-adv-x="1454" 
d="M1272 225q12 -18 61 -73l133 -148v-4h-696v4l96 125q12 16 13 25t-11 28l-252 391l-198 -268q-17 -23 -18.5 -33.5t10.5 -29.5l149 -238v-4h-565v4l287 225q27 22 39 32.5t30.5 30.5t38.5 46l203 272l-387 604q-22 34 -62 74l-133 148v4h697v-4l-97 -125q-13 -14 -13 -24
t11 -30l230 -358l176 236q18 22 18.5 33.5t-10.5 29.5l-152 238v4h568v-4l-287 -226q-61 -47 -86 -77q-12 -14 -25 -31l-178 -240z" />
    <glyph glyph-name="Y" unicode="Y" horiz-adv-x="1310" 
d="M850 547v-350q0 -23 3.5 -32t18.5 -22l150 -139v-4h-715v4l152 139q14 14 17 22.5t3 31.5v315q0 32 -12 51l-338 647q-23 45 -55 88l-103 138v4h688v-4l-122 -142q-13 -15 -15 -22t6 -27l299 -602l236 481q10 24 9 33.5t-15 30.5l-176 248v4h512v-4l-232 -248
q-33 -33 -55 -76l-240 -487q-16 -33 -16 -78z" />
    <glyph glyph-name="Z" unicode="Z" horiz-adv-x="1284" 
d="M1192 0h-1169v4l811 1395h-375q-27 0 -37 -4t-19 -21l-292 -483h-5v549h1147v-4l-813 -1395h396q27 0 36.5 4t18.5 21l297 481h4v-547z" />
    <glyph glyph-name="bracketleft" unicode="[" horiz-adv-x="745" 
d="M385 1313v-1428q0 -19 4 -25t21 -10l315 -108v-4l-561 -25v1772l561 -25v-4l-315 -108q-17 -4 -21 -10t-4 -25z" />
    <glyph glyph-name="backslash" unicode="\" horiz-adv-x="778" 
d="M674 -315l-608 1814l38 12l609 -1814z" />
    <glyph glyph-name="bracketright" unicode="]" horiz-adv-x="745" 
d="M362 -115v1428q0 19 -3.5 25t-20.5 10l-318 108v4l562 25v-1772l-562 25v4l318 108q17 4 20.5 10t3.5 25z" />
    <glyph glyph-name="asciicircum" unicode="^" horiz-adv-x="1105" 
d="M920 662l-37 -19l-332 725l-332 -725l-37 19l367 798h4z" />
    <glyph glyph-name="underscore" unicode="_" horiz-adv-x="1024" 
d="M1014 -186h-1004v39h1004v-39z" />
    <glyph glyph-name="grave" unicode="`" horiz-adv-x="694" 
d="M102 1440h328l162 -338l-2 -2l-488 336v4z" />
    <glyph glyph-name="a" unicode="a" 
d="M934 616q0 -12 -1 -42t-1 -31l-12 -291q-6 -119 55 -119q39 0 57 37h4q0 -41 -16 -74q-25 -52 -77 -82t-124 -30q-92 0 -155.5 52.5t-67.5 145.5q-31 -90 -105.5 -144t-173.5 -54q-118 0 -198 76.5t-80 211.5q0 73 30 133.5t79.5 98t110 58t124.5 20.5q138 0 217 -56
l4 219v11q0 235 -149 235q-31 0 -39 -3.5t-17 -20.5l-166 -308h-4l-129 293q218 78 414 78q218 0 317 -94q103 -95 103 -320zM524 518q-77 0 -121.5 -59.5t-44.5 -151.5q0 -83 33.5 -128.5t87.5 -45.5q33 0 64.5 20t52.5 52v2l4 299q-38 12 -76 12z" />
    <glyph glyph-name="b" unicode="b" horiz-adv-x="1187" 
d="M436 1493v-688q102 225 320 225q177 0 281 -140.5t104 -373.5q0 -236 -127 -384t-332 -148q-172 0 -254 110l-324 -110h-4v1306q0 21 -3 30t-15 21l-98 95v4zM590 866q-90 0 -154 -88v-661q45 -45 119 -45q51 0 90.5 20t72.5 66.5t50.5 134.5t17.5 213q0 360 -196 360z
" />
    <glyph glyph-name="c" unicode="c" horiz-adv-x="964" 
d="M518 -16q-94 0 -178 32t-151.5 93t-107.5 161t-40 226q0 115 31.5 207t84 152t124 100.5t147.5 57.5t158 17q165 0 348 -61l-131 -353h-4l-158 351q-6 15 -12.5 19.5t-24.5 4.5h-10q-95 0 -145 -100.5t-50 -296.5q0 -113 23.5 -196.5t63.5 -130.5t87.5 -69t102.5 -22
q81 0 145.5 44t106.5 124h4q-27 -169 -133.5 -264.5t-280.5 -95.5z" />
    <glyph glyph-name="d" unicode="d" horiz-adv-x="1222" 
d="M1085 1493v-1339q0 -21 3 -29.5t16 -20.5l102 -100v-4h-454v193q-45 -104 -123 -156.5t-178 -52.5q-180 0 -292 137t-112 383q0 235 123.5 380.5t316.5 145.5q191 0 265 -164v424q0 20 -4 29.5t-17 21.5l-98 95v4zM608 137q84 0 144 78v633q-22 28 -58 45.5t-76 17.5
q-94 0 -155.5 -95t-61.5 -302q0 -197 56.5 -287t150.5 -90z" />
    <glyph glyph-name="e" unicode="e" 
d="M1004 553h-615v-4q0 -189 82.5 -282t210.5 -93q99 0 180.5 46t130.5 142h4q-78 -378 -452 -378q-100 0 -188 31t-159.5 91.5t-113 162t-41.5 231.5q0 137 41.5 241.5t114 166t163 92t195.5 30.5q68 0 130 -13t121.5 -44.5t102.5 -79.5t69 -123.5t26 -171.5q0 -20 -2 -45z
M553 991q-80 0 -120.5 -92.5t-43.5 -308.5h301q2 27 2 61q0 130 -18 207t-47 105t-74 28z" />
    <glyph glyph-name="f" unicode="f" horiz-adv-x="702" 
d="M741 973h-249v-813q0 -21 4.5 -29.5t25.5 -21.5l152 -105v-4h-635v4l100 94q12 12 15.5 20.5t3.5 28.5v826h-109v41h109q0 236 100.5 341t294.5 105q163 0 324 -45l-129 -307h-5l-143 289q-9 18 -15 22t-20 4q-38 0 -55.5 -43t-17.5 -147v-219h249v-41z" />
    <glyph glyph-name="g" unicode="g" horiz-adv-x="1075" 
d="M70 690q0 168 121 254t319 86q176 0 281 -57q13 -8 21.5 -6.5t21.5 16.5l213 225l4 -2v-307h-193q105 -84 105 -221q0 -161 -122.5 -240.5t-324.5 -79.5q-94 0 -166 17q-63 -23 -63 -76q0 -42 53.5 -66t155.5 -24h190q179 0 273 -68t94 -204q0 -124 -76 -220t-207.5 -148
t-294.5 -52q-106 0 -199 21.5t-157 70t-64 115.5q0 66 58.5 116t179.5 68q-106 23 -164.5 82.5t-58.5 140.5q0 90 69 156t189 94q-121 31 -189.5 107.5t-68.5 201.5zM383 -102q-45 3 -72 8q-82 -50 -82 -131q0 -98 94 -156.5t222 -58.5q78 0 144.5 20.5t111.5 66.5t45 109
t-44 96t-153 37zM385 696q0 -164 32.5 -233.5t98.5 -69.5t98.5 69t32.5 232t-32 232t-99 69t-99 -69t-32 -230z" />
    <glyph glyph-name="h" unicode="h" horiz-adv-x="1234" 
d="M1116 598q0 -74 -3 -244.5t-3 -206.5q0 -21 3.5 -29t16.5 -20l101 -94v-4h-574v4l97 94q13 12 16.5 20.5t3.5 26.5q0 7 3 178t3 228q0 153 -33.5 231t-121.5 78q-90 0 -154 -92v-621q0 -20 3.5 -28.5t17.5 -20.5l100 -94v-4h-574v4l101 94q12 12 15 20.5t3 28.5v1143
q0 21 -3 30t-15 21l-101 95v4l453 53v-702q39 114 121 176.5t205 62.5q156 0 237.5 -110t81.5 -322z" />
    <glyph glyph-name="i" unicode="i" horiz-adv-x="634" 
d="M322 1126q-68 0 -116 42.5t-48 109.5q0 71 48 115.5t116 44.5q71 0 118 -44t47 -116q0 -68 -47.5 -110t-117.5 -42zM41 1014h455v-867q0 -22 2.5 -30t15.5 -19l100 -94v-4h-573v4l100 94q13 12 16 20t3 29v709q0 20 -3.5 28.5t-15.5 22.5l-100 103v4z" />
    <glyph glyph-name="j" unicode="j" horiz-adv-x="591" 
d="M485 76q0 -258 -133 -399t-379 -142q-20 0 -30 2v4q207 43 207 420v895q0 20 -3.5 28.5t-15.5 22.5l-100 103v4h454v-938zM145 1278q0 71 49 115.5t117 44.5q71 0 118.5 -44t47.5 -116q0 -68 -47.5 -110t-118.5 -42q-68 0 -117 42.5t-49 109.5z" />
    <glyph glyph-name="k" unicode="k" horiz-adv-x="1169" 
d="M784 688l275 -541q17 -33 47 -63l86 -80v-4h-434l-228 483q-11 25 -36 25q-12 0 -23 -8v-353q0 -20 3.5 -28.5t17.5 -20.5l100 -94v-4h-574v4l101 94q12 12 15 20.5t3 28.5v1143q0 21 -3 30t-15 21l-101 95v4l453 53v-971l332 248q22 17 4 41l-139 199v4h501v-4
l-374 -285q-21 -15 -11 -37z" />
    <glyph glyph-name="l" unicode="l" horiz-adv-x="610" 
d="M471 1493v-1346q0 -20 3.5 -28.5t17.5 -20.5l100 -94v-4h-574v4l101 94q12 12 15 20.5t3 28.5v1143q0 21 -3 30t-15 21l-101 95v4z" />
    <glyph glyph-name="m" unicode="m" horiz-adv-x="1896" 
d="M1778 598q0 -79 -3 -247.5t-3 -203.5q0 -21 3.5 -29t16.5 -20l100 -94v-4h-573v4l96 94q21 21 21 47q0 8 3 178.5t3 227.5q0 74 -7 127t-23.5 96t-48.5 64.5t-79 21.5q-94 0 -162 -88q19 -81 19 -174q0 -74 -3 -244.5t-3 -206.5q0 -20 3 -28.5t15 -20.5l102 -94v-4h-575
v4l98 94q19 19 19 47q0 7 3 178t3 228q0 153 -33.5 231t-122.5 78q-88 0 -151 -90v-623q0 -22 2.5 -30t15.5 -19l100 -94v-4h-573v4l100 94q13 12 16 20t3 29v709q0 20 -3.5 28.5t-15.5 22.5l-100 103v4h455v-217q39 110 121.5 171.5t203.5 61.5q114 0 189.5 -61.5
t107.5 -180.5q37 106 127.5 174t214.5 68q153 0 235.5 -110.5t82.5 -321.5z" />
    <glyph glyph-name="n" unicode="n" horiz-adv-x="1259" 
d="M1141 598q0 -74 -3 -244.5t-3 -206.5q0 -20 3 -28.5t15 -20.5l102 -94v-4h-575v4l98 94q19 19 19 47q0 7 3 178t3 228q0 153 -33.5 231t-122.5 78q-88 0 -151 -90v-623q0 -22 2.5 -30t15.5 -19l100 -94v-4h-573v4l100 94q13 12 16 20t3 29v709q0 20 -3.5 28.5t-15.5 22.5
l-100 103v4h455v-217q39 110 121.5 171.5t203.5 61.5q155 0 237.5 -110.5t82.5 -321.5z" />
    <glyph glyph-name="o" unicode="o" horiz-adv-x="1169" 
d="M584 991q-41 0 -69.5 -20t-51.5 -72t-34 -149t-11 -242t11 -242.5t34 -150t51.5 -74t69.5 -21.5q55 0 89 37t55.5 147t21.5 302q0 145 -11 242t-34 149t-51.5 73t-69.5 21zM584 -16q-249 0 -394 134.5t-145 389.5q0 253 145 387.5t394 134.5t394.5 -134.5t145.5 -389.5
q0 -253 -145.5 -387.5t-394.5 -134.5z" />
    <glyph glyph-name="p" unicode="p" horiz-adv-x="1220" 
d="M135 -319v1175q0 20 -3 29t-15 22l-101 103v4h453v-217q101 233 317 233q172 0 280 -136.5t108 -365.5q0 -244 -123 -394t-312 -150q-210 0 -270 155v-446q0 -21 5 -29.5t26 -21.5l151 -105v-4h-635v4l101 94q12 12 15 20.5t3 29.5zM623 866q-89 0 -154 -96v-616
q49 -52 133 -52q89 0 153 101.5t64 308.5q0 181 -51.5 267.5t-144.5 86.5z" />
    <glyph glyph-name="q" unicode="q" horiz-adv-x="1187" 
d="M752 -307v512q-94 -221 -314 -221q-162 0 -276.5 141.5t-114.5 374.5q0 246 126.5 388t315.5 142q173 0 265 -125l331 125v-1349q0 -20 3.5 -29t15.5 -21l94 -94v-4h-629v4l152 105q22 15 26.5 23t4.5 28zM608 145q78 0 144 84v656q-61 43 -125 43q-44 0 -82 -20.5
t-71.5 -65.5t-53 -128t-19.5 -196q0 -182 54 -277.5t153 -95.5z" />
    <glyph glyph-name="r" unicode="r" horiz-adv-x="876" 
d="M899 963l-113 -322h-4l-161 193q-19 23 -37 10q-38 -27 -88 -119v-553q0 -13 1.5 -20t8 -14.5t20.5 -16.5l201 -117v-4h-686v4l100 94q13 12 16 20t3 29v709q0 20 -3.5 28.5t-15.5 22.5l-100 103v4h455v-262q29 120 96.5 199t167.5 79q88 0 139 -67z" />
    <glyph glyph-name="s" unicode="s" horiz-adv-x="933" 
d="M610 170q0 59 -42.5 94t-153.5 86l-140 66q-198 93 -198 291q0 147 113 235t307 88q182 0 360 -55l-115 -297h-4l-159 285q-10 17 -19 23.5t-29 6.5h-28q-72 0 -119 -37t-47 -106q0 -63 44 -102.5t144 -83.5l131 -58q53 -23 90 -46t70.5 -56t50.5 -78t17 -102
q0 -162 -125 -251t-334 -89q-197 0 -377 63l113 318h4l164 -318q14 -27 43 -27h47q88 0 140 41.5t52 108.5z" />
    <glyph glyph-name="t" unicode="t" horiz-adv-x="692" 
d="M709 1014v-41h-252v-684q0 -69 28.5 -107.5t79.5 -38.5q38 0 69 21.5t50 54.5l4 -2q-17 -98 -90.5 -165.5t-208.5 -67.5q-266 0 -266 280v709h-113v41h92q28 0 39 3t25 19l287 322h4v-344h252z" />
    <glyph glyph-name="u" unicode="u" horiz-adv-x="1218" 
d="M1079 1014v-858q0 -22 3 -31.5t16 -20.5l102 -100v-4h-457v219q-40 -108 -121 -171.5t-192 -63.5q-152 0 -231.5 108.5t-79.5 317.5q0 116 4 448q0 20 -3.5 28.5t-15.5 20.5l-100 103v4h453l-1 -270q-1 -271 -1 -287q0 -73 6 -125t21 -94.5t43.5 -64t70.5 -21.5
q84 0 147 92v612q0 20 -3 29t-15 22l-100 103v4h454z" />
    <glyph glyph-name="v" unicode="v" horiz-adv-x="964" 
d="M819 678l-229 -678h-234l-268 778q-23 69 -43 109l-63 123v4h512v-4l-70 -117q-9 -16 -10.5 -24t4.5 -27l205 -619l157 461q9 33 7.5 42t-13.5 36l-121 248v4h353v-4l-140 -240q-37 -60 -47 -92z" />
    <glyph glyph-name="w" unicode="w" horiz-adv-x="1583" 
d="M1624 1010l-139 -240q-32 -53 -45 -92l-234 -678h-229l-197 569l-196 -569h-232l-264 778q-26 75 -43 109l-63 123v4h510v-4l-70 -117q-9 -16 -10.5 -24t4.5 -27l202 -621l142 410l-49 147q-20 63 -43 109l-64 123v4h510v-4l-70 -117q-9 -16 -10.5 -24t4.5 -27l205 -619
l156 461q9 31 8 41t-14 37l-119 248v4h350v-4z" />
    <glyph glyph-name="x" unicode="x" horiz-adv-x="1034" 
d="M631 608l295 -440q4 -5 57 -72l80 -92v-4h-559v4l78 94q11 17 10 25t-12 27l-158 233l-127 -158q-17 -22 -18 -30.5t12 -30.5l104 -160v-4h-411v4l217 182q47 39 86 88l114 142l-284 426q-22 35 -62 78l-76 90v4h558v-4l-78 -97q-12 -14 -11 -22.5t13 -26.5l149 -223
l117 147q17 22 18 31t-12 29l-104 162v4h413v-4l-219 -183q-39 -32 -86 -88z" />
    <glyph glyph-name="y" unicode="y" horiz-adv-x="974" 
d="M836 674l-263 -635q-82 -193 -176 -340q-63 -99 -127.5 -140.5t-156.5 -41.5q-50 0 -97 20l76 359h4l203 -201q17 -17 25 -17q13 0 30 25q43 59 78 141l12 33l-381 967q-10 27 -30 67l-56 99v4h531v-4l-82 -113q-15 -20 -4 -47l207 -574l166 404q11 27 11.5 38.5
t-11.5 37.5l-125 254v4h350v-4l-133 -230q-27 -44 -51 -106z" />
    <glyph glyph-name="z" unicode="z" horiz-adv-x="972" 
d="M913 444h7l-25 -444h-868v4l546 971h-184q-27 0 -35 -4.5t-22 -26.5l-246 -358h-8v428h862v-4l-530 -971h194q28 0 36 4.5t22 26.5z" />
    <glyph glyph-name="braceleft" unicode="{" horiz-adv-x="722" 
d="M467 825q6 -87 -49 -145.5t-156 -79.5v-2q101 -21 156 -79t49 -144l-27 -359q-3 -39 3.5 -78t25.5 -77.5t48 -68t77 -47.5t108 -17v-4q-77 -15 -131 -15q-72 0 -138.5 22t-120.5 64t-83.5 113.5t-23.5 161.5l28 372q4 59 -42 103t-119 53v2q73 9 119 53t42 103l-28 372
q-6 90 23.5 161.5t83.5 113.5t120.5 64t138.5 22q59 0 131 -14v-5q-60 2 -108 -16t-77 -47.5t-48 -68t-25.5 -77.5t-3.5 -77z" />
    <glyph glyph-name="bar" unicode="|" horiz-adv-x="450" 
d="M246 -512h-41v2048h41v-2048z" />
    <glyph glyph-name="braceright" unicode="}" horiz-adv-x="722" 
d="M516 1128l-27 -372q-3 -59 43 -103t119 -53v-2q-73 -9 -119.5 -53t-42.5 -103l27 -372q6 -90 -23 -161.5t-83 -113.5t-120 -64t-138 -22q-55 0 -132 15v4q74 -1 129.5 26t84 71t41 93t8.5 98l-29 359q-7 86 49 144t158 79v2q-102 21 -158 80t-49 145l29 359q3 38 -3.5 77
t-25.5 77.5t-49 68t-77.5 47.5t-107.5 16v5q72 14 132 14q72 0 138 -22t120 -64t83 -113.5t23 -161.5z" />
    <glyph glyph-name="asciitilde" unicode="~" horiz-adv-x="1030" 
d="M748 565q-62 0 -127 21t-111.5 46.5t-108.5 46.5t-118 21q-127 0 -199 -118l-33 20q82 137 232 137q61 0 126.5 -21t112 -46.5t108.5 -46.5t118 -21q122 0 196 121l35 -23q-82 -137 -231 -137z" />
    <glyph glyph-name="uni00A0" unicode="&#xa0;" horiz-adv-x="0" 
 />
    <glyph glyph-name="exclamdown" unicode="&#xa1;" horiz-adv-x="634" 
d="M76 -428l237 991h4l242 -991h-483zM152 872q0 68 48 112t115 44q70 0 118 -44t48 -112q0 -71 -48 -116t-118 -45q-68 0 -115.5 45.5t-47.5 115.5z" />
    <glyph glyph-name="cent" unicode="&#xa2;" horiz-adv-x="993" 
d="M596 -215h-39v201q-18 -2 -39 -2q-96 0 -180.5 32t-151 93.5t-105 161t-38.5 225.5q0 111 29 201.5t77.5 150t115.5 101t139.5 60.5t152.5 21v209h39v-209q174 -3 346 -57v-4l-137 -355h-4l-162 355q-6 13 -13 16.5t-30 5.5v-803q41 -12 82 -12q176 0 256 168h4
q-22 -147 -110 -240.5t-232 -113.5v-205zM360 592q0 -157 55 -253.5t142 -135.5v786q-84 -16 -140.5 -119t-56.5 -278z" />
    <glyph glyph-name="sterling" unicode="&#xa3;" horiz-adv-x="1222" 
d="M909 645v-39h-334q3 -15 3 -28q0 -70 -17.5 -122.5t-51 -85t-69 -51.5t-84.5 -34v-4h527q62 0 81.5 7t49.5 40l127 137h4l-60 -465h-1024v4l197 238q94 112 94 225q0 52 -41 139h-207v39h187q-7 13 -40 71t-46.5 85t-35 76.5t-30 93t-8.5 88.5q0 190 127.5 295.5
t368.5 105.5q244 0 446 -45l-37 -446h-4l-262 417q-10 16 -18 22t-27 7q-3 0 -18 1t-23 1q-57 0 -99 -23.5t-65 -65.5t-34 -93.5t-11 -114.5q0 -96 45.5 -257t52.5 -218h336z" />
    <glyph glyph-name="currency" unicode="&#xa4;" horiz-adv-x="1359" 
d="M678 246q-198 0 -330 114l-229 -229l-29 29l229 227q-126 129 -126 334q0 200 126 332l-229 231l27 29l231 -232q136 117 330 117t332 -119l231 232l27 -27l-232 -231q129 -132 129 -332q0 -196 -127 -330l230 -231l-27 -29l-231 231q-134 -116 -332 -116zM678 285
q190 0 318 120t128 316q0 195 -128.5 316.5t-317.5 121.5q-123 0 -223 -53.5t-159.5 -154t-59.5 -230.5q0 -197 126.5 -316.5t315.5 -119.5z" />
    <glyph glyph-name="yen" unicode="&#xa5;" horiz-adv-x="1335" 
d="M856 328v-131q0 -23 4 -31.5t19 -22.5l149 -139v-4h-715v4l152 139q14 14 17 22.5t3 31.5v131h-286v39h286v163h-286v39h270l-334 641q-23 45 -55 88l-103 138v4h689v-4l-123 -142q-13 -15 -14.5 -22t6.5 -27l299 -602l235 481q10 24 9 33.5t-15 30.5l-176 248v4h512v-4
l-232 -248q-16 -18 -19 -21.5t-11.5 -14.5t-13 -19t-11.5 -21l-240 -487q-16 -31 -16 -56h295v-39h-295v-163h295v-39h-295z" />
    <glyph glyph-name="brokenbar" unicode="&#xa6;" horiz-adv-x="450" 
d="M246 -512h-41v897h41v-897zM246 659h-41v877h41v-877z" />
    <glyph glyph-name="section" unicode="&#xa7;" horiz-adv-x="1107" 
d="M1024 578q0 -61 -28 -114t-72.5 -88.5t-95 -59t-101.5 -33.5q219 -149 219 -342q0 -148 -115 -235t-282 -87q-207 0 -350 39l106 387h4l172 -354q11 -22 23.5 -29.5t38.5 -7.5h20q76 0 126 44t50 109q0 66 -59 125.5t-188 135.5l-86 51q-179 105 -244.5 187t-65.5 198
q0 60 28 113t73.5 88.5t96 59t101.5 32.5q-221 148 -221 342q0 149 114.5 235t282.5 86q209 0 349 -39l-107 -385h-4l-170 353q-10 22 -22.5 29t-38.5 7h-21q-76 0 -126 -43t-50 -108t58.5 -122.5t189.5 -137.5l84 -51q180 -109 245.5 -190t65.5 -195zM614 655
q-157 98 -202 131q-37 -15 -66 -54t-29 -89t44.5 -99.5t144.5 -117.5q22 -15 107 -70t96 -63q37 18 65.5 56t28.5 89q0 99 -189 217z" />
    <glyph glyph-name="dieresis" unicode="&#xa8;" horiz-adv-x="892" 
d="M102 1272q0 59 41.5 98t100.5 39q58 0 98.5 -39t40.5 -98q0 -58 -40.5 -96.5t-98.5 -38.5q-59 0 -100.5 38.5t-41.5 96.5zM510 1272q0 59 40.5 98t98.5 39q59 0 100.5 -39t41.5 -98q0 -58 -41.5 -96.5t-100.5 -38.5q-58 0 -98.5 38.5t-40.5 96.5z" />
    <glyph glyph-name="copyright" unicode="&#xa9;" horiz-adv-x="1665" 
d="M86 719q0 220 100.5 390.5t269.5 260.5t375 90t375.5 -90t271 -260.5t101.5 -390.5q0 -166 -59 -306t-160.5 -234t-238 -146.5t-290.5 -52.5t-290 52.5t-237 146.5t-159.5 234t-58.5 306zM127 719q0 -157 55.5 -289.5t150.5 -222t224 -139.5t274 -50t274.5 50t225 139.5
t151.5 222t56 289.5q0 208 -96 369.5t-256 247t-355 85.5q-145 0 -274 -50.5t-224 -140.5t-150.5 -222.5t-55.5 -288.5zM709 719q0 -187 45 -289t129 -102h10q29 0 43 20l184 262h2v-295q-113 -22 -258 -22q-207 0 -312.5 114t-105.5 312q0 196 109.5 312t302.5 116
q150 0 264 -25v-284h-2l-184 256q-15 18 -39 18h-14q-84 0 -129 -105t-45 -288z" />
    <glyph glyph-name="ordfeminine" unicode="&#xaa;" horiz-adv-x="823" 
d="M307 1155q98 0 150 -35l4 148q1 75 -28.5 114t-86.5 39q-17 0 -23 -2.5t-12 -13.5l-104 -199h-4l-86 201q139 53 280 53q149 0 215 -63q74 -71 68 -248l-8 -219q-3 -80 41 -80q21 0 35 27h4q3 -26 -11 -54q-41 -73 -135 -73q-61 0 -104 33.5t-49 93.5q-22 -57 -73.5 -92
t-115.5 -35q-80 0 -134 51t-54 143q0 98 69.5 154.5t161.5 56.5zM375 856q47 0 78 43l4 197q-21 8 -54 8q-53 0 -82.5 -36.5t-29.5 -98.5q0 -55 23.5 -84t60.5 -29z" />
    <glyph glyph-name="guillemotleft" unicode="&#xab;" horiz-adv-x="954" 
d="M55 516l457 471l4 -2l-188 -471l188 -469l-4 -2l-457 469v4zM438 516l457 471l4 -2l-188 -471l188 -469l-4 -2l-457 469v4z" />
    <glyph glyph-name="logicalnot" unicode="&#xac;" horiz-adv-x="1105" 
d="M1020 223h-41v422h-903v39h944v-461z" />
    <glyph glyph-name="uni00AD" unicode="&#xad;" horiz-adv-x="718" 
d="M94 485v41h533v-41h-533z" />
    <glyph glyph-name="registered" unicode="&#xae;" horiz-adv-x="1665" 
d="M86 719q0 220 100.5 390.5t269.5 260.5t375 90t375.5 -90t271 -260.5t101.5 -390.5q0 -166 -59 -306t-160.5 -234t-238 -146.5t-290.5 -52.5t-290 52.5t-237 146.5t-159.5 234t-58.5 306zM127 719q0 -157 55.5 -289.5t150.5 -222t224 -139.5t274 -50t274.5 50t225 139.5
t151.5 222t56 289.5q0 208 -96 369.5t-256 247t-355 85.5q-145 0 -274 -50.5t-224 -140.5t-150.5 -222.5t-55.5 -288.5zM469 344l74 68q10 8 10 30v578q0 21 -10 31l-74 67v4h451q113 0 186.5 -48t73.5 -150q0 -89 -65 -142.5t-183 -62.5v-4l147 -41l107 -240q11 -22 33 -41
l55 -49v-4h-289l-133 350q-8 15 -25 15h-57v-263q0 -20 10 -30l74 -68v-4h-385v4zM770 1063v-326h61q117 0 117 170q0 180 -108 180h-43q-19 0 -23 -4.5t-4 -19.5z" />
    <glyph glyph-name="macron" unicode="&#xaf;" horiz-adv-x="780" 
d="M678 1212h-576v41h576v-41z" />
    <glyph glyph-name="degree" unicode="&#xb0;" horiz-adv-x="663" 
d="M72 1206q0 111 76 180.5t184 69.5q109 0 184.5 -69.5t75.5 -180.5q0 -108 -75.5 -175.5t-184.5 -67.5q-108 0 -184 68t-76 175zM115 1206q0 -88 65 -146.5t152 -58.5q89 0 153 58t64 147q0 92 -64 151.5t-153 59.5q-88 0 -152.5 -60t-64.5 -151z" />
    <glyph glyph-name="plusminus" unicode="&#xb1;" horiz-adv-x="1105" 
d="M102 748v38h430v328h41v-328h433v-38h-433v-330h-41v330h-430zM102 215v39h904v-39h-904z" />
    <glyph glyph-name="twosuperior" unicode="&#xb2;" horiz-adv-x="638" 
d="M324 1460q123 0 189.5 -45.5t66.5 -124.5q0 -49 -22.5 -88t-72.5 -73t-112 -61.5t-160 -61.5v-5h229q31 0 43 3.5t27 15.5l68 57h4l-37 -219h-512v4q39 36 100 97.5t72 74.5q6 7 33 37t35.5 40t30 36.5t30 41t20.5 37t16.5 41.5t4.5 38q0 125 -86 125q-35 0 -43 -17
l-96 -201h-5l-98 197q117 51 275 51z" />
    <glyph glyph-name="threesuperior" unicode="&#xb3;" horiz-adv-x="638" 
d="M596 1026q0 -76 -81 -127t-218 -51q-153 0 -260 39l115 205h4l73 -195q6 -16 27 -16h29q46 0 78 37t32 104q0 61 -40 96t-113 41v4q62 11 97.5 52t35.5 104q0 54 -22 82.5t-58 28.5h-16q-23 0 -31 -17l-94 -190h-4l-99 186q123 51 268 51q127 0 191.5 -38.5t64.5 -108.5
q0 -108 -178 -139v-5q90 -5 144.5 -43t54.5 -100z" />
    <glyph glyph-name="acute" unicode="&#xb4;" horiz-adv-x="694" 
d="M264 1440h328v-4l-486 -338l-4 4z" />
    <glyph glyph-name="mu" unicode="&#xb5;" horiz-adv-x="1232" 
d="M1094 1014v-862q0 -21 3 -29.5t15 -20.5l102 -98v-4h-456v219q-26 -78 -78.5 -132t-120.5 -73q-35 -10 -92 -14v-303q0 -21 5 -29.5t26 -23.5l151 -107v-4h-635v4l105 94q12 12 15 20.5t3 29.5v1181q0 20 -3 28.5t-15 20.5l-101 99v4h449v-604q0 -139 31 -205t112 -66
q89 0 148 107v614q0 20 -3.5 28.5t-15.5 20.5l-100 101v4h455z" />
    <glyph glyph-name="paragraph" unicode="&#xb6;" horiz-adv-x="1245" 
d="M131 713q0 151 34.5 274t93 206t139.5 139.5t172 82t192 25.5h328v-39h-162v-1364h162v-37h-162v-512h-41v512h-125q-101 0 -191.5 24t-172 78.5t-140 135.5t-93 202.5t-34.5 272.5zM756 37h131v1364h-131v-1364z" />
    <glyph glyph-name="periodcentered" unicode="&#xb7;" horiz-adv-x="495" 
d="M84 864q0 71 47.5 116.5t116.5 45.5t116.5 -45.5t47.5 -116.5q0 -67 -48 -111t-116 -44t-116 44t-48 111z" />
    <glyph glyph-name="cedilla" unicode="&#xb8;" horiz-adv-x="739" 
d="M610 -291q0 -85 -64.5 -138.5t-174.5 -53.5q-102 0 -178 53t-82 141l4 2q13 -41 44.5 -69.5t64 -39t63.5 -10.5q56 0 93.5 30t37.5 85t-38 85t-95 30q-40 0 -78 -14l-2 4l151 180h4l-16 -117q111 21 188.5 -30.5t77.5 -137.5z" />
    <glyph glyph-name="onesuperior" unicode="&#xb9;" horiz-adv-x="544" 
d="M532 862v-4h-483v4l129 62q12 6 12 20v375q0 14 -12 16l-139 41v4l352 90v-526q0 -14 12 -20z" />
    <glyph glyph-name="ordmasculine" unicode="&#xba;" horiz-adv-x="866" 
d="M432 1423q-37 0 -60 -23.5t-38 -95.5t-15 -198q0 -125 15 -198t38 -97.5t60 -24.5q39 0 62.5 24.5t38 96t14.5 197.5t-14.5 198t-38 96.5t-62.5 24.5zM432 750q-169 0 -266.5 91t-97.5 265q0 171 98 262.5t266 91.5q171 0 270 -91t99 -265q0 -171 -99.5 -262.5
t-269.5 -91.5z" />
    <glyph glyph-name="guillemotright" unicode="&#xbb;" horiz-adv-x="954" 
d="M516 512l-457 -469l-4 2l189 469l-189 471l4 2l457 -471v-4zM899 512l-457 -469l-4 2l189 469l-189 471l4 2l457 -471v-4z" />
    <glyph glyph-name="onequarter" unicode="&#xbc;" horiz-adv-x="1064" 
d="M942 700h-819v39h819v-39zM831 145h-151v-65q0 -13 12 -23l80 -53v-4h-371v4l84 53q11 7 11 23v65h-289v5l330 442h143v-416h33q13 0 18.5 3t11.5 14l99 165h4zM270 176h226v303zM645 1470v-526q0 -14 12 -20l129 -62v-4h-483v4l129 62q12 6 12 20v375q0 13 -12 16
l-139 41v4z" />
    <glyph glyph-name="onehalf" unicode="&#xbd;" horiz-adv-x="1064" 
d="M942 739v-39h-819v39h819zM645 1470v-526q0 -14 12 -20l129 -62v-4h-483v4l129 62q12 6 12 20v375q0 13 -12 16l-139 41v4zM539 602q123 0 189.5 -45.5t66.5 -124.5q0 -94 -85.5 -155.5t-281.5 -129.5v-4h229q31 0 43 3.5t27 15.5l68 57h4l-37 -219h-512v4
q39 36 100 97.5t72 74.5q8 9 33.5 37t35 39.5t30 36.5t29.5 40.5t21 37t16.5 41t4.5 38.5q0 125 -86 125q-35 0 -43 -16l-96 -201h-5l-98 197q117 51 275 51z" />
    <glyph glyph-name="threequarters" unicode="&#xbe;" horiz-adv-x="1064" 
d="M831 145h-151v-65q0 -13 12 -23l80 -53v-4h-371v4l84 53q11 7 11 23v65h-289v5l330 442h143v-416h33q13 0 18.5 3t11.5 14l99 165h4zM811 1026q0 -76 -81 -127t-218 -51q-153 0 -260 39l115 205h4l73 -195q6 -16 27 -16h29q46 0 78 37t32 104q0 61 -40 96t-113 41v4
q62 11 97.5 52t35.5 104q0 54 -22 82.5t-58 28.5h-16q-22 0 -31 -17l-94 -190h-4l-99 186q123 51 269 51q127 0 191.5 -38.5t64.5 -108.5q0 -108 -179 -139v-5q90 -5 144.5 -43t54.5 -100zM270 176h226v303zM942 700h-819v39h819v-39z" />
    <glyph glyph-name="questiondown" unicode="&#xbf;" horiz-adv-x="878" 
d="M475 537l4 2q88 -29 134 -82.5t46 -122.5q0 -53 -27.5 -100t-78.5 -99q-7 -7 -35 -34.5t-51.5 -51t-34.5 -35.5q-90 -100 -90 -209q0 -94 52 -153.5t126 -59.5h27q43 0 57 33l176 414h4l160 -371q-110 -51 -242 -84t-249 -33q-219 0 -339 89t-120 241t162 285
q29 23 120 89t111 83q54 45 72.5 85.5t15.5 113.5zM670 872q0 -71 -47 -116t-115 -45q-70 0 -118 45t-48 116q0 68 48 112t118 44q67 0 114.5 -44t47.5 -112z" />
    <glyph glyph-name="Agrave" unicode="&#xc0;" horiz-adv-x="1343" 
d="M301 502l-53 -164q-7 -25 -5 -35.5t21 -36.5l182 -262v-4h-485v4l197 262q23 29 30.5 42.5t16.5 43.5l284 873q10 29 8 40t-20 31l-121 140v4h482l383 -1215q9 -30 41 -84l86 -137v-4h-607v4l99 137q15 20 4 56l-96 305h-447zM528 1206l-215 -663h422zM293 1866h328
l161 -338l-2 -2l-487 336v4z" />
    <glyph glyph-name="Aacute" unicode="&#xc1;" horiz-adv-x="1343" 
d="M301 502l-53 -164q-7 -25 -5 -35.5t21 -36.5l182 -262v-4h-485v4l197 262q23 29 30.5 42.5t16.5 43.5l284 873q10 29 8 40t-20 31l-121 140v4h482l383 -1215q9 -30 41 -84l86 -137v-4h-607v4l99 137q15 20 4 56l-96 305h-447zM528 1206l-215 -663h422zM668 1866h327v-4
l-485 -338l-4 4z" />
    <glyph glyph-name="Acircumflex" unicode="&#xc2;" horiz-adv-x="1343" 
d="M301 502l-53 -164q-7 -25 -5 -35.5t21 -36.5l182 -262v-4h-485v4l197 262q23 29 30.5 42.5t16.5 43.5l284 873q10 29 8 40t-20 31l-121 140v4h482l383 -1215q9 -30 41 -84l86 -137v-4h-607v4l99 137q15 20 4 56l-96 305h-447zM528 1206l-215 -663h422zM977 1524l-2 -2
l-334 137l-334 -137l-2 2l334 358h4z" />
    <glyph glyph-name="Atilde" unicode="&#xc3;" horiz-adv-x="1343" 
d="M301 502l-53 -164q-7 -25 -5 -35.5t21 -36.5l182 -262v-4h-485v4l197 262q23 29 30.5 42.5t16.5 43.5l284 873q10 29 8 40t-20 31l-121 140v4h482l383 -1215q9 -30 41 -84l86 -137v-4h-607v4l99 137q15 20 4 56l-96 305h-447zM528 1206l-215 -663h422zM772 1577
q-45 0 -98 25t-103 50t-88 25q-98 0 -131 -100h-4v49q0 94 48.5 151.5t123.5 57.5q45 0 98 -25t103 -50t88 -25q97 0 133 100h4q0 -35 -2 -51q-4 -95 -51 -151t-121 -56z" />
    <glyph glyph-name="Adieresis" unicode="&#xc4;" horiz-adv-x="1343" 
d="M301 502l-53 -164q-7 -25 -5 -35.5t21 -36.5l182 -262v-4h-485v4l197 262q23 29 30.5 42.5t16.5 43.5l284 873q10 29 8 40t-20 31l-121 140v4h482l383 -1215q9 -30 41 -84l86 -137v-4h-607v4l99 137q15 20 4 56l-96 305h-447zM528 1206l-215 -663h422zM297 1698
q0 59 41 98t100 39q58 0 99 -39t41 -98q0 -58 -41 -96.5t-99 -38.5q-59 0 -100 38.5t-41 96.5zM705 1698q0 59 40.5 98t98.5 39q59 0 100 -39t41 -98q0 -58 -41 -96.5t-100 -38.5q-58 0 -98.5 38.5t-40.5 96.5z" />
    <glyph glyph-name="Aring" unicode="&#xc5;" horiz-adv-x="1343" 
d="M301 502l-53 -164q-7 -25 -5 -35.5t21 -36.5l182 -262v-4h-485v4l197 262q23 29 30.5 42.5t16.5 43.5l284 873q10 29 8 40t-20 31l-121 140v4h482l383 -1215q9 -30 41 -84l86 -137v-4h-607v4l99 137q15 20 4 56l-96 305h-447zM528 1206l-215 -663h422zM838 1718
q0 -81 -55.5 -134.5t-139.5 -53.5q-76 0 -135 55.5t-59 132.5q0 82 54.5 137.5t137.5 55.5q86 0 141.5 -54t55.5 -139zM795 1720q0 66 -43 108t-111 42q-64 0 -106.5 -42.5t-42.5 -107.5q0 -62 45 -105.5t106 -43.5q66 0 109 42t43 107z" />
    <glyph glyph-name="AE" unicode="&#xc6;" horiz-adv-x="1939" 
d="M1843 504v-504h-1118v4l135 129q14 12 17.5 20.5t3.5 28.5v320h-473l-97 -158q-20 -32 -20.5 -46.5t16.5 -45.5l139 -248v-4h-503v4l235 244q8 8 22.5 23t19 20l13.5 15t14.5 18t12.5 18l545 887q14 24 13 32.5t-15 24.5l-141 150v4h1161v-496h-4l-267 422
q-12 20 -23 26.5t-34 6.5h-211q-22 0 -27.5 -6.5t-5.5 -34.5v-617h138q20 2 29.5 6.5t23.5 22.5l186 213h4v-522h-4l-186 213q-15 17 -24.5 21.5t-28.5 4.5h-138v-618q0 -28 5.5 -34.5t27.5 -6.5h238q24 0 35.5 5.5t23.5 23.5l254 434h8zM881 1270l-449 -729h449v729z" />
    <glyph glyph-name="Ccedilla" unicode="&#xc7;" horiz-adv-x="1296" 
d="M997 -291q0 -85 -64.5 -138.5t-174.5 -53.5q-102 0 -178 53t-82 141l4 2q13 -41 44.5 -69.5t64 -39t63.5 -10.5q56 0 93.5 30t37.5 85t-38 85t-95 30q-40 0 -78 -14l-2 4l139 168q-340 9 -508 203.5t-168 531.5q0 344 182.5 543.5t518.5 199.5q232 0 444 -39v-503h-4
l-311 471q-12 20 -25 26t-43 6h-29q-85 0 -146 -49.5t-96.5 -144.5t-52 -220.5t-16.5 -289.5q0 -166 17.5 -292t54.5 -218.5t98.5 -140.5t145.5 -48h22q30 0 43 5.5t25 23.5l313 483h4v-514q-193 -36 -436 -36q-3 0 -9.5 1t-9.5 1l-14 -105q111 21 188.5 -30.5t77.5 -137.5z
" />
    <glyph glyph-name="Egrave" unicode="&#xc8;" horiz-adv-x="1243" 
d="M1128 1440v-496h-4l-264 422q-12 20 -23 26.5t-34 6.5h-211q-22 0 -28.5 -7t-6.5 -34v-617h139q20 2 30 6.5t24 22.5l184 213h4v-522h-4l-184 213q-15 17 -25 21.5t-31 4.5h-137v-618q0 -27 6.5 -34t28.5 -7h235q27 0 39.5 5.5t22.5 23.5l254 434h4v-504h-1116v4l137 129
q12 12 15 20.5t3 28.5v1075q0 21 -3 29.5t-15 20.5l-137 129v4h1097zM295 1866h328l161 -338l-2 -2l-487 336v4z" />
    <glyph glyph-name="Eacute" unicode="&#xc9;" horiz-adv-x="1243" 
d="M672 1866h327v-4l-485 -338l-4 4zM1128 1440v-496h-4l-264 422q-12 20 -23 26.5t-34 6.5h-211q-22 0 -28.5 -7t-6.5 -34v-617h139q20 2 30 6.5t24 22.5l184 213h4v-522h-4l-184 213q-15 17 -25 21.5t-31 4.5h-137v-618q0 -27 6.5 -34t28.5 -7h235q27 0 39.5 5.5
t22.5 23.5l254 434h4v-504h-1116v4l137 129q12 12 15 20.5t3 28.5v1075q0 21 -3 29.5t-15 20.5l-137 129v4h1097z" />
    <glyph glyph-name="Ecircumflex" unicode="&#xca;" horiz-adv-x="1243" 
d="M979 1524l-2 -2l-334 137l-334 -137l-2 2l334 358h4zM1128 1440v-496h-4l-264 422q-12 20 -23 26.5t-34 6.5h-211q-22 0 -28.5 -7t-6.5 -34v-617h139q20 2 30 6.5t24 22.5l184 213h4v-522h-4l-184 213q-15 17 -25 21.5t-31 4.5h-137v-618q0 -27 6.5 -34t28.5 -7h235
q27 0 39.5 5.5t22.5 23.5l254 434h4v-504h-1116v4l137 129q12 12 15 20.5t3 28.5v1075q0 21 -3 29.5t-15 20.5l-137 129v4h1097z" />
    <glyph glyph-name="Edieresis" unicode="&#xcb;" horiz-adv-x="1243" 
d="M299 1698q0 59 41 98t100 39q58 0 99 -39t41 -98q0 -58 -41 -96.5t-99 -38.5q-59 0 -100 38.5t-41 96.5zM707 1698q0 59 40.5 98t98.5 39q59 0 100 -39t41 -98q0 -58 -41 -96.5t-100 -38.5q-58 0 -98.5 38.5t-40.5 96.5zM1128 1440v-496h-4l-264 422q-12 20 -23 26.5
t-34 6.5h-211q-22 0 -28.5 -7t-6.5 -34v-617h139q20 2 30 6.5t24 22.5l184 213h4v-522h-4l-184 213q-15 17 -25 21.5t-31 4.5h-137v-618q0 -27 6.5 -34t28.5 -7h235q27 0 39.5 5.5t22.5 23.5l254 434h4v-504h-1116v4l137 129q12 12 15 20.5t3 28.5v1075q0 21 -3 29.5
t-15 20.5l-137 129v4h1097z" />
    <glyph glyph-name="Igrave" unicode="&#xcc;" horiz-adv-x="745" 
d="M557 182q0 -20 3.5 -28.5t17.5 -20.5l135 -129v-4h-682v4l137 129q12 12 15 20.5t3 28.5v1075q0 21 -3 29.5t-15 20.5l-137 129v4h682v-4l-135 -129q-14 -12 -17.5 -21t-3.5 -29v-1075zM25 1866h327l162 -338l-2 -2l-487 336v4z" />
    <glyph glyph-name="Iacute" unicode="&#xcd;" horiz-adv-x="745" 
d="M557 182q0 -20 3.5 -28.5t17.5 -20.5l135 -129v-4h-682v4l137 129q12 12 15 20.5t3 28.5v1075q0 21 -3 29.5t-15 20.5l-137 129v4h682v-4l-135 -129q-14 -12 -17.5 -21t-3.5 -29v-1075zM397 1866h328v-4l-485 -338l-4 4z" />
    <glyph glyph-name="Icircumflex" unicode="&#xce;" horiz-adv-x="745" 
d="M557 182q0 -20 3.5 -28.5t17.5 -20.5l135 -129v-4h-682v4l137 129q12 12 15 20.5t3 28.5v1075q0 21 -3 29.5t-15 20.5l-137 129v4h682v-4l-135 -129q-14 -12 -17.5 -21t-3.5 -29v-1075zM709 1524l-2 -2l-334 137l-334 -137l-2 2l334 358h4z" />
    <glyph glyph-name="Idieresis" unicode="&#xcf;" horiz-adv-x="745" 
d="M557 182q0 -20 3.5 -28.5t17.5 -20.5l135 -129v-4h-682v4l137 129q12 12 15 20.5t3 28.5v1075q0 21 -3 29.5t-15 20.5l-137 129v4h682v-4l-135 -129q-14 -12 -17.5 -21t-3.5 -29v-1075zM29 1698q0 59 41 98t100 39q58 0 98.5 -39t40.5 -98q0 -58 -40.5 -96.5t-98.5 -38.5
q-59 0 -100 38.5t-41 96.5zM436 1698q0 59 40.5 98t98.5 39q59 0 100.5 -39t41.5 -98q0 -58 -41.5 -96.5t-100.5 -38.5q-58 0 -98.5 38.5t-40.5 96.5z" />
    <glyph glyph-name="Eth" unicode="&#xd0;" horiz-adv-x="1505" 
d="M33 717v37h184v501q0 24 -3.5 33t-16.5 21l-138 127v4h684q176 0 312 -48t223 -138t131.5 -215t44.5 -281q0 -353 -196 -555.5t-551 -202.5h-648v4l138 127q13 12 16.5 21.5t3.5 33.5v531h-184zM688 1399h-65q-22 0 -28.5 -6.5t-6.5 -32.5v-606h217v-37h-217v-635
q0 -29 6.5 -35t36.5 -6h43q191 0 274.5 169t83.5 513q0 340 -80 508t-264 168z" />
    <glyph glyph-name="Ntilde" unicode="&#xd1;" horiz-adv-x="1447" 
d="M1243 0h-250l-706 1094v-750q0 -22 4 -31.5t20 -31.5l211 -277v-4h-510v4l205 275q18 23 22.5 33t4.5 32v774q0 39 -19 66l-205 252v4h484l696 -1082v738q0 24 -3.5 34t-20.5 31l-209 275v4h510v-4l-207 -275q-3 -4 -8 -11t-6.5 -9.5l-4.5 -7.5t-4 -8t-2 -7.5t-1.5 -9.5
t-0.5 -12v-1096zM858 1577q-45 0 -98 25t-103 50t-88 25q-98 0 -131 -100h-4v49q0 94 48.5 151.5t123.5 57.5q45 0 98 -25t103 -50t88 -25q97 0 133 100h4q0 -35 -2 -51q-4 -95 -51 -151t-121 -56z" />
    <glyph glyph-name="Ograve" unicode="&#xd2;" horiz-adv-x="1499" 
d="M750 18q89 0 148 69t91.5 226.5t32.5 407.5t-32.5 407t-91.5 225t-148 68t-148.5 -68t-92 -225t-32.5 -407t32.5 -407.5t92 -226.5t148.5 -69zM750 1460q329 0 511.5 -189.5t182.5 -551.5q0 -360 -182.5 -549.5t-511.5 -189.5t-512 189.5t-183 549.5q0 362 183 551.5
t512 189.5zM401 1866h328l162 -338l-2 -2l-488 336v4z" />
    <glyph glyph-name="Oacute" unicode="&#xd3;" horiz-adv-x="1499" 
d="M776 1866h328v-4l-486 -338l-4 4zM750 18q89 0 148 69t91.5 226.5t32.5 407.5t-32.5 407t-91.5 225t-148 68t-148.5 -68t-92 -225t-32.5 -407t32.5 -407.5t92 -226.5t148.5 -69zM750 1460q329 0 511.5 -189.5t182.5 -551.5q0 -360 -182.5 -549.5t-511.5 -189.5
t-512 189.5t-183 549.5q0 362 183 551.5t512 189.5z" />
    <glyph glyph-name="Ocircumflex" unicode="&#xd4;" horiz-adv-x="1499" 
d="M1085 1524l-2 -2l-333 137l-334 -137l-2 2l334 358h4zM750 18q89 0 148 69t91.5 226.5t32.5 407.5t-32.5 407t-91.5 225t-148 68t-148.5 -68t-92 -225t-32.5 -407t32.5 -407.5t92 -226.5t148.5 -69zM750 1460q329 0 511.5 -189.5t182.5 -551.5q0 -360 -182.5 -549.5
t-511.5 -189.5t-512 189.5t-183 549.5q0 362 183 551.5t512 189.5z" />
    <glyph glyph-name="Otilde" unicode="&#xd5;" horiz-adv-x="1499" 
d="M750 18q89 0 148 69t91.5 226.5t32.5 407.5t-32.5 407t-91.5 225t-148 68t-148.5 -68t-92 -225t-32.5 -407t32.5 -407.5t92 -226.5t148.5 -69zM750 1460q329 0 511.5 -189.5t182.5 -551.5q0 -360 -182.5 -549.5t-511.5 -189.5t-512 189.5t-183 549.5q0 362 183 551.5
t512 189.5zM879 1577q-45 0 -98 25t-103 50t-88 25q-98 0 -131 -100h-4v49q0 94 48.5 151.5t123.5 57.5q45 0 97.5 -25t102.5 -50t88 -25q98 0 134 100h4q0 -35 -2 -51q-4 -95 -51 -151t-121 -56z" />
    <glyph glyph-name="Odieresis" unicode="&#xd6;" horiz-adv-x="1499" 
d="M403 1698q0 59 41.5 98t100.5 39q58 0 98.5 -39t40.5 -98q0 -58 -40.5 -96.5t-98.5 -38.5q-59 0 -100.5 38.5t-41.5 96.5zM811 1698q0 59 40.5 98t98.5 39q59 0 100.5 -39t41.5 -98q0 -58 -41.5 -96.5t-100.5 -38.5q-58 0 -98.5 38.5t-40.5 96.5zM750 18q89 0 148 69
t91.5 226.5t32.5 407.5t-32.5 407t-91.5 225t-148 68t-148.5 -68t-92 -225t-32.5 -407t32.5 -407.5t92 -226.5t148.5 -69zM750 1460q329 0 511.5 -189.5t182.5 -551.5q0 -360 -182.5 -549.5t-511.5 -189.5t-512 189.5t-183 549.5q0 362 183 551.5t512 189.5z" />
    <glyph glyph-name="multiply" unicode="&#xd7;" horiz-adv-x="1105" 
d="M250 330l-29 28l303 304l-303 305l29 28l303 -305l303 305l29 -28l-303 -305l303 -304l-29 -28l-303 303z" />
    <glyph glyph-name="Oslash" unicode="&#xd8;" horiz-adv-x="1499" 
d="M750 1460q164 0 297 -51l83 188l35 -14l-84 -188q176 -78 269.5 -249t93.5 -427q0 -360 -182.5 -549.5t-511.5 -189.5q-156 0 -275 40l-82 -186l-37 14l82 185q-185 74 -284 248t-99 438q0 362 183 551.5t512 189.5zM477 721q0 -320 51 -485l437 987q-64 198 -215 198
q-89 0 -148.5 -68t-92 -225t-32.5 -407zM750 18q89 0 148 69t91.5 226.5t32.5 407.5q0 280 -41 446l-434 -985q64 -164 203 -164z" />
    <glyph glyph-name="Ugrave" unicode="&#xd9;" horiz-adv-x="1378" 
d="M715 -20q-292 0 -424.5 117t-132.5 392v766q0 20 -3.5 29t-17.5 21l-123 131v4h662v-4l-127 -131q-14 -12 -17.5 -21t-3.5 -29v-743q0 -243 78.5 -349t235.5 -106q148 0 229.5 116.5t81.5 346.5v576q0 24 -4.5 35t-22.5 32l-200 273v4h497v-4l-200 -273
q-18 -21 -22.5 -32t-4.5 -35v-572q0 -267 -112.5 -405.5t-368.5 -138.5zM422 1866h328l161 -338l-2 -2l-487 336v4z" />
    <glyph glyph-name="Uacute" unicode="&#xda;" horiz-adv-x="1378" 
d="M797 1866h327v-4l-485 -338l-4 4zM715 -20q-292 0 -424.5 117t-132.5 392v766q0 20 -3.5 29t-17.5 21l-123 131v4h662v-4l-127 -131q-14 -12 -17.5 -21t-3.5 -29v-743q0 -243 78.5 -349t235.5 -106q148 0 229.5 116.5t81.5 346.5v576q0 24 -4.5 35t-22.5 32l-200 273v4
h497v-4l-200 -273q-18 -21 -22.5 -32t-4.5 -35v-572q0 -267 -112.5 -405.5t-368.5 -138.5z" />
    <glyph glyph-name="Ucircumflex" unicode="&#xdb;" horiz-adv-x="1378" 
d="M1106 1524l-2 -2l-334 137l-334 -137l-2 2l334 358h4zM715 -20q-292 0 -424.5 117t-132.5 392v766q0 20 -3.5 29t-17.5 21l-123 131v4h662v-4l-127 -131q-14 -12 -17.5 -21t-3.5 -29v-743q0 -243 78.5 -349t235.5 -106q148 0 229.5 116.5t81.5 346.5v576q0 24 -4.5 35
t-22.5 32l-200 273v4h497v-4l-200 -273q-18 -21 -22.5 -32t-4.5 -35v-572q0 -267 -112.5 -405.5t-368.5 -138.5z" />
    <glyph glyph-name="Udieresis" unicode="&#xdc;" horiz-adv-x="1378" 
d="M426 1698q0 59 41 98t100 39q58 0 99 -39t41 -98q0 -58 -41 -96.5t-99 -38.5q-59 0 -100 38.5t-41 96.5zM834 1698q0 59 40.5 98t98.5 39q59 0 100 -39t41 -98q0 -58 -41 -96.5t-100 -38.5q-58 0 -98.5 38.5t-40.5 96.5zM715 -20q-292 0 -424.5 117t-132.5 392v766
q0 20 -3.5 29t-17.5 21l-123 131v4h662v-4l-127 -131q-14 -12 -17.5 -21t-3.5 -29v-743q0 -243 78.5 -349t235.5 -106q148 0 229.5 116.5t81.5 346.5v576q0 24 -4.5 35t-22.5 32l-200 273v4h497v-4l-200 -273q-18 -21 -22.5 -32t-4.5 -35v-572q0 -267 -112.5 -405.5
t-368.5 -138.5z" />
    <glyph glyph-name="Yacute" unicode="&#xdd;" horiz-adv-x="1310" 
d="M850 547v-350q0 -23 3.5 -32t18.5 -22l150 -139v-4h-715v4l152 139q14 14 17 22.5t3 31.5v315q0 32 -12 51l-338 647q-23 45 -55 88l-103 138v4h688v-4l-122 -142q-13 -15 -15 -22t6 -27l299 -602l236 481q10 24 9 33.5t-15 30.5l-176 248v4h512v-4l-232 -248
q-33 -33 -55 -76l-240 -487q-16 -33 -16 -78zM756 1866h327v-4l-485 -338l-4 4z" />
    <glyph glyph-name="Thorn" unicode="&#xde;" horiz-adv-x="1335" 
d="M1305 766q0 -151 -79 -255t-214.5 -152t-319.5 -48h-135v-116q0 -20 3.5 -29t17.5 -21l176 -141v-4h-723v4l137 129q12 12 15 20.5t3 28.5v1075q0 21 -3 29.5t-15 20.5l-137 129v4h526v-238h186q89 0 168 -13.5t152.5 -45.5t126 -80.5t84 -124.5t31.5 -172zM557 352h102
q122 0 193.5 109.5t71.5 296.5q0 185 -69.5 294t-195.5 109h-102v-809z" />
    <glyph glyph-name="germandbls" unicode="&#xdf;" horiz-adv-x="1337" 
d="M35 973v41h123q6 126 44 213.5t107 138t158 72.5t209 22q183 0 305.5 -66.5t122.5 -176.5q0 -60 -37.5 -108t-116.5 -93q-19 -10 -55 -34.5t-49 -35.5q-55 -44 -55 -98q0 -76 149 -152l172 -90q106 -56 156.5 -120.5t50.5 -163.5q0 -158 -117.5 -248t-306.5 -90
q-188 0 -356 67l120 301h5l147 -307q11 -25 61 -25h27q69 0 111.5 45t42.5 111q0 51 -31.5 88.5t-97.5 75.5l-176 100q-86 49 -127 102.5t-41 123.5q0 66 32.5 113t108.5 110l74 61q106 87 106 250q0 105 -57.5 164t-149.5 59q-103 0 -152.5 -77.5t-49.5 -237.5v-1108h-453
v4l100 94q13 13 16 20.5t3 28.5v826h-123z" />
    <glyph glyph-name="agrave" unicode="&#xe0;" 
d="M934 616q0 -12 -1 -42t-1 -31l-12 -291q-6 -119 55 -119q39 0 57 37h4q0 -41 -16 -74q-25 -52 -77 -82t-124 -30q-92 0 -155.5 52.5t-67.5 145.5q-31 -90 -105.5 -144t-173.5 -54q-118 0 -198 76.5t-80 211.5q0 73 30 133.5t79.5 98t110 58t124.5 20.5q138 0 217 -56
l4 219v11q0 235 -149 235q-31 0 -39 -3.5t-17 -20.5l-166 -308h-4l-129 293q218 78 414 78q218 0 317 -94q103 -95 103 -320zM524 518q-77 0 -121.5 -59.5t-44.5 -151.5q0 -83 33.5 -128.5t87.5 -45.5q33 0 64.5 20t52.5 52v2l4 299q-38 12 -76 12zM166 1440h328l161 -338
l-2 -2l-487 336v4z" />
    <glyph glyph-name="aacute" unicode="&#xe1;" 
d="M934 616q0 -12 -1 -42t-1 -31l-12 -291q-6 -119 55 -119q39 0 57 37h4q0 -41 -16 -74q-25 -52 -77 -82t-124 -30q-92 0 -155.5 52.5t-67.5 145.5q-31 -90 -105.5 -144t-173.5 -54q-118 0 -198 76.5t-80 211.5q0 73 30 133.5t79.5 98t110 58t124.5 20.5q138 0 217 -56
l4 219v11q0 235 -149 235q-31 0 -39 -3.5t-17 -20.5l-166 -308h-4l-129 293q218 78 414 78q218 0 317 -94q103 -95 103 -320zM524 518q-77 0 -121.5 -59.5t-44.5 -151.5q0 -83 33.5 -128.5t87.5 -45.5q33 0 64.5 20t52.5 52v2l4 299q-38 12 -76 12zM541 1440h327v-4
l-485 -338l-4 4z" />
    <glyph glyph-name="acircumflex" unicode="&#xe2;" 
d="M934 616q0 -12 -1 -42t-1 -31l-12 -291q-6 -119 55 -119q39 0 57 37h4q0 -41 -16 -74q-25 -52 -77 -82t-124 -30q-92 0 -155.5 52.5t-67.5 145.5q-31 -90 -105.5 -144t-173.5 -54q-118 0 -198 76.5t-80 211.5q0 73 30 133.5t79.5 98t110 58t124.5 20.5q138 0 217 -56
l4 219v11q0 235 -149 235q-31 0 -39 -3.5t-17 -20.5l-166 -308h-4l-129 293q218 78 414 78q218 0 317 -94q103 -95 103 -320zM524 518q-77 0 -121.5 -59.5t-44.5 -151.5q0 -83 33.5 -128.5t87.5 -45.5q33 0 64.5 20t52.5 52v2l4 299q-38 12 -76 12zM850 1098l-2 -2l-334 137
l-334 -137l-2 2l334 358h4z" />
    <glyph glyph-name="atilde" unicode="&#xe3;" 
d="M934 616q0 -12 -1 -42t-1 -31l-12 -291q-6 -119 55 -119q39 0 57 37h4q0 -41 -16 -74q-25 -52 -77 -82t-124 -30q-92 0 -155.5 52.5t-67.5 145.5q-31 -90 -105.5 -144t-173.5 -54q-118 0 -198 76.5t-80 211.5q0 73 30 133.5t79.5 98t110 58t124.5 20.5q138 0 217 -56
l4 219v11q0 235 -149 235q-31 0 -39 -3.5t-17 -20.5l-166 -308h-4l-129 293q218 78 414 78q218 0 317 -94q103 -95 103 -320zM524 518q-77 0 -121.5 -59.5t-44.5 -151.5q0 -83 33.5 -128.5t87.5 -45.5q33 0 64.5 20t52.5 52v2l4 299q-38 12 -76 12zM645 1151q-45 0 -98 25
t-103 50t-88 25q-98 0 -131 -100h-4v49q0 94 48.5 151.5t123.5 57.5q45 0 98 -25t103 -50t88 -25q97 0 133 100h4q0 -35 -2 -51q-4 -95 -51 -151t-121 -56z" />
    <glyph glyph-name="adieresis" unicode="&#xe4;" 
d="M934 616q0 -12 -1 -42t-1 -31l-12 -291q-6 -119 55 -119q39 0 57 37h4q0 -41 -16 -74q-25 -52 -77 -82t-124 -30q-92 0 -155.5 52.5t-67.5 145.5q-31 -90 -105.5 -144t-173.5 -54q-118 0 -198 76.5t-80 211.5q0 73 30 133.5t79.5 98t110 58t124.5 20.5q138 0 217 -56
l4 219v11q0 235 -149 235q-31 0 -39 -3.5t-17 -20.5l-166 -308h-4l-129 293q218 78 414 78q218 0 317 -94q103 -95 103 -320zM524 518q-77 0 -121.5 -59.5t-44.5 -151.5q0 -83 33.5 -128.5t87.5 -45.5q33 0 64.5 20t52.5 52v2l4 299q-38 12 -76 12zM170 1272q0 59 41 98
t100 39q58 0 99 -39t41 -98q0 -58 -41 -96.5t-99 -38.5q-59 0 -100 38.5t-41 96.5zM578 1272q0 59 40.5 98t98.5 39q59 0 100 -39t41 -98q0 -58 -41 -96.5t-100 -38.5q-58 0 -98.5 38.5t-40.5 96.5z" />
    <glyph glyph-name="aring" unicode="&#xe5;" 
d="M934 616q0 -12 -1 -42t-1 -31l-12 -291q-6 -119 55 -119q39 0 57 37h4q0 -41 -16 -74q-25 -52 -77 -82t-124 -30q-92 0 -155.5 52.5t-67.5 145.5q-31 -90 -105.5 -144t-173.5 -54q-118 0 -198 76.5t-80 211.5q0 73 30 133.5t79.5 98t110 58t124.5 20.5q138 0 217 -56
l4 219v11q0 235 -149 235q-31 0 -39 -3.5t-17 -20.5l-166 -308h-4l-129 293q218 78 414 78q218 0 317 -94q103 -95 103 -320zM524 518q-77 0 -121.5 -59.5t-44.5 -151.5q0 -83 33.5 -128.5t87.5 -45.5q33 0 64.5 20t52.5 52v2l4 299q-38 12 -76 12zM711 1292
q0 -81 -55.5 -134.5t-139.5 -53.5q-76 0 -135 55.5t-59 132.5q0 82 54.5 137.5t137.5 55.5q86 0 141.5 -54t55.5 -139zM668 1294q0 66 -43 108t-111 42q-64 0 -106.5 -42.5t-42.5 -107.5q0 -62 45 -105.5t106 -43.5q66 0 109 42t43 107z" />
    <glyph glyph-name="ae" unicode="&#xe6;" horiz-adv-x="1605" 
d="M1559 553h-615v-6q0 -187 83 -280t212 -93q97 0 179 46t130 142h4q-75 -378 -450 -378q-136 0 -250.5 57.5t-179.5 169.5q-22 -89 -107.5 -158t-222.5 -69q-131 0 -217 77t-86 213q0 97 52 169t128 105.5t160 33.5q131 0 221 -54q0 15 2 112t2 114q0 235 -151 235
q-28 0 -36 -4t-18 -20l-166 -306h-4l-131 297q216 74 406 74q91 0 154.5 -21t117.5 -73l25 -29q126 123 313 123q68 0 129.5 -13t120.5 -44.5t102 -79.5t69 -123.5t26 -171.5q0 -22 -2 -45zM1108 991q-79 0 -120 -92.5t-44 -308.5h303q3 157 -14 247.5t-47 122t-78 31.5z
M502 131q104 0 162 94q-62 114 -62 267v14q-38 12 -78 12q-77 0 -121.5 -58t-44.5 -149q0 -84 40.5 -132t103.5 -48z" />
    <glyph glyph-name="ccedilla" unicode="&#xe7;" horiz-adv-x="964" 
d="M754 -291q0 -85 -64.5 -138.5t-175.5 -53.5q-102 0 -178 53t-82 141l4 2q13 -41 44.5 -69.5t64 -39t63.5 -10.5q56 0 93.5 30t37.5 85t-38 85t-95 30q-40 0 -78 -14l-2 4l144 170q-90 5 -169.5 38.5t-143 95t-101 159t-37.5 219.5q0 115 31.5 207t84 152t124 100.5
t147.5 57.5t158 17q165 0 348 -61l-131 -353h-4l-158 351q-6 15 -12.5 19.5t-24.5 4.5h-10q-95 0 -145 -100.5t-50 -296.5q0 -113 23.5 -196.5t63.5 -130.5t87.5 -69t102.5 -22q81 0 145.5 44t106.5 124h4q-27 -169 -133.5 -264.5t-280.5 -95.5h-16l-15 -107
q111 21 189 -30.5t78 -137.5z" />
    <glyph glyph-name="egrave" unicode="&#xe8;" 
d="M1004 553h-615v-4q0 -189 82.5 -282t210.5 -93q99 0 180.5 46t130.5 142h4q-78 -378 -452 -378q-100 0 -188 31t-159.5 91.5t-113 162t-41.5 231.5q0 137 41.5 241.5t114 166t163 92t195.5 30.5q68 0 130 -13t121.5 -44.5t102.5 -79.5t69 -123.5t26 -171.5q0 -20 -2 -45z
M553 991q-80 0 -120.5 -92.5t-43.5 -308.5h301q2 27 2 61q0 130 -18 207t-47 105t-74 28zM209 1440h328l161 -338l-2 -2l-487 336v4z" />
    <glyph glyph-name="eacute" unicode="&#xe9;" 
d="M584 1440h327v-4l-485 -338l-4 4zM1004 553h-615v-4q0 -189 82.5 -282t210.5 -93q99 0 180.5 46t130.5 142h4q-78 -378 -452 -378q-100 0 -188 31t-159.5 91.5t-113 162t-41.5 231.5q0 137 41.5 241.5t114 166t163 92t195.5 30.5q68 0 130 -13t121.5 -44.5t102.5 -79.5
t69 -123.5t26 -171.5q0 -20 -2 -45zM553 991q-80 0 -120.5 -92.5t-43.5 -308.5h301q2 27 2 61q0 130 -18 207t-47 105t-74 28z" />
    <glyph glyph-name="ecircumflex" unicode="&#xea;" 
d="M893 1098l-2 -2l-334 137l-334 -137l-2 2l334 358h4zM1004 553h-615v-4q0 -189 82.5 -282t210.5 -93q99 0 180.5 46t130.5 142h4q-78 -378 -452 -378q-100 0 -188 31t-159.5 91.5t-113 162t-41.5 231.5q0 137 41.5 241.5t114 166t163 92t195.5 30.5q68 0 130 -13
t121.5 -44.5t102.5 -79.5t69 -123.5t26 -171.5q0 -20 -2 -45zM553 991q-80 0 -120.5 -92.5t-43.5 -308.5h301q2 27 2 61q0 130 -18 207t-47 105t-74 28z" />
    <glyph glyph-name="edieresis" unicode="&#xeb;" 
d="M211 1272q0 59 41 98t100 39q58 0 99 -39t41 -98q0 -58 -41 -96.5t-99 -38.5q-59 0 -100 38.5t-41 96.5zM618 1272q0 59 41 98t99 39q59 0 100 -39t41 -98q0 -58 -41 -96.5t-100 -38.5q-58 0 -99 38.5t-41 96.5zM1004 553h-615v-4q0 -189 82.5 -282t210.5 -93
q99 0 180.5 46t130.5 142h4q-78 -378 -452 -378q-100 0 -188 31t-159.5 91.5t-113 162t-41.5 231.5q0 137 41.5 241.5t114 166t163 92t195.5 30.5q68 0 130 -13t121.5 -44.5t102.5 -79.5t69 -123.5t26 -171.5q0 -20 -2 -45zM553 991q-80 0 -120.5 -92.5t-43.5 -308.5h301
q2 27 2 61q0 130 -18 207t-47 105t-74 28z" />
    <glyph glyph-name="igrave" unicode="&#xec;" horiz-adv-x="634" 
d="M496 1014v-867q0 -19 3.5 -27.5t16.5 -21.5l100 -94v-4h-573v4l100 94q12 12 15.5 20.5t3.5 28.5v709q0 30 -19 51l-100 103v4h453zM-31 1440h328l162 -338l-2 -2l-488 336v4z" />
    <glyph glyph-name="iacute" unicode="&#xed;" horiz-adv-x="634" 
d="M342 1440h328v-4l-486 -338l-4 4zM496 1014v-867q0 -19 3.5 -27.5t16.5 -21.5l100 -94v-4h-573v4l100 94q12 12 15.5 20.5t3.5 28.5v709q0 30 -19 51l-100 103v4h453z" />
    <glyph glyph-name="icircumflex" unicode="&#xee;" horiz-adv-x="634" 
d="M643 1098l-2 -2l-334 137l-334 -137l-2 2l334 358h4zM496 1014v-867q0 -19 3.5 -27.5t16.5 -21.5l100 -94v-4h-573v4l100 94q12 12 15.5 20.5t3.5 28.5v709q0 30 -19 51l-100 103v4h453z" />
    <glyph glyph-name="idieresis" unicode="&#xef;" horiz-adv-x="634" 
d="M-37 1272q0 59 41 98t100 39q58 0 99 -39t41 -98q0 -58 -41 -96.5t-99 -38.5q-59 0 -100 38.5t-41 96.5zM371 1272q0 59 40.5 98t98.5 39q59 0 100 -39t41 -98q0 -58 -41 -96.5t-100 -38.5q-58 0 -98.5 38.5t-40.5 96.5zM496 1014v-867q0 -19 3.5 -27.5t16.5 -21.5
l100 -94v-4h-573v4l100 94q12 12 15.5 20.5t3.5 28.5v709q0 30 -19 51l-100 103v4h453z" />
    <glyph glyph-name="eth" unicode="&#xf0;" horiz-adv-x="1150" 
d="M242 1456v4q8 0 27 -1t20 -1q248 -15 424 -119l245 136l19 -35l-227 -123q176 -116 265 -306.5t89 -424.5q0 -296 -135 -449t-408 -153q-111 0 -204 34t-162.5 98.5t-108.5 164.5t-39 225q0 116 36 213.5t96.5 161t138 98.5t161.5 35q162 0 246 -123q-41 209 -137 340
l-258 -139l-17 32l252 136q-119 145 -323 196zM756 563q0 148 -23 293q-51 59 -129 59q-186 0 -186 -442q0 -221 41.5 -335.5t120.5 -114.5q41 0 72 27.5t55 88.5t36.5 167.5t12.5 256.5z" />
    <glyph glyph-name="ntilde" unicode="&#xf1;" horiz-adv-x="1259" 
d="M1141 598q0 -74 -3 -244.5t-3 -206.5q0 -20 3 -28.5t15 -20.5l102 -94v-4h-575v4l98 94q19 19 19 47q0 7 3 178t3 228q0 153 -33.5 231t-122.5 78q-88 0 -151 -90v-623q0 -22 2.5 -30t15.5 -19l100 -94v-4h-573v4l100 94q13 12 16 20t3 29v709q0 20 -3.5 28.5t-15.5 22.5
l-100 103v4h455v-217q39 110 121.5 171.5t203.5 61.5q155 0 237.5 -110.5t82.5 -321.5zM770 1151q-45 0 -98 25t-103 50t-88 25q-98 0 -131 -100h-4v49q0 94 48.5 151.5t123.5 57.5q45 0 98 -25t103 -50t88 -25q97 0 133 100h4q0 -35 -2 -51q-4 -95 -51 -151t-121 -56z" />
    <glyph glyph-name="ograve" unicode="&#xf2;" horiz-adv-x="1169" 
d="M584 991q-41 0 -69.5 -20t-51.5 -72t-34 -149t-11 -242t11 -242.5t34 -150t51.5 -74t69.5 -21.5q55 0 89 37t55.5 147t21.5 302q0 145 -11 242t-34 149t-51.5 73t-69.5 21zM584 -16q-249 0 -394 134.5t-145 389.5q0 253 145 387.5t394 134.5t394.5 -134.5t145.5 -389.5
q0 -253 -145.5 -387.5t-394.5 -134.5zM236 1440h327l162 -338l-2 -2l-487 336v4z" />
    <glyph glyph-name="oacute" unicode="&#xf3;" horiz-adv-x="1169" 
d="M610 1440h328v-4l-485 -338l-4 4zM584 991q-41 0 -69.5 -20t-51.5 -72t-34 -149t-11 -242t11 -242.5t34 -150t51.5 -74t69.5 -21.5q55 0 89 37t55.5 147t21.5 302q0 145 -11 242t-34 149t-51.5 73t-69.5 21zM584 -16q-249 0 -394 134.5t-145 389.5q0 253 145 387.5
t394 134.5t394.5 -134.5t145.5 -389.5q0 -253 -145.5 -387.5t-394.5 -134.5z" />
    <glyph glyph-name="ocircumflex" unicode="&#xf4;" horiz-adv-x="1169" 
d="M920 1098l-2 -2l-334 137l-334 -137l-2 2l334 358h4zM584 991q-41 0 -69.5 -20t-51.5 -72t-34 -149t-11 -242t11 -242.5t34 -150t51.5 -74t69.5 -21.5q55 0 89 37t55.5 147t21.5 302q0 145 -11 242t-34 149t-51.5 73t-69.5 21zM584 -16q-249 0 -394 134.5t-145 389.5
q0 253 145 387.5t394 134.5t394.5 -134.5t145.5 -389.5q0 -253 -145.5 -387.5t-394.5 -134.5z" />
    <glyph glyph-name="otilde" unicode="&#xf5;" horiz-adv-x="1169" 
d="M584 991q-41 0 -69.5 -20t-51.5 -72t-34 -149t-11 -242t11 -242.5t34 -150t51.5 -74t69.5 -21.5q55 0 89 37t55.5 147t21.5 302q0 145 -11 242t-34 149t-51.5 73t-69.5 21zM584 -16q-249 0 -394 134.5t-145 389.5q0 253 145 387.5t394 134.5t394.5 -134.5t145.5 -389.5
q0 -253 -145.5 -387.5t-394.5 -134.5zM715 1151q-45 0 -98 25t-103 50t-88 25q-98 0 -131 -100h-4v49q0 94 48.5 151.5t123.5 57.5q45 0 98 -25t103 -50t88 -25q97 0 133 100h4q0 -35 -2 -51q-4 -95 -51 -151t-121 -56z" />
    <glyph glyph-name="odieresis" unicode="&#xf6;" horiz-adv-x="1169" 
d="M240 1272q0 59 41 98t100 39q58 0 98.5 -39t40.5 -98q0 -58 -40.5 -96.5t-98.5 -38.5q-59 0 -100 38.5t-41 96.5zM647 1272q0 59 40.5 98t98.5 39q59 0 100.5 -39t41.5 -98q0 -58 -41.5 -96.5t-100.5 -38.5q-58 0 -98.5 38.5t-40.5 96.5zM584 991q-41 0 -69.5 -20
t-51.5 -72t-34 -149t-11 -242t11 -242.5t34 -150t51.5 -74t69.5 -21.5q55 0 89 37t55.5 147t21.5 302q0 145 -11 242t-34 149t-51.5 73t-69.5 21zM584 -16q-249 0 -394 134.5t-145 389.5q0 253 145 387.5t394 134.5t394.5 -134.5t145.5 -389.5q0 -253 -145.5 -387.5
t-394.5 -134.5z" />
    <glyph glyph-name="divide" unicode="&#xf7;" horiz-adv-x="1105" 
d="M102 637v39h902v-39h-902zM391 979q0 67 46.5 108t111.5 41q66 0 111 -41t45 -108q0 -64 -45 -103.5t-111 -39.5q-65 0 -111.5 39.5t-46.5 103.5zM391 324q0 67 46.5 108t111.5 41q66 0 111 -41t45 -108q0 -65 -45 -104.5t-111 -39.5q-65 0 -111.5 40t-46.5 104z" />
    <glyph glyph-name="oslash" unicode="&#xf8;" horiz-adv-x="1169" 
d="M897 1161l-76 -170q145 -52 224 -174t79 -311q0 -256 -145 -389t-395 -133q-109 0 -197 24l-76 -174l-39 16l74 170q-145 52 -224 175t-79 313q0 256 145.5 389t395.5 133q108 0 196 -24l78 172zM584 991q-56 0 -89.5 -36.5t-54 -145t-20.5 -301.5q0 -191 16 -287
l281 639q-19 72 -52 101.5t-81 29.5zM750 506q0 163 -17 282l-282 -638q21 -70 53.5 -98.5t79.5 -28.5q57 0 91 36.5t54.5 145t20.5 301.5z" />
    <glyph glyph-name="ugrave" unicode="&#xf9;" horiz-adv-x="1218" 
d="M1079 1014v-858q0 -22 3 -31.5t16 -20.5l102 -100v-4h-457v219q-40 -108 -121 -171.5t-192 -63.5q-152 0 -231.5 108.5t-79.5 317.5q0 116 4 448q0 20 -3.5 28.5t-15.5 20.5l-100 103v4h453l-1 -270q-1 -271 -1 -287q0 -73 6 -125t21 -94.5t43.5 -64t70.5 -21.5
q84 0 147 92v612q0 20 -3 29t-15 22l-100 103v4h454zM231 1440h328l162 -338l-2 -2l-488 336v4z" />
    <glyph glyph-name="uacute" unicode="&#xfa;" horiz-adv-x="1218" 
d="M606 1440h328v-4l-485 -338l-5 4zM1079 1014v-858q0 -22 3 -31.5t16 -20.5l102 -100v-4h-457v219q-40 -108 -121 -171.5t-192 -63.5q-152 0 -231.5 108.5t-79.5 317.5q0 116 4 448q0 20 -3.5 28.5t-15.5 20.5l-100 103v4h453l-1 -270q-1 -271 -1 -287q0 -73 6 -125
t21 -94.5t43.5 -64t70.5 -21.5q84 0 147 92v612q0 20 -3 29t-15 22l-100 103v4h454z" />
    <glyph glyph-name="ucircumflex" unicode="&#xfb;" horiz-adv-x="1218" 
d="M915 1098l-2 -2l-333 137l-334 -137l-2 2l334 358h4zM1079 1014v-858q0 -22 3 -31.5t16 -20.5l102 -100v-4h-457v219q-40 -108 -121 -171.5t-192 -63.5q-152 0 -231.5 108.5t-79.5 317.5q0 116 4 448q0 20 -3.5 28.5t-15.5 20.5l-100 103v4h453l-1 -270q-1 -271 -1 -287
q0 -73 6 -125t21 -94.5t43.5 -64t70.5 -21.5q84 0 147 92v612q0 20 -3 29t-15 22l-100 103v4h454z" />
    <glyph glyph-name="udieresis" unicode="&#xfc;" horiz-adv-x="1218" 
d="M236 1272q0 59 41 98t100 39q58 0 98.5 -39t40.5 -98q0 -58 -40.5 -96.5t-98.5 -38.5q-59 0 -100 38.5t-41 96.5zM643 1272q0 59 40.5 98t98.5 39q59 0 100.5 -39t41.5 -98q0 -58 -41.5 -96.5t-100.5 -38.5q-58 0 -98.5 38.5t-40.5 96.5zM1079 1014v-858q0 -22 3 -31.5
t16 -20.5l102 -100v-4h-457v219q-40 -108 -121 -171.5t-192 -63.5q-152 0 -231.5 108.5t-79.5 317.5q0 116 4 448q0 20 -3.5 28.5t-15.5 20.5l-100 103v4h453l-1 -270q-1 -271 -1 -287q0 -73 6 -125t21 -94.5t43.5 -64t70.5 -21.5q84 0 147 92v612q0 20 -3 29t-15 22
l-100 103v4h454z" />
    <glyph glyph-name="yacute" unicode="&#xfd;" horiz-adv-x="974" 
d="M836 674l-263 -635q-82 -193 -176 -340q-63 -99 -127.5 -140.5t-156.5 -41.5q-50 0 -97 20l76 359h4l203 -201q17 -17 25 -17q13 0 30 25q43 59 78 141l12 33l-381 967q-10 27 -30 67l-56 99v4h531v-4l-82 -113q-15 -20 -4 -47l207 -574l166 404q11 27 11.5 38.5
t-11.5 37.5l-125 254v4h350v-4l-133 -230q-27 -44 -51 -106zM571 1440h328v-4l-485 -338l-4 4z" />
    <glyph glyph-name="thorn" unicode="&#xfe;" horiz-adv-x="1196" 
d="M762 1030q173 0 280 -134.5t107 -367.5q0 -243 -120.5 -393.5t-311.5 -150.5q-217 0 -273 166v-453q0 -21 5 -29.5t26 -23.5l152 -107v-4h-635v4l98 94q13 12 16 20.5t3 29.5v1603q0 20 -3.5 28.5t-15.5 20.5l-98 103v4l452 39v-686q95 237 318 237zM598 860
q-93 0 -154 -92v-604q45 -62 134 -62q88 0 151.5 102t63.5 308q0 129 -24.5 208t-66 109.5t-104.5 30.5z" />
    <glyph glyph-name="ydieresis" unicode="&#xff;" horiz-adv-x="974" 
d="M836 674l-263 -635q-82 -193 -176 -340q-63 -99 -127.5 -140.5t-156.5 -41.5q-50 0 -97 20l76 359h4l203 -201q17 -17 25 -17q13 0 30 25q43 59 78 141l12 33l-381 967q-10 27 -30 67l-56 99v4h531v-4l-82 -113q-15 -20 -4 -47l207 -574l166 404q11 27 11.5 38.5
t-11.5 37.5l-125 254v4h350v-4l-133 -230q-27 -44 -51 -106zM199 1272q0 59 41 98t100 39q58 0 98.5 -39t40.5 -98q0 -58 -40.5 -96.5t-98.5 -38.5q-59 0 -100 38.5t-41 96.5zM606 1272q0 59 40.5 98t98.5 39q59 0 100.5 -39t41.5 -98q0 -58 -41.5 -96.5t-100.5 -38.5
q-58 0 -98.5 38.5t-40.5 96.5z" />
    <glyph glyph-name="Amacron" unicode="&#x100;" horiz-adv-x="1343" 
d="M301 502l-53 -164q-7 -25 -5 -35.5t21 -36.5l182 -262v-4h-485v4l197 262q23 29 30.5 42.5t16.5 43.5l284 873q10 29 8 40t-20 31l-121 140v4h482l383 -1215q9 -30 41 -84l86 -137v-4h-607v4l99 137q15 20 4 56l-96 305h-447zM528 1206l-215 -663h422zM926 1638h-576v41
h576v-41z" />
    <glyph glyph-name="amacron" unicode="&#x101;" 
d="M934 616q0 -12 -1 -42t-1 -31l-12 -291q-6 -119 55 -119q39 0 57 37h4q0 -41 -16 -74q-25 -52 -77 -82t-124 -30q-92 0 -155.5 52.5t-67.5 145.5q-31 -90 -105.5 -144t-173.5 -54q-118 0 -198 76.5t-80 211.5q0 73 30 133.5t79.5 98t110 58t124.5 20.5q138 0 217 -56
l4 219v11q0 235 -149 235q-31 0 -39 -3.5t-17 -20.5l-166 -308h-4l-129 293q218 78 414 78q218 0 317 -94q103 -95 103 -320zM524 518q-77 0 -121.5 -59.5t-44.5 -151.5q0 -83 33.5 -128.5t87.5 -45.5q33 0 64.5 20t52.5 52v2l4 299q-38 12 -76 12zM801 1212h-576v41h576
v-41z" />
    <glyph glyph-name="Abreve" unicode="&#x102;" horiz-adv-x="1343" 
d="M301 502l-53 -164q-7 -25 -5 -35.5t21 -36.5l182 -262v-4h-485v4l197 262q23 29 30.5 42.5t16.5 43.5l284 873q10 29 8 40t-20 31l-121 140v4h482l383 -1215q9 -30 41 -84l86 -137v-4h-607v4l99 137q15 20 4 56l-96 305h-447zM528 1206l-215 -663h422zM635 1690
q115 0 183.5 50t74.5 144h4q8 -62 8 -86q0 -89 -40.5 -151t-99.5 -88.5t-130 -26.5q-52 0 -98 16t-84.5 47t-61 83.5t-22.5 119.5q0 45 8 86h4q4 -93 73 -143.5t181 -50.5z" />
    <glyph glyph-name="abreve" unicode="&#x103;" 
d="M934 616q0 -12 -1 -42t-1 -31l-12 -291q-6 -119 55 -119q39 0 57 37h4q0 -41 -16 -74q-25 -52 -77 -82t-124 -30q-92 0 -155.5 52.5t-67.5 145.5q-31 -90 -105.5 -144t-173.5 -54q-118 0 -198 76.5t-80 211.5q0 73 30 133.5t79.5 98t110 58t124.5 20.5q138 0 217 -56
l4 219v11q0 235 -149 235q-31 0 -39 -3.5t-17 -20.5l-166 -308h-4l-129 293q218 78 414 78q218 0 317 -94q103 -95 103 -320zM524 518q-77 0 -121.5 -59.5t-44.5 -151.5q0 -83 33.5 -128.5t87.5 -45.5q33 0 64.5 20t52.5 52v2l4 299q-38 12 -76 12zM508 1264q115 0 183.5 50
t74.5 144h4q8 -62 8 -86q0 -89 -40.5 -151t-99.5 -88.5t-130 -26.5q-52 0 -98 16t-84.5 47t-61 83.5t-22.5 119.5q0 45 8 86h4q4 -93 73 -143.5t181 -50.5z" />
    <glyph glyph-name="Aogonek" unicode="&#x104;" horiz-adv-x="1343" 
d="M301 502l-53 -164q-7 -25 -5 -35.5t21 -36.5l182 -262v-4h-485v4l197 262q23 29 30.5 42.5t16.5 43.5l284 873q10 29 8 40t-20 31l-121 140v4h482l383 -1215q9 -30 41 -84l86 -137v-4h-582q-63 -32 -98 -87.5t-35 -121.5q0 -76 41 -118t108 -42q45 0 89.5 23t74.5 70
l4 -3q-31 -91 -95 -147.5t-165 -56.5q-93 0 -158 56t-65 153q0 92 75.5 168t198.5 110l99 137q15 20 4 56l-96 305h-447zM528 1206l-215 -663h422z" />
    <glyph glyph-name="aogonek" unicode="&#x105;" 
d="M797 -483q-93 0 -158.5 56t-65.5 153q0 90 68.5 157.5t187.5 100.5h-10q-92 0 -155.5 52.5t-67.5 145.5q-31 -90 -105.5 -144t-173.5 -54q-118 0 -198 76.5t-80 211.5q0 73 30 133.5t79.5 98t110 58t124.5 20.5q138 0 217 -56l4 219v11q0 235 -149 235q-26 0 -37 -4
t-19 -20l-166 -308h-4l-129 293q218 78 414 78q218 0 317 -94q103 -95 103 -320q0 -12 -2 -59.5t-2 -48.5l-10 -256q-6 -119 55 -119q39 0 57 37h4q0 -41 -16 -74q-41 -83 -141 -106q-67 -28 -103.5 -79.5t-36.5 -119.5q0 -76 41.5 -118t108.5 -42q45 0 89.5 23t74.5 70
l4 -3q-31 -91 -95 -147.5t-165 -56.5zM524 518q-77 0 -121.5 -59.5t-44.5 -151.5q0 -83 33.5 -128.5t87.5 -45.5q33 0 64.5 20t52.5 52l4 301q-38 12 -76 12z" />
    <glyph glyph-name="Cacute" unicode="&#x106;" horiz-adv-x="1296" 
d="M780 1866h328v-4l-485 -338l-5 4zM1200 1421v-503h-4l-311 471q-12 20 -25 26t-43 6h-29q-85 0 -146 -49.5t-96.5 -144.5t-52 -220.5t-16.5 -289.5q0 -166 17.5 -292t54.5 -218.5t98.5 -140.5t145.5 -48h22q30 0 43 5.5t25 23.5l313 483h4v-514q-193 -36 -436 -36
q-180 0 -316.5 52.5t-222 150t-128 231.5t-42.5 303q0 344 182.5 543.5t518.5 199.5q232 0 444 -39z" />
    <glyph glyph-name="cacute" unicode="&#x107;" horiz-adv-x="964" 
d="M598 1440h328v-4l-486 -338l-4 4zM518 -16q-94 0 -178 32t-151.5 93t-107.5 161t-40 226q0 115 31.5 207t84 152t124 100.5t147.5 57.5t158 17q165 0 348 -61l-131 -353h-4l-158 351q-6 15 -12.5 19.5t-24.5 4.5h-10q-95 0 -145 -100.5t-50 -296.5q0 -113 23.5 -196.5
t63.5 -130.5t87.5 -69t102.5 -22q81 0 145.5 44t106.5 124h4q-27 -169 -133.5 -264.5t-280.5 -95.5z" />
    <glyph glyph-name="Ccircumflex" unicode="&#x108;" horiz-adv-x="1296" 
d="M1090 1524l-3 -2l-333 137l-334 -137l-2 2l334 358h4zM1200 1421v-503h-4l-311 471q-12 20 -25 26t-43 6h-29q-85 0 -146 -49.5t-96.5 -144.5t-52 -220.5t-16.5 -289.5q0 -166 17.5 -292t54.5 -218.5t98.5 -140.5t145.5 -48h22q30 0 43 5.5t25 23.5l313 483h4v-514
q-193 -36 -436 -36q-180 0 -316.5 52.5t-222 150t-128 231.5t-42.5 303q0 344 182.5 543.5t518.5 199.5q232 0 444 -39z" />
    <glyph glyph-name="ccircumflex" unicode="&#x109;" horiz-adv-x="964" 
d="M907 1098l-2 -2l-334 137l-333 -137l-2 2l333 358h4zM518 -16q-94 0 -178 32t-151.5 93t-107.5 161t-40 226q0 115 31.5 207t84 152t124 100.5t147.5 57.5t158 17q165 0 348 -61l-131 -353h-4l-158 351q-6 15 -12.5 19.5t-24.5 4.5h-10q-95 0 -145 -100.5t-50 -296.5
q0 -113 23.5 -196.5t63.5 -130.5t87.5 -69t102.5 -22q81 0 145.5 44t106.5 124h4q-27 -169 -133.5 -264.5t-280.5 -95.5z" />
    <glyph glyph-name="Cdotaccent" unicode="&#x10a;" horiz-adv-x="1296" 
d="M1200 1421v-503h-4l-311 471q-12 20 -25 26t-43 6h-29q-85 0 -146 -49.5t-96.5 -144.5t-52 -220.5t-16.5 -289.5q0 -166 17.5 -292t54.5 -218.5t98.5 -140.5t145.5 -48h22q30 0 43 5.5t25 23.5l313 483h4v-514q-193 -36 -436 -36q-180 0 -316.5 52.5t-222 150t-128 231.5
t-42.5 303q0 344 182.5 543.5t518.5 199.5q232 0 444 -39zM596 1704q0 67 46.5 108t111.5 41q66 0 110.5 -41t44.5 -108q0 -65 -44.5 -104t-110.5 -39q-65 0 -111.5 39.5t-46.5 103.5z" />
    <glyph glyph-name="cdotaccent" unicode="&#x10b;" horiz-adv-x="964" 
d="M518 -16q-94 0 -178 32t-151.5 93t-107.5 161t-40 226q0 115 31.5 207t84 152t124 100.5t147.5 57.5t158 17q165 0 348 -61l-131 -353h-4l-158 351q-6 15 -12.5 19.5t-24.5 4.5h-10q-95 0 -145 -100.5t-50 -296.5q0 -113 23.5 -196.5t63.5 -130.5t87.5 -69t102.5 -22
q81 0 145.5 44t106.5 124h4q-27 -169 -133.5 -264.5t-280.5 -95.5zM414 1278q0 67 46 108t111 41q66 0 111 -41t45 -108q0 -64 -45 -103.5t-111 -39.5q-65 0 -111 39.5t-46 103.5z" />
    <glyph glyph-name="Ccaron" unicode="&#x10c;" horiz-adv-x="1296" 
d="M754 1739l333 137l3 -4l-334 -356h-4l-334 356l2 4zM1200 1421v-503h-4l-311 471q-12 20 -25 26t-43 6h-29q-85 0 -146 -49.5t-96.5 -144.5t-52 -220.5t-16.5 -289.5q0 -166 17.5 -292t54.5 -218.5t98.5 -140.5t145.5 -48h22q30 0 43 5.5t25 23.5l313 483h4v-514
q-193 -36 -436 -36q-180 0 -316.5 52.5t-222 150t-128 231.5t-42.5 303q0 344 182.5 543.5t518.5 199.5q232 0 444 -39z" />
    <glyph glyph-name="ccaron" unicode="&#x10d;" horiz-adv-x="964" 
d="M571 1315l334 137l2 -4l-334 -356h-4l-333 356l2 4zM518 -16q-94 0 -178 32t-151.5 93t-107.5 161t-40 226q0 115 31.5 207t84 152t124 100.5t147.5 57.5t158 17q165 0 348 -61l-131 -353h-4l-158 351q-6 15 -12.5 19.5t-24.5 4.5h-10q-95 0 -145 -100.5t-50 -296.5
q0 -113 23.5 -196.5t63.5 -130.5t87.5 -69t102.5 -22q81 0 145.5 44t106.5 124h4q-27 -169 -133.5 -264.5t-280.5 -95.5z" />
    <glyph glyph-name="Dcaron" unicode="&#x10e;" horiz-adv-x="1474" 
d="M662 1739l333 137l2 -4l-333 -356h-5l-333 356l2 4zM31 0v4l137 129q12 12 15 20.5t3 28.5v1075q0 21 -3 29.5t-15 20.5l-137 129v4h684q348 0 528 -183t180 -505q0 -357 -195.5 -554.5t-551.5 -197.5h-645zM600 41h43q194 0 277.5 168.5t83.5 513.5q0 339 -81.5 507.5
t-265.5 168.5h-65q-22 0 -28.5 -6.5t-6.5 -32.5v-1278q0 -28 7 -34.5t36 -6.5z" />
    <glyph glyph-name="dcaron" unicode="&#x10f;" horiz-adv-x="1269" 
d="M1208 1440h234l-248 -400h-4zM1083 1493v-1339q0 -21 3 -29.5t16 -20.5l102 -100v-4h-454v193q-45 -104 -123 -156.5t-178 -52.5q-180 0 -292 137t-112 383q0 235 123.5 380.5t316.5 145.5q191 0 265 -164v424q0 20 -4 29.5t-17 21.5l-98 95v4zM606 137q84 0 144 78v633
q-22 28 -58 45.5t-76 17.5q-94 0 -155.5 -95t-61.5 -302q0 -197 56.5 -287t150.5 -90z" />
    <glyph glyph-name="Dcroat" unicode="&#x110;" horiz-adv-x="1503" 
d="M33 717v37h184v501q0 24 -3.5 33t-16.5 21l-138 127v4h684q176 0 312 -48t223 -138t131.5 -215t44.5 -281q0 -353 -196 -555.5t-551 -202.5h-648v4l138 127q13 12 16.5 21.5t3.5 33.5v531h-184zM688 1399h-65q-22 0 -28.5 -6.5t-6.5 -32.5v-606h217v-37h-217v-635
q0 -29 6.5 -35t36.5 -6h43q191 0 274.5 169t83.5 513q0 340 -80 508t-264 168z" />
    <glyph glyph-name="dcroat" unicode="&#x111;" horiz-adv-x="1236" 
d="M1085 1493v-293h134v-39h-134v-1007q0 -21 3 -29.5t16 -20.5l102 -100v-4h-454v193q-45 -104 -123 -156.5t-178 -52.5q-180 0 -292 137t-112 383q0 235 123.5 380.5t316.5 145.5q191 0 265 -164v295h-242v39h242v90q0 20 -4 29.5t-17 21.5l-98 95v4zM608 137q84 0 144 78
v633q-22 28 -58 45.5t-76 17.5q-94 0 -155.5 -95t-61.5 -302q0 -197 56.5 -287t150.5 -90z" />
    <glyph glyph-name="Emacron" unicode="&#x112;" horiz-adv-x="1243" 
d="M1128 1440v-496h-4l-264 422q-12 20 -23 26.5t-34 6.5h-211q-22 0 -28.5 -7t-6.5 -34v-617h139q20 2 30 6.5t24 22.5l184 213h4v-522h-4l-184 213q-15 17 -25 21.5t-31 4.5h-137v-618q0 -27 6.5 -34t28.5 -7h235q27 0 39.5 5.5t22.5 23.5l254 434h4v-504h-1116v4l137 129
q12 12 15 20.5t3 28.5v1075q0 21 -3 29.5t-15 20.5l-137 129v4h1097zM930 1638h-576v41h576v-41z" />
    <glyph glyph-name="emacron" unicode="&#x113;" 
d="M1004 553h-615v-4q0 -189 82.5 -282t210.5 -93q99 0 180.5 46t130.5 142h4q-78 -378 -452 -378q-100 0 -188 31t-159.5 91.5t-113 162t-41.5 231.5q0 137 41.5 241.5t114 166t163 92t195.5 30.5q68 0 130 -13t121.5 -44.5t102.5 -79.5t69 -123.5t26 -171.5q0 -20 -2 -45z
M553 991q-80 0 -120.5 -92.5t-43.5 -308.5h301q2 27 2 61q0 130 -18 207t-47 105t-74 28zM842 1212h-576v41h576v-41z" />
    <glyph glyph-name="Ebreve" unicode="&#x114;" horiz-adv-x="1243" 
d="M1128 1440v-496h-4l-264 422q-12 20 -23 26.5t-34 6.5h-211q-22 0 -28.5 -7t-6.5 -34v-617h139q20 2 30 6.5t24 22.5l184 213h4v-522h-4l-184 213q-15 17 -25 21.5t-31 4.5h-137v-618q0 -27 6.5 -34t28.5 -7h235q27 0 39.5 5.5t22.5 23.5l254 434h4v-504h-1116v4l137 129
q12 12 15 20.5t3 28.5v1075q0 21 -3 29.5t-15 20.5l-137 129v4h1097zM637 1690q115 0 183.5 50t74.5 144h4q8 -62 8 -86q0 -89 -40.5 -151t-99.5 -88.5t-130 -26.5q-52 0 -98 16t-84.5 47t-61 83.5t-22.5 119.5q0 45 8 86h4q4 -93 73 -143.5t181 -50.5z" />
    <glyph glyph-name="ebreve" unicode="&#x115;" 
d="M1004 553h-615v-4q0 -189 82.5 -282t210.5 -93q99 0 180.5 46t130.5 142h4q-78 -378 -452 -378q-100 0 -188 31t-159.5 91.5t-113 162t-41.5 231.5q0 137 41.5 241.5t114 166t163 92t195.5 30.5q68 0 130 -13t121.5 -44.5t102.5 -79.5t69 -123.5t26 -171.5q0 -20 -2 -45z
M553 991q-80 0 -120.5 -92.5t-43.5 -308.5h301q2 27 2 61q0 130 -18 207t-47 105t-74 28zM551 1264q115 0 183.5 50t74.5 144h4q8 -62 8 -86q0 -89 -40.5 -151t-99.5 -88.5t-130 -26.5q-52 0 -98 16t-84.5 47t-61 83.5t-22.5 119.5q0 45 8 86h4q4 -93 73 -143.5t181 -50.5z
" />
    <glyph glyph-name="Edotaccent" unicode="&#x116;" horiz-adv-x="1243" 
d="M1128 1440v-496h-4l-264 422q-12 20 -23 26.5t-34 6.5h-211q-22 0 -28.5 -7t-6.5 -34v-617h139q20 2 30 6.5t24 22.5l184 213h4v-522h-4l-184 213q-15 17 -25 21.5t-31 4.5h-137v-618q0 -27 6.5 -34t28.5 -7h235q27 0 39.5 5.5t22.5 23.5l254 434h4v-504h-1116v4l137 129
q12 12 15 20.5t3 28.5v1075q0 21 -3 29.5t-15 20.5l-137 129v4h1097zM485 1704q0 67 46.5 108t111.5 41q66 0 111 -41t45 -108q0 -64 -45 -103.5t-111 -39.5q-65 0 -111.5 39.5t-46.5 103.5z" />
    <glyph glyph-name="edotaccent" unicode="&#x117;" 
d="M1004 553h-615v-4q0 -189 82.5 -282t210.5 -93q99 0 180.5 46t130.5 142h4q-78 -378 -452 -378q-100 0 -188 31t-159.5 91.5t-113 162t-41.5 231.5q0 137 41.5 241.5t114 166t163 92t195.5 30.5q68 0 130 -13t121.5 -44.5t102.5 -79.5t69 -123.5t26 -171.5q0 -20 -2 -45z
M553 991q-80 0 -120.5 -92.5t-43.5 -308.5h301q2 27 2 61q0 130 -18 207t-47 105t-74 28zM397 1278q0 67 46.5 108t111.5 41q66 0 111 -41t45 -108q0 -64 -45 -103.5t-111 -39.5q-65 0 -111.5 39.5t-46.5 103.5z" />
    <glyph glyph-name="Eogonek" unicode="&#x118;" horiz-adv-x="1243" 
d="M1128 1440v-496h-4l-264 422q-12 20 -23 26.5t-34 6.5h-211q-22 0 -28.5 -7t-6.5 -34v-617h139q20 2 30 6.5t24 22.5l184 213h4v-522h-4l-184 213q-15 17 -25 21.5t-31 4.5h-137v-618q0 -27 6.5 -34t28.5 -7h235q27 0 39.5 5.5t22.5 23.5l254 434h4v-504h-201
q-70 -31 -107.5 -85.5t-37.5 -123.5q0 -76 41 -118t108 -42q45 0 89.5 23t74.5 70l4 -3q-31 -91 -95 -147.5t-165 -56.5q-93 0 -158 56t-65 153q0 95 79.5 169t211.5 105h-895v4l137 129q12 12 15 20.5t3 28.5v1075q0 21 -3 29.5t-15 20.5l-137 129v4h1097z" />
    <glyph glyph-name="eogonek" unicode="&#x119;" 
d="M559 -483q-92 0 -157.5 56t-65.5 153q0 89 71.5 159t190.5 101q-20 -2 -53 -2q-100 0 -188 31t-159.5 91.5t-113 162t-41.5 231.5q0 137 41.5 241.5t114 166t163 92t195.5 30.5q68 0 130 -13t121.5 -44.5t102.5 -79.5t69 -123.5t26 -171.5q0 -25 -2 -45h-615v-4
q0 -189 82.5 -282t210.5 -93q99 0 180.5 46t130.5 142h4q-68 -325 -358 -370q-65 -26 -101 -80t-36 -121q0 -76 41 -118t108 -42q45 0 89.5 23t74.5 70l4 -3q-29 -90 -93.5 -147t-166.5 -57zM553 991q-80 0 -120.5 -92.5t-43.5 -308.5h301q2 23 2 61q0 130 -18 207t-47 105
t-74 28z" />
    <glyph glyph-name="Ecaron" unicode="&#x11a;" horiz-adv-x="1243" 
d="M643 1739l334 137l2 -4l-334 -356h-4l-334 356l2 4zM1128 1440v-496h-4l-264 422q-12 20 -23 26.5t-34 6.5h-211q-22 0 -28.5 -7t-6.5 -34v-617h139q20 2 30 6.5t24 22.5l184 213h4v-522h-4l-184 213q-15 17 -25 21.5t-31 4.5h-137v-618q0 -27 6.5 -34t28.5 -7h235
q27 0 39.5 5.5t22.5 23.5l254 434h4v-504h-1116v4l137 129q12 12 15 20.5t3 28.5v1075q0 21 -3 29.5t-15 20.5l-137 129v4h1097z" />
    <glyph glyph-name="ecaron" unicode="&#x11b;" 
d="M557 1315l334 137l2 -4l-334 -356h-4l-334 356l2 4zM1004 553h-615v-4q0 -189 82.5 -282t210.5 -93q99 0 180.5 46t130.5 142h4q-78 -378 -452 -378q-100 0 -188 31t-159.5 91.5t-113 162t-41.5 231.5q0 137 41.5 241.5t114 166t163 92t195.5 30.5q68 0 130 -13
t121.5 -44.5t102.5 -79.5t69 -123.5t26 -171.5q0 -20 -2 -45zM553 991q-80 0 -120.5 -92.5t-43.5 -308.5h301q2 27 2 61q0 130 -18 207t-47 105t-74 28z" />
    <glyph glyph-name="Gcircumflex" unicode="&#x11c;" horiz-adv-x="1417" 
d="M1075 1524l-2 -2l-334 137l-333 -137l-3 2l334 358h4zM1237 1413v-502h-4l-320 478q-12 20 -23.5 26t-39.5 6h-35q-92 0 -158.5 -47.5t-105.5 -139.5t-56.5 -213t-17.5 -280q0 -260 33.5 -418t97.5 -226t166 -68q57 0 103 18q11 6 14.5 12.5t3.5 20.5v364q0 24 -3 33.5
t-15 24.5l-115 131v4h637v-4l-115 -131q-12 -15 -15 -24.5t-3 -33.5v-464l-312 55q-129 -55 -268 -55q-291 0 -462 197t-171 542q0 340 188 540.5t527 200.5q256 0 469 -47z" />
    <glyph glyph-name="gcircumflex" unicode="&#x11d;" horiz-adv-x="1075" 
d="M858 1098l-2 -2l-334 137l-334 -137l-2 2l334 358h4zM70 690q0 168 121 254t319 86q176 0 281 -57q13 -8 21.5 -6.5t21.5 16.5l213 225l4 -2v-307h-193q105 -84 105 -221q0 -161 -122.5 -240.5t-324.5 -79.5q-94 0 -166 17q-63 -23 -63 -76q0 -42 53.5 -66t155.5 -24h190
q179 0 273 -68t94 -204q0 -124 -76 -220t-207.5 -148t-294.5 -52q-106 0 -199 21.5t-157 70t-64 115.5q0 66 58.5 116t179.5 68q-106 23 -164.5 82.5t-58.5 140.5q0 90 69 156t189 94q-121 31 -189.5 107.5t-68.5 201.5zM383 -102q-45 3 -72 8q-82 -50 -82 -131
q0 -98 94 -156.5t222 -58.5q78 0 144.5 20.5t111.5 66.5t45 109t-44 96t-153 37zM385 696q0 -164 32.5 -233.5t98.5 -69.5t98.5 69t32.5 232t-32 232t-99 69t-99 -69t-32 -230z" />
    <glyph glyph-name="Gbreve" unicode="&#x11e;" horiz-adv-x="1417" 
d="M1237 1413v-502h-4l-320 478q-12 20 -23.5 26t-39.5 6h-35q-92 0 -158.5 -47.5t-105.5 -139.5t-56.5 -213t-17.5 -280q0 -260 33.5 -418t97.5 -226t166 -68q57 0 103 18q11 6 14.5 12.5t3.5 20.5v364q0 24 -3 33.5t-15 24.5l-115 131v4h637v-4l-115 -131
q-12 -15 -15 -24.5t-3 -33.5v-464l-312 55q-129 -55 -268 -55q-291 0 -462 197t-171 542q0 340 188 540.5t527 200.5q256 0 469 -47zM733 1690q115 0 183.5 50t74.5 144h4q9 -70 9 -86q0 -89 -40.5 -151t-100 -88.5t-130.5 -26.5q-52 0 -98 16t-84.5 47t-61 83.5
t-22.5 119.5q0 45 8 86h4q4 -93 73 -143.5t181 -50.5z" />
    <glyph glyph-name="gbreve" unicode="&#x11f;" horiz-adv-x="1075" 
d="M70 690q0 168 121 254t319 86q176 0 281 -57q13 -8 21.5 -6.5t21.5 16.5l213 225l4 -2v-307h-193q105 -84 105 -221q0 -161 -122.5 -240.5t-324.5 -79.5q-94 0 -166 17q-63 -23 -63 -76q0 -42 53.5 -66t155.5 -24h190q179 0 273 -68t94 -204q0 -124 -76 -220t-207.5 -148
t-294.5 -52q-106 0 -199 21.5t-157 70t-64 115.5q0 66 58.5 116t179.5 68q-106 23 -164.5 82.5t-58.5 140.5q0 90 69 156t189 94q-121 31 -189.5 107.5t-68.5 201.5zM383 -102q-45 3 -72 8q-82 -50 -82 -131q0 -98 94 -156.5t222 -58.5q78 0 144.5 20.5t111.5 66.5t45 109
t-44 96t-153 37zM385 696q0 -164 32.5 -233.5t98.5 -69.5t98.5 69t32.5 232t-32 232t-99 69t-99 -69t-32 -230zM516 1264q115 0 183.5 50t74.5 144h4q8 -62 8 -86q0 -89 -40.5 -151t-99.5 -88.5t-130 -26.5q-52 0 -98 16t-84.5 47t-61 83.5t-22.5 119.5q0 45 8 86h4
q4 -93 73 -143.5t181 -50.5z" />
    <glyph glyph-name="Gdotaccent" unicode="&#x120;" horiz-adv-x="1417" 
d="M1237 1413v-502h-4l-320 478q-12 20 -23.5 26t-39.5 6h-35q-92 0 -158.5 -47.5t-105.5 -139.5t-56.5 -213t-17.5 -280q0 -260 33.5 -418t97.5 -226t166 -68q57 0 103 18q11 6 14.5 12.5t3.5 20.5v364q0 24 -3 33.5t-15 24.5l-115 131v4h637v-4l-115 -131
q-12 -15 -15 -24.5t-3 -33.5v-464l-312 55q-129 -55 -268 -55q-291 0 -462 197t-171 542q0 340 188 540.5t527 200.5q256 0 469 -47zM582 1704q0 67 46 108t111 41q66 0 111 -41t45 -108q0 -64 -45 -103.5t-111 -39.5q-65 0 -111 39.5t-46 103.5z" />
    <glyph glyph-name="gdotaccent" unicode="&#x121;" horiz-adv-x="1075" 
d="M70 690q0 168 121 254t319 86q176 0 281 -57q13 -8 21.5 -6.5t21.5 16.5l213 225l4 -2v-307h-193q105 -84 105 -221q0 -161 -122.5 -240.5t-324.5 -79.5q-94 0 -166 17q-63 -23 -63 -76q0 -42 53.5 -66t155.5 -24h190q179 0 273 -68t94 -204q0 -124 -76 -220t-207.5 -148
t-294.5 -52q-106 0 -199 21.5t-157 70t-64 115.5q0 66 58.5 116t179.5 68q-106 23 -164.5 82.5t-58.5 140.5q0 90 69 156t189 94q-121 31 -189.5 107.5t-68.5 201.5zM383 -102q-45 3 -72 8q-82 -50 -82 -131q0 -98 94 -156.5t222 -58.5q78 0 144.5 20.5t111.5 66.5t45 109
t-44 96t-153 37zM385 696q0 -164 32.5 -233.5t98.5 -69.5t98.5 69t32.5 232t-32 232t-99 69t-99 -69t-32 -230zM365 1278q0 67 46 108t111 41q66 0 111 -41t45 -108q0 -64 -45 -103.5t-111 -39.5q-65 0 -111 39.5t-46 103.5z" />
    <glyph glyph-name="Gcommaaccent" unicode="&#x122;" horiz-adv-x="1417" 
d="M877 -236q0 -100 -73 -182.5t-181 -107.5l-2 4q112 72 112 178q0 11 -4 14.5t-14 5.5q-50 6 -79.5 37.5t-29.5 83.5q0 55 36.5 92t94.5 37q63 0 101.5 -44t38.5 -118zM1237 1413v-502h-4l-320 478q-12 20 -23.5 26t-39.5 6h-35q-92 0 -158.5 -47.5t-105.5 -139.5
t-56.5 -213t-17.5 -280q0 -260 33.5 -418t97.5 -226t166 -68q57 0 103 18q11 6 14.5 12.5t3.5 20.5v364q0 24 -3 33.5t-15 24.5l-115 131v4h637v-4l-115 -131q-12 -15 -15 -24.5t-3 -33.5v-464l-312 55q-129 -55 -268 -55q-291 0 -462 197t-171 542q0 340 188 540.5
t527 200.5q256 0 469 -47z" />
    <glyph glyph-name="gcommaaccent" unicode="&#x123;" horiz-adv-x="1075" 
d="M70 690q0 168 121 254t319 86q176 0 281 -57q13 -8 21.5 -6.5t21.5 16.5l213 225l4 -2v-307h-193q105 -84 105 -221q0 -161 -122.5 -240.5t-324.5 -79.5q-94 0 -166 17q-63 -23 -63 -76q0 -42 53.5 -66t155.5 -24h190q179 0 273 -68t94 -204q0 -124 -76 -220t-207.5 -148
t-294.5 -52q-106 0 -199 21.5t-157 70t-64 115.5q0 66 58.5 116t179.5 68q-106 23 -164.5 82.5t-58.5 140.5q0 90 69 156t189 94q-121 31 -189.5 107.5t-68.5 201.5zM383 -102q-45 3 -72 8q-82 -50 -82 -131q0 -98 94 -156.5t222 -58.5q78 0 144.5 20.5t111.5 66.5t45 109
t-44 96t-153 37zM385 696q0 -164 32.5 -233.5t98.5 -69.5t98.5 69t32.5 232t-32 232t-99 69t-99 -69t-32 -230zM662 1239q0 -55 -37 -93t-95 -38q-63 0 -101 44.5t-38 117.5q0 102 73 183.5t181 109.5l2 -4q-112 -70 -112 -179q0 -20 18 -20q49 0 79 -34t30 -87z" />
    <glyph glyph-name="Hcircumflex" unicode="&#x124;" horiz-adv-x="1589" 
d="M1130 1524l-2 -2l-333 137l-334 -137l-2 2l334 358h4zM1403 1257v-1075q0 -20 3 -28.5t15 -20.5l135 -129v-4h-679v4l135 129q13 13 16.5 21.5t3.5 27.5v535h-475v-535q0 -20 3.5 -28.5t17.5 -20.5l135 -129v-4h-682v4l137 129q12 12 15 20.5t3 28.5v1075q0 21 -3 29.5
t-15 20.5l-137 129v4h682v-4l-135 -129q-14 -12 -17.5 -21t-3.5 -29v-499h475v499q0 21 -3.5 29.5t-16.5 20.5l-135 129v4h679v-4l-135 -129q-12 -12 -15 -20.5t-3 -29.5z" />
    <glyph glyph-name="hcircumflex" unicode="&#x125;" horiz-adv-x="1236" 
d="M641 1524l-2 -2l-334 137l-334 -137l-2 2l334 358h4zM1116 598q0 -74 -3 -244.5t-3 -206.5q0 -21 3.5 -29t16.5 -20l101 -94v-4h-574v4l97 94q13 12 16.5 20.5t3.5 26.5q0 7 3 178t3 228q0 153 -33.5 231t-121.5 78q-90 0 -154 -92v-621q0 -20 3.5 -28.5t17.5 -20.5
l100 -94v-4h-574v4l101 94q12 12 15 20.5t3 28.5v1143q0 21 -3 30t-15 21l-101 95v4l453 53v-702q39 114 121 176.5t205 62.5q156 0 237.5 -110t81.5 -322z" />
    <glyph glyph-name="Hbar" unicode="&#x126;" horiz-adv-x="1589" 
d="M1548 975h-145v-789q0 -25 2.5 -34.5t15.5 -20.5l140 -127v-4h-687v4l138 127q13 13 16.5 22.5t3.5 32.5v428h-475v-428q0 -23 3.5 -32t17.5 -23l137 -127v-4h-686v4l139 127q13 11 15.5 20.5t2.5 34.5v789h-145v39h145v239q0 25 -2.5 35t-15.5 21l-139 127v4h686v-4
l-137 -127q-14 -14 -17.5 -23.5t-3.5 -32.5v-239h475v239q0 24 -3.5 33.5t-16.5 22.5l-138 127v4h687v-4l-140 -127q-13 -11 -15.5 -21t-2.5 -35v-239h145v-39zM557 975v-318h475v318h-475z" />
    <glyph glyph-name="hbar" unicode="&#x127;" horiz-adv-x="1236" 
d="M1116 598q0 -74 -3 -244.5t-3 -206.5q0 -21 3.5 -29t16.5 -20l101 -94v-4h-574v4l97 94q13 12 16.5 20.5t3.5 26.5q0 7 3 178t3 228q0 153 -33.5 231t-121.5 78q-90 0 -154 -92v-621q0 -20 3.5 -28.5t17.5 -20.5l100 -94v-4h-574v4l101 94q12 12 15 20.5t3 28.5v1014
h-125v39h125v90q0 21 -3 30t-15 21l-101 95v4l453 53v-293h254v-39h-254v-370q39 114 121 176.5t205 62.5q156 0 237.5 -110t81.5 -322z" />
    <glyph glyph-name="Itilde" unicode="&#x128;" horiz-adv-x="745" 
d="M557 182q0 -20 3.5 -28.5t17.5 -20.5l135 -129v-4h-682v4l137 129q12 12 15 20.5t3 28.5v1075q0 21 -3 29.5t-15 20.5l-137 129v4h682v-4l-135 -129q-14 -12 -17.5 -21t-3.5 -29v-1075zM504 1577q-45 0 -98 25t-103 50t-88 25q-98 0 -131 -100h-4v49q0 94 48.5 151.5
t123.5 57.5q45 0 98 -25t103 -50t88 -25q97 0 133 100h4q0 -35 -2 -51q-4 -95 -51 -151t-121 -56z" />
    <glyph glyph-name="itilde" unicode="&#x129;" horiz-adv-x="634" 
d="M496 1014v-867q0 -19 3.5 -27.5t16.5 -21.5l100 -94v-4h-573v4l100 94q12 12 15.5 20.5t3.5 28.5v709q0 30 -19 51l-100 103v4h453zM438 1151q-45 0 -97.5 25t-102.5 50t-88 25q-99 0 -132 -100h-4v49q0 94 48.5 151.5t123.5 57.5q45 0 98 -25t103 -50t88 -25
q97 0 133 100h4q0 -35 -2 -51q-4 -95 -51 -151t-121 -56z" />
    <glyph glyph-name="Imacron" unicode="&#x12a;" horiz-adv-x="745" 
d="M557 182q0 -20 3.5 -28.5t17.5 -20.5l135 -129v-4h-682v4l137 129q12 12 15 20.5t3 28.5v1075q0 21 -3 29.5t-15 20.5l-137 129v4h682v-4l-135 -129q-14 -12 -17.5 -21t-3.5 -29v-1075zM659 1638h-575v41h575v-41z" />
    <glyph glyph-name="imacron" unicode="&#x12b;" horiz-adv-x="634" 
d="M496 1014v-867q0 -19 3.5 -27.5t16.5 -21.5l100 -94v-4h-573v4l100 94q12 12 15.5 20.5t3.5 28.5v709q0 30 -19 51l-100 103v4h453zM586 1212h-576v41h576v-41z" />
    <glyph glyph-name="Ibreve" unicode="&#x12c;" horiz-adv-x="745" 
d="M557 182q0 -20 3.5 -28.5t17.5 -20.5l135 -129v-4h-682v4l137 129q12 12 15 20.5t3 28.5v1075q0 21 -3 29.5t-15 20.5l-137 129v4h682v-4l-135 -129q-14 -12 -17.5 -21t-3.5 -29v-1075zM367 1690q115 0 183.5 50t74.5 144h4q8 -62 8 -86q0 -89 -40.5 -151t-99.5 -88.5
t-130 -26.5q-70 0 -128.5 26.5t-98.5 88.5t-40 151q0 40 9 86h4q4 -93 73 -143.5t181 -50.5z" />
    <glyph glyph-name="ibreve" unicode="&#x12d;" horiz-adv-x="634" 
d="M496 1014v-867q0 -19 3.5 -27.5t16.5 -21.5l100 -94v-4h-573v4l100 94q12 12 15.5 20.5t3.5 28.5v709q0 30 -19 51l-100 103v4h453zM301 1264q115 0 183.5 50t74.5 144h4q8 -62 8 -86q0 -89 -40.5 -151t-99.5 -88.5t-130 -26.5q-52 0 -98 16t-84.5 47t-61 83.5
t-22.5 119.5q0 45 8 86h4q4 -93 73 -143.5t181 -50.5z" />
    <glyph glyph-name="Iogonek" unicode="&#x12e;" horiz-adv-x="745" 
d="M557 182q0 -20 3.5 -28.5t17.5 -20.5l135 -129v-4h-260q-71 -29 -108.5 -84t-37.5 -125q0 -76 42 -118t110 -42q43 0 87.5 23t74.5 70l4 -3q-29 -90 -93.5 -147t-166.5 -57q-92 0 -158 56t-66 153q0 94 76.5 168.5t204.5 105.5h-391v4l137 129q12 12 15 20.5t3 28.5v1075
q0 21 -3 29.5t-15 20.5l-137 129v4h682v-4l-135 -129q-14 -12 -17.5 -21t-3.5 -29v-1075z" />
    <glyph glyph-name="iogonek" unicode="&#x12f;" horiz-adv-x="634" 
d="M334 -483q-93 0 -158 56t-65 153q0 94 76 168.5t202 105.5h-348v4l100 94q13 12 16 20t3 29v709q0 20 -3.5 28.5t-15.5 22.5l-100 103v4h455v-867q0 -22 2.5 -30t15.5 -19l100 -94v-4h-194q-71 -29 -107.5 -83.5t-36.5 -125.5q0 -76 41.5 -118t108.5 -42q45 0 89.5 23
t74.5 70l4 -3q-31 -91 -95 -147.5t-165 -56.5zM322 1126q-68 0 -116 42.5t-48 109.5q0 71 48 115.5t116 44.5q71 0 118 -44t47 -116q0 -68 -47.5 -110t-117.5 -42z" />
    <glyph glyph-name="Idotaccent" unicode="&#x130;" horiz-adv-x="745" 
d="M557 182q0 -20 3.5 -28.5t17.5 -20.5l135 -129v-4h-682v4l137 129q12 12 15 20.5t3 28.5v1075q0 21 -3 29.5t-15 20.5l-137 129v4h682v-4l-135 -129q-14 -12 -17.5 -21t-3.5 -29v-1075zM213 1704q0 67 46.5 108t111.5 41q66 0 110.5 -41t44.5 -108q0 -65 -44.5 -104
t-110.5 -39q-65 0 -111.5 39.5t-46.5 103.5z" />
    <glyph glyph-name="dotlessi" unicode="&#x131;" horiz-adv-x="634" 
d="M496 1014v-867q0 -19 3.5 -27.5t16.5 -21.5l100 -94v-4h-573v4l100 94q12 12 15.5 20.5t3.5 28.5v709q0 30 -19 51l-100 103v4h453z" />
    <glyph glyph-name="IJ" unicode="&#x132;" horiz-adv-x="1429" 
d="M557 182q0 -20 3.5 -28.5t17.5 -20.5l135 -129v-4h-682v4l137 129q12 12 15 20.5t3 28.5v1075q0 21 -3 29.5t-15 20.5l-137 129v4h682v-4l-135 -129q-14 -12 -17.5 -21t-3.5 -29v-1075zM901 121v1136q0 21 -3.5 29.5t-16.5 20.5l-136 129v4h682v-4l-135 -129
q-13 -12 -16.5 -20.5t-3.5 -29.5v-1015q0 -309 -165.5 -486.5t-479.5 -187.5l-2 4q276 140 276 549z" />
    <glyph glyph-name="ij" unicode="&#x133;" horiz-adv-x="1226" 
d="M322 1126q-68 0 -116 42.5t-48 109.5q0 71 48 115.5t116 44.5q71 0 118 -44t47 -116q0 -68 -47.5 -110t-117.5 -42zM41 1014h455v-867q0 -22 2.5 -30t15.5 -19l100 -94v-4h-573v4l100 94q13 12 16 20t3 29v709q0 20 -3.5 28.5t-15.5 22.5l-100 103v4zM1120 76
q0 -258 -133 -399t-379 -142q-20 0 -30 2v4q206 42 206 420v895q0 20 -3 29t-15 22l-100 103v4h454v-938zM780 1278q0 71 49 115.5t117 44.5q71 0 118.5 -44t47.5 -116q0 -68 -47.5 -110t-118.5 -42q-68 0 -117 42.5t-49 109.5z" />
    <glyph glyph-name="Jcircumflex" unicode="&#x134;" horiz-adv-x="686" 
d="M680 1524l-2 -2l-334 137l-334 -137l-2 2l334 358h4zM158 121v1136q0 20 -3.5 29t-17.5 21l-135 129v4h682v-4l-135 -129q-14 -12 -17.5 -21t-3.5 -29v-1015q0 -309 -165.5 -486.5t-479.5 -187.5l-2 4q277 141 277 549z" />
    <glyph glyph-name="jcircumflex" unicode="&#x135;" horiz-adv-x="591" 
d="M485 76q0 -257 -130 -397.5t-373 -143.5q-7 0 -20 1t-19 1v4q207 43 207 420v895q0 20 -3.5 28.5t-15.5 22.5l-100 103v4h454v-938zM637 1098l-2 -2l-334 137l-334 -137l-2 2l334 358h4z" />
    <glyph glyph-name="Kcommaaccent" unicode="&#x136;" horiz-adv-x="1454" 
d="M926 -236q0 -100 -73 -182.5t-181 -107.5l-2 4q112 72 112 178q0 11 -4 14.5t-14 5.5q-50 6 -79.5 37.5t-29.5 83.5q0 55 36.5 92t94.5 37q63 0 101.5 -44t38.5 -118zM557 1257v-1075q0 -20 3.5 -28.5t17.5 -20.5l135 -129v-4h-682v4l137 129q12 12 15 20.5t3 28.5v1075
q0 21 -3 29.5t-15 20.5l-137 129v4h682v-4l-135 -129q-14 -12 -17.5 -21t-3.5 -29zM1309 195q26 -44 61 -76l119 -115v-4h-490l-426 702l428 465q17 20 16.5 28.5t-16.5 31.5l-155 209v4h635v-4l-340 -213q-43 -27 -60 -40t-45 -42l-188 -199z" />
    <glyph glyph-name="kcommaaccent" unicode="&#x137;" horiz-adv-x="1171" 
d="M758 -236q0 -100 -73 -182.5t-181 -107.5l-2 4q112 72 112 178q0 11 -4 14.5t-14 5.5q-50 6 -79.5 37.5t-29.5 83.5q0 55 36.5 92t94.5 37q63 0 101.5 -44t38.5 -118zM784 688l275 -541q17 -33 47 -63l86 -80v-4h-434l-228 483q-11 25 -36 25q-12 0 -23 -8v-353
q0 -20 3.5 -28.5t17.5 -20.5l100 -94v-4h-574v4l101 94q12 12 15 20.5t3 28.5v1143q0 21 -3 30t-15 21l-101 95v4l453 53v-971l332 248q22 17 4 41l-139 199v4h501v-4l-374 -285q-21 -15 -11 -37z" />
    <glyph glyph-name="kgreenlandic" unicode="&#x138;" horiz-adv-x="1191" 
d="M496 500v-353q0 -22 2.5 -30t15.5 -19l100 -94v-4h-573v4l100 94q13 12 16 20t3 29v709q0 20 -3.5 28.5t-15.5 22.5l-100 103v4h455v-492l329 248q22 16 6 41l-141 199v4h502v-4l-373 -285q-13 -9 -15 -16t3 -21l276 -541q20 -39 47 -63l84 -80v-4h-434l-227 483
q-11 25 -35 25q-6 0 -22 -8z" />
    <glyph glyph-name="Lacute" unicode="&#x139;" horiz-adv-x="1189" 
d="M397 1866h328v-4l-485 -338l-4 4zM186 182v1075q0 21 -3 29.5t-15 20.5l-137 129v4h682v-4l-135 -129q-14 -12 -17.5 -21t-3.5 -29v-1175q0 -27 6.5 -34t28.5 -7h192q26 0 37.5 6t22.5 23l284 462h5v-532h-1102v4l137 129q12 12 15 20.5t3 28.5z" />
    <glyph glyph-name="lacute" unicode="&#x13a;" horiz-adv-x="610" 
d="M332 1866h327v-4l-485 -338l-4 4zM471 1493v-1346q0 -20 3.5 -28.5t17.5 -20.5l100 -94v-4h-574v4l101 94q12 12 15 20.5t3 28.5v1143q0 21 -3 30t-15 21l-101 95v4z" />
    <glyph glyph-name="Lcommaaccent" unicode="&#x13b;" horiz-adv-x="1189" 
d="M762 -236q0 -100 -73 -182.5t-181 -107.5l-2 4q112 72 112 178q0 11 -4 14.5t-14 5.5q-50 6 -79 37.5t-29 83.5q0 55 36.5 92t94.5 37q63 0 101 -43.5t38 -118.5zM186 182v1075q0 21 -3 29.5t-15 20.5l-137 129v4h682v-4l-135 -129q-14 -12 -17.5 -21t-3.5 -29v-1175
q0 -27 6.5 -34t28.5 -7h192q26 0 37.5 6t22.5 23l284 462h5v-532h-1102v4l137 129q12 12 15 20.5t3 28.5z" />
    <glyph glyph-name="lcommaaccent" unicode="&#x13c;" horiz-adv-x="610" 
d="M444 -236q0 -100 -73 -182.5t-181 -107.5l-2 4q113 72 113 178q0 11 -4 14.5t-14 5.5q-50 6 -79.5 37.5t-29.5 83.5q0 55 36.5 92t94.5 37q63 0 101 -43.5t38 -118.5zM471 1493v-1346q0 -20 3.5 -28.5t17.5 -20.5l100 -94v-4h-574v4l101 94q12 12 15 20.5t3 28.5v1143
q0 21 -3 30t-15 21l-101 95v4z" />
    <glyph glyph-name="Lcaron" unicode="&#x13d;" horiz-adv-x="1187" 
d="M840 1440h233l-248 -400h-4zM186 182v1075q0 21 -3 29.5t-15 20.5l-137 129v4h682v-4l-135 -129q-14 -12 -17.5 -21t-3.5 -29v-1175q0 -27 6.5 -34t28.5 -7h192q26 0 37.5 6t22.5 23l284 462h5v-532h-1102v4l137 129q12 12 15 20.5t3 28.5z" />
    <glyph glyph-name="lcaron" unicode="&#x13e;" horiz-adv-x="657" 
d="M598 1440h233l-247 -400h-4zM471 1493v-1346q0 -20 3.5 -28.5t17.5 -20.5l100 -94v-4h-574v4l101 94q12 12 15 20.5t3 28.5v1143q0 21 -3 30t-15 21l-101 95v4z" />
    <glyph glyph-name="Ldot" unicode="&#x13f;" horiz-adv-x="1189" 
d="M193 182v1075q0 20 -3.5 29t-15.5 21l-137 129v4h682v-4l-135 -129q-14 -12 -17.5 -21t-3.5 -29v-1175q0 -27 6.5 -34t28.5 -7h193q26 0 37 5.5t22 23.5l285 462h4v-532h-1102v4l137 129q12 12 15.5 20.5t3.5 28.5zM760 797q0 67 46.5 108t111.5 41q66 0 110.5 -41
t44.5 -108q0 -65 -44.5 -104.5t-110.5 -39.5q-65 0 -111.5 40t-46.5 104z" />
    <glyph glyph-name="ldot" unicode="&#x140;" horiz-adv-x="860" 
d="M471 1493v-1346q0 -20 3.5 -28.5t17.5 -20.5l100 -94v-4h-574v4l101 94q12 12 15 20.5t3 28.5v1143q0 21 -3 30t-15 21l-101 95v4zM557 733q0 67 46.5 108.5t111.5 41.5q66 0 110.5 -41.5t44.5 -108.5q0 -65 -44.5 -104t-110.5 -39q-65 0 -111.5 39.5t-46.5 103.5z" />
    <glyph glyph-name="Lslash" unicode="&#x141;" horiz-adv-x="1208" 
d="M842 846l-267 -109v-655q0 -27 6.5 -34t28.5 -7h193q26 0 37 5.5t22 23.5l285 462h4v-532h-1102v4l137 129q12 12 15.5 20.5t3.5 28.5v404l-150 -62l-14 37l164 66v630q0 20 -3.5 29t-15.5 21l-137 129v4h682v-4l-135 -129q-14 -12 -17.5 -21t-3.5 -29v-479l252 103z" />
    <glyph glyph-name="lslash" unicode="&#x142;" horiz-adv-x="690" 
d="M717 815l-211 -86v-582q0 -21 3.5 -29t16.5 -20l101 -94v-4h-574v4l101 94q12 12 15 20.5t3 28.5v445l-166 -68l-14 35l180 74v657q0 21 -3 30t-15 21l-101 95v4l453 53v-725l196 82z" />
    <glyph glyph-name="Nacute" unicode="&#x143;" horiz-adv-x="1447" 
d="M754 1866h327v-4l-485 -338l-4 4zM1243 0h-250l-706 1094v-750q0 -22 4 -31.5t20 -31.5l211 -277v-4h-510v4l205 275q18 23 22.5 33t4.5 32v774q0 39 -19 66l-205 252v4h484l696 -1082v738q0 24 -3.5 34t-20.5 31l-209 275v4h510v-4l-207 -275q-3 -4 -8 -11t-6.5 -9.5
l-4.5 -7.5t-4 -8t-2 -7.5t-1.5 -9.5t-0.5 -12v-1096z" />
    <glyph glyph-name="nacute" unicode="&#x144;" horiz-adv-x="1259" 
d="M668 1440h327v-4l-485 -338l-4 4zM1141 598q0 -74 -3 -244.5t-3 -206.5q0 -20 3 -28.5t15 -20.5l102 -94v-4h-575v4l98 94q19 19 19 47q0 7 3 178t3 228q0 153 -33.5 231t-122.5 78q-88 0 -151 -90v-623q0 -22 2.5 -30t15.5 -19l100 -94v-4h-573v4l100 94q13 12 16 20
t3 29v709q0 20 -3.5 28.5t-15.5 22.5l-100 103v4h455v-217q39 110 121.5 171.5t203.5 61.5q155 0 237.5 -110.5t82.5 -321.5z" />
    <glyph glyph-name="Ncommaaccent" unicode="&#x145;" horiz-adv-x="1447" 
d="M868 -236q0 -100 -73 -182.5t-181 -107.5l-2 4q113 72 113 178q0 11 -4 14.5t-14 5.5q-50 6 -79.5 37.5t-29.5 83.5q0 55 36.5 92t94.5 37q63 0 101 -43.5t38 -118.5zM1243 0h-250l-706 1094v-750q0 -22 4 -31.5t20 -31.5l211 -277v-4h-510v4l205 275q18 23 22.5 33
t4.5 32v774q0 39 -19 66l-205 252v4h484l696 -1082v738q0 24 -3.5 34t-20.5 31l-209 275v4h510v-4l-207 -275q-3 -4 -8 -11t-6.5 -9.5l-4.5 -7.5t-4 -8t-2 -7.5t-1.5 -9.5t-0.5 -12v-1096z" />
    <glyph glyph-name="ncommaaccent" unicode="&#x146;" horiz-adv-x="1259" 
d="M791 -236q0 -100 -73 -182.5t-181 -107.5l-2 4q112 72 112 178q0 11 -4 14.5t-14 5.5q-50 6 -79.5 37.5t-29.5 83.5q0 55 36.5 92t94.5 37q63 0 101.5 -44t38.5 -118zM1141 598q0 -74 -3 -244.5t-3 -206.5q0 -20 3 -28.5t15 -20.5l102 -94v-4h-575v4l98 94q19 19 19 47
q0 7 3 178t3 228q0 153 -33.5 231t-122.5 78q-88 0 -151 -90v-623q0 -22 2.5 -30t15.5 -19l100 -94v-4h-573v4l100 94q13 12 16 20t3 29v709q0 20 -3.5 28.5t-15.5 22.5l-100 103v4h455v-217q39 110 121.5 171.5t203.5 61.5q155 0 237.5 -110.5t82.5 -321.5z" />
    <glyph glyph-name="Ncaron" unicode="&#x147;" horiz-adv-x="1447" 
d="M727 1739l334 137l2 -4l-334 -356h-4l-334 356l2 4zM1243 0h-250l-706 1094v-750q0 -22 4 -31.5t20 -31.5l211 -277v-4h-510v4l205 275q18 23 22.5 33t4.5 32v774q0 39 -19 66l-205 252v4h484l696 -1082v738q0 24 -3.5 34t-20.5 31l-209 275v4h510v-4l-207 -275
q-3 -4 -8 -11t-6.5 -9.5l-4.5 -7.5t-4 -8t-2 -7.5t-1.5 -9.5t-0.5 -12v-1096z" />
    <glyph glyph-name="ncaron" unicode="&#x148;" horiz-adv-x="1259" 
d="M641 1315l334 137l2 -4l-334 -356h-4l-334 356l2 4zM1141 598q0 -74 -3 -244.5t-3 -206.5q0 -20 3 -28.5t15 -20.5l102 -94v-4h-575v4l98 94q19 19 19 47q0 7 3 178t3 228q0 153 -33.5 231t-122.5 78q-88 0 -151 -90v-623q0 -22 2.5 -30t15.5 -19l100 -94v-4h-573v4
l100 94q13 12 16 20t3 29v709q0 20 -3.5 28.5t-15.5 22.5l-100 103v4h455v-217q39 110 121.5 171.5t203.5 61.5q155 0 237.5 -110.5t82.5 -321.5z" />
    <glyph glyph-name="napostrophe" unicode="&#x149;" horiz-adv-x="1384" 
d="M209 1262q0 -101 -73 -183.5t-181 -107.5l-2 4q113 72 113 178q0 18 -19 21q-50 6 -79 37t-29 83q0 55 36.5 92t94.5 37q63 0 101 -43t38 -118zM1266 598q0 -74 -3 -244.5t-3 -206.5q0 -20 3 -28.5t15 -20.5l102 -94v-4h-575v4l98 94q19 19 19 47q0 7 3 178t3 228
q0 153 -33.5 231t-122.5 78q-88 0 -151 -90v-623q0 -22 2.5 -30t15.5 -19l100 -94v-4h-573v4l100 94q13 12 16 20t3 29v709q0 20 -3.5 28.5t-15.5 22.5l-100 103v4h455v-217q39 110 121.5 171.5t203.5 61.5q155 0 237.5 -110.5t82.5 -321.5z" />
    <glyph glyph-name="Eng" unicode="&#x14a;" horiz-adv-x="1423" 
d="M557 1194v-1012q0 -20 3.5 -28.5t17.5 -20.5l135 -129v-4h-682v4l137 129q12 12 15 20.5t3 28.5v1075q0 21 -3 29.5t-15 20.5l-137 129v4h526v-221q40 108 139.5 172.5t225.5 64.5q187 0 299 -110.5t112 -317.5v-885q0 -269 -153.5 -412t-411.5 -143v4q203 53 203 412
v983q0 301 -221 301q-53 0 -108.5 -26.5t-84.5 -67.5z" />
    <glyph glyph-name="eng" unicode="&#x14b;" horiz-adv-x="1245" 
d="M805 -47l-2 598q0 153 -33.5 231t-122.5 78q-88 0 -151 -90v-623q0 -22 2.5 -30t15.5 -19l100 -94v-4h-573v4l100 94q13 12 16 20t3 29v709q0 20 -3.5 28.5t-15.5 22.5l-100 103v4h455v-217q39 110 121.5 171.5t203.5 61.5q155 0 237.5 -109.5t82.5 -320.5v-508
q0 -271 -144 -413t-401 -142v4q105 27 157 135t52 277z" />
    <glyph glyph-name="Omacron" unicode="&#x14c;" horiz-adv-x="1499" 
d="M1034 1638h-575v41h575v-41zM750 18q89 0 148 69t91.5 226.5t32.5 407.5t-32.5 407t-91.5 225t-148 68t-148.5 -68t-92 -225t-32.5 -407t32.5 -407.5t92 -226.5t148.5 -69zM750 1460q329 0 511.5 -189.5t182.5 -551.5q0 -360 -182.5 -549.5t-511.5 -189.5t-512 189.5
t-183 549.5q0 362 183 551.5t512 189.5z" />
    <glyph glyph-name="omacron" unicode="&#x14d;" horiz-adv-x="1169" 
d="M868 1212h-575v41h575v-41zM584 991q-41 0 -69.5 -20t-51.5 -72t-34 -149t-11 -242t11 -242.5t34 -150t51.5 -74t69.5 -21.5q55 0 89 37t55.5 147t21.5 302q0 145 -11 242t-34 149t-51.5 73t-69.5 21zM584 -16q-249 0 -394 134.5t-145 389.5q0 253 145 387.5t394 134.5
t394.5 -134.5t145.5 -389.5q0 -253 -145.5 -387.5t-394.5 -134.5z" />
    <glyph glyph-name="Obreve" unicode="&#x14e;" horiz-adv-x="1499" 
d="M750 18q89 0 148 69t91.5 226.5t32.5 407.5t-32.5 407t-91.5 225t-148 68t-148.5 -68t-92 -225t-32.5 -407t32.5 -407.5t92 -226.5t148.5 -69zM750 1460q329 0 511.5 -189.5t182.5 -551.5q0 -360 -182.5 -549.5t-511.5 -189.5t-512 189.5t-183 549.5q0 362 183 551.5
t512 189.5zM741 1690q115 0 183.5 50t74.5 144h5q8 -62 8 -86q0 -89 -40.5 -151t-100 -88.5t-130.5 -26.5q-52 0 -98 16t-84.5 47t-61 83.5t-22.5 119.5q0 45 8 86h4q4 -93 73 -143.5t181 -50.5z" />
    <glyph glyph-name="obreve" unicode="&#x14f;" horiz-adv-x="1169" 
d="M584 991q-41 0 -69.5 -20t-51.5 -72t-34 -149t-11 -242t11 -242.5t34 -150t51.5 -74t69.5 -21.5q55 0 89 37t55.5 147t21.5 302q0 145 -11 242t-34 149t-51.5 73t-69.5 21zM584 -16q-249 0 -394 134.5t-145 389.5q0 253 145 387.5t394 134.5t394.5 -134.5t145.5 -389.5
q0 -253 -145.5 -387.5t-394.5 -134.5zM578 1264q115 0 183.5 50t74.5 144h4q8 -62 8 -86q0 -89 -40.5 -151t-99.5 -88.5t-130 -26.5q-70 0 -128.5 26.5t-98.5 88.5t-40 151q0 45 8 86h5q4 -93 73 -143.5t181 -50.5z" />
    <glyph glyph-name="Ohungarumlaut" unicode="&#x150;" horiz-adv-x="1499" 
d="M641 1866h264v-4l-377 -349h-4zM983 1866h264v-4l-377 -349h-4zM750 18q89 0 148 69t91.5 226.5t32.5 407.5t-32.5 407t-91.5 225t-148 68t-148.5 -68t-92 -225t-32.5 -407t32.5 -407.5t92 -226.5t148.5 -69zM750 1460q329 0 511.5 -189.5t182.5 -551.5
q0 -360 -182.5 -549.5t-511.5 -189.5t-512 189.5t-183 549.5q0 362 183 551.5t512 189.5z" />
    <glyph glyph-name="ohungarumlaut" unicode="&#x151;" horiz-adv-x="1169" 
d="M475 1440h264v-4l-377 -349h-4zM817 1440h264v-4l-376 -349h-5zM584 991q-41 0 -69.5 -20t-51.5 -72t-34 -149t-11 -242t11 -242.5t34 -150t51.5 -74t69.5 -21.5q55 0 89 37t55.5 147t21.5 302q0 145 -11 242t-34 149t-51.5 73t-69.5 21zM584 -16q-249 0 -394 134.5
t-145 389.5q0 253 145 387.5t394 134.5t394.5 -134.5t145.5 -389.5q0 -253 -145.5 -387.5t-394.5 -134.5z" />
    <glyph glyph-name="OE" unicode="&#x152;" horiz-adv-x="2031" 
d="M1720 459l-178 213q-15 18 -24.5 23t-30.5 5h-144v-618q0 -29 7.5 -35t38.5 -6h223q27 0 39 5.5t22 23.5l254 426h6v-496h-905q-127 -20 -248 -20q-352 0 -538.5 190.5t-186.5 548.5q0 357 189 549t528 192q143 0 252 -20h885v-490h-4l-267 416q-14 21 -24 27t-33 6h-205
q-22 0 -27.5 -6.5t-5.5 -34.5v-619h144q21 2 31 6.5t24 22.5l178 213h4v-522h-4zM973 164v1108q0 40 -10.5 62t-34.5 42q-58 45 -152 45q-160 0 -229.5 -171.5t-69.5 -528.5q0 -367 71.5 -535t235.5 -168q45 0 89.5 18t62.5 34q37 34 37 94z" />
    <glyph glyph-name="oe" unicode="&#x153;" horiz-adv-x="1765" 
d="M584 -16q-249 0 -394 134.5t-145 389.5q0 253 145 387.5t394 134.5q111 0 205.5 -36t150.5 -103q56 68 146.5 103.5t187.5 35.5q87 0 162.5 -22t141 -69.5t104 -134.5t38.5 -206q0 -25 -2 -45h-612v-29q6 -176 87.5 -263t205.5 -87q98 0 180 46t129 142h4
q-38 -190 -153 -284t-297 -94q-94 0 -182.5 35.5t-141.5 101.5q-56 -65 -150.5 -101t-203.5 -36zM584 991q-41 0 -69.5 -20t-51.5 -72t-34 -149t-11 -242t11 -242t34 -149t51.5 -73t69.5 -21t69.5 20t51.5 72t34 149t11 242t-11 242t-34 149t-51.5 73t-69.5 21zM1106 590
h301v6q0 155 -17 244t-46 120t-76 31q-77 0 -116.5 -91.5t-45.5 -309.5z" />
    <glyph glyph-name="Racute" unicode="&#x154;" horiz-adv-x="1425" 
d="M721 1866h328v-4l-486 -338l-4 4zM664 672h-107v-492q0 -20 3.5 -28.5t17.5 -20.5l137 -127v-4h-684v4l137 129q12 12 15 20.5t3 28.5v1075q0 21 -3 29.5t-15 20.5l-137 129v4h790q98 0 181 -20.5t150.5 -63t105.5 -115.5t38 -170q0 -164 -117.5 -262t-330.5 -113v-4
l264 -78l186 -442q14 -36 56 -78l88 -90v-4h-479l-254 647q-5 9 -8.5 13.5t-12.5 8t-24 3.5zM557 1360v-647h107q237 0 237 336q0 350 -229 350h-78q-24 0 -30.5 -6.5t-6.5 -32.5z" />
    <glyph glyph-name="racute" unicode="&#x155;" horiz-adv-x="876" 
d="M512 1440h328v-4l-486 -338l-4 4zM899 963l-113 -322h-4l-161 193q-19 23 -37 10q-38 -27 -88 -119v-553q0 -13 1.5 -20t8 -14.5t20.5 -16.5l201 -117v-4h-686v4l100 94q13 12 16 20t3 29v709q0 20 -3.5 28.5t-15.5 22.5l-100 103v4h455v-262q29 120 96.5 199t167.5 79
q88 0 139 -67z" />
    <glyph glyph-name="Rcommaaccent" unicode="&#x156;" horiz-adv-x="1425" 
d="M887 -236q0 -100 -73 -182.5t-181 -107.5l-2 4q112 72 112 178q0 11 -4 14.5t-14 5.5q-50 6 -79.5 37.5t-29.5 83.5q0 55 37 92t95 37q63 0 101 -43.5t38 -118.5zM664 672h-107v-492q0 -20 3.5 -28.5t17.5 -20.5l137 -127v-4h-684v4l137 129q12 12 15 20.5t3 28.5v1075
q0 21 -3 29.5t-15 20.5l-137 129v4h790q98 0 181 -20.5t150.5 -63t105.5 -115.5t38 -170q0 -164 -117.5 -262t-330.5 -113v-4l264 -78l186 -442q14 -36 56 -78l88 -90v-4h-479l-254 647q-5 9 -8.5 13.5t-12.5 8t-24 3.5zM557 1360v-647h107q237 0 237 336q0 350 -229 350
h-78q-24 0 -30.5 -6.5t-6.5 -32.5z" />
    <glyph glyph-name="rcommaaccent" unicode="&#x157;" horiz-adv-x="876" 
d="M467 -236q0 -100 -73 -182.5t-181 -107.5l-2 4q113 72 113 178q0 11 -4.5 14.5t-14.5 5.5q-50 6 -79 37.5t-29 83.5q0 55 36.5 92t94.5 37q63 0 101 -43.5t38 -118.5zM899 963l-113 -322h-4l-161 193q-19 23 -37 10q-38 -27 -88 -119v-553q0 -13 1.5 -20t8 -14.5
t20.5 -16.5l201 -117v-4h-686v4l100 94q13 12 16 20t3 29v709q0 20 -3.5 28.5t-15.5 22.5l-100 103v4h455v-262q29 120 96.5 199t167.5 79q88 0 139 -67z" />
    <glyph glyph-name="Rcaron" unicode="&#x158;" horiz-adv-x="1425" 
d="M694 1739l334 137l2 -4l-334 -356h-4l-334 356l2 4zM664 672h-107v-492q0 -20 3.5 -28.5t17.5 -20.5l137 -127v-4h-684v4l137 129q12 12 15 20.5t3 28.5v1075q0 21 -3 29.5t-15 20.5l-137 129v4h790q98 0 181 -20.5t150.5 -63t105.5 -115.5t38 -170q0 -164 -117.5 -262
t-330.5 -113v-4l264 -78l186 -442q14 -36 56 -78l88 -90v-4h-479l-254 647q-5 9 -8.5 13.5t-12.5 8t-24 3.5zM557 1360v-647h107q237 0 237 336q0 350 -229 350h-78q-24 0 -30.5 -6.5t-6.5 -32.5z" />
    <glyph glyph-name="rcaron" unicode="&#x159;" horiz-adv-x="876" 
d="M485 1315l334 137l2 -4l-334 -356h-4l-333 356l2 4zM899 963l-113 -322h-4l-161 193q-19 23 -37 10q-38 -27 -88 -119v-553q0 -13 1.5 -20t8 -14.5t20.5 -16.5l201 -117v-4h-686v4l100 94q13 12 16 20t3 29v709q0 20 -3.5 28.5t-15.5 22.5l-100 103v4h455v-262
q29 120 96.5 199t167.5 79q88 0 139 -67z" />
    <glyph glyph-name="Sacute" unicode="&#x15a;" horiz-adv-x="1159" 
d="M606 1866h328v-4l-485 -338l-5 4zM1114 446q0 -210 -157 -338t-416 -128q-96 0 -212 15t-208 42v489h4l270 -467q11 -20 19 -26.5t26 -9.5q39 -5 86 -5q127 0 203 62t76 174q0 96 -64 155t-219 132l-63 30q-64 30 -110.5 56.5t-101 69t-89 87.5t-57.5 109.5t-23 138.5
q0 195 144.5 311.5t387.5 116.5q202 0 394 -47v-467h-5l-276 443q-10 15 -18 20t-23 8q-23 4 -59 4q-109 0 -176.5 -60t-67.5 -165q0 -38 12.5 -71t32 -57.5t55.5 -50t70.5 -44t89.5 -45.5l76 -37q55 -26 91 -45t82 -46.5t75.5 -51.5t61 -57.5t49 -68.5t29 -80t11.5 -96z
" />
    <glyph glyph-name="sacute" unicode="&#x15b;" horiz-adv-x="933" 
d="M510 1440h328v-4l-486 -338l-4 4zM610 170q0 59 -42.5 94t-153.5 86l-140 66q-198 93 -198 291q0 147 113 235t307 88q182 0 360 -55l-115 -297h-4l-159 285q-10 17 -19 23.5t-29 6.5h-28q-72 0 -119 -37t-47 -106q0 -63 44 -102.5t144 -83.5l131 -58q53 -23 90 -46
t70.5 -56t50.5 -78t17 -102q0 -162 -125 -251t-334 -89q-197 0 -377 63l113 318h4l164 -318q14 -27 43 -27h47q88 0 140 41.5t52 108.5z" />
    <glyph glyph-name="Scircumflex" unicode="&#x15c;" horiz-adv-x="1159" 
d="M913 1524l-2 -2l-333 137l-334 -137l-2 2l333 358h5zM1114 446q0 -210 -157 -338t-416 -128q-96 0 -212 15t-208 42v489h4l270 -467q11 -20 19 -26.5t26 -9.5q39 -5 86 -5q127 0 203 62t76 174q0 96 -64 155t-219 132l-63 30q-64 30 -110.5 56.5t-101 69t-89 87.5
t-57.5 109.5t-23 138.5q0 195 144.5 311.5t387.5 116.5q202 0 394 -47v-467h-5l-276 443q-10 15 -18 20t-23 8q-23 4 -59 4q-109 0 -176.5 -60t-67.5 -165q0 -38 12.5 -71t32 -57.5t55.5 -50t70.5 -44t89.5 -45.5l76 -37q55 -26 91 -45t82 -46.5t75.5 -51.5t61 -57.5
t49 -68.5t29 -80t11.5 -96z" />
    <glyph glyph-name="scircumflex" unicode="&#x15d;" horiz-adv-x="933" 
d="M819 1098l-2 -2l-334 137l-333 -137l-3 2l334 358h4zM610 170q0 59 -42.5 94t-153.5 86l-140 66q-198 93 -198 291q0 147 113 235t307 88q182 0 360 -55l-115 -297h-4l-159 285q-10 17 -19 23.5t-29 6.5h-28q-72 0 -119 -37t-47 -106q0 -63 44 -102.5t144 -83.5l131 -58
q53 -23 90 -46t70.5 -56t50.5 -78t17 -102q0 -162 -125 -251t-334 -89q-197 0 -377 63l113 318h4l164 -318q14 -27 43 -27h47q88 0 140 41.5t52 108.5z" />
    <glyph glyph-name="Scedilla" unicode="&#x15e;" horiz-adv-x="1159" 
d="M541 -20q-96 0 -212 15t-208 42v489h4l270 -467q11 -19 18.5 -25t26.5 -9q36 -7 86 -7q127 0 203 62t76 174q0 96 -64 155t-219 132l-63 30q-64 30 -110.5 56.5t-101 69t-89 87.5t-57.5 109.5t-23 138.5q0 195 144.5 311.5t387.5 116.5q202 0 394 -47v-467h-5l-276 443
q-18 26 -41 28q-20 4 -59 4q-109 0 -176.5 -60t-67.5 -165q0 -38 12.5 -71t32 -57.5t55.5 -50t70.5 -44t89.5 -45.5l76 -37q55 -26 91 -45t82 -46.5t75.5 -51.5t61 -57.5t49 -68.5t29 -80t11.5 -96q0 -201 -147.5 -329t-391.5 -137l-14 -103q111 21 188.5 -30.5t77.5 -137.5
q0 -85 -65 -138.5t-174 -53.5q-104 0 -180 53t-80 141l4 2q13 -41 44.5 -69.5t64 -39t63.5 -10.5q54 0 91.5 30.5t37.5 84.5t-37 84.5t-92 30.5q-46 0 -80 -14l-2 4l143 166h-24z" />
    <glyph glyph-name="scedilla" unicode="&#x15f;" horiz-adv-x="933" 
d="M688 -291q0 -85 -64.5 -138.5t-174.5 -53.5q-103 0 -179 53t-82 141l5 2q13 -41 44.5 -69.5t64 -39t63.5 -10.5q56 0 93.5 30t37.5 85t-38.5 85t-95.5 30q-39 0 -77 -14l-2 4l143 170h-2q-197 0 -377 63l113 318h4l164 -318q14 -27 43 -27h47q88 0 140 41.5t52 108.5
q0 59 -42.5 94t-153.5 86l-140 66q-198 93 -198 291q0 147 113 235t307 88q182 0 360 -55l-115 -297h-4l-159 285q-10 17 -19 23.5t-29 6.5h-28q-72 0 -119 -37t-47 -106q0 -63 44 -102.5t144 -83.5l131 -58q53 -23 90 -46t70.5 -56t50.5 -78t17 -102q0 -159 -121.5 -248
t-325.5 -92l-14 -107q111 21 188.5 -30.5t77.5 -137.5z" />
    <glyph glyph-name="Scaron" unicode="&#x160;" horiz-adv-x="1159" 
d="M578 1739l333 137l2 -4l-333 -356h-5l-333 356l2 4zM1114 446q0 -210 -157 -338t-416 -128q-96 0 -212 15t-208 42v489h4l270 -467q11 -20 19 -26.5t26 -9.5q39 -5 86 -5q127 0 203 62t76 174q0 96 -64 155t-219 132l-63 30q-64 30 -110.5 56.5t-101 69t-89 87.5
t-57.5 109.5t-23 138.5q0 195 144.5 311.5t387.5 116.5q202 0 394 -47v-467h-5l-276 443q-10 15 -18 20t-23 8q-23 4 -59 4q-109 0 -176.5 -60t-67.5 -165q0 -38 12.5 -71t32 -57.5t55.5 -50t70.5 -44t89.5 -45.5l76 -37q55 -26 91 -45t82 -46.5t75.5 -51.5t61 -57.5
t49 -68.5t29 -80t11.5 -96z" />
    <glyph glyph-name="scaron" unicode="&#x161;" horiz-adv-x="933" 
d="M483 1315l334 137l2 -4l-334 -356h-4l-334 356l3 4zM610 170q0 59 -42.5 94t-153.5 86l-140 66q-198 93 -198 291q0 147 113 235t307 88q182 0 360 -55l-115 -297h-4l-159 285q-10 17 -19 23.5t-29 6.5h-28q-72 0 -119 -37t-47 -106q0 -63 44 -102.5t144 -83.5l131 -58
q53 -23 90 -46t70.5 -56t50.5 -78t17 -102q0 -162 -125 -251t-334 -89q-197 0 -377 63l113 318h4l164 -318q14 -27 43 -27h47q88 0 140 41.5t52 108.5z" />
    <glyph glyph-name="Tcommaaccent" unicode="&#x162;" horiz-adv-x="1298" 
d="M778 -242q0 -100 -73 -182.5t-181 -107.5l-2 4q113 72 113 178q0 11 -4.5 14.5t-14.5 5.5q-50 6 -79 37.5t-29 83.5q0 55 36.5 92t94.5 37q63 0 101 -43.5t38 -118.5zM834 197q0 -23 3.5 -32t18.5 -22l152 -139v-4h-717v4l151 139q15 15 19 23.5t4 30.5v1202h-117
q-25 0 -33.5 -5.5t-19.5 -27.5l-252 -479h-4v553h1221v-553h-5l-251 479q-10 22 -19.5 27.5t-34.5 5.5h-116v-1202z" />
    <glyph glyph-name="tcommaaccent" unicode="&#x163;" horiz-adv-x="692" 
d="M510 -236q0 -100 -73 -182.5t-181 -107.5l-2 4q113 72 113 178q0 11 -4.5 14.5t-14.5 5.5q-50 6 -79 37.5t-29 83.5q0 55 36.5 92t94.5 37q63 0 101 -43.5t38 -118.5zM709 1014v-41h-252v-684q0 -69 28.5 -107.5t79.5 -38.5q38 0 69 21.5t50 54.5l4 -2
q-17 -98 -90.5 -165.5t-208.5 -67.5q-266 0 -266 280v709h-113v41h92q28 0 39 3t25 19l287 322h4v-344h252z" />
    <glyph glyph-name="Tcaron" unicode="&#x164;" horiz-adv-x="1298" 
d="M651 1739l334 137l2 -4l-334 -356h-4l-334 356l2 4zM834 197q0 -23 3.5 -32t18.5 -22l152 -139v-4h-717v4l151 139q15 15 19 23.5t4 30.5v1202h-117q-25 0 -33.5 -5.5t-19.5 -27.5l-252 -479h-4v553h1221v-553h-5l-251 479q-10 22 -19.5 27.5t-34.5 5.5h-116v-1202z" />
    <glyph glyph-name="tcaron" unicode="&#x165;" horiz-adv-x="692" 
d="M567 1440h234l-248 -400h-4zM709 1014v-41h-252v-684q0 -69 28.5 -107.5t79.5 -38.5q38 0 69 21.5t50 54.5l4 -2q-17 -98 -90.5 -165.5t-208.5 -67.5q-266 0 -266 280v709h-113v41h92q28 0 39 3t25 19l287 322h4v-344h252z" />
    <glyph glyph-name="Tbar" unicode="&#x166;" horiz-adv-x="1304" 
d="M1096 684h-260v-487q0 -23 3.5 -32t18.5 -22l152 -139v-4h-717v4l151 139q15 15 19 23.5t4 30.5v487h-256v39h256v676h-117q-25 0 -33.5 -5.5t-19.5 -27.5l-252 -479h-4v553h1221v-553h-5l-251 479q-10 22 -19.5 27.5t-34.5 5.5h-116v-676h260v-39z" />
    <glyph glyph-name="tbar" unicode="&#x167;" horiz-adv-x="716" 
d="M719 719v-39h-252v-391q0 -69 28.5 -107.5t79.5 -38.5q38 0 69 21.5t50 54.5l4 -2q-17 -98 -90.5 -165.5t-208.5 -67.5q-266 0 -266 280v416h-113v39h113v254h-113v41h93h15t11 0.5t10.5 2t8 4t9.5 6t9 9.5l287 322h4v-344h252v-41h-252v-254h252z" />
    <glyph glyph-name="Utilde" unicode="&#x168;" horiz-adv-x="1378" 
d="M715 -20q-292 0 -424.5 117t-132.5 392v766q0 20 -3.5 29t-17.5 21l-123 131v4h662v-4l-127 -131q-14 -12 -17.5 -21t-3.5 -29v-743q0 -243 78.5 -349t235.5 -106q148 0 229.5 116.5t81.5 346.5v576q0 24 -4.5 35t-22.5 32l-200 273v4h497v-4l-200 -273
q-18 -21 -22.5 -32t-4.5 -35v-572q0 -267 -112.5 -405.5t-368.5 -138.5zM901 1577q-45 0 -98 25t-103 50t-88 25q-98 0 -131 -100h-4v49q0 94 48.5 151.5t123.5 57.5q45 0 98 -25t103 -50t88 -25q97 0 133 100h4q0 -35 -2 -51q-4 -95 -51 -151t-121 -56z" />
    <glyph glyph-name="utilde" unicode="&#x169;" horiz-adv-x="1218" 
d="M1079 1014v-858q0 -22 3 -31.5t16 -20.5l102 -100v-4h-457v219q-40 -108 -121 -171.5t-192 -63.5q-152 0 -231.5 108.5t-79.5 317.5q0 116 4 448q0 20 -3.5 28.5t-15.5 20.5l-100 103v4h453l-1 -270q-1 -271 -1 -287q0 -73 6 -125t21 -94.5t43.5 -64t70.5 -21.5
q84 0 147 92v612q0 20 -3 29t-15 22l-100 103v4h454zM711 1151q-45 0 -98 25t-103 50t-88 25q-98 0 -131 -100h-4v49q0 94 48.5 151.5t123.5 57.5q45 0 98 -25t103 -50t88 -25q97 0 133 100h4q0 -35 -2 -51q-4 -95 -51 -151t-121 -56z" />
    <glyph glyph-name="Umacron" unicode="&#x16a;" horiz-adv-x="1378" 
d="M715 -20q-292 0 -424.5 117t-132.5 392v766q0 20 -3.5 29t-17.5 21l-123 131v4h662v-4l-127 -131q-14 -12 -17.5 -21t-3.5 -29v-743q0 -243 78.5 -349t235.5 -106q148 0 229.5 116.5t81.5 346.5v576q0 24 -4.5 35t-22.5 32l-200 273v4h497v-4l-200 -273
q-18 -21 -22.5 -32t-4.5 -35v-572q0 -267 -112.5 -405.5t-368.5 -138.5zM1057 1638h-576v41h576v-41z" />
    <glyph glyph-name="umacron" unicode="&#x16b;" horiz-adv-x="1218" 
d="M1079 1014v-858q0 -22 3 -31.5t16 -20.5l102 -100v-4h-457v219q-40 -108 -121 -171.5t-192 -63.5q-152 0 -231.5 108.5t-79.5 317.5q0 116 4 448q0 20 -3.5 28.5t-15.5 20.5l-100 103v4h453l-1 -270q-1 -271 -1 -287q0 -73 6 -125t21 -94.5t43.5 -64t70.5 -21.5
q84 0 147 92v612q0 20 -3 29t-15 22l-100 103v4h454zM866 1212h-575v41h575v-41z" />
    <glyph glyph-name="Ubreve" unicode="&#x16c;" horiz-adv-x="1378" 
d="M715 -20q-292 0 -424.5 117t-132.5 392v766q0 20 -3.5 29t-17.5 21l-123 131v4h662v-4l-127 -131q-14 -12 -17.5 -21t-3.5 -29v-743q0 -243 78.5 -349t235.5 -106q148 0 229.5 116.5t81.5 346.5v576q0 24 -4.5 35t-22.5 32l-200 273v4h497v-4l-200 -273
q-18 -21 -22.5 -32t-4.5 -35v-572q0 -267 -112.5 -405.5t-368.5 -138.5zM764 1690q115 0 183.5 50t74.5 144h4q8 -62 8 -86q0 -89 -40.5 -151t-99.5 -88.5t-130 -26.5q-52 0 -98 16t-84.5 47t-61 83.5t-22.5 119.5q0 45 8 86h4q4 -93 73 -143.5t181 -50.5z" />
    <glyph glyph-name="ubreve" unicode="&#x16d;" horiz-adv-x="1218" 
d="M1079 1014v-858q0 -22 3 -31.5t16 -20.5l102 -100v-4h-457v219q-40 -108 -121 -171.5t-192 -63.5q-152 0 -231.5 108.5t-79.5 317.5q0 116 4 448q0 20 -3.5 28.5t-15.5 20.5l-100 103v4h453l-1 -270q-1 -271 -1 -287q0 -73 6 -125t21 -94.5t43.5 -64t70.5 -21.5
q84 0 147 92v612q0 20 -3 29t-15 22l-100 103v4h454zM573 1264q115 0 183.5 50t74.5 144h5q8 -62 8 -86q0 -89 -40.5 -151t-100 -88.5t-130.5 -26.5q-52 0 -98 16t-84.5 47t-61 83.5t-22.5 119.5q0 45 8 86h4q4 -93 73 -143.5t181 -50.5z" />
    <glyph glyph-name="Uring" unicode="&#x16e;" horiz-adv-x="1378" 
d="M967 1718q0 -81 -55.5 -134.5t-139.5 -53.5q-76 0 -135 55.5t-59 132.5q0 82 54.5 137.5t137.5 55.5q86 0 141.5 -54t55.5 -139zM924 1720q0 66 -43 108t-111 42q-64 0 -106.5 -42.5t-42.5 -107.5q0 -62 45 -105.5t106 -43.5q66 0 109 42t43 107zM715 -20
q-292 0 -424.5 117t-132.5 392v766q0 20 -3.5 29t-17.5 21l-123 131v4h662v-4l-127 -131q-14 -12 -17.5 -21t-3.5 -29v-743q0 -243 78.5 -349t235.5 -106q148 0 229.5 116.5t81.5 346.5v576q0 24 -4.5 35t-22.5 32l-200 273v4h497v-4l-200 -273q-18 -21 -22.5 -32t-4.5 -35
v-572q0 -267 -112.5 -405.5t-368.5 -138.5z" />
    <glyph glyph-name="uring" unicode="&#x16f;" horiz-adv-x="1218" 
d="M776 1292q0 -81 -55 -134.5t-139 -53.5q-76 0 -135.5 55.5t-59.5 132.5q0 82 55 137.5t138 55.5q85 0 140.5 -53.5t55.5 -139.5zM733 1294q0 66 -43 108t-110 42q-64 0 -107 -43t-43 -107q0 -62 45.5 -105.5t106.5 -43.5q66 0 108.5 42t42.5 107zM1079 1014v-858
q0 -22 3 -31.5t16 -20.5l102 -100v-4h-457v219q-40 -108 -121 -171.5t-192 -63.5q-152 0 -231.5 108.5t-79.5 317.5q0 116 4 448q0 20 -3.5 28.5t-15.5 20.5l-100 103v4h453l-1 -270q-1 -271 -1 -287q0 -73 6 -125t21 -94.5t43.5 -64t70.5 -21.5q84 0 147 92v612q0 20 -3 29
t-15 22l-100 103v4h454z" />
    <glyph glyph-name="Uhungarumlaut" unicode="&#x170;" horiz-adv-x="1378" 
d="M715 -20q-292 0 -424.5 117t-132.5 392v766q0 20 -3.5 29t-17.5 21l-123 131v4h662v-4l-127 -131q-14 -12 -17.5 -21t-3.5 -29v-743q0 -243 78.5 -349t235.5 -106q148 0 229.5 116.5t81.5 346.5v576q0 24 -4.5 35t-22.5 32l-200 273v4h497v-4l-200 -273
q-18 -21 -22.5 -32t-4.5 -35v-572q0 -267 -112.5 -405.5t-368.5 -138.5zM662 1866h264v-4l-377 -349h-4zM1004 1866h264v-4l-377 -349h-4z" />
    <glyph glyph-name="uhungarumlaut" unicode="&#x171;" horiz-adv-x="1218" 
d="M1079 1014v-858q0 -22 3 -31.5t16 -20.5l102 -100v-4h-457v219q-40 -108 -121 -171.5t-192 -63.5q-152 0 -231.5 108.5t-79.5 317.5q0 116 4 448q0 20 -3.5 28.5t-15.5 20.5l-100 103v4h453l-1 -270q-1 -271 -1 -287q0 -73 6 -125t21 -94.5t43.5 -64t70.5 -21.5
q84 0 147 92v612q0 20 -3 29t-15 22l-100 103v4h454zM473 1440h264v-4l-377 -349h-4zM815 1440h264v-4l-377 -349h-4z" />
    <glyph glyph-name="Uogonek" unicode="&#x172;" horiz-adv-x="1378" 
d="M688 -483q-91 0 -157 55t-66 149q0 88 69 157t183 102h-2q-292 0 -424.5 117t-132.5 392v766q0 20 -3.5 29t-17.5 21l-123 131v4h662v-4l-127 -131q-14 -12 -17.5 -21t-3.5 -29v-743q0 -243 78.5 -349t235.5 -106q148 0 229.5 116.5t81.5 346.5v576q0 24 -4.5 35
t-22.5 32l-200 273v4h497v-4l-200 -273q-18 -25 -22.5 -35t-4.5 -32v-572q0 -257 -103 -394.5t-337 -147.5q-125 -62 -125 -191q0 -76 41 -118t108 -42q45 0 89.5 23t74.5 70l4 -3q-29 -90 -93.5 -147t-166.5 -57z" />
    <glyph glyph-name="uogonek" unicode="&#x173;" horiz-adv-x="1218" 
d="M719 -483q-92 0 -157.5 56t-65.5 153q0 94 71.5 172t175.5 102v219q-40 -108 -121 -171.5t-192 -63.5q-152 0 -231.5 108.5t-79.5 317.5q0 116 4 448q0 20 -3.5 28.5t-15.5 20.5l-100 103v4h453l-1 -270q-1 -271 -1 -287q0 -73 6 -125t21 -94.5t43.5 -64t70.5 -21.5
q84 0 147 92v612q0 20 -3 29t-15 22l-100 103v4h454v-858q0 -22 3 -31.5t16 -20.5l102 -100v-4h-409q-60 -20 -94.5 -75t-34.5 -134q0 -76 41 -118t108 -42q45 0 89.5 23t74.5 70l4 -3q-29 -90 -93.5 -147t-166.5 -57z" />
    <glyph glyph-name="Wcircumflex" unicode="&#x174;" horiz-adv-x="2080" 
d="M1427 1524l-2 -2l-333 137l-334 -137l-2 2l334 358h4zM1288 0l-252 819l-260 -819h-287l-378 1214q-9 30 -41 84l-86 138v4h606v-4l-98 -138q-15 -21 -5 -53l314 -1016l213 666l-99 319q-11 38 -34 78l-80 144v4h596v-4l-99 -138q-16 -23 -6 -53l307 -1014l269 867
q7 25 4.5 37.5t-19.5 35.5l-184 265v4h485v-4l-194 -260q-23 -30 -31.5 -45t-17.5 -44l-336 -1087h-287z" />
    <glyph glyph-name="wcircumflex" unicode="&#x175;" horiz-adv-x="1583" 
d="M1186 1098l-2 -2l-334 137l-334 -137l-2 2l334 358h4zM1624 1010l-139 -240q-32 -53 -45 -92l-234 -678h-229l-197 569l-196 -569h-232l-264 778q-26 75 -43 109l-63 123v4h510v-4l-70 -117q-9 -16 -10.5 -24t4.5 -27l202 -621l142 410l-49 147q-20 63 -43 109l-64 123v4
h510v-4l-70 -117q-9 -16 -10.5 -24t4.5 -27l205 -619l156 461q9 31 8 41t-14 37l-119 248v4h350v-4z" />
    <glyph glyph-name="Ycircumflex" unicode="&#x176;" horiz-adv-x="1310" 
d="M850 547v-350q0 -23 3.5 -32t18.5 -22l150 -139v-4h-715v4l152 139q14 14 17 22.5t3 31.5v315q0 32 -12 51l-338 647q-23 45 -55 88l-103 138v4h688v-4l-122 -142q-13 -15 -15 -22t6 -27l299 -602l236 481q10 24 9 33.5t-15 30.5l-176 248v4h512v-4l-232 -248
q-33 -33 -55 -76l-240 -487q-16 -33 -16 -78zM1063 1524l-2 -2l-334 137l-334 -137l-2 2l334 358h4z" />
    <glyph glyph-name="ycircumflex" unicode="&#x177;" horiz-adv-x="974" 
d="M836 674l-263 -635q-82 -193 -176 -340q-63 -99 -127.5 -140.5t-156.5 -41.5q-50 0 -97 20l76 359h4l203 -201q17 -17 25 -17q13 0 30 25q43 59 78 141l12 33l-381 967q-10 27 -30 67l-56 99v4h531v-4l-82 -113q-15 -20 -4 -47l207 -574l166 404q11 27 11.5 38.5
t-11.5 37.5l-125 254v4h350v-4l-133 -230q-27 -44 -51 -106zM879 1098l-2 -2l-334 137l-334 -137l-2 2l334 358h4z" />
    <glyph glyph-name="Ydieresis" unicode="&#x178;" horiz-adv-x="1310" 
d="M850 547v-350q0 -23 3.5 -32t18.5 -22l150 -139v-4h-715v4l152 139q14 14 17 22.5t3 31.5v315q0 32 -12 51l-338 647q-23 45 -55 88l-103 138v4h688v-4l-122 -142q-13 -15 -15 -22t6 -27l299 -602l236 481q10 24 9 33.5t-15 30.5l-176 248v4h512v-4l-232 -248
q-33 -33 -55 -76l-240 -487q-16 -33 -16 -78zM383 1698q0 59 41 98t100 39q58 0 99 -39t41 -98q0 -58 -41 -96.5t-99 -38.5q-59 0 -100 38.5t-41 96.5zM791 1698q0 59 40.5 98t98.5 39q59 0 100 -39t41 -98q0 -58 -41 -96.5t-100 -38.5q-58 0 -98.5 38.5t-40.5 96.5z" />
    <glyph glyph-name="Zacute" unicode="&#x179;" horiz-adv-x="1284" 
d="M711 1866h327v-4l-485 -338l-4 4zM1192 0h-1169v4l811 1395h-375q-27 0 -37 -4t-19 -21l-292 -483h-5v549h1147v-4l-813 -1395h396q27 0 36.5 4t18.5 21l297 481h4v-547z" />
    <glyph glyph-name="zacute" unicode="&#x17a;" horiz-adv-x="972" 
d="M543 1440h327v-4l-485 -338l-4 4zM913 444h7l-25 -444h-868v4l546 971h-184q-27 0 -35 -4.5t-22 -26.5l-246 -358h-8v428h862v-4l-530 -971h194q28 0 36 4.5t22 26.5z" />
    <glyph glyph-name="Zdotaccent" unicode="&#x17b;" horiz-adv-x="1284" 
d="M1192 0h-1169v4l811 1395h-375q-27 0 -37 -4t-19 -21l-292 -483h-5v549h1147v-4l-813 -1395h396q27 0 36.5 4t18.5 21l297 481h4v-547zM526 1704q0 67 46.5 108t111.5 41q66 0 111 -41t45 -108q0 -64 -45 -103.5t-111 -39.5q-65 0 -111.5 39.5t-46.5 103.5z" />
    <glyph glyph-name="zdotaccent" unicode="&#x17c;" horiz-adv-x="972" 
d="M913 444h7l-25 -444h-868v4l546 971h-184q-27 0 -35 -4.5t-22 -26.5l-246 -358h-8v428h862v-4l-530 -971h194q28 0 36 4.5t22 26.5zM356 1278q0 67 46.5 108t111.5 41q66 0 111 -41t45 -108q0 -64 -45 -103.5t-111 -39.5q-65 0 -111.5 39.5t-46.5 103.5z" />
    <glyph glyph-name="Zcaron" unicode="&#x17d;" horiz-adv-x="1284" 
d="M684 1739l334 137l2 -4l-334 -356h-4l-334 356l2 4zM1192 0h-1169v4l811 1395h-375q-27 0 -37 -4t-19 -21l-292 -483h-5v549h1147v-4l-813 -1395h396q27 0 36.5 4t18.5 21l297 481h4v-547z" />
    <glyph glyph-name="zcaron" unicode="&#x17e;" horiz-adv-x="972" 
d="M514 1315l334 137l2 -4l-334 -356h-4l-334 356l2 4zM913 444h7l-25 -444h-868v4l546 971h-184q-27 0 -35 -4.5t-22 -26.5l-246 -358h-8v428h862v-4l-530 -971h194q28 0 36 4.5t22 26.5z" />
    <glyph glyph-name="florin" unicode="&#x192;" horiz-adv-x="972" 
d="M119 596v41h184v371q0 241 100 346.5t295 105.5q163 0 324 -45l-129 -307h-4l-144 289q-9 18 -14.5 22t-21.5 4q-40 0 -56 -40.5t-16 -139.5v-606h223v-41h-223v-590q0 -256 -99.5 -371.5t-291.5 -115.5q-162 0 -328 43l129 307h4l142 -287q9 -18 16 -23t22 -5
q46 0 59 40t13 138v864h-184z" />
    <glyph glyph-name="uni01B5" unicode="&#x1b5;" horiz-adv-x="1284" 
d="M1120 709h-291l-389 -668h396q27 0 36.5 4t18.5 21l297 481h4v-547h-1169v4l409 705h-282v39h305l379 651h-375q-27 0 -37 -4t-19 -21l-292 -483h-5v549h1147v-4l-401 -688h268v-39z" />
    <glyph glyph-name="uni01B6" unicode="&#x1b6;" horiz-adv-x="974" 
d="M864 502h-202l-252 -463h194q28 0 36 4.5t22 26.5l251 374h7l-25 -444h-868v4l280 498h-174v39h195l245 434h-184q-27 0 -35 -4.5t-22 -26.5l-246 -358h-8v428h862v-4l-256 -469h180v-39z" />
    <glyph glyph-name="Aringacute" unicode="&#x1fa;" horiz-adv-x="1343" 
d="M631 2034h297v-4l-326 -195q-86 -48 -113 -84q58 53 144 53q84 0 140 -40t56 -107q0 -66 -56 -106t-138 -40q-76 0 -135.5 42t-59.5 104q0 35 29 88zM786 1657q0 51 -43 79.5t-110 28.5q-64 0 -107 -28.5t-43 -79.5q0 -47 45 -76t107 -29q66 0 108.5 28t42.5 77zM301 502
l-53 -164q-7 -25 -5 -35.5t21 -36.5l182 -262v-4h-485v4l197 262q23 29 30.5 42.5t16.5 43.5l284 873q10 29 8 40t-20 31l-121 140v4h482l383 -1215q9 -30 41 -84l86 -137v-4h-607v4l99 137q15 20 4 56l-96 305h-447zM528 1206l-215 -663h422z" />
    <glyph glyph-name="aringacute" unicode="&#x1fb;" 
d="M502 1597h297v-4l-328 -192q-89 -53 -111 -84q58 51 142 51q85 0 140.5 -40t55.5 -107q0 -65 -55.5 -104.5t-138.5 -39.5q-75 0 -135 41.5t-60 102.5q0 37 29 90zM657 1223q0 50 -43.5 78t-109.5 28q-64 0 -108 -28.5t-44 -77.5t45.5 -78t106.5 -29q65 0 109 29t44 78z
M600 526l4 219v11q0 235 -149 235q-31 0 -40 -3.5t-16 -20.5l-166 -308h-4l-129 293q218 78 414 78q218 0 317 -94q103 -95 103 -320q0 -12 -1 -28t-1 -17l-12 -319q-6 -119 55 -119q39 0 57 37h4q3 -35 -16 -74q-25 -52 -77 -82t-124 -30q-92 0 -155.5 52.5t-67.5 145.5
q-31 -90 -105.5 -144t-173.5 -54q-118 0 -198 76.5t-80 211.5q0 73 30 133.5t79.5 98t110 58t124.5 20.5q138 0 217 -56zM524 518q-77 0 -121.5 -59.5t-44.5 -151.5q0 -83 33.5 -128.5t87.5 -45.5q33 0 64.5 20t52.5 52v2l4 299q-38 12 -76 12z" />
    <glyph glyph-name="AEacute" unicode="&#x1fc;" horiz-adv-x="1939" 
d="M1229 1868h327v-4l-485 -338l-4 4zM1843 504v-504h-1118v4l135 129q14 12 17.5 20.5t3.5 28.5v320h-473l-97 -158q-20 -32 -20.5 -46.5t16.5 -45.5l139 -248v-4h-503v4l235 244q8 8 22.5 23t19 20l13.5 15t14.5 18t12.5 18l545 887q14 24 13 32.5t-15 24.5l-141 150v4
h1161v-496h-4l-267 422q-12 20 -23 26.5t-34 6.5h-211q-22 0 -27.5 -6.5t-5.5 -34.5v-617h138q20 2 29.5 6.5t23.5 22.5l186 213h4v-522h-4l-186 213q-15 17 -24.5 21.5t-28.5 4.5h-138v-618q0 -28 5.5 -34.5t27.5 -6.5h238q24 0 35.5 5.5t23.5 23.5l254 434h8zM881 1270
l-449 -729h449v729z" />
    <glyph glyph-name="aeacute" unicode="&#x1fd;" horiz-adv-x="1605" 
d="M889 1440h328v-4l-486 -338l-4 4zM1559 553h-615v-6q0 -187 83 -280t212 -93q97 0 179 46t130 142h4q-75 -378 -450 -378q-136 0 -250.5 57.5t-179.5 169.5q-22 -89 -107.5 -158t-222.5 -69q-131 0 -217 77t-86 213q0 97 52 169t128 105.5t160 33.5q131 0 221 -54
q0 15 2 112t2 114q0 235 -151 235q-28 0 -36 -4t-18 -20l-166 -306h-4l-131 297q216 74 406 74q91 0 154.5 -21t117.5 -73l25 -29q126 123 313 123q68 0 129.5 -13t120.5 -44.5t102 -79.5t69 -123.5t26 -171.5q0 -22 -2 -45zM1108 991q-79 0 -120 -92.5t-44 -308.5h303
q3 157 -14 247.5t-47 122t-78 31.5zM502 131q104 0 162 94q-62 114 -62 267v14q-38 12 -78 12q-77 0 -121.5 -58t-44.5 -149q0 -84 40.5 -132t103.5 -48z" />
    <glyph glyph-name="Oslashacute" unicode="&#x1fe;" horiz-adv-x="1499" 
d="M750 1460q164 0 297 -51l83 188l35 -14l-84 -188q176 -78 269.5 -249t93.5 -427q0 -360 -182.5 -549.5t-511.5 -189.5q-156 0 -275 40l-82 -186l-37 14l82 185q-185 74 -284 248t-99 438q0 362 183 551.5t512 189.5zM477 721q0 -320 51 -485l437 987q-64 198 -215 198
q-89 0 -148.5 -68t-92 -225t-32.5 -407zM750 18q89 0 148 69t91.5 226.5t32.5 407.5q0 280 -41 446l-434 -985q64 -164 203 -164zM793 1866h327v-4l-485 -338l-4 4z" />
    <glyph glyph-name="oslashacute" unicode="&#x1ff;" horiz-adv-x="1169" 
d="M897 1161l-76 -170q145 -52 224 -174t79 -311q0 -256 -145 -389t-395 -133q-109 0 -197 24l-76 -174l-39 16l74 170q-145 52 -224 175t-79 313q0 256 145.5 389t395.5 133q108 0 196 -24l78 172zM584 991q-56 0 -89.5 -36.5t-54 -145t-20.5 -301.5q0 -191 16 -287
l281 639q-19 72 -52 101.5t-81 29.5zM750 506q0 163 -17 282l-282 -638q21 -70 53.5 -98.5t79.5 -28.5q57 0 91 36.5t54.5 145t20.5 301.5zM610 1440h328v-4l-485 -338l-4 4z" />
    <glyph glyph-name="Scommaaccent" unicode="&#x218;" horiz-adv-x="1159" 
d="M715 -236q0 -100 -73 -182.5t-181 -107.5l-2 4q112 72 112 178q0 11 -4 14.5t-14 5.5q-50 6 -79.5 37.5t-29.5 83.5q0 55 36.5 92t94.5 37q63 0 101.5 -44t38.5 -118zM1114 446q0 -210 -157 -338t-416 -128q-96 0 -212 15t-208 42v489h4l270 -467q11 -20 19 -26.5
t26 -9.5q39 -5 86 -5q127 0 203 62t76 174q0 96 -64 155t-219 132l-63 30q-64 30 -110.5 56.5t-101 69t-89 87.5t-57.5 109.5t-23 138.5q0 195 144.5 311.5t387.5 116.5q202 0 394 -47v-467h-5l-276 443q-10 15 -18 20t-23 8q-23 4 -59 4q-109 0 -176.5 -60t-67.5 -165
q0 -38 12.5 -71t32 -57.5t55.5 -50t70.5 -44t89.5 -45.5l76 -37q55 -26 91 -45t82 -46.5t75.5 -51.5t61 -57.5t49 -68.5t29 -80t11.5 -96z" />
    <glyph glyph-name="scommaaccent" unicode="&#x219;" horiz-adv-x="933" 
d="M612 -242q0 -100 -73 -182.5t-181 -107.5l-2 4q113 72 113 178q0 11 -4 14.5t-14 5.5q-50 6 -79.5 37.5t-29.5 83.5q0 55 36.5 92t94.5 37q63 0 101 -43.5t38 -118.5zM610 170q0 59 -42.5 94t-153.5 86l-140 66q-198 93 -198 291q0 147 113 235t307 88q182 0 360 -55
l-115 -297h-4l-159 285q-10 17 -19 23.5t-29 6.5h-28q-72 0 -119 -37t-47 -106q0 -63 44 -102.5t144 -83.5l131 -58q53 -23 90 -46t70.5 -56t50.5 -78t17 -102q0 -162 -125 -251t-334 -89q-197 0 -377 63l113 318h4l164 -318q14 -27 43 -27h47q88 0 140 41.5t52 108.5z" />
    <glyph glyph-name="uni021A" unicode="&#x21a;" horiz-adv-x="1298" 
d="M778 -242q0 -100 -73 -182.5t-181 -107.5l-2 4q113 72 113 178q0 11 -4.5 14.5t-14.5 5.5q-50 6 -79 37.5t-29 83.5q0 55 36.5 92t94.5 37q63 0 101 -43.5t38 -118.5zM834 197q0 -23 3.5 -32t18.5 -22l152 -139v-4h-717v4l151 139q15 15 19 23.5t4 30.5v1202h-117
q-25 0 -33.5 -5.5t-19.5 -27.5l-252 -479h-4v553h1221v-553h-5l-251 479q-10 22 -19.5 27.5t-34.5 5.5h-116v-1202z" />
    <glyph glyph-name="uni021B" unicode="&#x21b;" horiz-adv-x="692" 
d="M510 -236q0 -100 -73 -182.5t-181 -107.5l-2 4q113 72 113 178q0 11 -4.5 14.5t-14.5 5.5q-50 6 -79 37.5t-29 83.5q0 55 36.5 92t94.5 37q63 0 101 -43.5t38 -118.5zM709 1014v-41h-252v-684q0 -69 28.5 -107.5t79.5 -38.5q38 0 69 21.5t50 54.5l4 -2
q-17 -98 -90.5 -165.5t-208.5 -67.5q-266 0 -266 280v709h-113v41h92q28 0 39 3t25 19l287 322h4v-344h252z" />
    <glyph glyph-name="dotlessj" unicode="&#x237;" horiz-adv-x="591" 
d="M485 76q0 -257 -130 -397.5t-373 -143.5q-7 0 -20 1t-19 1v4q207 43 207 420v895q0 20 -3.5 28.5t-15.5 22.5l-100 103v4h454v-938z" />
    <glyph glyph-name="circumflex" unicode="&#x2c6;" horiz-adv-x="876" 
d="M774 1098l-2 -2l-334 137l-334 -137l-2 2l334 358h4z" />
    <glyph glyph-name="caron" unicode="&#x2c7;" horiz-adv-x="876" 
d="M438 1319l334 137l2 -4l-334 -356h-4l-334 356l2 4z" />
    <glyph glyph-name="uni02C9" unicode="&#x2c9;" horiz-adv-x="827" 
d="M688 1212h-573v41h573v-41z" />
    <glyph glyph-name="breve" unicode="&#x2d8;" horiz-adv-x="743" 
d="M371 1264q115 0 183.5 50t74.5 144h4q8 -62 8 -86q0 -89 -40.5 -151t-99.5 -88.5t-130 -26.5q-70 0 -128.5 26.5t-98.5 88.5t-40 151q0 40 9 86h4q4 -93 73 -143.5t181 -50.5z" />
    <glyph glyph-name="dotaccent" unicode="&#x2d9;" horiz-adv-x="518" 
d="M102 1278q0 67 46.5 108t111.5 41q66 0 111 -41t45 -108q0 -64 -45 -103.5t-111 -39.5q-65 0 -111.5 39.5t-46.5 103.5z" />
    <glyph glyph-name="ring" unicode="&#x2da;" horiz-adv-x="593" 
d="M492 1292q0 -81 -55.5 -134.5t-139.5 -53.5q-76 0 -135.5 55.5t-59.5 132.5q0 82 55 137.5t138 55.5q86 0 141.5 -54t55.5 -139zM449 1294q0 66 -43 108t-111 42q-65 0 -107.5 -43t-42.5 -107q0 -62 45.5 -105.5t106.5 -43.5q66 0 109 42t43 107z" />
    <glyph glyph-name="ogonek" unicode="&#x2db;" horiz-adv-x="688" 
d="M268 -209q0 -76 41.5 -118t108.5 -42q45 0 89.5 23t74.5 70l4 -3q-31 -91 -95 -147.5t-165 -56.5q-93 0 -158.5 56t-65.5 153t85.5 172.5t224.5 105.5l2 -4q-70 -31 -108 -85.5t-38 -123.5z" />
    <glyph glyph-name="tilde" unicode="&#x2dc;" horiz-adv-x="804" 
d="M528 1151q-45 0 -97.5 25t-102.5 50t-88 25q-98 0 -131 -100h-5v49q0 94 48.5 151.5t123.5 57.5q45 0 98 -25t103 -50t88 -25q97 0 133 100h4q0 -35 -2 -51q-4 -95 -51 -151t-121 -56z" />
    <glyph glyph-name="hungarumlaut" unicode="&#x2dd;" horiz-adv-x="927" 
d="M219 1440h264v-4l-377 -349h-4zM561 1440h264v-4l-376 -349h-5z" />
    <glyph glyph-name="uni0394" unicode="&#x394;" horiz-adv-x="1368" 
d="M61 0l453 1221q12 31 10 44t-22 35l-121 136v4h483l467 -1440h-1270zM930 41l-377 1163l-432 -1163h809z" />
    <glyph glyph-name="uni03A9" unicode="&#x3a9;" horiz-adv-x="1558" 
d="M780 1421q-135 0 -205.5 -161t-70.5 -510q0 -230 57.5 -364.5t157.5 -176.5v-209h-621l-39 477h4l275 -401q17 -25 30.5 -31t51.5 -6h258v141q-261 35 -429.5 213.5t-168.5 421.5q0 300 185.5 472.5t514.5 172.5t514 -172t185 -473q0 -243 -167.5 -421.5t-428.5 -213.5
v-141h256q38 0 52 6t32 31l272 401h4l-37 -477h-620v209q99 42 156 176.5t57 364.5q0 349 -70 510t-205 161z" />
    <glyph glyph-name="uni03BC" unicode="&#x3bc;" horiz-adv-x="1220" 
d="M1079 1014v-862q0 -20 3.5 -29t15.5 -21l102 -98v-4h-457v219q-26 -78 -78.5 -132t-119.5 -73q-35 -10 -92 -14v-303q0 -21 4.5 -30t25.5 -23l152 -107v-4h-635v4l104 94q12 12 15.5 21t3.5 29v1181q0 20 -3.5 28.5t-15.5 20.5l-100 99v4h449v-604q0 -139 31 -205
t112 -66q88 0 147 107v614q0 20 -3 28.5t-15 20.5l-100 101v4h454z" />
    <glyph glyph-name="pi" unicode="&#x3c0;" horiz-adv-x="1296" 
d="M1137 147q0 -22 2.5 -30t15.5 -19l98 -94v-4h-571v4l100 94q12 12 15.5 20.5t3.5 28.5v826h-305v-826q0 -22 2.5 -30t15.5 -19l100 -94v-4h-573v4l100 94q13 12 16 20t3 29v709q0 20 -3.5 28.5t-15.5 22.5l-100 103v4h1212v-4l-98 -103q-12 -13 -15 -22t-3 -29v-709z" />
    <glyph glyph-name="Wgrave" unicode="&#x1e80;" horiz-adv-x="2080" 
d="M1288 0l-252 819l-260 -819h-287l-378 1214q-9 30 -41 84l-86 138v4h606v-4l-98 -138q-15 -21 -5 -53l314 -1016l213 666l-99 319q-11 38 -34 78l-80 144v4h596v-4l-99 -138q-16 -23 -6 -53l307 -1014l269 867q7 25 4.5 37.5t-19.5 35.5l-184 265v4h485v-4l-194 -260
q-23 -30 -31.5 -45t-17.5 -44l-336 -1087h-287zM743 1866h328l162 -338l-2 -2l-488 336v4z" />
    <glyph glyph-name="wgrave" unicode="&#x1e81;" horiz-adv-x="1583" 
d="M1624 1010l-139 -240q-32 -53 -45 -92l-234 -678h-229l-197 569l-196 -569h-232l-264 778q-26 75 -43 109l-63 123v4h510v-4l-70 -117q-9 -16 -10.5 -24t4.5 -27l202 -621l142 410l-49 147q-20 63 -43 109l-64 123v4h510v-4l-70 -117q-9 -16 -10.5 -24t4.5 -27l205 -619
l156 461q9 31 8 41t-14 37l-119 248v4h350v-4zM502 1440h327l162 -338l-2 -2l-487 336v4z" />
    <glyph glyph-name="Wacute" unicode="&#x1e82;" horiz-adv-x="2080" 
d="M1120 1866h328v-4l-485 -338l-5 4zM1288 0l-252 819l-260 -819h-287l-378 1214q-9 30 -41 84l-86 138v4h606v-4l-98 -138q-15 -21 -5 -53l314 -1016l213 666l-99 319q-11 38 -34 78l-80 144v4h596v-4l-99 -138q-16 -23 -6 -53l307 -1014l269 867q7 25 4.5 37.5
t-19.5 35.5l-184 265v4h485v-4l-194 -260q-23 -30 -31.5 -45t-17.5 -44l-336 -1087h-287z" />
    <glyph glyph-name="wacute" unicode="&#x1e83;" horiz-adv-x="1583" 
d="M877 1440h327v-4l-485 -338l-4 4zM1624 1010l-139 -240q-32 -53 -45 -92l-234 -678h-229l-197 569l-196 -569h-232l-264 778q-26 75 -43 109l-63 123v4h510v-4l-70 -117q-9 -16 -10.5 -24t4.5 -27l202 -621l142 410l-49 147q-20 63 -43 109l-64 123v4h510v-4l-70 -117
q-9 -16 -10.5 -24t4.5 -27l205 -619l156 461q9 31 8 41t-14 37l-119 248v4h350v-4z" />
    <glyph glyph-name="Wdieresis" unicode="&#x1e84;" horiz-adv-x="2080" 
d="M748 1698q0 59 41 98t100 39q58 0 98.5 -39t40.5 -98q0 -58 -40.5 -96.5t-98.5 -38.5q-59 0 -100 38.5t-41 96.5zM1155 1698q0 59 40.5 98t98.5 39q59 0 100.5 -39t41.5 -98q0 -58 -41.5 -96.5t-100.5 -38.5q-58 0 -98.5 38.5t-40.5 96.5zM1288 0l-252 819l-260 -819
h-287l-378 1214q-9 30 -41 84l-86 138v4h606v-4l-98 -138q-15 -21 -5 -53l314 -1016l213 666l-99 319q-11 38 -34 78l-80 144v4h596v-4l-99 -138q-16 -23 -6 -53l307 -1014l269 867q7 25 4.5 37.5t-19.5 35.5l-184 265v4h485v-4l-194 -260q-23 -30 -31.5 -45t-17.5 -44
l-336 -1087h-287z" />
    <glyph glyph-name="wdieresis" unicode="&#x1e85;" horiz-adv-x="1583" 
d="M506 1272q0 59 41 98t100 39q58 0 98.5 -39t40.5 -98q0 -58 -40.5 -96.5t-98.5 -38.5q-59 0 -100 38.5t-41 96.5zM913 1272q0 59 41 98t99 39q59 0 100 -39t41 -98q0 -58 -41 -96.5t-100 -38.5q-58 0 -99 38.5t-41 96.5zM1624 1010l-139 -240q-32 -53 -45 -92l-234 -678
h-229l-197 569l-196 -569h-232l-264 778q-26 75 -43 109l-63 123v4h510v-4l-70 -117q-9 -16 -10.5 -24t4.5 -27l202 -621l142 410l-49 147q-20 63 -43 109l-64 123v4h510v-4l-70 -117q-9 -16 -10.5 -24t4.5 -27l205 -619l156 461q9 31 8 41t-14 37l-119 248v4h350v-4z" />
    <glyph glyph-name="uni1E8A" unicode="&#x1e8a;" horiz-adv-x="1454" 
d="M1272 225q12 -18 61 -73l133 -148v-4h-696v4l96 125q12 16 13 25t-11 28l-252 391l-198 -268q-17 -23 -18.5 -33.5t10.5 -29.5l149 -238v-4h-565v4l287 225q27 22 39 32.5t30.5 30.5t38.5 46l203 272l-387 604q-22 34 -62 74l-133 148v4h697v-4l-97 -125q-13 -14 -13 -24
t11 -30l230 -358l176 236q18 22 18.5 33.5t-10.5 29.5l-152 238v4h568v-4l-287 -226q-61 -47 -86 -77q-12 -14 -25 -31l-178 -240zM629 1704q0 67 46 108t111 41q66 0 111 -41t45 -108q0 -64 -45 -103.5t-111 -39.5q-65 0 -111 39.5t-46 103.5z" />
    <glyph glyph-name="uni1E8B" unicode="&#x1e8b;" horiz-adv-x="1034" 
d="M631 608l295 -440q4 -5 57 -72l80 -92v-4h-559v4l78 94q11 17 10 25t-12 27l-158 233l-127 -158q-17 -22 -18 -30.5t12 -30.5l104 -160v-4h-411v4l217 182q47 39 86 88l114 142l-284 426q-22 35 -62 78l-76 90v4h558v-4l-78 -97q-12 -14 -11 -22.5t13 -26.5l149 -223
l117 147q17 22 18 31t-12 29l-104 162v4h413v-4l-219 -183q-39 -32 -86 -88zM387 1278q0 67 46.5 108t111.5 41q66 0 110.5 -41t44.5 -108q0 -65 -44.5 -104t-110.5 -39q-65 0 -111.5 39.5t-46.5 103.5z" />
    <glyph glyph-name="Ygrave" unicode="&#x1ef2;" horiz-adv-x="1310" 
d="M850 547v-350q0 -23 3.5 -32t18.5 -22l150 -139v-4h-715v4l152 139q14 14 17 22.5t3 31.5v315q0 32 -12 51l-338 647q-23 45 -55 88l-103 138v4h688v-4l-122 -142q-13 -15 -15 -22t6 -27l299 -602l236 481q10 24 9 33.5t-15 30.5l-176 248v4h512v-4l-232 -248
q-33 -33 -55 -76l-240 -487q-16 -33 -16 -78zM379 1866h328l161 -338l-2 -2l-487 336v4z" />
    <glyph glyph-name="ygrave" unicode="&#x1ef3;" horiz-adv-x="974" 
d="M836 674l-263 -635q-82 -193 -176 -340q-63 -99 -127.5 -140.5t-156.5 -41.5q-50 0 -97 20l76 359h4l203 -201q17 -17 25 -17q13 0 30 25q43 59 78 141l12 33l-381 967q-10 27 -30 67l-56 99v4h531v-4l-82 -113q-15 -20 -4 -47l207 -574l166 404q11 27 11.5 38.5
t-11.5 37.5l-125 254v4h350v-4l-133 -230q-27 -44 -51 -106zM195 1440h327l162 -338l-2 -2l-487 336v4z" />
    <glyph glyph-name="endash" unicode="&#x2013;" horiz-adv-x="1024" 
d="M1014 485h-1004v39h1004v-39z" />
    <glyph glyph-name="emdash" unicode="&#x2014;" horiz-adv-x="2048" 
d="M2038 485h-2028v39h2028v-39z" />
    <glyph glyph-name="quoteleft" unicode="&#x2018;" horiz-adv-x="425" 
d="M367 1083q0 -59 -41 -99t-103 -40q-68 0 -111.5 47t-43.5 125q0 123 81.5 227t210.5 136l2 -4q-61 -33 -100 -95.5t-39 -130.5q0 -14 5.5 -19.5t21.5 -8.5q54 -9 85.5 -46.5t31.5 -91.5z" />
    <glyph glyph-name="quoteright" unicode="&#x2019;" horiz-adv-x="425" 
d="M63 1321q0 59 40.5 99t101.5 40q70 0 113.5 -47.5t43.5 -126.5q0 -122 -82 -225t-212 -135l-2 4q61 31 101 93.5t40 131.5q0 14 -6 20t-21 9q-54 9 -85.5 45.5t-31.5 91.5z" />
    <glyph glyph-name="quotesinglbase" unicode="&#x201a;" horiz-adv-x="425" 
d="M63 147q0 59 40 99.5t102 40.5q70 0 113.5 -47.5t43.5 -124.5q0 -123 -82 -227t-212 -136l-2 4q61 31 101 94.5t40 131.5q0 14 -6.5 19.5t-22.5 8.5q-53 9 -84 45.5t-31 91.5z" />
    <glyph glyph-name="quotedblleft" unicode="&#x201c;" horiz-adv-x="806" 
d="M741 1479l2 -4q-61 -33 -100 -95.5t-39 -130.5q0 -14 5.5 -19.5t21.5 -8.5q54 -9 85.5 -46.5t31.5 -91.5q0 -59 -41 -99t-103 -40q-68 0 -111.5 47t-43.5 125q0 123 81.5 227t210.5 136zM360 1479l2 -4q-61 -33 -100 -95.5t-39 -130.5q0 -14 5.5 -19.5t21.5 -8.5
q54 -9 85.5 -46.5t31.5 -91.5q0 -59 -41 -99t-103 -40q-68 0 -111.5 47t-43.5 125q0 123 81.5 227t210.5 136z" />
    <glyph glyph-name="quotedblright" unicode="&#x201d;" horiz-adv-x="806" 
d="M63 1321q0 59 40.5 99t101.5 40q70 0 113.5 -47.5t43.5 -126.5q0 -122 -82 -225t-212 -135l-2 4q61 31 101 93.5t40 131.5q0 14 -6 20t-21 9q-54 9 -85.5 45.5t-31.5 91.5zM444 1321q0 59 40 99t102 40q70 0 113.5 -47.5t43.5 -126.5q0 -122 -82 -225t-212 -135l-3 4
q61 31 101.5 93.5t40.5 131.5q0 14 -6 20t-21 9q-54 9 -85.5 45.5t-31.5 91.5z" />
    <glyph glyph-name="quotedblbase" unicode="&#x201e;" horiz-adv-x="804" 
d="M741 115q0 -122 -82.5 -226.5t-212.5 -136.5l-2 4q61 31 101.5 94.5t40.5 131.5q0 14 -5.5 19.5t-21.5 8.5q-54 9 -85.5 45.5t-31.5 91.5q0 59 41 99.5t103 40.5q68 0 111.5 -47.5t43.5 -124.5zM362 115q0 -123 -82 -227t-212 -136l-2 4q61 31 101 94.5t40 131.5
q0 14 -6.5 19.5t-22.5 8.5q-53 9 -84 45.5t-31 91.5q0 59 40 99.5t102 40.5q70 0 113.5 -47.5t43.5 -124.5z" />
    <glyph glyph-name="dagger" unicode="&#x2020;" horiz-adv-x="878" 
d="M111 1051v39h309v350h41v-350h307v-39h-307v-785h-41v785h-309z" />
    <glyph glyph-name="daggerdbl" unicode="&#x2021;" horiz-adv-x="878" 
d="M768 616h-307v-350h-41v350h-309v39h309v396h-309v39h309v350h41v-350h307v-39h-307v-396h307v-39z" />
    <glyph glyph-name="bullet" unicode="&#x2022;" horiz-adv-x="704" 
d="M123 731q0 98 66.5 160.5t160.5 62.5q97 0 163.5 -62.5t66.5 -160.5q0 -95 -66.5 -154t-163.5 -59q-95 0 -161 59.5t-66 153.5z" />
    <glyph glyph-name="ellipsis" unicode="&#x2026;" horiz-adv-x="1456" 
d="M84 139q0 70 48 115t116 45q70 0 118 -44.5t48 -115.5q0 -68 -48 -111.5t-118 -43.5q-68 0 -116 44t-48 111zM565 139q0 71 47.5 115.5t116.5 44.5t116.5 -44.5t47.5 -115.5q0 -68 -47.5 -111.5t-116.5 -43.5t-116.5 43.5t-47.5 111.5zM1044 139q0 70 48 115t116 45
q69 0 116.5 -44.5t47.5 -115.5q0 -68 -47.5 -111.5t-116.5 -43.5q-68 0 -116 44t-48 111z" />
    <glyph glyph-name="perthousand" unicode="&#x2030;" horiz-adv-x="2009" 
d="M1663 563q-52 0 -68 -60t-16 -214q0 -155 16 -216t68 -61q54 0 71 61.5t17 213.5q0 155 -17 215.5t-71 60.5zM1663 594q149 0 222 -81t73 -226q0 -142 -73 -223.5t-222 -81.5q-146 0 -218.5 82t-72.5 225q0 142 72.5 223.5t218.5 81.5zM401 1430q-52 0 -68 -60.5
t-16 -214.5q0 -78 3 -124.5t11.5 -83.5t25.5 -52.5t44 -15.5q54 0 71 61t17 213q0 155 -17 216t-71 61zM401 1460q149 0 222 -81t73 -226q0 -142 -73 -223.5t-222 -81.5q-146 0 -218 81.5t-72 225.5q0 142 72 223.5t218 81.5zM985 563q-52 0 -68 -60t-16 -214
q0 -155 16 -216t68 -61q54 0 71 61.5t17 213.5q0 155 -17 215.5t-71 60.5zM985 594q149 0 222 -81t73 -226q0 -142 -73 -223.5t-222 -81.5q-146 0 -218.5 82t-72.5 225q0 142 72.5 223.5t218.5 81.5zM1229 1436l-1030 -1456l-33 26l1030 1454z" />
    <glyph glyph-name="guilsinglleft" unicode="&#x2039;" horiz-adv-x="571" 
d="M55 516l457 471l4 -2l-188 -471l188 -469l-4 -2l-457 469v4z" />
    <glyph glyph-name="guilsinglright" unicode="&#x203a;" horiz-adv-x="571" 
d="M516 512l-457 -469l-4 2l189 469l-189 471l4 2l457 -471v-4z" />
    <glyph glyph-name="fraction" unicode="&#x2044;" horiz-adv-x="98" 
d="M600 1436l-1030 -1456l-33 26l1030 1454z" />
    <glyph glyph-name="Euro" unicode="&#x20ac;" horiz-adv-x="1427" 
d="M1001 582h-391q29 -564 314 -564h26q26 0 39 6t25 23l313 483h4v-514q-191 -36 -434 -36q-321 0 -496 158t-208 444h-150v39h147q-4 62 -4 96q0 65 4 98h-147v39h152q34 284 212.5 445t479.5 161q232 0 444 -39v-503h-4l-311 473q-13 18 -28 24t-46 6h-27
q-275 0 -305 -567h391v-39h-393v-194h393v-39z" />
    <glyph glyph-name="trademark" unicode="&#x2122;" horiz-adv-x="1763" 
d="M920 926q0 -30 3 -39.5t21 -30.5l92 -108v-5h-268v5l92 108q15 20 18 31t3 39v395q0 20 -13 33l-71 82v4h256l188 -412l168 412h248v-4l-68 -70q-10 -10 -10 -27v-505q0 -17 10 -27l68 -59v-5h-346v5l65 61q10 8 10 25v395q0 30 3 57l-224 -551h-2l-243 537v-346z
M502 844q0 -21 10 -31l70 -65v-5h-355v5l72 65q10 10 10 31v559h-51q-13 0 -18.5 -3t-12.5 -14l-133 -215h-4l16 269h599l16 -269h-4l-133 215q-7 11 -13.5 14t-19.5 3h-49v-559z" />
    <glyph glyph-name="Omega" unicode="&#x2126;" horiz-adv-x="1558" 
d="M780 1421q-135 0 -205.5 -161t-70.5 -510q0 -230 57.5 -364.5t157.5 -176.5v-209h-621l-39 477h4l275 -401q17 -25 30.5 -31t51.5 -6h258v141q-261 35 -429.5 213.5t-168.5 421.5q0 300 185.5 472.5t514.5 172.5t514 -172t185 -473q0 -243 -167.5 -421.5t-428.5 -213.5
v-141h256q38 0 52 6t32 31l272 401h4l-37 -477h-620v209q99 42 156 176.5t57 364.5q0 349 -70 510t-205 161z" />
    <glyph glyph-name="estimated" unicode="&#x212e;" horiz-adv-x="1359" 
d="M1227 485h-1041q6 -209 149 -338t349 -129q165 0 294.5 88t178.5 238l43 -14q-53 -163 -193.5 -256.5t-322.5 -93.5q-150 0 -272.5 63t-195.5 183.5t-73 277.5q0 158 73 279t195.5 184t272.5 63t273 -63t196.5 -184t73.5 -279v-19zM684 989q-134 0 -245 -56.5
t-179.5 -163.5t-73.5 -245h998q-5 138 -74 245t-180.5 163.5t-245.5 56.5z" />
    <glyph glyph-name="uni2153" unicode="&#x2153;" horiz-adv-x="1064" 
d="M811 168q0 -76 -81 -127t-218 -51q-153 0 -260 39l115 204h4l73 -194q6 -16 27 -16h29q46 0 78 37t32 104q0 61 -40 96t-113 41v4q62 11 97.5 52t35.5 104q0 54 -21.5 82t-58.5 28h-16q-23 0 -31 -16l-94 -190h-4l-99 186q123 51 269 51q127 0 191.5 -38.5t64.5 -108.5
q0 -109 -179 -140v-4q90 -5 144.5 -43t54.5 -100zM645 1470v-526q0 -14 12 -20l129 -62v-4h-483v4l129 62q12 6 12 20v375q0 14 -12 16l-139 41v4zM942 739v-39h-819v39h819z" />
    <glyph glyph-name="uni2154" unicode="&#x2154;" horiz-adv-x="1064" 
d="M811 168q0 -76 -81 -127t-218 -51q-153 0 -260 39l115 204h4l73 -194q6 -16 27 -16h29q46 0 78 37t32 104q0 61 -40 96t-113 41v4q62 11 97.5 52t35.5 104q0 54 -21.5 82t-58.5 28h-16q-23 0 -31 -16l-94 -190h-4l-99 186q123 51 269 51q127 0 191.5 -38.5t64.5 -108.5
q0 -109 -179 -140v-4q90 -5 144.5 -43t54.5 -100zM123 700v39h819v-39h-819zM795 1290q0 -49 -22.5 -88t-72.5 -73t-112 -61.5t-160 -61.5v-5h229q31 0 43 3.5t27 15.5l68 57h4l-37 -219h-512v4q39 36 100 97.5t72 74.5q6 7 33 37t35.5 40t30 36.5t30 41t20.5 37t16.5 41.5
t4.5 38q0 125 -86 125q-34 0 -43 -17l-96 -201h-5l-98 197q117 51 275 51q123 0 189.5 -45.5t66.5 -124.5z" />
    <glyph glyph-name="uni2155" unicode="&#x2155;" horiz-adv-x="1064" 
d="M801 188q0 -101 -79.5 -149.5t-213.5 -48.5q-154 0 -256 41l113 196h4l73 -188q5 -16 27 -16h25q48 0 78 38t30 103q0 67 -42 105t-124 38q-56 0 -119 -26l-4 2l23 315q133 -10 252 -10h53q76 3 111 35l18 16h4l-12 -90q-7 -54 -37 -74t-90 -22q-65 0 -98 2q-67 0 -181 8
l-10 -144q108 54 219 54q109 0 172.5 -52.5t63.5 -132.5zM645 1470v-526q0 -14 12 -20l129 -62v-4h-483v4l129 62q12 6 12 20v375q0 14 -12 16l-139 41v4zM123 700v39h819v-39h-819z" />
    <glyph glyph-name="uni2156" unicode="&#x2156;" horiz-adv-x="1064" 
d="M801 188q0 -101 -79.5 -149.5t-213.5 -48.5q-154 0 -256 41l113 196h4l73 -188q5 -16 27 -16h25q48 0 78 38t30 103q0 67 -42 105t-124 38q-56 0 -119 -26l-4 2l23 315q230 -10 252 -10h53q76 3 111 35l18 16h4l-12 -90q-7 -54 -37 -74t-90 -22q-65 0 -98 2q-67 0 -181 8
l-10 -144q108 54 219 54q109 0 172.5 -52.5t63.5 -132.5zM942 739v-39h-819v39h819zM539 1460q123 0 189.5 -45.5t66.5 -124.5q0 -49 -22.5 -88t-72.5 -73t-112 -61.5t-160 -61.5v-5h229q31 0 43 3.5t27 15.5l68 57h4l-37 -219h-512v4q39 36 100 97.5t72 74.5q6 7 33 37
t35.5 40t30 36.5t30 41t20.5 37t16.5 41.5t4.5 38q0 125 -86 125q-34 0 -43 -17l-96 -201h-5l-98 197q117 51 275 51z" />
    <glyph glyph-name="uni2157" unicode="&#x2157;" horiz-adv-x="1064" 
d="M774 639l-12 -90q-7 -54 -37 -74t-90 -22q-65 0 -98 2q-67 0 -181 8l-10 -144q108 54 219 54q109 0 172.5 -52.5t63.5 -132.5q0 -101 -79.5 -149.5t-213.5 -48.5q-154 0 -256 41l113 196h4l73 -188q5 -16 27 -16h25q48 0 78 38t30 103q0 67 -42 105t-124 38
q-56 0 -119 -26l-4 2l23 315q225 -10 252 -10h53q76 3 111 35l18 16h4zM811 1026q0 -76 -81 -127t-218 -51q-153 0 -260 39l115 205h4l73 -195q6 -16 27 -16h29q46 0 78 37t32 104q0 61 -40 96t-113 41v4q62 11 97.5 52t35.5 104q0 54 -22 82.5t-58 28.5h-16q-22 0 -31 -17
l-94 -190h-4l-99 186q123 51 269 51q127 0 191.5 -38.5t64.5 -108.5q0 -108 -179 -139v-5q90 -5 144.5 -43t54.5 -100zM942 739v-39h-819v39h819z" />
    <glyph glyph-name="uni2158" unicode="&#x2158;" horiz-adv-x="1064" 
d="M680 1450v-416h33q13 0 18.5 3t11.5 14l99 166h4l-15 -213h-151v-68q0 -13 12 -23l80 -53v-2h-371v2l84 53q11 7 11 23v68h-289v4l330 442h143zM801 188q0 -101 -79.5 -149.5t-213.5 -48.5q-154 0 -256 41l113 196h4l73 -188q5 -16 27 -16h25q48 0 78 38t30 103
q0 67 -42 105t-124 38q-56 0 -119 -26l-4 2l23 315q200 -10 252 -10h53q76 3 111 35l18 16h4l-12 -90q-7 -54 -37 -74t-90 -22q-65 0 -98 2q-67 0 -181 8l-10 -144q108 54 219 54q109 0 172.5 -52.5t63.5 -132.5zM270 1034h226v303zM123 700v39h819v-39h-819z" />
    <glyph glyph-name="uni2159" unicode="&#x2159;" horiz-adv-x="1064" 
d="M606 371q95 0 152 -48t57 -130q0 -91 -71 -147t-201 -56q-154 0 -225.5 81t-71.5 220q0 147 81 229t234 82q123 0 230 -29l-86 -172h-5l-104 158q-7 12 -25 12h-12q-64 0 -85 -59t-21 -197q41 30 72 43t81 13zM645 1470v-526q0 -14 12 -20l129 -62v-4h-483v4l129 62
q12 6 12 20v375q0 14 -12 16l-139 41v4zM526 322q-23 0 -36.5 -6t-36.5 -23q0 -158 18 -214t72 -56q86 0 86 157q0 63 -25.5 102.5t-77.5 39.5zM123 739h819v-39h-819v39z" />
    <glyph glyph-name="uni215A" unicode="&#x215a;" horiz-adv-x="1064" 
d="M606 371q95 0 152 -48t57 -130q0 -91 -71 -147t-201 -56q-154 0 -225.5 81t-71.5 220q0 147 81 229t234 82q123 0 230 -29l-86 -172h-5l-104 158q-7 12 -25 12h-12q-64 0 -85 -59t-21 -197q41 30 72 43t81 13zM801 1047q0 -101 -79.5 -150t-213.5 -49q-154 0 -256 41
l113 196h4l73 -188q5 -16 27 -16h25q48 0 78 38t30 103q0 67 -42 105t-124 38q-56 0 -119 -26l-4 2l23 315q137 -10 252 -10h53q76 3 111 35l18 16h4l-12 -90q-7 -54 -37 -74t-90 -22q-65 0 -98 2q-67 0 -181 8l-10 -143q106 53 219 53q110 0 173 -52t63 -132zM526 322
q-23 0 -36.5 -6t-36.5 -23q0 -158 18 -214t72 -56q86 0 86 157q0 63 -25.5 102.5t-77.5 39.5zM123 700v39h819v-39h-819z" />
    <glyph glyph-name="uni215B" unicode="&#x215b;" horiz-adv-x="1064" 
d="M942 739v-39h-819v39h819zM526 -10q-109 0 -184.5 43t-75.5 104q0 98 152 117q-135 53 -135 172q0 77 68 126.5t179 49.5q104 0 172 -40t68 -93t-37 -80t-112 -33l45 -16q145 -52 145 -164q0 -85 -76 -135.5t-209 -50.5zM559 199l-125 49q-35 -40 -35 -98q0 -53 41 -91
t103 -39q53 0 83.5 23t30.5 59q0 33 -22.5 54.5t-75.5 42.5zM426 492q0 -32 28 -54.5t83 -46.5l67 -29q37 34 37 95q0 51 -31.5 82.5t-81.5 31.5q-46 0 -74 -22.5t-28 -56.5zM645 1470v-526q0 -14 12 -20l129 -62v-4h-483v4l129 62q12 6 12 20v375q0 14 -12 16l-139 41v4z
" />
    <glyph glyph-name="uni215C" unicode="&#x215c;" horiz-adv-x="1064" 
d="M526 -10q-109 0 -184.5 43t-75.5 104q0 98 152 117q-135 53 -135 172q0 77 68 126.5t179 49.5q104 0 172 -40t68 -93t-37 -80t-112 -33l45 -16q145 -52 145 -164q0 -85 -76 -135.5t-209 -50.5zM809 1026q0 -76 -81 -127t-218 -51q-153 0 -260 39l115 205h4l73 -195
q6 -16 27 -16h29q46 0 78 37t32 104q0 61 -40 96t-113 41v4q62 11 97.5 52t35.5 104q0 54 -22 82.5t-58 28.5h-16q-22 0 -31 -17l-94 -190h-5l-98 186q123 51 268 51q127 0 191.5 -38.5t64.5 -108.5q0 -108 -178 -139v-5q90 -5 144.5 -43t54.5 -100zM559 199l-125 49
q-35 -40 -35 -98q0 -53 41 -91t103 -39q53 0 83.5 23t30.5 59q0 33 -22.5 54.5t-75.5 42.5zM426 492q0 -32 28 -54.5t83 -46.5l67 -29q37 34 37 95q0 51 -31.5 82.5t-81.5 31.5q-46 0 -74 -22.5t-28 -56.5zM942 739v-39h-819v39h819z" />
    <glyph glyph-name="uni215D" unicode="&#x215d;" horiz-adv-x="1064" 
d="M526 -10q-109 0 -184.5 43t-75.5 104q0 98 152 117q-135 53 -135 172q0 77 68 126.5t179 49.5q104 0 172 -40t68 -93t-37 -80t-112 -33l45 -16q145 -52 145 -164q0 -85 -76 -135.5t-209 -50.5zM801 1047q0 -101 -79.5 -150t-213.5 -49q-154 0 -256 41l113 196h4l73 -188
q5 -16 27 -16h25q48 0 78 38t30 103q0 67 -42 105t-124 38q-56 0 -119 -26l-4 2l23 315q153 -10 252 -10h53q76 3 111 35l18 16h4l-12 -90q-7 -54 -37 -74t-90 -22q-65 0 -98 2q-67 0 -181 8l-10 -143q106 53 219 53q110 0 173 -52t63 -132zM559 199l-125 49
q-35 -40 -35 -98q0 -53 41 -91t103 -39q53 0 83.5 23t30.5 59q0 33 -22.5 54.5t-75.5 42.5zM426 492q0 -32 28 -54.5t83 -46.5l67 -29q37 34 37 95q0 51 -31.5 82.5t-81.5 31.5q-46 0 -74 -22.5t-28 -56.5zM123 700v39h819v-39h-819z" />
    <glyph glyph-name="uni215E" unicode="&#x215e;" horiz-adv-x="1064" 
d="M942 739v-39h-819v39h819zM526 -10q-109 0 -184.5 43t-75.5 104q0 98 152 117q-135 53 -135 172q0 77 68 126.5t179 49.5q104 0 172 -40t68 -93t-37 -80t-112 -33l45 -16q145 -52 145 -164q0 -85 -76 -135.5t-209 -50.5zM559 199l-125 49q-35 -40 -35 -98q0 -53 41 -91
t103 -39q53 0 83.5 23t30.5 59q0 33 -22.5 54.5t-75.5 42.5zM426 492q0 -32 28 -54.5t83 -46.5l67 -29q37 34 37 95q0 51 -31.5 82.5t-81.5 31.5q-46 0 -74 -22.5t-28 -56.5zM614 858h-254q130 213 353 461h-303q-44 0 -68 -21l-53 -49h-2l28 201h533l-80 -104
q-17 -20 -23 -39q-80 -231 -131 -449z" />
    <glyph glyph-name="uni2190" unicode="&#x2190;" horiz-adv-x="1445" 
d="M1333 489h-1138l462 -462l-30 -31l-514 514l514 514l32 -29l-464 -463h1138v-43z" />
    <glyph glyph-name="uni2191" unicode="&#x2191;" horiz-adv-x="1253" 
d="M647 -100h-43v1138l-463 -465l-28 33l514 514l514 -514l-31 -31l-463 463v-1138z" />
    <glyph glyph-name="uni2192" unicode="&#x2192;" horiz-adv-x="1445" 
d="M113 532h1138l-465 463l33 29l514 -514l-514 -514l-31 31l463 462h-1138v43z" />
    <glyph glyph-name="uni2193" unicode="&#x2193;" horiz-adv-x="1253" 
d="M604 1085h43v-1138l463 463l31 -31l-514 -514l-514 514l28 33l463 -465v1138z" />
    <glyph glyph-name="uni2196" unicode="&#x2196;" horiz-adv-x="1103" 
d="M961 63l-805 805v-653h-43v727h727v-43h-654l805 -807z" />
    <glyph glyph-name="uni2197" unicode="&#x2197;" horiz-adv-x="1103" 
d="M991 215h-43v651l-805 -803l-30 29l807 807h-656v43h727v-727z" />
    <glyph glyph-name="uni2198" unicode="&#x2198;" horiz-adv-x="1103" 
d="M113 913l30 29l805 -805v654h43v-728h-727v43h654z" />
    <glyph glyph-name="uni2199" unicode="&#x2199;" horiz-adv-x="1103" 
d="M840 106v-43h-727v728h43v-656l805 807l30 -29l-803 -807h652z" />
    <glyph glyph-name="partialdiff" unicode="&#x2202;" horiz-adv-x="1150" 
d="M561 -16q-111 0 -204 34t-162.5 98.5t-108.5 164.5t-39 225q0 116 36 213.5t96.5 161t138 98.5t161.5 35q162 0 246 -123q-91 472 -483 565v4q2 0 23.5 -1t23.5 -1q163 -13 297.5 -63.5t229.5 -130.5t160.5 -186t96.5 -229.5t31 -262.5q0 -296 -135 -449t-408 -153z
M756 563q0 148 -23 293q-51 59 -129 59q-186 0 -186 -442q0 -221 41.5 -335.5t120.5 -114.5q41 0 72 27.5t55 88.5t36.5 167.5t12.5 256.5z" />
    <glyph glyph-name="Delta" unicode="&#x2206;" horiz-adv-x="1380" 
d="M61 0l453 1221q12 31 10 44t-22 35l-121 136v4h483l467 -1440h-1270zM930 41l-377 1163l-432 -1163h809z" />
    <glyph glyph-name="product" unicode="&#x220f;" horiz-adv-x="1589" 
d="M1403 1257v-1075q0 -20 3 -28.5t15 -20.5l135 -129v-4h-679v4l135 129q13 12 16.5 20t3.5 29v1217h-475v-1217q0 -20 3.5 -28.5t17.5 -20.5l135 -129v-4h-682v4l137 129q12 12 15 20.5t3 28.5v1075q0 21 -3 29.5t-15 20.5l-137 129v4h1525v-4l-135 -129
q-12 -12 -15 -20.5t-3 -29.5z" />
    <glyph glyph-name="summation" unicode="&#x2211;" horiz-adv-x="1228" 
d="M885 741l-774 -700h704q24 0 35.5 5.5t23.5 23.5l254 426h5v-496h-1121v4l592 545l-436 727q-22 35 -51 61l-111 99v4h1102l10 -490h-4l-274 416q-14 21 -24.5 27t-33.5 6h-295z" />
    <glyph glyph-name="minus" unicode="&#x2212;" horiz-adv-x="1105" 
d="M102 643v39h902v-39h-902z" />
    <glyph glyph-name="uni2215" unicode="&#x2215;" horiz-adv-x="98" 
d="M600 1436l-1030 -1456l-33 26l1030 1454z" />
    <glyph glyph-name="uni2219" unicode="&#x2219;" horiz-adv-x="495" 
d="M84 864q0 71 47.5 116.5t116.5 45.5t116.5 -45.5t47.5 -116.5q0 -67 -48 -111t-116 -44t-116 44t-48 111z" />
    <glyph glyph-name="radical" unicode="&#x221a;" horiz-adv-x="1105" 
d="M999 1536l-536 -1536h-4l-324 911l37 11l289 -807l502 1431z" />
    <glyph glyph-name="infinity" unicode="&#x221e;" horiz-adv-x="1572" 
d="M109 666q0 113 77 200.5t193 87.5q40 0 79.5 -11.5t68.5 -27t67.5 -46.5t61 -52.5t65 -63.5t65.5 -63q21 20 65 64t65.5 64t60.5 51.5t68 46t68.5 26.5t80.5 12q116 0 193 -87.5t77 -200.5t-77 -201t-193 -88q-41 0 -80.5 11.5t-68.5 27t-67.5 46t-61 52.5t-65 64
t-65.5 63q-23 -21 -65.5 -63t-65 -63.5t-61 -52.5t-67.5 -46.5t-68.5 -27t-79.5 -11.5q-116 0 -193 88t-77 201zM150 666q0 -99 64 -174.5t165 -75.5q37 0 72.5 10.5t62.5 25t62.5 43t57.5 49t62.5 61t63.5 61.5q-20 19 -63.5 62t-63 61.5t-56.5 48t-63 42.5t-62 24t-73 11
q-101 0 -165 -75t-64 -174zM1194 416q101 0 165 75.5t64 174.5t-64 174t-165 75q-37 0 -73 -10.5t-63 -24.5t-62 -42.5t-56.5 -48.5t-62.5 -60.5t-64 -62.5q22 -21 75 -73.5t76.5 -72.5t65.5 -50.5t81 -42t83 -11.5z" />
    <glyph glyph-name="integral" unicode="&#x222b;" horiz-adv-x="972" 
d="M303 -270v1278q0 241 100 346.5t295 105.5q163 0 324 -45l-129 -307h-4l-144 289q-9 18 -14.5 22t-21.5 4q-40 0 -56 -40.5t-16 -139.5v-1239q0 -256 -99.5 -371.5t-291.5 -115.5q-167 0 -328 45l129 307h4l142 -289q9 -19 16 -24t22 -5q24 0 39 11t22 36.5t9 54t2 77.5z
" />
    <glyph glyph-name="approxequal" unicode="&#x2248;" horiz-adv-x="1105" 
d="M786 756q-62 0 -126.5 21t-111.5 46.5t-108.5 46.5t-117.5 21q-125 0 -199 -121l-33 23q82 137 232 137q62 0 126.5 -21t111.5 -46.5t108.5 -46.5t117.5 -21q125 0 197 118l35 -20q-82 -137 -232 -137zM786 391q-62 0 -126.5 21t-111.5 46.5t-108.5 46.5t-117.5 21
q-125 0 -199 -120l-33 22q82 137 232 137q62 0 126.5 -21t111.5 -46.5t108.5 -46.5t117.5 -21q124 0 197 119l35 -21q-82 -137 -232 -137z" />
    <glyph glyph-name="notequal" unicode="&#x2260;" horiz-adv-x="1105" 
d="M102 827v39h541l115 207l35 -20l-105 -187h316v-39h-336l-183 -327h519v-39h-541l-121 -219l-35 20l111 199h-316v39h336l183 327h-519z" />
    <glyph glyph-name="lessequal" unicode="&#x2264;" horiz-adv-x="1105" 
d="M102 209v39h902v-39h-902zM145 766l797 264l12 -39l-694 -227l694 -227l-12 -39l-797 264v4z" />
    <glyph glyph-name="greaterequal" unicode="&#x2265;" horiz-adv-x="1105" 
d="M1004 248v-39h-902v39h902zM164 1030l797 -264v-4l-797 -264l-12 39l694 227l-694 227z" />
    <glyph glyph-name="lozenge" unicode="&#x25ca;" horiz-adv-x="1105" 
d="M1004 664l-449 -830h-4l-449 830l449 829h4zM553 1409l-403 -745l403 -746l403 746z" />
    <glyph glyph-name="commaaccent" unicode="&#xf6c3;" horiz-adv-x="475" 
d="M373 -242q0 -100 -73 -182.5t-181 -107.5l-2 4q112 72 112 178q0 11 -4 14.5t-14 5.5q-50 6 -79.5 37.5t-29.5 83.5q0 55 36.5 92t94.5 37q63 0 101.5 -44t38.5 -118z" />
    <glyph glyph-name="apple" unicode="&#xf8ff;" horiz-adv-x="2568" 
d="M1364 698q-22 0 -84 3.5t-80 3.5q-110 0 -170.5 -50t-107.5 -155q-52 -117 -130 -181.5t-208 -64.5q-26 0 -86.5 4t-83.5 4q-116 0 -189 -63t-73 -154q0 -33 2 -45h-39q-2 14 -2 45q0 111 85 183.5t218 72.5q25 0 87 -4t83 -4q209 0 301 223q93 227 313 227q22 0 84 -3
t80 -3q107 0 170.5 51.5t110.5 155.5q52 116 128.5 179t206.5 63q26 0 86.5 -4t83.5 -4q115 0 191 65t76 152q0 33 -2 45h39q2 -14 2 -45q0 -108 -88 -182t-220 -74q-25 0 -87 4t-83 4q-113 0 -182.5 -55.5t-116.5 -163.5q-96 -230 -315 -230z" />
    <glyph glyph-name="Iacute_Jacute" horiz-adv-x="1429" 
d="M557 182q0 -20 3.5 -28.5t17.5 -20.5l135 -129v-4h-682v4l137 129q12 12 15 20.5t3 28.5v1075q0 21 -3 29.5t-15 20.5l-137 129v4h682v-4l-135 -129q-14 -12 -17.5 -21t-3.5 -29v-1075zM397 1866h328v-4l-485 -338l-4 4zM1104 1866h328v-4l-486 -338l-4 4zM901 121v1136
q0 21 -3.5 29.5t-16.5 20.5l-136 129v4h682v-4l-135 -129q-13 -12 -16.5 -20.5t-3.5 -29.5v-1015q0 -309 -165.5 -486.5t-479.5 -187.5l-2 4q276 140 276 549z" />
    <glyph glyph-name="Jacute" horiz-adv-x="686" 
d="M360 1866h328v-4l-485 -338l-4 4zM158 121v1136q0 20 -3.5 29t-17.5 21l-135 129v4h682v-4l-135 -129q-14 -12 -17.5 -21t-3.5 -29v-1015q0 -309 -165.5 -486.5t-479.5 -187.5l-2 4q277 141 277 549z" />
    <glyph glyph-name="caronslovak" horiz-adv-x="602" 
d="M264 1440h234l-248 -400h-4z" />
    <glyph glyph-name="commatop" horiz-adv-x="544" 
d="M393 1272q0 -55 -37 -93t-94 -38q-63 0 -101 44.5t-38 117.5q0 102 72.5 183t181.5 109l2 -4q-113 -70 -113 -178q0 -20 19 -20q49 0 78.5 -34t29.5 -87z" />
    <glyph glyph-name="jacute" horiz-adv-x="591" 
d="M485 76q0 -257 -130 -397.5t-373 -143.5q-7 0 -20 1t-19 1v4q207 43 207 420v895q0 20 -3.5 28.5t-15.5 22.5l-100 103v4h454v-938zM293 1440h328v-4l-486 -338l-4 4z" />
    <glyph glyph-name="smiley" horiz-adv-x="1675" 
d="M838 1460q158 0 294.5 -54.5t233.5 -150.5t152 -234t55 -300q0 -155 -53 -291t-147.5 -235.5t-233 -157t-301.5 -57.5q-166 0 -305 57.5t-233 157.5t-146 235.5t-52 290.5q0 207 98.5 377t267 266t370.5 96zM145 721q0 -117 31 -223t91 -193t143.5 -151t193 -99
t234.5 -35q204 0 363 93.5t244 252.5t85 355q0 204 -89 363.5t-246.5 247t-356.5 87.5q-190 0 -349 -91t-251.5 -251.5t-92.5 -355.5zM1393 633l2 -2q-21 -74 -78 -74q-12 -169 -144 -280t-335 -111t-335.5 111t-146.5 280q-59 0 -77 74l2 2q29 -36 81 -33q32 0 61.5 16.5
t39.5 45.5h4q3 -87 -68 -101q15 -154 135 -252t304 -98q183 0 302 98t134 252q-73 15 -68 101h4q10 -29 39.5 -45.5t61.5 -16.5q53 -3 82 33zM672 1262q14 0 25.5 -38t18.5 -114t7 -176q0 -96 -7 -169.5t-18.5 -110t-25.5 -36.5q-24 0 -39 85t-15 231q0 152 15 240t39 88z
M952 934q0 152 15 240t39 88q14 0 25.5 -38t18.5 -114t7 -176q0 -96 -7 -169.5t-18.5 -110t-25.5 -36.5q-24 0 -39 85t-15 231z" />
    <glyph glyph-name="backslash.case" horiz-adv-x="778" 
d="M674 -195l-608 1815l38 12l609 -1814z" />
    <glyph glyph-name="bar.case" horiz-adv-x="450" 
d="M246 -393h-41v2048h41v-2048z" />
    <glyph glyph-name="braceleft.case" horiz-adv-x="722" 
d="M467 932q6 -87 -49 -145.5t-156 -79.5v-2q101 -21 156 -79t49 -145l-27 -358q-3 -50 9 -98.5t40 -93t83.5 -71.5t129.5 -26v-4q-72 -14 -131 -14q-72 0 -138.5 21.5t-120.5 64t-83.5 113.5t-23.5 161l28 373q4 59 -42 103t-119 53v2q73 9 119 52.5t42 102.5l-28 373
q-6 90 23.5 161t83.5 113.5t120.5 64t138.5 21.5q59 0 131 -14v-4q-74 2 -129.5 -25t-83.5 -71.5t-40 -93t-9 -97.5z" />
    <glyph glyph-name="braceright.case" horiz-adv-x="722" 
d="M518 1235l-29 -373q-4 -59 42.5 -102.5t119.5 -52.5v-2q-73 -9 -119.5 -53t-42.5 -103l29 -373q6 -90 -23.5 -161t-83.5 -113.5t-120.5 -64t-138.5 -21.5q-60 0 -132 14v4q74 -1 129.5 26t84 71.5t40.5 93.5t9 98l-27 358q-6 87 49 145t156 79v2q-101 21 -156 79.5
t-49 145.5l27 358q3 49 -9 97.5t-40.5 93t-84 71.5t-129.5 25v4q72 14 132 14q72 0 138.5 -21.5t120.5 -64t83.5 -113.5t23.5 -161z" />
    <glyph glyph-name="bracketleft.case" horiz-adv-x="745" 
d="M385 1419v-1427q0 -19 4 -25t21 -10l315 -109v-4l-561 -24v1771l561 -24v-4l-315 -109q-17 -4 -21 -10t-4 -25z" />
    <glyph glyph-name="bracketright.case" horiz-adv-x="745" 
d="M362 -8v1427q0 19 -3.5 25t-20.5 10l-318 109v4l562 24v-1771l-562 24v4l318 109q17 4 20.5 10t3.5 25z" />
    <glyph glyph-name="emdash.case" horiz-adv-x="2048" 
d="M2038 680h-2028v39h2028v-39z" />
    <glyph glyph-name="endash.case" horiz-adv-x="1024" 
d="M1014 680h-1004v39h1004v-39z" />
    <glyph glyph-name="exclamdown.case" horiz-adv-x="626" 
d="M72 0l237 991h4l242 -991h-483zM147 1300q0 68 48 112t116 44q70 0 118 -44t48 -112q0 -71 -48 -116t-118 -45q-68 0 -116 45.5t-48 115.5z" />
    <glyph glyph-name="guillemotleft.case" horiz-adv-x="954" 
d="M512 227l-457 469v4l457 471l4 -2l-188 -471l188 -469zM895 227l-457 469v4l457 471l4 -2l-188 -471l188 -469z" />
    <glyph glyph-name="guillemotright.case" horiz-adv-x="954" 
d="M899 696l-457 -469l-4 2l189 469l-189 471l4 2l457 -471v-4zM516 696l-457 -469l-4 2l189 469l-189 471l4 2l457 -471v-4z" />
    <glyph glyph-name="guilsinglleft.case" horiz-adv-x="571" 
d="M55 700l457 471l4 -2l-188 -471l188 -469l-4 -2l-457 469v4z" />
    <glyph glyph-name="guilsinglright.case" horiz-adv-x="571" 
d="M516 696l-457 -469l-4 2l189 469l-189 471l4 2l457 -471v-4z" />
    <glyph glyph-name="hyphen.case" horiz-adv-x="718" 
d="M94 680v41h533v-41h-533z" />
    <glyph glyph-name="parenleft.case" horiz-adv-x="696" 
d="M111 705q0 487 295 765q109 103 268 148l2 -4q-102 -83 -168 -219q-77 -158 -110 -322.5t-33 -367.5t33 -368t110 -323q66 -136 168 -219l-2 -4q-159 45 -268 148q-295 278 -295 766z" />
    <glyph glyph-name="parenright.case" horiz-adv-x="696" 
d="M586 705q0 -258 -78 -449.5t-215 -316.5q-113 -104 -270 -148l-3 4q102 83 168 219q77 159 110.5 324t33.5 367t-33 366.5t-111 323.5q-66 136 -168 219l3 4q157 -44 270 -148q293 -266 293 -765z" />
    <glyph glyph-name="questiondown.case" horiz-adv-x="1001" 
d="M514 967l4 2q88 -29 134 -82.5t46 -122.5q0 -53 -27.5 -100t-78.5 -99l-121 -121q-90 -100 -90 -208q0 -94 52 -153.5t126 -59.5h27q43 0 57 32l176 414h4l160 -371q-110 -50 -242 -83t-249 -33q-219 0 -339 88.5t-120 240.5t162 285q29 23 120 89t111 83
q54 45 72.5 85.5t15.5 113.5zM709 1303q0 -71 -47.5 -116.5t-114.5 -45.5q-70 0 -118 45.5t-48 116.5q0 68 48 111.5t118 43.5q67 0 114.5 -43.5t47.5 -111.5z" />
    <glyph glyph-name="slash.case" horiz-adv-x="778" 
d="M713 1620l-609 -1815l-38 13l608 1814z" />
    <glyph glyph-name="braceleft.salt" horiz-adv-x="501" 
d="M293 451q0 -29 -14 -80l-91 -318q-20 -67 -20 -123q0 -182 201 -182q51 0 106 12l6 -34q-60 -13 -108 -13q-112 0 -179 53.5t-67 165.5q0 54 23 134l90 305q14 47 14 80q0 129 -182 129v41q182 0 182 131q0 32 -14 79l-90 306q-23 81 -23 133q0 112 67 165.5t179 53.5
q43 0 108 -14l-6 -35q-55 12 -106 12q-201 0 -201 -180q0 -56 20 -123l91 -318q14 -51 14 -79q0 -61 -34 -102t-93 -48v-2q60 -9 93.5 -49t33.5 -100z" />
    <glyph glyph-name="braceright.salt" horiz-adv-x="501" 
d="M209 752q0 28 14 79l90 318q21 71 21 123q0 180 -201 180q-51 0 -106 -12l-7 35q65 14 109 14q112 0 179 -53.5t67 -165.5q0 -52 -23 -133l-90 -306q-14 -47 -14 -79q0 -131 182 -131v-41q-182 0 -182 -129q0 -33 14 -80l90 -305q23 -81 23 -134q0 -112 -67 -165.5
t-179 -53.5q-49 0 -109 13l7 34q55 -12 106 -12q201 0 201 182q0 52 -21 123l-90 318q-14 51 -14 80q0 60 33.5 100t93.5 49v2q-59 7 -93 48t-34 102z" />
    <glyph glyph-name="bracketleft.salt" horiz-adv-x="526" 
d="M506 -242v-39h-342v1760h342v-39h-301v-1682h301z" />
    <glyph glyph-name="bracketright.salt" horiz-adv-x="526" 
d="M362 1479v-1760h-342v39h302v1682h-302v39h342z" />
    <glyph glyph-name="guillemotleft.salt" horiz-adv-x="868" 
d="M55 516l402 471l28 -26l-376 -445l376 -444l-28 -27zM383 516l401 471l29 -26l-377 -445l377 -444l-29 -27z" />
    <glyph glyph-name="guillemotright.salt" horiz-adv-x="868" 
d="M813 516l-401 -471l-29 27l377 444l-377 445l29 26zM485 516l-401 -471l-29 27l377 444l-377 445l29 26z" />
    <glyph glyph-name="guilsinglleft.salt" horiz-adv-x="540" 
d="M55 516l402 471l28 -26l-376 -445l376 -444l-28 -27z" />
    <glyph glyph-name="guilsinglright.salt" horiz-adv-x="540" 
d="M84 987l401 -471l-401 -471l-29 27l377 444l-377 445z" />
    <glyph glyph-name="parenleft.salt" horiz-adv-x="569" 
d="M111 596q0 170 44 338t140 322.5t231 250.5l23 -30q-191 -139 -294 -381t-103 -500q0 -257 103 -498.5t294 -380.5l-23 -30q-135 96 -231 250.5t-140 322t-44 336.5z" />
    <glyph glyph-name="parenright.salt" horiz-adv-x="569" 
d="M457 596q0 -169 -44 -336.5t-140.5 -322t-231.5 -250.5l-23 30q191 139 294.5 381t103.5 498q0 258 -103.5 500t-294.5 381l23 30q135 -96 231.5 -250.5t140.5 -322.5t44 -338z" />
    <glyph glyph-name="braceleft.salt.case" horiz-adv-x="501" 
d="M72 686v41q182 0 182 131q0 33 -14 80l-90 305q-23 81 -23 133q0 112 67 165.5t179 53.5q43 0 108 -14l-6 -35q-60 13 -106 13q-201 0 -201 -181q0 -56 20 -123l91 -317q14 -51 14 -80q0 -61 -34 -101.5t-93 -47.5v-2q60 -9 93.5 -49.5t33.5 -100.5q0 -29 -14 -80
l-91 -317q-20 -67 -20 -123q0 -182 201 -182q51 0 106 12l6 -35q-44 -12 -108 -12q-112 0 -179 53.5t-67 165.5q0 52 23 133l90 305q14 47 14 80q0 129 -182 129z" />
    <glyph glyph-name="braceright.salt.case" horiz-adv-x="501" 
d="M430 727v-41q-182 0 -182 -129q0 -33 14 -80l90 -305q23 -81 23 -133q0 -112 -67 -165.5t-179 -53.5q-65 0 -109 12l7 35q55 -12 106 -12q201 0 201 182q0 53 -21 123l-90 317q-14 51 -14 80q0 60 33.5 100.5t93.5 49.5v2q-59 7 -93 47.5t-34 101.5q0 29 14 80l90 317
q21 71 21 123q0 181 -201 181q-46 0 -106 -13l-7 35q65 14 109 14q112 0 179 -53.5t67 -165.5q0 -52 -23 -133l-90 -305q-14 -47 -14 -80q0 -131 182 -131z" />
    <glyph glyph-name="bracketleft.salt.case" horiz-adv-x="526" 
d="M506 -139v-39h-342v1759h342v-39h-301v-1681h301z" />
    <glyph glyph-name="bracketright.salt.case" horiz-adv-x="526" 
d="M20 -178v39h302v1681h-302v39h342v-1759h-342z" />
    <glyph glyph-name="guillemotleft.salt.case" horiz-adv-x="868" 
d="M55 700l402 471l28 -26l-376 -445l376 -444l-28 -27zM383 700l401 471l29 -26l-377 -445l377 -444l-29 -27z" />
    <glyph glyph-name="guillemotright.salt.case" horiz-adv-x="868" 
d="M813 700l-401 -471l-29 27l377 444l-377 445l29 26zM485 700l-401 -471l-29 27l377 444l-377 445l29 26z" />
    <glyph glyph-name="guilsinglleft.salt.case" horiz-adv-x="540" 
d="M55 700l402 471l28 -26l-376 -445l376 -444l-28 -27z" />
    <glyph glyph-name="guilsinglright.salt.case" horiz-adv-x="540" 
d="M84 1171l401 -471l-401 -471l-29 27l377 444l-377 445z" />
    <glyph glyph-name="parenleft.salt.case" horiz-adv-x="569" 
d="M111 702q0 170 44 338t140 323t231 251l23 -31q-191 -139 -294 -381t-103 -500q0 -256 103 -497.5t294 -380.5l-23 -31q-135 96 -231 250.5t-140 322t-44 336.5z" />
    <glyph glyph-name="parenright.salt.case" horiz-adv-x="569" 
d="M457 702q0 -169 -44 -336.5t-140.5 -322t-231.5 -250.5l-23 31q191 139 294.5 380.5t103.5 497.5q0 258 -103.5 500t-294.5 381l23 31q135 -96 231.5 -251t140.5 -323t44 -338z" />
    <glyph glyph-name="eight.subs" horiz-adv-x="638" 
d="M313 -10q-109 0 -184.5 43t-75.5 104q0 98 152 117q-135 53 -135 172q0 77 68 126.5t179 49.5q104 0 172 -40t68 -93t-37 -80t-112 -33l45 -16q145 -52 145 -164q0 -85 -76 -135.5t-209 -50.5zM346 199l-125 49q-35 -40 -35 -98q0 -53 41 -91t103 -39q53 0 83.5 23
t30.5 59q0 33 -22.5 54.5t-75.5 42.5zM213 492q0 -32 28 -54.5t83 -46.5l67 -29q37 34 37 95q0 51 -31.5 82.5t-81.5 31.5q-46 0 -74 -22.5t-28 -56.5z" />
    <glyph glyph-name="five.subs" horiz-adv-x="638" 
d="M586 188q0 -101 -79.5 -149.5t-213.5 -48.5q-154 0 -256 41l113 196h4l73 -188q5 -16 27 -16h25q48 0 78 38t30 103q0 67 -42 105t-124 38q-56 0 -119 -26l-4 2l23 315q143 -10 252 -10h53q76 3 111 35l18 16h4l-12 -90q-7 -54 -37 -74t-90 -22q-65 0 -98 2q-67 0 -181 8
l-10 -144q108 54 219 54q109 0 172.5 -52.5t63.5 -132.5z" />
    <glyph glyph-name="four.subs" horiz-adv-x="638" 
d="M633 358l-15 -213h-151v-67q0 -13 12 -23l80 -53v-2h-371v2l84 53q11 7 11 23v67h-289v5l330 442h143v-416h33q13 0 18.5 3t11.5 14l99 165h4zM57 176h226v303z" />
    <glyph glyph-name="nine.subs" horiz-adv-x="638" 
d="M248 221q-92 0 -150.5 48t-58.5 130q0 92 71 147.5t201 55.5q155 0 226 -80.5t71 -220.5q0 -145 -81 -228t-234 -83q-133 0 -230 30l87 170h4l104 -157q8 -10 23 -10h14q62 0 83 57.5t23 195.5q-39 -29 -71.5 -42t-81.5 -13zM328 272q36 0 73 25q0 159 -18 216.5
t-72 57.5q-43 0 -64.5 -42t-21.5 -115q0 -63 25.5 -102.5t77.5 -39.5z" />
    <glyph glyph-name="one.subs" horiz-adv-x="544" 
d="M532 4v-4h-483v4l129 62q12 6 12 20v375q0 14 -12 16l-139 41v4l352 90v-526q0 -14 12 -20z" />
    <glyph glyph-name="parenleft.subs" horiz-adv-x="430" 
d="M252 299q0 -139 37 -241.5t121 -176.5l-2 -4q-347 105 -347 422q0 151 85 259.5t262 160.5l2 -2q-158 -140 -158 -418z" />
    <glyph glyph-name="parenright.subs" horiz-adv-x="430" 
d="M178 299q0 278 -158 418l3 2q177 -52 261.5 -160.5t84.5 -259.5q0 -317 -346 -422l-3 4q84 74 121 176.5t37 241.5z" />
    <glyph glyph-name="seven.subs" horiz-adv-x="638" 
d="M391 0h-254q132 217 352 461h-303q-27 0 -40 -4.5t-27 -16.5l-53 -49h-3l29 201h533l-80 -105q-17 -21 -23 -38q-80 -231 -131 -449z" />
    <glyph glyph-name="six.subs" horiz-adv-x="638" 
d="M395 371q95 0 152 -48t57 -130q0 -91 -71 -147t-201 -56q-154 0 -225.5 81t-71.5 220q0 147 81 229t234 82q123 0 230 -29l-86 -172h-5l-104 158q-7 12 -25 12h-12q-64 0 -85 -59t-21 -197q41 30 72 43t81 13zM315 322q-23 0 -36.5 -6t-36.5 -23q0 -158 18 -214t72 -56
q86 0 86 157q0 63 -25.5 102.5t-77.5 39.5z" />
    <glyph glyph-name="three.subs" horiz-adv-x="638" 
d="M596 168q0 -76 -81 -127t-218 -51q-153 0 -260 39l115 204h4l73 -194q6 -16 27 -16h29q46 0 78 37t32 104q0 61 -40 96t-113 41v4q62 11 97.5 52t35.5 104q0 54 -21.5 82t-58.5 28h-16q-23 0 -31 -16l-94 -190h-4l-99 186q123 51 268 51q127 0 191.5 -38.5t64.5 -108.5
q0 -109 -178 -140v-4q90 -5 144.5 -43t54.5 -100z" />
    <glyph glyph-name="two.subs" horiz-adv-x="638" 
d="M324 602q123 0 189.5 -45.5t66.5 -124.5q0 -94 -85.5 -155.5t-281.5 -129.5v-4h229q31 0 43 3.5t27 15.5l68 57h4l-37 -219h-512v4q39 36 100 97.5t72 74.5q8 9 33.5 37t35 39.5t30 36.5t29.5 40.5t21 37t16.5 41t4.5 38.5q0 125 -86 125q-35 0 -43 -16l-96 -201h-5
l-98 197q117 51 275 51z" />
    <glyph glyph-name="zero.subs" horiz-adv-x="638" 
d="M317 571q-52 0 -68 -60t-16 -214q0 -155 16 -216t68 -61q54 0 71.5 62t17.5 213q0 154 -17.5 215t-71.5 61zM317 602q149 0 222 -81t73 -226q0 -142 -73 -223.5t-222 -81.5q-146 0 -218 81.5t-72 225.5q0 142 72 223.5t218 81.5z" />
    <glyph glyph-name="eight.sups" horiz-adv-x="638" 
d="M313 848q-109 0 -184.5 43t-75.5 104q0 98 152 117q-135 53 -135 172q0 77 68 126.5t179 49.5q104 0 172 -40t68 -93t-37 -80t-112 -33l45 -16q145 -52 145 -164q0 -85 -76 -135.5t-209 -50.5zM346 1057l-125 49q-35 -40 -35 -98q0 -53 41 -90.5t103 -38.5q53 0 83.5 23
t30.5 59q0 33 -22 54t-76 42zM213 1350q0 -32 28 -54.5t83 -46.5l67 -28q37 34 37 94q0 51 -31.5 83t-81.5 32q-46 0 -74 -22.5t-28 -57.5z" />
    <glyph glyph-name="five.sups" horiz-adv-x="638" 
d="M586 1047q0 -101 -79.5 -150t-213.5 -49q-154 0 -256 41l113 196h4l73 -188q5 -16 27 -16h25q48 0 78 38t30 103q0 67 -42 105t-124 38q-56 0 -119 -26l-4 2l23 315q142 -10 252 -10h53q76 3 111 35l18 16h4l-12 -90q-7 -54 -37 -74t-90 -22q-65 0 -98 2q-67 0 -181 8
l-10 -143q106 53 219 53q110 0 173 -52t63 -132z" />
    <glyph glyph-name="four.sups" horiz-adv-x="638" 
d="M633 1217l-15 -213h-151v-68q0 -13 12 -23l80 -53v-2h-371v2l84 53q11 7 11 23v68h-289v4l330 442h143v-416h33q13 0 18.5 3t11.5 14l99 166h4zM57 1034h226v303z" />
    <glyph glyph-name="nine.sups" horiz-adv-x="638" 
d="M250 1079q-92 0 -150.5 48t-58.5 130q0 92 71 147.5t201 55.5q155 0 226 -80.5t71 -220.5q0 -145 -81 -228t-234 -83q-129 0 -229 31l86 170h4l104 -158q7 -10 23 -10h14q62 0 83 58t23 196q-40 -30 -72 -43t-81 -13zM330 1130q35 0 73 25q0 159 -18 217t-72 58
q-43 0 -64.5 -42.5t-21.5 -115.5q0 -63 25.5 -102.5t77.5 -39.5z" />
    <glyph glyph-name="one.sups" horiz-adv-x="544" 
d="M532 862v-4h-483v4l129 62q12 6 12 20v375q0 14 -12 16l-139 41v4l352 90v-526q0 -14 12 -20z" />
    <glyph glyph-name="parenleft.sups" horiz-adv-x="430" 
d="M252 1145q0 -139 37 -241.5t121 -176.5l-2 -4q-347 105 -347 422q0 151 85 259.5t262 160.5l2 -2q-158 -140 -158 -418z" />
    <glyph glyph-name="parenright.sups" horiz-adv-x="430" 
d="M178 1145q0 278 -158 418l3 2q177 -52 261.5 -160.5t84.5 -259.5q0 -317 -346 -422l-3 4q84 74 121 176.5t37 241.5z" />
    <glyph glyph-name="seven.sups" horiz-adv-x="638" 
d="M391 858h-254q132 217 352 461h-303q-27 0 -40 -4.5t-27 -16.5l-53 -49h-3l29 201h533l-80 -104q-17 -20 -23 -39q-80 -231 -131 -449z" />
    <glyph glyph-name="six.sups" horiz-adv-x="638" 
d="M389 1229q95 0 152 -48t57 -130q0 -91 -71 -147t-201 -56q-154 0 -225.5 81t-71.5 220q0 147 81 229t234 82q125 0 229 -28l-86 -172h-4l-104 157q-8 13 -25 13h-12q-64 0 -85 -59t-21 -197q40 30 71.5 42.5t81.5 12.5zM309 1180q-23 0 -36.5 -6t-36.5 -23
q0 -158 18 -214t72 -56q86 0 86 157q0 63 -25.5 102.5t-77.5 39.5z" />
    <glyph glyph-name="three.sups" horiz-adv-x="638" 
d="M596 1026q0 -76 -81 -127t-218 -51q-153 0 -260 39l115 205h4l73 -195q6 -16 27 -16h29q46 0 78 37t32 104q0 61 -40 96t-113 41v4q62 11 97.5 52t35.5 104q0 54 -22 82.5t-58 28.5h-16q-23 0 -31 -17l-94 -190h-4l-99 186q123 51 268 51q127 0 191.5 -38.5t64.5 -108.5
q0 -108 -178 -139v-5q90 -5 144.5 -43t54.5 -100z" />
    <glyph glyph-name="two.sups" horiz-adv-x="638" 
d="M324 1460q123 0 189.5 -45.5t66.5 -124.5q0 -49 -22.5 -88t-72.5 -73t-112 -61.5t-160 -61.5v-5h229q31 0 43 3.5t27 15.5l68 57h4l-37 -219h-512v4q39 36 100 97.5t72 74.5q6 7 33 37t35.5 40t30 36.5t30 41t20.5 37t16.5 41.5t4.5 38q0 125 -86 125q-35 0 -43 -17
l-96 -201h-5l-98 197q117 51 275 51z" />
    <glyph glyph-name="zero.sups" horiz-adv-x="638" 
d="M317 1430q-52 0 -68 -60.5t-16 -214.5q0 -78 3 -124.5t11.5 -83.5t25.5 -52.5t44 -15.5q54 0 71.5 61.5t17.5 212.5q0 154 -17.5 215.5t-71.5 61.5zM317 1460q149 0 222 -81t73 -226q0 -142 -73 -223.5t-222 -81.5q-146 0 -218 81.5t-72 225.5q0 142 72 223.5t218 81.5z
" />
    <glyph glyph-name="i.trk" horiz-adv-x="634" 
d="M322 1126q-68 0 -116 42.5t-48 109.5q0 71 48 115.5t116 44.5q71 0 118 -44t47 -116q0 -68 -47.5 -110t-117.5 -42zM496 1014v-867q0 -22 2.5 -30t15.5 -19l100 -94v-4h-573v4l100 94q13 12 16 20t3 29v709q0 20 -3.5 28.5t-15.5 22.5l-100 103v4h455z" />
    </font>
</defs>
</svg>
