<?xml version="1.0" standalone="no"?>
<!DOCTYPE svg PUBLIC "-//W3C//DTD SVG 1.1//EN" "http://www.w3.org/Graphics/SVG/1.1/DTD/svg11.dtd" >
<svg xmlns="http://www.w3.org/2000/svg" xmlns:xlink="http://www.w3.org/1999/xlink" version="1.1">
<metadata>
Created by FontForge 20170731 at Fri Dec 10 10:13:41 2021
 By Aleksey,,,
Copyright (c) 2013 Schick Toikka. All rights reserved. Noe Display is a trademark of Schick Toikka. Unauthorised copying or modification of any of its data is illegal. | wf-rip by planemo
</metadata>
<defs>
<font id="NoeDisplay-Medium" horiz-adv-x="604" >
  <font-face 
    font-family="Noe Display"
    font-weight="500"
    font-stretch="normal"
    units-per-em="2048"
    panose-1="2 10 6 0 9 4 0 0 0 2"
    ascent="1536"
    descent="-512"
    x-height="1004"
    cap-height="1440"
    bbox="-463 -516 2456 2005"
    underline-thickness="36"
    underline-position="-241"
    unicode-range="U+0020-FB02"
  />
<missing-glyph horiz-adv-x="1228" 
d="M1114 -512h-999v2048h999v-2048zM596 512l-442 956v-1910zM635 512l440 -946v1894zM178 1499l438 -946l439 946h-877zM616 469l-440 -944h877z" />
    <glyph glyph-name="fi" unicode="fi" horiz-adv-x="1255" 
d="M1094 1004v-867q0 -19 3 -26.5t17 -18.5l121 -88v-4h-543v4l121 88q15 10 19 18.5t4 26.5v797q0 21 -5.5 27t-21.5 6h-371v-824q0 -19 5 -26.5t22 -18.5l153 -94v-4h-579v4l121 88q14 10 17 18t3 27v830h-127v37h127q9 223 135.5 339.5t348.5 116.5q176 0 356 -59
l-117 -277h-4l-125 271q-11 25 -41 28q-18 2 -59 2q-236 0 -236 -338v-83h656z" />
    <glyph glyph-name="fl" unicode="fl" horiz-adv-x="1257" 
d="M1098 137q0 -19 3 -26.5t19 -18.5l121 -88v-4h-543v4l121 88q14 10 17.5 18t3.5 27v1194q0 17 -4 24.5t-19 16.5q-76 49 -168 49q-211 0 -211 -313v-104h277v-37h-277v-820q0 -20 6 -28t25 -17l170 -98v-4h-600v4l121 88q14 10 17 18t3 27v830h-127v37h127
q2 117 36 205.5t94 142.5t139 81t176 27q116 0 221 -57l252 84v-1350z" />
    <glyph glyph-name="f_b" unicode="fb" horiz-adv-x="1806" 
d="M809 -16v1343q0 18 -4.5 27t-18.5 18q-76 49 -153 49q-98 0 -146.5 -75t-48.5 -238v-104h277v-37h-277v-820q0 -19 5.5 -26.5t25.5 -18.5l170 -98v-4h-600v4l121 88q14 10 17 18t3 27v830h-127v37h127q2 117 34.5 205.5t90.5 142.5t134.5 81t170.5 27q104 0 205 -57
l252 84v-688q105 221 311 221q172 0 270.5 -136t98.5 -364q0 -236 -116 -386t-312 -150q-91 0 -156 33t-100 87l-250 -120h-4zM1257 891q-109 0 -190 -115v-649q56 -61 154 -61q252 0 252 434q0 194 -57.5 292.5t-158.5 98.5z" />
    <glyph glyph-name="f_h" unicode="fh" horiz-adv-x="1851" 
d="M1708 602q0 -137 -4 -465q0 -18 4 -26t18 -19l121 -88v-4h-542v4l114 88q25 18 25 43q0 3 3 180t3 230q0 170 -39 252t-129 82q-114 0 -186 -121v-621q0 -19 3 -26.5t19 -18.5l121 -88v-4h-543v4l121 88q13 10 17 18.5t4 26.5v1190q0 18 -4.5 27t-18.5 18q-76 49 -164 49
q-213 0 -213 -313v-104h277v-37h-277v-820q0 -19 5.5 -26.5t25.5 -18.5l170 -98v-4h-600v4l121 88q14 10 17 18t3 27v830h-127v37h127q2 117 36 205.5t93.5 142.5t138.5 81t175 27q121 0 223 -57l250 84v-711q78 244 313 244q299 0 299 -418z" />
    <glyph glyph-name="f_j" unicode="fj" horiz-adv-x="1208" 
d="M795 967h-357v-824q0 -19 5 -26.5t22 -18.5l153 -94v-4h-579v4l121 88q14 10 17 18t3 27v830h-127v37h127q9 224 133 340t344 116q175 0 357 -59l-117 -277h-4l-127 271q-6 14 -12 18.5t-23 7.5q-40 4 -65 4q-228 0 -228 -338v-83h641v-947q0 -149 -46.5 -261t-146 -178
t-243.5 -67q-18 0 -63 5v4q122 18 181.5 116.5t59.5 300.5v957q0 21 -5 27t-21 6z" />
    <glyph glyph-name="f_k" unicode="fk" horiz-adv-x="1775" 
d="M1649 143q17 -35 47 -59l102 -80v-4h-371l-247 496q-14 28 -47 28q-19 0 -37 -12v-375q0 -19 3 -26.5t19 -18.5l121 -88v-4h-543v4l121 88q13 10 17 18.5t4 26.5v1194q0 17 -4 24.5t-19 16.5q-71 49 -164 49q-213 0 -213 -313v-104h277v-37h-277v-820q0 -19 5.5 -26.5
t25.5 -18.5l170 -98v-4h-600v4l121 88q14 10 17 18t3 27v830h-127v37h127q4 230 124 343t321 113q121 0 219 -57l252 84v-957l366 279q19 17 4 35l-147 155v5h450v-5l-387 -292q-12 -9 -15 -16t3 -19z" />
    <glyph glyph-name=".notdef" horiz-adv-x="1228" 
d="M1114 -512h-999v2048h999v-2048zM596 512l-442 956v-1910zM635 512l440 -946v1894zM178 1499l438 -946l439 946h-877zM616 469l-440 -944h877z" />
    <glyph glyph-name=".null" horiz-adv-x="0" 
 />
    <glyph glyph-name="nonmarkingreturn" horiz-adv-x="682" 
 />
    <glyph glyph-name="space" unicode=" " horiz-adv-x="407" 
 />
    <glyph glyph-name="exclam" unicode="!" horiz-adv-x="557" 
d="M461 1440l-185 -998h-4l-176 998h365zM133 123q0 62 42 103.5t101 41.5q62 0 104 -41t42 -104q0 -60 -42 -99.5t-104 -39.5q-59 0 -101 40t-42 99z" />
    <glyph glyph-name="quotedbl" unicode="&#x22;" horiz-adv-x="727" 
d="M293 1276l-98 -315h-5l-96 315q-10 33 -10 67q0 52 28 84.5t81 32.5q55 0 82.5 -32.5t27.5 -84.5q0 -34 -10 -67zM631 1276l-96 -315h-5l-96 315q-10 33 -10 67q0 52 27.5 84.5t80.5 32.5q55 0 83 -32.5t28 -84.5q0 -27 -12 -67z" />
    <glyph glyph-name="numbersign" unicode="#" horiz-adv-x="1204" 
d="M1006 442h-281l-113 -389l-34 10l108 379h-315l-113 -389l-35 10l109 379h-260v37h270l119 416h-260v37h270l117 405l39 -10l-115 -395h313l117 405l39 -10l-115 -395h267v-37h-277l-121 -416h271v-37zM502 895l-121 -416h315l119 416h-313z" />
    <glyph glyph-name="dollar" unicode="$" horiz-adv-x="1114" 
d="M520 -20q-210 0 -397 55v457h4l223 -433q11 -20 19 -26.5t26 -9.5q79 -9 105 -9h41v551q-40 21 -127 62q-326 153 -326 426q0 175 124.5 286.5t328.5 120.5v164h37v-164q166 0 364 -47v-440h-4l-231 413q-18 35 -52 37q-25 2 -65 2h-12v-542l116 -56q85 -40 141 -74
t108.5 -82.5t78 -110t25.5 -138.5q0 -182 -127.5 -303.5t-341.5 -136.5v-195h-37v193h-21zM809 274q0 92 -55 152t-176 121v-529q105 18 168 82.5t63 173.5zM313 1167q0 -94 58 -155.5t170 -112.5v522q-104 -12 -166 -79.5t-62 -174.5z" />
    <glyph glyph-name="percent" unicode="%" horiz-adv-x="1349" 
d="M393 1432q-61 0 -80.5 -63t-19.5 -214q0 -149 19.5 -211.5t80.5 -62.5q62 0 81.5 62t19.5 212q0 152 -19.5 214.5t-81.5 62.5zM393 1460q135 0 204 -82.5t69 -222.5q0 -139 -69 -221t-204 -82q-134 0 -202 82t-68 221t68.5 222t201.5 83zM948 561q-61 0 -80.5 -62.5
t-19.5 -213.5q0 -150 19.5 -212.5t80.5 -62.5q62 0 81.5 62.5t19.5 212.5q0 152 -19.5 214t-81.5 62zM948 590q135 0 204 -82.5t69 -222.5q0 -139 -69 -221t-204 -82q-134 0 -202 82t-68 221t68.5 222t201.5 83zM1204 1436l-1030 -1456l-33 26l1030 1454z" />
    <glyph glyph-name="ampersand" unicode="&#x26;" horiz-adv-x="1550" 
d="M1350 193q69 0 124 50t68 144h4q4 -24 4 -63q0 -158 -87 -251t-222 -93q-94 0 -176 46.5t-176 143.5q-94 -92 -192 -141t-224 -49q-186 0 -294.5 93.5t-108.5 243.5q0 250 348 398q-92 107 -136 196t-44 191q0 159 108 258.5t291 99.5q161 0 260.5 -71t99.5 -205
q0 -67 -27.5 -121.5t-81 -95t-110.5 -69t-137 -58.5l350 -402q24 -30 49 -55q97 128 142 229q7 23 3 34t-24 36l-164 182v4h488v-4l-213 -196q-34 -31 -58 -76q-67 -121 -149 -234q94 -95 156 -130t129 -35zM772 297l-344 403q-133 -118 -133 -282q0 -145 93 -237.5
t214 -92.5q91 0 148 24.5t116 80.5q-39 39 -94 104zM453 1210q0 -89 40.5 -171t135.5 -185q170 135 170 328q0 122 -46.5 185t-121.5 63q-82 0 -130 -60t-48 -160z" />
    <glyph glyph-name="quotesingle" unicode="'" horiz-adv-x="387" 
d="M303 1343q0 -34 -10 -67l-98 -315h-5l-96 315q-10 33 -10 67q0 52 28 84.5t81 32.5q55 0 82.5 -32.5t27.5 -84.5z" />
    <glyph glyph-name="parenleft" unicode="(" horiz-adv-x="671" 
d="M111 598q0 510 299 774q102 92 237 139l4 -4q-102 -85 -166 -204q-83 -150 -119 -316t-36 -389t36 -388.5t119 -315.5q65 -121 166 -205l-4 -4q-135 47 -237 139q-299 264 -299 774z" />
    <glyph glyph-name="parenright" unicode=")" horiz-adv-x="671" 
d="M563 598q0 -509 -301 -774q-102 -92 -237 -139l-5 4q99 83 168 205q82 150 118 316t36 388t-36 388.5t-118 316.5q-68 120 -168 204l5 4q135 -47 237 -139q301 -265 301 -774z" />
    <glyph glyph-name="asterisk" unicode="*" horiz-adv-x="780" 
d="M723 1116l-328 8l264 -188l-180 -131l-92 315l-96 -313l-180 131l268 186l-322 -8l70 213l256 -196l-104 307h223l-111 -307l262 192z" />
    <glyph glyph-name="plus" unicode="+" horiz-adv-x="1105" 
d="M102 643v37h433v432h38v-432h431v-37h-431v-432h-38v432h-433z" />
    <glyph glyph-name="comma" unicode="," horiz-adv-x="481" 
d="M383 102q0 -123 -85.5 -233.5t-209.5 -140.5l-2 4q74 38 114 111t40 139q0 14 -5 19.5t-20 6.5q-50 6 -82.5 43.5t-32.5 91.5q0 58 38.5 97t97.5 39q65 0 106 -45.5t41 -131.5z" />
    <glyph glyph-name="hyphen" unicode="-" horiz-adv-x="718" 
d="M94 481v39h533v-39h-533z" />
    <glyph glyph-name="period" unicode="." horiz-adv-x="481" 
d="M96 123q0 62 41.5 103.5t102.5 41.5q62 0 103.5 -41t41.5 -104q0 -60 -41.5 -99.5t-103.5 -39.5q-61 0 -102.5 39.5t-41.5 99.5z" />
    <glyph glyph-name="slash" unicode="/" horiz-adv-x="778" 
d="M713 1499l-609 -1812l-38 12l610 1812z" />
    <glyph glyph-name="zero" unicode="0" horiz-adv-x="1333" 
d="M666 18q52 0 93.5 20.5t78 70t60.5 128.5t38 201t14 281q0 161 -14 283.5t-38 201t-60.5 128t-78 69.5t-93.5 20q-65 0 -114 -33.5t-88.5 -111t-60 -217t-20.5 -338.5q0 -161 14 -283t38 -201t60.5 -128.5t78 -70t92.5 -20.5zM666 1460q277 0 427 -185.5t150 -555.5
q0 -367 -150 -553t-427 -186q-274 0 -424 187.5t-150 555.5q0 367 150 552t424 185z" />
    <glyph glyph-name="one" unicode="1" horiz-adv-x="817" 
d="M565 1468v-1296q0 -18 4.5 -25.5t22.5 -19.5l186 -123v-4h-684v4l189 123q17 11 20.5 19t3.5 26v1016q0 20 -4 28.5t-20 14.5l-213 61v4z" />
    <glyph glyph-name="two" unicode="2" horiz-adv-x="1114" 
d="M965 0h-926v4l242 275q91 101 196 239q128 166 180 290t52 267q0 171 -60 259.5t-176 88.5q-45 0 -65 -4q-31 -6 -43 -37l-152 -360h-4l-133 334q97 47 216 75.5t234 28.5q224 0 349.5 -106.5t125.5 -288.5q0 -61 -17 -121t-44 -112.5t-75 -110.5t-95 -105t-120 -107.5
t-134 -107t-151 -112.5l-95 -70h510q44 0 57 5.5t35 31.5l142 170h4z" />
    <glyph glyph-name="three" unicode="3" horiz-adv-x="1130" 
d="M1051 406q0 -192 -153.5 -309t-430.5 -117q-220 0 -412 69l146 373h4l123 -365q6 -18 12.5 -24.5t21.5 -9.5q61 -9 87 -9q146 0 228.5 105t82.5 264q0 158 -88.5 250.5t-270.5 101.5v4q308 66 308 381q0 137 -64 220t-176 83q-41 0 -66 -4q-16 -3 -22 -9t-16 -28
l-152 -358h-4l-131 334q95 47 214.5 74.5t231.5 27.5q208 0 337.5 -92t129.5 -252q0 -268 -327 -350v-4q174 -18 280.5 -113t106.5 -243z" />
    <glyph glyph-name="four" unicode="4" horiz-adv-x="1191" 
d="M848 172q0 -20 3.5 -27.5t20.5 -19.5l156 -121v-4h-627v4l164 121q16 13 20.5 21t4.5 26v195h-576v4l619 1069h215v-1034h59q20 0 29.5 5t21.5 23l201 344h4l-33 -411h-282v-195zM82 406h508v874z" />
    <glyph glyph-name="five" unicode="5" horiz-adv-x="1144" 
d="M1073 442q0 -220 -155 -341t-424 -121q-103 0 -215 18t-197 51l141 371h4l125 -363q7 -22 16.5 -28t37.5 -9q54 -6 73 -6q141 0 222 108.5t81 287.5q0 163 -88 258.5t-252 95.5q-125 0 -254 -78l-4 2l25 754l379 -12q83 -3 143 -3q80 0 125 11.5t78 42.5l59 57h4
l-24 -176q-13 -98 -66.5 -132t-179.5 -34q-60 0 -154 4l-335 12l-13 -469q186 127 398 127q207 0 328.5 -120t121.5 -308z" />
    <glyph glyph-name="six" unicode="6" horiz-adv-x="1232" 
d="M1155 469q0 -219 -142.5 -354t-367.5 -135q-266 0 -409.5 194t-143.5 543q0 358 157 550.5t472 192.5q177 0 381 -65l-129 -332h-4l-166 332q-8 15 -16 20t-31 8q-18 2 -47 2q-175 0 -253.5 -169.5t-78.5 -536.5q70 87 168 133.5t209 46.5q180 0 290.5 -113t110.5 -317z
M637 819q-139 0 -260 -127q1 -347 72.5 -512.5t193.5 -165.5q101 0 172.5 108t71.5 312q0 179 -63 282t-187 103z" />
    <glyph glyph-name="seven" unicode="7" horiz-adv-x="1028" 
d="M573 0h-331q131 336 310 689.5t294 529.5h-608q-27 0 -38 -5t-30 -26l-117 -144h-4l45 396h946v-4l-129 -179q-30 -43 -43 -77q-52 -131 -106.5 -336t-82 -332t-87.5 -421q-13 -61 -19 -91z" />
    <glyph glyph-name="eight" unicode="8" horiz-adv-x="1183" 
d="M588 -20q-225 0 -364.5 101.5t-139.5 248.5q0 137 89.5 215t260.5 123l-41 22q-129 71 -196.5 163.5t-67.5 219.5q0 175 130.5 281t332.5 106q184 0 313 -92t129 -240q0 -125 -85 -201t-226 -108l96 -51q156 -82 227.5 -169.5t71.5 -217.5q0 -166 -144 -283.5
t-386 -117.5zM662 541l-211 116q-160 -99 -160 -319q0 -134 91 -228t224 -94q121 0 201 67.5t80 186.5q0 87 -54.5 147t-170.5 124zM346 1194q0 -91 53 -157t172 -134l134 -76q69 53 99 123t30 168q0 140 -68.5 222.5t-177.5 82.5q-103 0 -172.5 -63.5t-69.5 -165.5z" />
    <glyph glyph-name="nine" unicode="9" horiz-adv-x="1232" 
d="M494 545q-81 0 -154 28t-131.5 81t-93.5 137.5t-35 189.5q0 213 143 346t369 133q269 0 410 -190.5t141 -552.5q0 -340 -160 -538.5t-455 -198.5q-204 0 -397 69l135 350h4l152 -354q7 -17 15 -21t32 -6q18 -4 59 -4q171 0 249.5 171.5t78.5 531.5v4q-144 -176 -362 -176
zM612 621q124 0 244 127q-1 184 -20.5 316t-55 210.5t-82.5 114.5t-108 36q-100 0 -171 -107.5t-71 -316.5q0 -177 65 -278.5t199 -101.5z" />
    <glyph glyph-name="colon" unicode=":" horiz-adv-x="481" 
d="M96 123q0 62 41.5 103.5t102.5 41.5q62 0 103.5 -41t41.5 -104q0 -60 -41.5 -99.5t-103.5 -39.5q-61 0 -102.5 39.5t-41.5 99.5zM96 797q0 62 41.5 103.5t102.5 41.5q62 0 103.5 -41t41.5 -104q0 -60 -41.5 -100t-103.5 -40q-60 0 -102 40t-42 100z" />
    <glyph glyph-name="semicolon" unicode=";" horiz-adv-x="481" 
d="M88 -272l-2 4q74 38 114 111t40 139q0 14 -5 19.5t-20 6.5q-50 6 -82.5 43.5t-32.5 91.5q0 58 38.5 97t97.5 39q65 0 106 -45.5t41 -131.5q0 -123 -85.5 -233.5t-209.5 -140.5zM96 797q0 62 41.5 103.5t102.5 41.5q62 0 103.5 -41t41.5 -104q0 -60 -41.5 -100t-103.5 -40
q-60 0 -102 40t-42 100z" />
    <glyph glyph-name="less" unicode="&#x3c;" horiz-adv-x="1105" 
d="M133 664l799 366l14 -35l-727 -333l727 -334l-14 -35l-799 366v5z" />
    <glyph glyph-name="equal" unicode="=" horiz-adv-x="1105" 
d="M1004 827h-902v37h902v-37zM1004 461h-902v37h902v-37z" />
    <glyph glyph-name="greater" unicode="&#x3e;" horiz-adv-x="1105" 
d="M973 664v-5l-799 -366l-14 35l727 334l-727 333l14 35z" />
    <glyph glyph-name="question" unicode="?" horiz-adv-x="907" 
d="M541 694q-58 -46 -82.5 -90.5t-24.5 -103.5q0 -15 4 -47l-2 -2q-147 62 -147 188q0 56 32.5 106.5t92.5 112.5q9 9 59 62t57 61q51 58 75 109t24 116q0 97 -59 157t-150 60q-32 0 -60 -4q-26 -4 -34.5 -10.5t-16.5 -24.5l-153 -362h-4l-132 334q98 48 217 76t230 28
q194 0 310 -84t116 -229q0 -154 -154 -283zM268 123q0 62 42.5 103.5t101.5 41.5q62 0 103.5 -41t41.5 -104q0 -60 -41.5 -99.5t-103.5 -39.5q-59 0 -101.5 40t-42.5 99z" />
    <glyph glyph-name="at" unicode="@" horiz-adv-x="2060" 
d="M1374 424q-31 -124 -31 -203q0 -92 36.5 -140t105.5 -48q77 0 154.5 47t139.5 128.5t101 204t39 261.5q0 212 -100 378.5t-282.5 259.5t-416.5 93q-208 0 -389.5 -75.5t-311 -208.5t-204 -321.5t-74.5 -406.5q0 -158 45.5 -292t125.5 -231t189.5 -165t239 -101.5
t271.5 -33.5q147 0 267.5 42.5t244.5 115.5l16 -33q-260 -162 -530 -162q-146 0 -279 34t-248 104.5t-199.5 171t-133 241.5t-48.5 309q0 226 78 421.5t213.5 333t325 216t405.5 78.5q184 0 340 -58.5t264 -160t169 -243t61 -304.5q0 -196 -71 -355.5t-192 -248t-265 -88.5
q-140 0 -228 72t-88 212q0 55 10 99h-4q-133 -383 -336 -383q-96 0 -158.5 79t-62.5 230q0 177 71.5 345.5t193.5 275t257 106.5q140 0 185 -105l256 107l4 -4zM1094 358q23 54 85.5 260t80.5 283q-12 24 -40 35.5t-57 11.5q-58 0 -112.5 -42.5t-94.5 -108.5
q-62 -100 -101.5 -245t-39.5 -273q0 -158 86 -158q93 0 193 237z" />
    <glyph glyph-name="A" unicode="A" horiz-adv-x="1304" 
d="M1178 195q15 -45 45 -82l86 -109v-4h-553v4l123 123q18 18 8 53l-107 324h-469l-78 -236q-7 -23 -4 -32t21 -29l186 -203v-4h-471v4l178 195q26 30 34.5 42.5t17.5 37.5l315 952q10 31 7.5 42t-21.5 32l-117 131v4h391zM549 1217l-225 -674h444z" />
    <glyph glyph-name="B" unicode="B" horiz-adv-x="1312" 
d="M35 1440h651q239 0 370.5 -87t131.5 -255q0 -138 -105.5 -228t-273.5 -108v-6q193 -8 312.5 -101t119.5 -247q0 -192 -143.5 -300t-384.5 -108h-678v4l158 111q15 10 18.5 18t3.5 27v1120q0 19 -3.5 27t-18.5 18l-158 111v4zM614 729h-114v-645q0 -31 10 -38t51 -7h55
q320 0 320 348q0 169 -76.5 255.5t-245.5 86.5zM500 1358v-592h112q126 0 200.5 82.5t74.5 243.5q0 151 -70.5 230t-195.5 79h-84q-22 0 -29.5 -8.5t-7.5 -34.5z" />
    <glyph glyph-name="C" unicode="C" horiz-adv-x="1253" 
d="M63 715q0 223 78 390t233 261t369 94q213 0 406 -43v-463h-4l-254 430q-13 23 -24.5 29.5t-41.5 9.5q-20 2 -59 2q-377 0 -377 -706q0 -705 385 -705q37 0 51 2q29 3 40.5 9.5t23.5 25.5l256 445h4v-482q-167 -34 -385 -34q-179 0 -314.5 53t-219.5 151.5t-125.5 231.5
t-41.5 299z" />
    <glyph glyph-name="D" unicode="D" horiz-adv-x="1421" 
d="M35 0v4l158 111q15 10 18.5 18t3.5 27v1120q0 19 -3.5 27t-18.5 18l-158 111v4h635q339 0 514.5 -184t175.5 -511q0 -348 -184 -546.5t-525 -198.5h-616zM549 39h43q222 0 333 165t111 523q0 674 -413 674h-91q-19 0 -25.5 -7.5t-6.5 -31.5v-1278q0 -30 8 -37.5t41 -7.5z
" />
    <glyph glyph-name="E" unicode="E" horiz-adv-x="1226" 
d="M1124 0h-1089v4l158 111q15 10 18.5 18t3.5 27v1120q0 19 -3.5 27t-18.5 18l-158 111v4h1071v-467h-4l-215 393q-11 22 -23 28.5t-35 6.5h-297q-20 0 -26 -7.5t-6 -35.5v-610h200q20 2 30.5 8t25.5 26l155 197h4v-500h-4l-155 199q-16 20 -26.5 26.5t-31.5 6.5h-198v-629
q0 -28 6 -35.5t26 -7.5h308q30 0 42.5 5t22.5 22l215 401h4v-467z" />
    <glyph glyph-name="F" unicode="F" horiz-adv-x="1161" 
d="M739 0h-704v4l158 111q15 10 18.5 18t3.5 27v1120q0 19 -3.5 27t-18.5 18l-158 111v4h1071v-467h-4l-215 393q-12 22 -23 28.5t-35 6.5h-294q-21 0 -28 -8t-7 -35v-610h200q20 2 30.5 8t25.5 26l155 197h4v-500h-4l-155 199q-16 20 -26.5 26.5t-31.5 6.5h-198v-539
q0 -18 3.5 -25.5t20.5 -17.5l215 -125v-4z" />
    <glyph glyph-name="G" unicode="G" horiz-adv-x="1363" 
d="M700 -20q-207 0 -351.5 92.5t-215 256.5t-70.5 388q0 221 79 387.5t234.5 261t368.5 94.5q231 0 429 -45v-465h-5l-256 432q-13 24 -23 32t-36 9q-29 2 -72 2q-107 0 -183.5 -49.5t-121.5 -144t-65.5 -218t-20.5 -284.5q0 -364 85 -537.5t265 -173.5q66 0 136 25
q24 9 24 39v385q0 24 -3 31.5t-17 19.5l-140 115v4h607v-4l-140 -113q-15 -12 -18.5 -20t-3.5 -33v-487l-248 47q-122 -47 -238 -47z" />
    <glyph glyph-name="H" unicode="H" horiz-adv-x="1550" 
d="M1335 1280v-1120q0 -19 4 -27t21 -18l158 -111v-4h-648v4l158 111q14 11 18.5 19t4.5 26v559h-551v-559q0 -20 3.5 -27.5t20.5 -17.5l158 -111v-4h-647v4l158 111q15 10 18.5 18t3.5 27v1120q0 19 -3.5 27t-18.5 18l-158 111v4h647v-4l-158 -111q-17 -12 -20.5 -19
t-3.5 -26v-522h551v522q0 19 -4 27t-19 18l-158 111v4h648v-4l-158 -111q-17 -12 -21 -19t-4 -26z" />
    <glyph glyph-name="I" unicode="I" horiz-adv-x="716" 
d="M500 1280v-1120q0 -20 3.5 -27.5t20.5 -17.5l158 -111v-4h-647v4l158 111q15 10 18.5 18t3.5 27v1120q0 19 -3.5 27t-18.5 18l-158 111v4h647v-4l-158 -111q-17 -12 -20.5 -19t-3.5 -26z" />
    <glyph glyph-name="J" unicode="J" horiz-adv-x="655" 
d="M186 82v1198q0 18 -4.5 26t-19.5 19l-158 111v4h647v-4l-157 -111q-17 -12 -21 -19t-4 -26v-1141q0 -253 -143 -401t-396 -170l-2 4q132 66 195 199.5t63 310.5z" />
    <glyph glyph-name="K" unicode="K" horiz-adv-x="1382" 
d="M500 1280v-1120q0 -20 3.5 -27.5t20.5 -17.5l158 -111v-4h-647v4l158 111q15 10 18.5 18t3.5 27v1120q0 19 -3.5 27t-18.5 18l-158 111v4h647v-4l-158 -111q-17 -12 -20.5 -19t-3.5 -26zM1038 1202l-301 -313l477 -701q29 -43 62 -69l133 -115v-4h-405l-486 713l483 508
q16 20 14.5 28t-20.5 27l-166 160v4h580v-4l-276 -164q-3 -2 -8 -5q-52 -31 -80 -59q-4 -3 -7 -6z" />
    <glyph glyph-name="L" unicode="L" horiz-adv-x="1161" 
d="M1100 0h-1065v4l158 111q15 10 18.5 18t3.5 27v1120q0 19 -3.5 27t-18.5 18l-158 111v4h647v-4l-158 -111q-17 -12 -20.5 -19t-3.5 -26v-1198q0 -28 6 -35.5t26 -7.5h265q30 0 43 5t22 22l234 426h4v-492z" />
    <glyph glyph-name="M" unicode="M" horiz-adv-x="1783" 
d="M1567 160q0 -20 3.5 -27.5t20.5 -17.5l158 -111v-4h-647v4l158 111q15 11 19.5 19t4.5 26v911q0 69 6 131l-481 -1214h-4l-477 1097q-22 49 -45 115v-932q0 -24 4.5 -33t25.5 -30l199 -201v-4h-500v4l201 201q20 21 24.5 31t4.5 32v953q0 25 -3.5 34t-17.5 21l-172 160v4
h434l447 -1034l411 1034h408v-4l-158 -121q-17 -10 -20.5 -17.5t-3.5 -27.5v-1110z" />
    <glyph glyph-name="N" unicode="N" horiz-adv-x="1419" 
d="M37 1440h414l716 -1147v878q0 23 -4.5 34t-23.5 30l-201 201v4h500v-4l-199 -201q-20 -22 -25.5 -32t-5.5 -32v-1171h-190l-731 1167v-899q0 -24 4.5 -34t25.5 -29l201 -201v-4h-502v4l201 201q19 19 24 29.5t5 33.5v920q0 41 -23 67l-186 181v4z" />
    <glyph glyph-name="O" unicode="O" horiz-adv-x="1449" 
d="M727 14q76 0 135.5 39t105 121t69.5 220.5t24 326.5t-24 326t-69.5 219.5t-105 120t-135.5 38.5q-336 0 -336 -704t336 -707zM727 1460q313 0 485 -193t172 -546q0 -354 -172 -547.5t-485 -193.5q-314 0 -487.5 193.5t-173.5 547.5q0 353 173.5 546t487.5 193z" />
    <glyph glyph-name="P" unicode="P" horiz-adv-x="1263" 
d="M655 549h-155v-369q0 -28 3 -37.5t19 -19.5l228 -119v-4h-715v4l158 111q15 10 18.5 18t3.5 27v1120q0 19 -3.5 27t-18.5 18l-158 111v4h659q111 0 203 -24t165.5 -74.5t115 -136.5t41.5 -201q0 -110 -43 -197.5t-119.5 -143.5t-178.5 -85t-223 -29zM500 1360v-772h118
q131 0 214 102.5t83 308.5q0 197 -77.5 299.5t-208.5 102.5h-90q-23 0 -31 -8t-8 -33z" />
    <glyph glyph-name="Q" unicode="Q" horiz-adv-x="1452" 
d="M1061 -483q-140 0 -281 51l-420 145q-74 25 -129 25q-35 0 -63 -4l-2 2l321 278q-204 65 -312.5 246t-108.5 461q0 353 173.5 546t487.5 193q313 0 485 -193t172 -546q0 -354 -172 -547.5t-485 -193.5q-96 0 -201 24l-102 -92l455 -143q128 -41 264 -41q146 0 243 71
l74 56l4 -2l-94 -164q-46 -82 -126.5 -127t-182.5 -45zM727 14q76 0 135.5 39t105 121t69.5 220.5t24 326.5t-24 326t-69.5 219.5t-105 120t-135.5 38.5q-336 0 -336 -704t336 -707z" />
    <glyph glyph-name="R" unicode="R" horiz-adv-x="1359" 
d="M588 662h-88v-504q0 -20 3.5 -27.5t20.5 -17.5l162 -109v-4h-651v4l158 111q15 10 18.5 18t3.5 27v1120q0 19 -3.5 27t-18.5 18l-158 111v4h696q80 0 149.5 -13.5t130 -43.5t103.5 -74t67.5 -108t24.5 -142q0 -146 -103 -246.5t-282 -128.5v-4l152 -80l252 -434
q22 -40 61 -76l98 -86v-4h-393l-350 631q-18 31 -53 31zM500 1360v-660h102q137 0 216 81.5t79 260.5q0 193 -72.5 276t-206.5 83h-79q-23 0 -31 -8t-8 -33z" />
    <glyph glyph-name="S" unicode="S" horiz-adv-x="1101" 
d="M520 -20q-210 0 -397 55v457h4l223 -433q11 -20 19 -26.5t26 -9.5q79 -9 105 -9q137 0 223 66t86 194q0 99 -63 161.5t-207 131.5l-125 60q-326 153 -326 426q0 182 133.5 294.5t349.5 112.5q182 0 371 -47v-440h-4l-231 413q-18 35 -45 37q-25 2 -72 2q-125 0 -201 -69
t-76 -189q0 -94 58.5 -154t171.5 -114l151 -72q85 -40 141 -74t108.5 -82.5t78 -110t25.5 -138.5q0 -193 -144.5 -317.5t-382.5 -124.5z" />
    <glyph glyph-name="T" unicode="T" horiz-adv-x="1263" 
d="M774 166q0 -20 4 -27t19 -18l172 -117v-4h-674v4l170 117q16 11 20 18t4 27v1235h-180q-25 0 -34 -5.5t-19 -31.5l-213 -430h-4v506h1184v-506h-4l-211 430q-11 24 -20.5 30.5t-33.5 6.5h-180v-1235z" />
    <glyph glyph-name="U" unicode="U" horiz-adv-x="1355" 
d="M700 -20q-276 0 -398 118t-122 353v825q0 19 -3.5 26t-20.5 19l-144 115v4h629v-4l-154 -115q-15 -10 -18.5 -18t-3.5 -27v-791q0 -440 330 -440q156 0 241.5 120t85.5 347v659q0 24 -4.5 35t-25.5 29l-199 201v4h498v-4l-199 -201q-19 -18 -24 -29.5t-5 -34.5v-657
q0 -534 -463 -534z" />
    <glyph glyph-name="V" unicode="V" horiz-adv-x="1253" 
d="M725 0h-197l-417 1245q-15 45 -45 82l-86 109v4h555v-4l-125 -123q-9 -11 -11 -20.5t4 -30.5l349 -1043l301 944q6 28 2.5 39.5t-23.5 34.5l-182 199v4h473v-4l-174 -191q-27 -29 -36 -42t-17 -42z" />
    <glyph glyph-name="W" unicode="W" horiz-adv-x="2017" 
d="M1491 0h-197l-288 907l-291 -907h-197l-407 1245q-15 45 -45 82l-86 109v4h552v-4l-122 -123q-19 -19 -9 -51l340 -1045l244 756l-86 272q-9 32 -41 80l-78 111v4h543v-4l-123 -123q-18 -18 -8 -49l326 -1041l301 940q6 28 2 39t-25 35l-180 199v4h471v-4l-172 -191
q-27 -29 -36 -42t-17 -42z" />
    <glyph glyph-name="X" unicode="X" horiz-adv-x="1392" 
d="M1284 117l123 -113v-4h-616v4l108 102q17 15 17.5 25.5t-11.5 28.5l-291 456l-264 -376q-17 -23 -17.5 -34t13.5 -24l176 -178v-4h-534v4l231 166q60 41 92 86l279 397l-381 600q-19 30 -64 70l-125 113v4h619v-4l-111 -103q-16 -14 -16.5 -24.5t12.5 -28.5l254 -401
l226 321q17 23 17.5 33.5t-13.5 23.5l-177 179v4h535v-4l-231 -166q-24 -17 -35.5 -25.5t-27 -24t-30.5 -36.5l-239 -342l418 -656q19 -29 63 -69z" />
    <glyph glyph-name="Y" unicode="Y" horiz-adv-x="1261" 
d="M782 569v-403q0 -20 4 -27.5t21 -17.5l170 -117v-4h-674v4l172 117q15 11 19 18t4 27v375q0 32 -15 57l-350 649q-16 31 -55 76l-105 113v4h602v-4l-126 -121q-12 -12 -14 -20t5 -23l322 -610l268 524q10 23 8.5 32t-14.5 23l-176 195v4h487v-4l-205 -191
q-40 -35 -63 -78l-268 -522q-17 -33 -17 -76z" />
    <glyph glyph-name="Z" unicode="Z" horiz-adv-x="1226" 
d="M1128 504v-504h-1101v4l817 1397h-418q-30 0 -42 -5t-22 -22l-243 -444h-4v510h1065v-4l-820 -1397h451q29 0 41.5 5t21.5 22l250 438h4z" />
    <glyph glyph-name="bracketleft" unicode="[" horiz-adv-x="718" 
d="M352 1321v-1444q0 -18 4.5 -25.5t20.5 -13.5l321 -96v-4l-534 -29v1780l534 -29v-4l-321 -96q-16 -4 -20.5 -12t-4.5 -27z" />
    <glyph glyph-name="backslash" unicode="\" horiz-adv-x="778" 
d="M674 -313l-608 1812l36 12l611 -1812z" />
    <glyph glyph-name="bracketright" unicode="]" horiz-adv-x="718" 
d="M367 -123v1444q0 18 -4.5 25.5t-20.5 13.5l-322 96v4l535 29v-1780l-535 29v4l322 96q16 6 20.5 13.5t4.5 25.5z" />
    <glyph glyph-name="asciicircum" unicode="^" horiz-adv-x="1105" 
d="M553 1460l367 -798l-33 -17l-336 729l-334 -729l-35 17l367 798h4z" />
    <glyph glyph-name="underscore" unicode="_" horiz-adv-x="1024" 
d="M1014 -186h-1004v36h1004v-36z" />
    <glyph glyph-name="grave" unicode="`" horiz-adv-x="661" 
d="M102 1440h285l172 -334l-4 -4l-453 334v4z" />
    <glyph glyph-name="a" unicode="a" horiz-adv-x="997" 
d="M608 504l4 219v8q0 117 -47 185.5t-141 68.5q-34 0 -43.5 -4t-18.5 -23l-143 -288h-4l-109 278q184 72 375 72q199 0 287 -84q96 -99 96 -330v-37l-12 -325q-6 -129 68 -129q45 0 61 49h4q3 -32 -14 -70q-22 -49 -67.5 -79.5t-108.5 -30.5q-81 0 -134.5 54t-54.5 155
q-31 -97 -105.5 -153t-172.5 -56q-114 0 -193.5 74t-79.5 202q0 97 50.5 168t126 104t161.5 33q134 0 215 -61zM508 506q-93 0 -146 -61.5t-53 -153.5q0 -81 40 -128.5t102 -47.5q44 0 84.5 25.5t68.5 70.5l4 278q-47 17 -100 17z" />
    <glyph glyph-name="b" unicode="b" horiz-adv-x="1112" 
d="M373 1487v-688q102 221 311 221q170 0 268.5 -136t98.5 -364q0 -236 -115.5 -386t-310.5 -150q-93 0 -158 33t-98 87l-250 -120h-4v1316q0 20 -4 29t-19 19l-121 88v4zM561 891q-110 0 -188 -115v-649q56 -61 151 -61q252 0 252 434q0 195 -57 293t-158 98z" />
    <glyph glyph-name="c" unicode="c" horiz-adv-x="929" 
d="M496 -16q-87 0 -164.5 30.5t-141 90.5t-100.5 160t-37 227q0 113 29 204t77.5 150.5t115 99.5t137.5 57t149 17q160 0 320 -57l-111 -324h-4l-137 322q-8 15 -15.5 20.5t-23.5 5.5h-21q-121 0 -183 -107t-62 -309q0 -224 80.5 -330t205.5 -106q181 0 273 203h4
q-29 -165 -127.5 -259.5t-263.5 -94.5z" />
    <glyph glyph-name="d" unicode="d" horiz-adv-x="1155" 
d="M995 1487v-1333q0 -20 4 -29t17 -19l123 -102v-4h-402v201q-43 -110 -121 -163.5t-176 -53.5q-170 0 -276.5 139.5t-106.5 372.5q0 235 119 379.5t297 144.5q183 0 264 -172v452q0 21 -3.5 29.5t-16.5 18.5l-121 88v4zM563 109q94 0 174 110v608q-69 95 -168 95
q-103 0 -169 -101t-66 -307t64.5 -305.5t164.5 -99.5z" />
    <glyph glyph-name="e" unicode="e" horiz-adv-x="995" 
d="M934 569h-615v-32q0 -196 82.5 -300t212.5 -104q222 0 318 223h4q-35 -186 -143 -279t-279 -93q-92 0 -172.5 30.5t-145.5 91t-103 160.5t-38 228q0 112 27 202.5t72 149.5t106 99t127 57.5t137 17.5q81 0 152.5 -22t131.5 -67.5t95 -125t35 -184.5q0 -20 -4 -52z
M520 987q-91 0 -142.5 -96.5t-58.5 -284.5h367q2 16 2 39q0 174 -41.5 258t-126.5 84z" />
    <glyph glyph-name="f" unicode="f" horiz-adv-x="679" 
d="M53 967v37h127v40q0 220 89.5 318t271.5 98q144 0 286 -49l-114 -276h-4l-119 266q-9 19 -15 22.5t-28 3.5q-56 0 -82.5 -51.5t-26.5 -165.5v-206h277v-37h-277v-820q0 -20 5 -27t26 -18l170 -98v-4h-600v4l121 88q14 8 17 16.5t3 28.5v830h-127z" />
    <glyph glyph-name="g" unicode="g" horiz-adv-x="1026" 
d="M82 686q0 108 55.5 185t145.5 113t204 36q152 0 254 -62q13 -8 20 -6t19 15l205 247h4v-309h-190q110 -88 110 -229q0 -105 -57 -179t-149 -108.5t-209 -34.5q-74 0 -138 15q-96 -27 -96 -95q0 -43 49 -68.5t142 -25.5h176q177 0 271.5 -72t94.5 -208
q0 -117 -72.5 -205.5t-191 -133t-262.5 -44.5q-79 0 -152 14t-133.5 41t-96.5 71.5t-36 100.5q0 73 60 127.5t178 77.5q-92 20 -142.5 74t-50.5 127q0 79 62.5 140t171.5 87q-113 32 -179.5 110t-66.5 199zM360 -59l-51 4q-104 -52 -104 -160t94 -168.5t223 -60.5
q80 0 147 23t111.5 73t44.5 119q0 74 -53 115.5t-174 45.5zM338 688q0 -301 158 -301q157 0 157 301t-157 301q-158 0 -158 -301z" />
    <glyph glyph-name="h" unicode="h" horiz-adv-x="1173" 
d="M1024 137q0 -18 4.5 -26t18.5 -19l122 -88v-4h-544v4l116 88q23 18 23 43q0 3 3 180t3 230q0 171 -38.5 252.5t-129.5 81.5q-113 0 -186 -125v-617q0 -18 3.5 -25.5t18.5 -19.5l121 -88v-4h-543v4l121 88q13 10 17 18.5t4 26.5v1163q0 20 -4 29t-17 19l-121 88v4l400 47
v-717q75 250 313 250q299 0 299 -418q0 -137 -4 -465z" />
    <glyph glyph-name="i" unicode="i" horiz-adv-x="606" 
d="M305 1139q-59 0 -100 38.5t-41 96.5q0 62 40.5 101.5t100.5 39.5q61 0 102.5 -39.5t41.5 -101.5q0 -58 -41.5 -96.5t-102.5 -38.5zM45 1004h399v-867q0 -17 4 -25t19 -20l121 -88v-4h-543v4l121 88q13 10 16.5 18.5t3.5 26.5v713q0 21 -3.5 29t-16.5 18l-121 102v5z" />
    <glyph glyph-name="j" unicode="j" horiz-adv-x="559" 
d="M31 1004h399v-947q0 -230 -113.5 -368t-330.5 -138q-11 0 -56 5v4q122 18 182 116.5t60 300.5v873q0 21 -3.5 29t-16.5 18l-121 102v5zM150 1274q0 62 40.5 101.5t100.5 39.5q61 0 101 -39.5t40 -101.5q0 -58 -40.5 -96.5t-100.5 -38.5q-59 0 -100 38.5t-41 96.5z" />
    <glyph glyph-name="k" unicode="k" horiz-adv-x="1095" 
d="M969 143q17 -35 47 -59l102 -80v-4h-370l-248 496q-15 30 -43 30q-20 0 -41 -14v-375q0 -18 3.5 -25.5t18.5 -19.5l121 -88v-4h-543v4l121 88q13 10 17 18.5t4 26.5v1163q0 20 -4 29t-17 19l-121 88v4l400 47v-957l368 279q20 14 2 35l-147 155v5h453v-5l-390 -292
q-12 -9 -15 -16t3 -19z" />
    <glyph glyph-name="l" unicode="l" horiz-adv-x="575" 
d="M416 1487v-1350q0 -18 3.5 -25.5t18.5 -19.5l121 -88v-4h-543v4l121 88q13 10 17 18.5t4 26.5v1163q0 20 -4 29t-17 19l-121 88v4z" />
    <glyph glyph-name="m" unicode="m" horiz-adv-x="1810" 
d="M1057 602q0 -137 -4 -465q0 -18 4 -26t18 -19l121 -88v-4h-543v4l115 88q25 18 25 43q0 3 3 180t3 230q0 171 -38.5 252.5t-129.5 81.5q-114 0 -187 -125v-617q0 -17 4 -25t19 -20l121 -88v-4h-543v4l121 88q13 10 16.5 18.5t3.5 26.5v713q0 21 -3.5 29t-16.5 18
l-121 102v5h399v-234q75 250 314 250q227 0 282 -248q36 115 122.5 181.5t207.5 66.5q142 0 218.5 -104.5t76.5 -313.5q0 -137 -4 -465q0 -18 4 -26t18 -19l121 -88v-4h-542v4l114 88q25 18 25 43q0 5 3 179.5t3 226.5q0 173 -38 255.5t-130 82.5q-118 0 -197 -119
q15 -71 15 -158z" />
    <glyph glyph-name="n" unicode="n" horiz-adv-x="1202" 
d="M799 545q0 171 -38.5 252.5t-129.5 81.5q-114 0 -187 -125v-617q0 -17 4 -25t19 -20l121 -88v-4h-543v4l121 88q13 10 16.5 18.5t3.5 26.5v713q0 21 -3.5 29t-16.5 18l-121 102v5h399v-234q75 250 314 250q299 0 299 -418q0 -137 -4 -465q0 -18 4 -26t18 -19l121 -88v-4
h-543v4l115 88q25 18 25 43q0 3 3 180t3 230z" />
    <glyph glyph-name="o" unicode="o" horiz-adv-x="1097" 
d="M549 987q-48 0 -83.5 -23t-63 -77t-41 -149.5t-13.5 -233.5q0 -182 25.5 -292.5t68 -153t107.5 -42.5t108 42t69 152t26 292q0 137 -14 233t-41.5 150.5t-63.5 78t-84 23.5zM549 -16q-227 0 -360.5 135.5t-133.5 384.5q0 247 133.5 381.5t360.5 134.5q229 0 361 -134
t132 -384q0 -248 -132.5 -383t-360.5 -135z" />
    <glyph glyph-name="p" unicode="p" horiz-adv-x="1155" 
d="M158 -330v1180q0 20 -3.5 28t-17.5 19l-121 102v5h400v-224q52 124 129 182t184 58q168 0 267.5 -135t99.5 -357q0 -248 -114 -396t-296 -148q-201 0 -270 159v-460q0 -21 5 -29.5t25 -18.5l170 -98v-4h-600v4l121 88q13 10 17 18.5t4 26.5zM606 891q-114 0 -190 -131
v-602q63 -76 170 -76q106 0 169.5 109.5t63.5 322.5q0 179 -57 278t-156 99z" />
    <glyph glyph-name="q" unicode="q" horiz-adv-x="1110" 
d="M739 -317v526q-89 -225 -307 -225q-73 0 -140.5 35t-119 98.5t-82.5 160t-31 211.5q0 246 118.5 388.5t303.5 142.5q171 0 258 -131l258 131v-1350q0 -18 4 -26.5t17 -18.5l106 -88v-4h-583v4l170 98q18 10 23 18.5t5 29.5zM563 113q100 0 176 114v643q-79 64 -159 64
q-106 0 -176 -105t-70 -317q0 -185 62 -292t167 -107z" />
    <glyph glyph-name="r" unicode="r" horiz-adv-x="843" 
d="M444 692v-538q0 -19 5 -28.5t24 -19.5l211 -102v-4h-639v4l121 88q13 10 16.5 18.5t3.5 26.5v713q0 21 -3.5 29t-16.5 18l-121 102v5h399v-289q12 56 36.5 108t60.5 97.5t88 72.5t112 27q70 0 119 -43l-108 -311h-4l-130 211q-10 12 -26 6q-11 -5 -21.5 -12t-18.5 -13
t-17.5 -16.5t-15 -17t-14.5 -20.5t-13 -20t-13 -23t-11.5 -22l-12 -24z" />
    <glyph glyph-name="s" unicode="s" horiz-adv-x="888" 
d="M829 307q0 -154 -118 -238.5t-299 -84.5q-186 0 -349 63l99 299h4l137 -299q6 -12 12.5 -16.5t24.5 -7.5q40 -7 70 -7q94 0 147 49.5t53 122.5q0 68 -44 106t-148 85l-131 59q-197 91 -197 281q0 136 107.5 218.5t269.5 82.5q173 0 332 -51l-94 -279h-5l-143 266
q-9 18 -22 24.5t-41 6.5h-25q-75 0 -125.5 -43t-50.5 -121q0 -65 43 -105t129 -77l135 -57q52 -22 88.5 -44.5t71 -55t52 -77t17.5 -100.5z" />
    <glyph glyph-name="t" unicode="t" horiz-adv-x="659" 
d="M397 967v-707q0 -69 29.5 -107t83.5 -38q47 0 85 28.5t56 71.5l4 -2q-17 -98 -85 -163.5t-191 -65.5q-240 0 -240 254v729h-129v37h105q22 0 32 4.5t23 21.5l223 311h4v-337h273v-37h-273z" />
    <glyph glyph-name="u" unicode="u" horiz-adv-x="1157" 
d="M997 1004v-850q0 -20 4 -29t17 -19l121 -102v-4h-402v227q-85 -243 -303 -243q-143 0 -218 103.5t-75 311.5q0 123 4 451q0 21 -3.5 29t-16.5 20l-123 100v5h401q0 -3 -1 -127.5t-2 -258t-1 -157.5q0 -171 37 -253.5t125 -82.5q103 0 176 125v600q0 21 -3.5 29t-16.5 18
l-121 102v5h401z" />
    <glyph glyph-name="v" unicode="v" horiz-adv-x="925" 
d="M795 739l-260 -739h-156l-301 821q-14 43 -37 80l-64 98v5h457v-5l-84 -102q-11 -14 -12.5 -22t4.5 -29l227 -633l189 530q7 27 5.5 37t-15.5 33l-119 186v5h334v-5l-129 -184q-24 -32 -39 -76z" />
    <glyph glyph-name="w" unicode="w" horiz-adv-x="1503" 
d="M1540 999l-129 -184q-17 -25 -23.5 -37.5t-15.5 -38.5l-260 -739h-158l-213 596l-215 -596h-157l-293 821q-13 40 -35 80l-64 98v5h455v-5l-86 -102q-10 -12 -11 -21.5t5 -29.5l221 -637l160 442l-59 170q-15 46 -35 80l-64 98v5h453v-5l-84 -102q-11 -15 -13 -22.5
t5 -28.5l223 -635l186 532q9 25 7.5 37t-15.5 33l-119 186v5h334v-5z" />
    <glyph glyph-name="x" unicode="x" horiz-adv-x="1001" 
d="M408 430l-283 416q-28 43 -66 78l-82 75v5h523v-5l-103 -84q-13 -11 -12.5 -19.5t12.5 -27.5l172 -254l150 195q15 20 15.5 28t-13.5 27l-111 135v5h394v-5l-191 -149q-40 -29 -74 -74l-149 -192l291 -426q27 -39 63 -74l82 -80v-4h-522v4l104 86q13 12 12 20.5t-14 26.5
l-178 262l-156 -202q-16 -23 -16 -30.5t14 -27.5l111 -135v-4h-393v4l190 150q36 29 74 75z" />
    <glyph glyph-name="y" unicode="y" horiz-adv-x="929" 
d="M115 -483q-47 0 -92 20l73 332h4l156 -203q14 -20 27 -20q10 0 24 20q55 73 129 244l-368 940q-10 25 -37 70l-51 79v5h460v-5l-90 -100q-11 -12 -12 -21t6 -28l227 -606l195 495q9 25 8.5 35.5t-12.5 30.5l-123 194v5h332v-5l-123 -180q-27 -41 -45 -86l-307 -788
q-57 -144 -138 -271q-53 -83 -110 -120t-133 -37z" />
    <glyph glyph-name="z" unicode="z" horiz-adv-x="925" 
d="M635 68l225 342h6l-30 -410h-807v4l569 965h-248q-26 0 -33.5 -4.5t-21.5 -26.5l-211 -324h-6v390h815v-5l-563 -962h248q27 0 35 4.5t22 26.5z" />
    <glyph glyph-name="braceleft" unicode="{" horiz-adv-x="720" 
d="M444 381l-32 -356q-5 -49 8.5 -100t44.5 -97.5t92.5 -74t142.5 -23.5v-4q-73 -17 -133 -17q-55 0 -109.5 15t-102.5 45.5t-83 73.5t-52.5 103t-10.5 130l35 358q6 63 -41.5 109t-130.5 55v4q83 9 130.5 54t41.5 110l-35 358q-7 69 11 129.5t53 103t83 73.5t102 46t109 15
q64 0 133 -16v-5q-81 4 -142.5 -23.5t-92.5 -74t-44.5 -97.5t-8.5 -101l32 -355q7 -81 -43.5 -139t-132.5 -78v-4q82 -20 132.5 -78.5t43.5 -138.5z" />
    <glyph glyph-name="bar" unicode="|" horiz-adv-x="448" 
d="M244 -512h-39v2048h39v-2048z" />
    <glyph glyph-name="braceright" unicode="}" horiz-adv-x="720" 
d="M512 1124l-35 -358q-6 -65 41.5 -110t130.5 -54v-4q-83 -9 -130.5 -55t-41.5 -109l35 -358q9 -86 -20 -158t-82.5 -116.5t-120.5 -68.5t-137 -24q-59 0 -132 17v4q81 -4 142.5 23.5t93 74t45 97.5t8.5 100l-33 356q-7 80 43.5 138.5t133.5 78.5v4q-83 20 -133.5 77.5
t-43.5 139.5l33 355q5 50 -8.5 101t-45 97.5t-93 74t-142.5 23.5v5q69 16 132 16q70 0 137 -24.5t120.5 -69t82.5 -116t20 -157.5z" />
    <glyph glyph-name="asciitilde" unicode="~" horiz-adv-x="1028" 
d="M745 567q-61 0 -126 21t-112 46.5t-108.5 46.5t-117.5 21q-123 0 -197 -120l-33 20q82 137 230 137q61 0 126 -21t112 -46.5t108.5 -46.5t117.5 -21q64 0 115.5 32t85.5 87l31 -18q-83 -138 -232 -138z" />
    <glyph glyph-name="uni00A0" unicode="&#xa0;" horiz-adv-x="0" 
 />
    <glyph glyph-name="exclamdown" unicode="&#xa1;" horiz-adv-x="557" 
d="M96 -438l176 997h4l185 -997h-365zM133 879q0 59 42 99t101 40q62 0 104 -39.5t42 -99.5q0 -63 -42 -104.5t-104 -41.5q-59 0 -101 42t-42 104z" />
    <glyph glyph-name="cent" unicode="&#xa2;" horiz-adv-x="940" 
d="M557 -215h-35v199h-26q-92 0 -171.5 31.5t-140.5 92.5t-96 160t-35 226q0 109 26 197t69.5 147t104 99.5t127.5 60t142 22.5v219h35v-219q178 -4 330 -51v-4l-125 -328h-4l-133 326q-6 14 -17.5 18t-50.5 4v-844q27 -6 57 -6q88 0 155.5 45t113.5 158h4
q-23 -147 -105 -241t-225 -111v-201zM307 567q0 -178 59.5 -280.5t155.5 -136.5v833q-98 -14 -156.5 -122.5t-58.5 -293.5z" />
    <glyph glyph-name="sterling" unicode="&#xa3;" horiz-adv-x="1132" 
d="M858 606h-348q12 -55 12 -110q0 -214 -229 -275v-2h506q54 0 70.5 6t41.5 35l138 166h4l-47 -426h-955v4l170 193q96 105 96 235q0 61 -45 174h-204v37h188q-4 8 -26.5 59.5t-29.5 67.5t-23.5 60.5t-23 70.5t-12.5 63t-6 70q0 198 121 312t352 114q218 0 402 -55
l-72 -371h-4l-195 357q-15 30 -53 30h-57q-64 0 -111.5 -26t-74 -72.5t-38.5 -102t-12 -122.5q0 -77 18.5 -154.5t49 -165.5t41.5 -135h356v-37z" />
    <glyph glyph-name="currency" unicode="&#xa4;" horiz-adv-x="1359" 
d="M680 246q-199 0 -330 116l-231 -229l-25 25l228 229q-127 130 -127 334q0 202 129 334l-230 231l25 27l231 -232q136 117 330 117q191 0 330 -117l231 232l27 -27l-232 -231q131 -131 131 -334q0 -200 -131 -334l230 -227l-25 -27l-229 229q-134 -116 -332 -116zM680 283
q191 0 319.5 120t128.5 318q0 197 -129 318.5t-319 121.5t-318.5 -121.5t-128.5 -318.5q0 -198 128 -318t319 -120z" />
    <glyph glyph-name="yen" unicode="&#xa5;" horiz-adv-x="1277" 
d="M786 334v-168q0 -20 4 -27.5t21 -17.5l170 -117v-4h-674v4l172 117q15 11 19 18t4 27v168h-301v37h301v176h-301v37h295q-1 1 -4.5 6t-4.5 8l-350 649q-16 31 -55 76l-105 113v4h603v-4l-127 -121q-12 -12 -14 -20t5 -23l322 -610l268 524q10 23 8.5 32t-14.5 23
l-176 195v4h487v-4l-204 -191q-26 -23 -37.5 -37t-26.5 -41l-268 -522q-17 -33 -17 -61h308v-37h-308v-176h308v-37h-308z" />
    <glyph glyph-name="brokenbar" unicode="&#xa6;" horiz-adv-x="448" 
d="M244 -512h-39v897h39v-897zM244 659h-39v877h39v-877z" />
    <glyph glyph-name="section" unicode="&#xa7;" horiz-adv-x="1044" 
d="M944 549q0 -57 -23.5 -106t-63 -83t-80 -56.5t-83.5 -37.5q176 -133 176 -307q0 -97 -54.5 -168.5t-137.5 -105t-180 -33.5q-175 0 -314 35l74 395h4l160 -363q9 -20 21 -28t34 -8h27q87 0 138.5 53.5t51.5 128.5q0 70 -52 134t-167 138l-94 62q-153 100 -215 178
t-62 184q0 56 24 105.5t63 83.5t79.5 57t83.5 37q-176 136 -176 309q0 96 55 167.5t138.5 105.5t181.5 34q165 0 311 -35l-73 -395h-5l-159 361q-10 23 -19.5 31t-32.5 8h-30q-86 0 -138.5 -55t-52.5 -130q0 -69 52.5 -133.5t166.5 -138.5l95 -62q153 -99 214.5 -177.5
t61.5 -184.5zM604 670l-233 161q-34 -18 -61 -65.5t-27 -93.5q0 -119 161 -230l234 -163q34 18 62 65.5t28 93.5q0 120 -164 232z" />
    <glyph glyph-name="dieresis" unicode="&#xa8;" horiz-adv-x="817" 
d="M102 1274q0 52 36 87.5t87 35.5q50 0 85.5 -35.5t35.5 -87.5q0 -49 -35.5 -84t-85.5 -35q-51 0 -87 35t-36 84zM471 1274q0 52 34.5 87.5t84.5 35.5q53 0 89 -35.5t36 -87.5q0 -50 -36.5 -84.5t-88.5 -34.5q-50 0 -84.5 34.5t-34.5 84.5z" />
    <glyph glyph-name="copyright" unicode="&#xa9;" horiz-adv-x="1665" 
d="M92 719q0 220 100 390.5t267.5 260.5t371.5 90q122 0 234 -33.5t204 -98t160 -153.5t106 -206t38 -250q0 -166 -58.5 -306t-159.5 -234t-236 -146.5t-288 -52.5t-287.5 52.5t-235 146.5t-158.5 234t-58 306zM131 719q0 -210 94.5 -371.5t253 -246.5t352.5 -85t353 85
t254.5 247t95.5 371q0 157 -55.5 290t-151 223t-223.5 140.5t-273 50.5t-273 -50.5t-222.5 -140.5t-149.5 -223t-55 -290zM676 721q0 -188 55 -290.5t152 -102.5q26 0 36.5 4t18.5 16l170 240h2v-273q-95 -20 -236 -20q-205 0 -314 115.5t-109 308.5q0 191 113 309.5
t298 118.5q137 0 248 -25v-262h-2l-174 234q-9 13 -21.5 17.5t-42.5 4.5q-90 0 -142 -109t-52 -286z" />
    <glyph glyph-name="ordfeminine" unicode="&#xaa;" horiz-adv-x="823" 
d="M651 1151l-8 -225q-3 -88 47 -88q27 0 41 34h4q0 -28 -10 -51q-14 -32 -45.5 -52.5t-75.5 -20.5q-54 0 -90.5 34t-40.5 99q-24 -61 -74 -97t-114 -36q-79 0 -133 51.5t-54 138.5q0 99 69.5 155t162.5 56q87 0 145 -43l4 151q2 81 -33 124.5t-106 43.5q-27 0 -37 -18
l-94 -195h-2l-74 199q128 49 258 49q136 0 195 -59q71 -71 65 -250zM473 903l2 187q-30 12 -67 12q-64 0 -100 -41t-36 -103q0 -55 27 -85.5t70 -30.5q56 0 104 61z" />
    <glyph glyph-name="guillemotleft" unicode="&#xab;" horiz-adv-x="919" 
d="M59 516l435 436l2 -2l-197 -436l197 -436l-2 -2l-435 436v4zM422 516l434 436l2 -2l-196 -436l196 -436l-2 -2l-434 436v4z" />
    <glyph glyph-name="logicalnot" unicode="&#xac;" horiz-adv-x="1105" 
d="M1024 223h-39v424h-905v37h944v-461z" />
    <glyph glyph-name="uni00AD" unicode="&#xad;" horiz-adv-x="718" 
d="M94 481v39h533v-39h-533z" />
    <glyph glyph-name="registered" unicode="&#xae;" horiz-adv-x="1665" 
d="M92 719q0 220 100 390.5t267.5 260.5t371.5 90q122 0 234 -33.5t204 -98t160 -153.5t106 -206t38 -250q0 -166 -58.5 -306t-159.5 -234t-236 -146.5t-288 -52.5t-287.5 52.5t-235 146.5t-158.5 234t-58 306zM131 719q0 -210 94.5 -371.5t253 -246.5t352.5 -85t353 85
t254.5 247t95.5 371q0 157 -55.5 290t-151 223t-223.5 140.5t-273 50.5t-273 -50.5t-222.5 -140.5t-149.5 -223t-55 -290zM473 338l88 57q14 9 14 27v608q0 18 -14 27l-88 57v4h426q113 0 185.5 -52t72.5 -155q0 -80 -57 -134.5t-156 -69.5v-5l86 -43l139 -233
q20 -33 35 -43l58 -45v-4h-246l-182 340q-10 16 -31 16h-45v-268q0 -18 14 -27l86 -57v-4h-385v4zM758 1061v-336h57q65 0 105.5 41t40.5 135q0 101 -36 141.5t-98 40.5h-45q-14 0 -19 -4.5t-5 -17.5z" />
    <glyph glyph-name="macron" unicode="&#xaf;" horiz-adv-x="741" 
d="M639 1212h-537v37h537v-37z" />
    <glyph glyph-name="degree" unicode="&#xb0;" horiz-adv-x="663" 
d="M72 1206q0 111 76 180.5t184 69.5q109 0 184.5 -69.5t75.5 -180.5q0 -108 -75.5 -175.5t-184.5 -67.5q-108 0 -184 68t-76 175zM111 1206q0 -90 66 -148.5t155 -58.5q90 0 155.5 58.5t65.5 148.5q0 93 -65.5 153t-155.5 60q-89 0 -155 -60t-66 -153z" />
    <glyph glyph-name="plusminus" unicode="&#xb1;" horiz-adv-x="1105" 
d="M102 748v36h433v330h38v-330h431v-36h-431v-332h-38v332h-433zM102 215v37h902v-37h-902z" />
    <glyph glyph-name="twosuperior" unicode="&#xb2;" 
d="M549 1069l-29 -209h-491v4q94 83 196 185q73 71 111.5 131.5t38.5 119.5q0 130 -111 130h-24q-18 0 -25 -17l-84 -188h-4l-82 190q120 45 242 45q121 0 188.5 -44t67.5 -124q0 -48 -20.5 -87t-67.5 -75.5t-105.5 -68.5t-152.5 -74v-4h215q29 0 38 2t21 14l74 70h4z" />
    <glyph glyph-name="threesuperior" unicode="&#xb3;" 
d="M559 1028q0 -76 -75.5 -126t-207.5 -50q-138 0 -239 37l102 198h4l58 -186q5 -14 20 -16q14 -2 47 -2q55 0 91 38t36 105q0 128 -168 137v4q150 24 150 154q0 53 -24.5 81t-69.5 28h-37q-18 0 -25 -17l-84 -184h-4l-82 186q113 45 246 45q118 0 179 -37t61 -106
q0 -108 -162 -141v-5q88 -4 136 -42t48 -101z" />
    <glyph glyph-name="acute" unicode="&#xb4;" horiz-adv-x="661" 
d="M276 1440h283v-4l-453 -334l-4 4z" />
    <glyph glyph-name="mu" unicode="&#xb5;" horiz-adv-x="1169" 
d="M1010 147q0 -21 3.5 -30t16.5 -19l121 -94v-4h-401v229q-32 -107 -106.5 -170t-168.5 -63q-30 0 -63 8v-315q0 -21 4.5 -30t23.5 -19l170 -103v-4h-600v4l125 88q14 10 17.5 17.5t3.5 27.5v1188q0 20 -3.5 28t-17.5 19l-121 94v5h398v-584q0 -166 36 -232.5t123 -66.5
q108 0 179 129v606q0 20 -3.5 28.5t-17.5 20.5l-121 94v5h402v-857z" />
    <glyph glyph-name="paragraph" unicode="&#xb6;" horiz-adv-x="1239" 
d="M903 -512h-39v512h-141q-94 0 -175.5 20.5t-158 72t-131 130t-87 202.5t-32.5 282t32.5 284.5t87.5 209t130.5 137.5t158.5 78.5t175 23.5h362v-37h-182v-1370h182v-33h-182v-512zM717 33h147v1370h-147v-1370z" />
    <glyph glyph-name="periodcentered" unicode="&#xb7;" horiz-adv-x="481" 
d="M96 868q0 62 42 104t102 42q62 0 103.5 -41.5t41.5 -104.5q0 -60 -41.5 -100.5t-103.5 -40.5q-60 0 -102 40.5t-42 100.5z" />
    <glyph glyph-name="cedilla" unicode="&#xb8;" horiz-adv-x="743" 
d="M590 -291q0 -84 -62 -138t-168 -54q-99 0 -166 52t-73 130l4 2q16 -55 64.5 -85t99.5 -30q56 0 94.5 31.5t38.5 85.5q0 56 -37.5 87.5t-97.5 31.5q-44 0 -76 -12l-2 4l143 184h4l-18 -125q103 21 177.5 -29t74.5 -135z" />
    <glyph glyph-name="onesuperior" unicode="&#xb9;" horiz-adv-x="516" 
d="M352 1466v-516q0 -16 15 -22l133 -66v-2h-453v2l133 66q15 8 15 22v381q0 14 -15 19l-145 45v4z" />
    <glyph glyph-name="ordmasculine" unicode="&#xba;" horiz-adv-x="839" 
d="M420 1427q-45 0 -74 -26.5t-47 -99.5t-18 -195q0 -123 18 -196.5t47 -100.5t74 -27q68 0 103.5 71.5t35.5 250.5q0 123 -18 196t-47 100t-74 27zM420 748q-157 0 -247.5 93t-90.5 265q0 169 91 261.5t247 92.5q157 0 247.5 -92t90.5 -264q0 -169 -91 -262.5t-247 -93.5z
" />
    <glyph glyph-name="guillemotright" unicode="&#xbb;" horiz-adv-x="919" 
d="M496 512l-435 -436l-2 2l195 436l-195 436l2 2l435 -436v-4zM858 512l-434 -436l-2 2l194 436l-194 436l2 2l434 -436v-4z" />
    <glyph glyph-name="onequarter" unicode="&#xbc;" horiz-adv-x="993" 
d="M123 737h747v-37h-747v37zM377 0v2l92 55q12 9 12 23v67h-293v5l324 440h119v-414h31q20 0 30 17l96 167h5l-15 -215h-147v-67q0 -14 14 -23l86 -55v-2h-354zM250 178h231v316zM598 928l133 -66v-2h-452v2l133 66q14 7 14 22v381q0 14 -14 19l-146 45v4l318 67v-516
q0 -10 2 -14t12 -8z" />
    <glyph glyph-name="onehalf" unicode="&#xbd;" horiz-adv-x="993" 
d="M870 737v-37h-747v37h747zM731 862v-2h-452v2l133 66q14 7 14 22v381q0 14 -14 19l-146 45v4l318 67v-516q0 -10 2 -14t12 -8zM750 209l-29 -209h-492v4q111 98 197 184q149 146 149 252q0 129 -110 129h-25q-18 0 -24 -16l-84 -188h-4l-82 190q120 45 241 45t188.5 -44
t67.5 -124q0 -48 -20.5 -87t-67.5 -75.5t-105.5 -68.5t-152.5 -74v-4h215q30 0 39.5 2.5t20.5 13.5l73 70h5z" />
    <glyph glyph-name="threequarters" unicode="&#xbe;" horiz-adv-x="993" 
d="M123 700v37h747v-37h-747zM631 80q0 -14 14 -23l86 -55v-2h-354v2l92 55q12 9 12 23v67h-293v5l324 440h119v-414h31q20 0 30 17l96 167h5l-15 -215h-147v-67zM250 178h231v316zM758 1028q0 -76 -75.5 -126t-207.5 -50q-138 0 -239 37l102 198h4l57 -186q5 -11 21 -14
q12 -4 47 -4q55 0 91 38t36 105q0 128 -168 137v4q149 24 149 154q0 53 -24.5 81t-69.5 28h-37q-15 -2 -24 -17l-84 -184h-4l-82 186q113 45 246 45q118 0 178.5 -37t60.5 -106q0 -108 -162 -141v-5q88 -4 136.5 -42t48.5 -101z" />
    <glyph glyph-name="questiondown" unicode="&#xbf;" horiz-adv-x="837" 
d="M471 551q147 -62 147 -189q0 -38 -20.5 -80t-41 -67t-62.5 -72q-87 -87 -117 -123q-51 -54 -74.5 -106t-23.5 -119q0 -97 59 -157t149 -60q31 0 60 4q28 5 36 10t15 25l154 363h4l131 -334q-99 -48 -217.5 -76.5t-229.5 -28.5q-194 0 -310 84.5t-116 229.5
q0 83 40.5 148.5t113.5 133.5q14 10 101.5 86.5t97.5 83.5q58 55 82 96.5t24 98.5q0 15 -4 47zM639 879q0 -62 -42 -104t-101 -42q-62 0 -104 41.5t-42 104.5q0 60 42 99.5t104 39.5q59 0 101 -40t42 -99z" />
    <glyph glyph-name="Agrave" unicode="&#xc0;" horiz-adv-x="1304" 
d="M1178 195q15 -45 45 -82l86 -109v-4h-553v4l123 123q18 18 8 53l-107 324h-469l-78 -236q-7 -23 -4 -32t21 -29l186 -203v-4h-471v4l178 195q26 30 34.5 42.5t17.5 37.5l315 952q10 31 7.5 42t-21.5 32l-117 131v4h391zM549 1217l-225 -674h444zM297 1874h285l172 -334
l-4 -4l-453 334v4z" />
    <glyph glyph-name="Aacute" unicode="&#xc1;" horiz-adv-x="1304" 
d="M1178 195q15 -45 45 -82l86 -109v-4h-553v4l123 123q18 18 8 53l-107 324h-469l-78 -236q-7 -23 -4 -32t21 -29l186 -203v-4h-471v4l178 195q26 30 34.5 42.5t17.5 37.5l315 952q10 31 7.5 42t-21.5 32l-117 131v4h391zM549 1217l-225 -674h444zM666 1874h282v-4
l-452 -334l-4 4z" />
    <glyph glyph-name="Acircumflex" unicode="&#xc2;" horiz-adv-x="1304" 
d="M1178 195q15 -45 45 -82l86 -109v-4h-553v4l123 123q18 18 8 53l-107 324h-469l-78 -236q-7 -23 -4 -32t21 -29l186 -203v-4h-471v4l178 195q26 30 34.5 42.5t17.5 37.5l315 952q10 31 7.5 42t-21.5 32l-117 131v4h391zM549 1217l-225 -674h444zM932 1536l-2 -4l-309 147
l-310 -147l-2 4l309 354h5z" />
    <glyph glyph-name="Atilde" unicode="&#xc3;" horiz-adv-x="1304" 
d="M1178 195q15 -45 45 -82l86 -109v-4h-553v4l123 123q18 18 8 53l-107 324h-469l-78 -236q-7 -23 -4 -32t21 -29l186 -203v-4h-471v4l178 195q26 30 34.5 42.5t17.5 37.5l315 952q10 31 7.5 42t-21.5 32l-117 131v4h391zM549 1217l-225 -674h444zM748 1585
q-49 0 -142.5 48t-136.5 48q-88 0 -127 -98h-4q0 22 4 62q9 83 50.5 131.5t107.5 48.5q49 0 141 -49.5t135 -49.5q91 0 129 99h4q0 -26 -4 -66q-9 -79 -50.5 -126.5t-106.5 -47.5z" />
    <glyph glyph-name="Adieresis" unicode="&#xc4;" horiz-adv-x="1304" 
d="M1178 195q15 -45 45 -82l86 -109v-4h-553v4l123 123q18 18 8 53l-107 324h-469l-78 -236q-7 -23 -4 -32t21 -29l186 -203v-4h-471v4l178 195q26 30 34.5 42.5t17.5 37.5l315 952q10 31 7.5 42t-21.5 32l-117 131v4h391zM549 1217l-225 -674h444zM315 1708q0 52 36 87.5
t87 35.5q50 0 85.5 -35.5t35.5 -87.5q0 -49 -35.5 -84t-85.5 -35q-51 0 -87 35t-36 84zM684 1708q0 52 34.5 87.5t84.5 35.5q53 0 89 -35.5t36 -87.5q0 -50 -36.5 -84.5t-88.5 -34.5q-49 0 -84 34.5t-35 84.5z" />
    <glyph glyph-name="Aring" unicode="&#xc5;" horiz-adv-x="1304" 
d="M1178 195q15 -45 45 -82l86 -109v-4h-553v4l123 123q18 18 8 53l-107 324h-469l-78 -236q-7 -23 -4 -32t21 -29l186 -203v-4h-471v4l178 195q26 30 34.5 42.5t17.5 37.5l315 952q10 31 7.5 42t-21.5 32l-117 131v4h391zM549 1217l-225 -674h444zM803 1716
q0 -75 -52.5 -125.5t-127.5 -50.5q-73 0 -126 51.5t-53 124.5q0 75 52 126.5t127 51.5q76 0 128 -51t52 -127zM762 1716q0 60 -39.5 99.5t-99.5 39.5q-59 0 -98.5 -39.5t-39.5 -99.5q0 -57 40.5 -97t97.5 -40q60 0 99.5 39t39.5 98z" />
    <glyph glyph-name="AE" unicode="&#xc6;" horiz-adv-x="1898" 
d="M1370 748q20 1 30 7.5t25 26.5l158 197h4v-500h-4l-158 199q-16 20 -26 26.5t-29 6.5h-201v-629q0 -27 6.5 -35t28.5 -8h305q30 0 43 5t23 22l215 401h6v-467h-1091v4l157 111q16 11 20.5 19t4.5 26v342h-481l-136 -223q-20 -34 -20 -47.5t20 -38.5l158 -189v-4h-481v4
l188 176q9 9 25 23.5t22.5 21t16.5 18t18 23.5l590 967q17 30 16.5 39t-18.5 28l-133 136v4h1104v-467h-4l-216 393q-11 22 -22.5 28.5t-34.5 6.5h-295q-22 0 -28.5 -8t-6.5 -35v-610h201zM887 541v747l-457 -747h457z" />
    <glyph glyph-name="Ccedilla" unicode="&#xc7;" horiz-adv-x="1253" 
d="M961 -291q0 -84 -62 -138t-168 -54q-99 0 -166 52t-73 130l4 2q16 -55 64 -85t99 -30q56 0 95 31.5t39 85.5q0 56 -38 87.5t-98 31.5q-43 0 -75 -12l-2 4l129 168q-165 7 -290 63.5t-202 153.5t-115.5 226.5t-38.5 289.5q0 223 78 390t233 261t369 94q213 0 406 -43v-463
h-4l-254 430q-13 23 -24.5 29.5t-41.5 9.5q-20 2 -59 2q-377 0 -377 -706q0 -705 385 -705q37 0 51 2q29 3 40.5 9.5t23.5 25.5l256 445h4v-482q-167 -34 -385 -34q-7 0 -20 1t-19 1l-16 -109q103 21 177.5 -29t74.5 -135z" />
    <glyph glyph-name="Egrave" unicode="&#xc8;" horiz-adv-x="1226" 
d="M1124 0h-1089v4l158 111q15 10 18.5 18t3.5 27v1120q0 19 -3.5 27t-18.5 18l-158 111v4h1071v-467h-4l-215 393q-11 22 -23 28.5t-35 6.5h-297q-20 0 -26 -7.5t-6 -35.5v-610h200q20 2 30.5 8t25.5 26l155 197h4v-500h-4l-155 199q-16 20 -26.5 26.5t-31.5 6.5h-198v-629
q0 -28 6 -35.5t26 -7.5h308q30 0 42.5 5t22.5 22l215 401h4v-467zM317 1874h285l172 -334l-4 -4l-453 334v4z" />
    <glyph glyph-name="Eacute" unicode="&#xc9;" horiz-adv-x="1226" 
d="M686 1874h283v-4l-453 -334l-4 4zM1124 0h-1089v4l158 111q15 10 18.5 18t3.5 27v1120q0 19 -3.5 27t-18.5 18l-158 111v4h1071v-467h-4l-215 393q-11 22 -23 28.5t-35 6.5h-297q-20 0 -26 -7.5t-6 -35.5v-610h200q20 2 30.5 8t25.5 26l155 197h4v-500h-4l-155 199
q-16 20 -26.5 26.5t-31.5 6.5h-198v-629q0 -28 6 -35.5t26 -7.5h308q30 0 42.5 5t22.5 22l215 401h4v-467z" />
    <glyph glyph-name="Ecircumflex" unicode="&#xca;" horiz-adv-x="1226" 
d="M952 1536l-2 -4l-309 147l-309 -147l-2 4l309 354h4zM1124 0h-1089v4l158 111q15 10 18.5 18t3.5 27v1120q0 19 -3.5 27t-18.5 18l-158 111v4h1071v-467h-4l-215 393q-11 22 -23 28.5t-35 6.5h-297q-20 0 -26 -7.5t-6 -35.5v-610h200q20 2 30.5 8t25.5 26l155 197h4v-500
h-4l-155 199q-16 20 -26.5 26.5t-31.5 6.5h-198v-629q0 -28 6 -35.5t26 -7.5h308q30 0 42.5 5t22.5 22l215 401h4v-467z" />
    <glyph glyph-name="Edieresis" unicode="&#xcb;" horiz-adv-x="1226" 
d="M334 1708q0 52 36 87.5t87 35.5q50 0 85.5 -35.5t35.5 -87.5q0 -49 -35.5 -84t-85.5 -35q-51 0 -87 35t-36 84zM702 1708q0 52 34.5 87.5t84.5 35.5q53 0 89 -35.5t36 -87.5q0 -50 -36.5 -84.5t-88.5 -34.5q-49 0 -84 34.5t-35 84.5zM1124 0h-1089v4l158 111
q15 10 18.5 18t3.5 27v1120q0 19 -3.5 27t-18.5 18l-158 111v4h1071v-467h-4l-215 393q-11 22 -23 28.5t-35 6.5h-297q-20 0 -26 -7.5t-6 -35.5v-610h200q20 2 30.5 8t25.5 26l155 197h4v-500h-4l-155 199q-16 20 -26.5 26.5t-31.5 6.5h-198v-629q0 -28 6 -35.5t26 -7.5h308
q30 0 42.5 5t22.5 22l215 401h4v-467z" />
    <glyph glyph-name="Igrave" unicode="&#xcc;" horiz-adv-x="716" 
d="M500 1280v-1120q0 -20 3.5 -27.5t20.5 -17.5l158 -111v-4h-647v4l158 111q15 10 18.5 18t3.5 27v1120q0 19 -3.5 27t-18.5 18l-158 111v4h647v-4l-158 -111q-17 -12 -20.5 -19t-3.5 -26zM35 1874h284l173 -334l-5 -4l-452 334v4z" />
    <glyph glyph-name="Iacute" unicode="&#xcd;" horiz-adv-x="716" 
d="M500 1280v-1120q0 -20 3.5 -27.5t20.5 -17.5l158 -111v-4h-647v4l158 111q15 10 18.5 18t3.5 27v1120q0 19 -3.5 27t-18.5 18l-158 111v4h647v-4l-158 -111q-17 -12 -20.5 -19t-3.5 -26zM401 1874h283v-4l-453 -334l-4 4z" />
    <glyph glyph-name="Icircumflex" unicode="&#xce;" horiz-adv-x="716" 
d="M500 1280v-1120q0 -20 3.5 -27.5t20.5 -17.5l158 -111v-4h-647v4l158 111q15 10 18.5 18t3.5 27v1120q0 19 -3.5 27t-18.5 18l-158 111v4h647v-4l-158 -111q-17 -12 -20.5 -19t-3.5 -26zM670 1536l-2 -4l-310 147l-309 -147l-2 4l309 354h4z" />
    <glyph glyph-name="Idieresis" unicode="&#xcf;" horiz-adv-x="716" 
d="M500 1280v-1120q0 -20 3.5 -27.5t20.5 -17.5l158 -111v-4h-647v4l158 111q15 10 18.5 18t3.5 27v1120q0 19 -3.5 27t-18.5 18l-158 111v4h647v-4l-158 -111q-17 -12 -20.5 -19t-3.5 -26zM51 1708q0 52 36 87.5t87 35.5q50 0 85.5 -35.5t35.5 -87.5q0 -49 -35.5 -84
t-85.5 -35q-51 0 -87 35t-36 84zM420 1708q0 52 34.5 87.5t84.5 35.5q53 0 89 -35.5t36 -87.5q0 -50 -36.5 -84.5t-88.5 -34.5q-49 0 -84 34.5t-35 84.5z" />
    <glyph glyph-name="Eth" unicode="&#xd0;" horiz-adv-x="1437" 
d="M49 713v37h182v524q0 25 -3.5 34t-18.5 19l-162 109v4h639q339 0 514.5 -183t175.5 -509q0 -227 -80 -394t-240.5 -260.5t-387.5 -93.5h-621v4l162 109q15 10 18.5 19.5t3.5 35.5v545h-182zM637 1401h-84q-21 0 -29 -7.5t-8 -31.5v-612h240v-37h-240v-629q0 -30 8 -37.5
t41 -7.5h43q443 0 443 688q0 674 -414 674z" />
    <glyph glyph-name="Ntilde" unicode="&#xd1;" horiz-adv-x="1419" 
d="M37 1440h414l716 -1147v878q0 23 -4.5 34t-23.5 30l-201 201v4h500v-4l-199 -201q-20 -22 -25.5 -32t-5.5 -32v-1171h-190l-731 1167v-899q0 -24 4.5 -34t25.5 -29l201 -201v-4h-502v4l201 201q19 19 24 29.5t5 33.5v920q0 41 -23 67l-186 181v4zM844 1585
q-49 0 -142.5 48t-136.5 48q-88 0 -127 -98h-4q0 22 4 62q9 83 50.5 131.5t107.5 48.5q49 0 141 -49.5t135 -49.5q91 0 129 99h5q0 -16 -5 -66q-9 -79 -50.5 -126.5t-106.5 -47.5z" />
    <glyph glyph-name="Ograve" unicode="&#xd2;" horiz-adv-x="1449" 
d="M727 14q76 0 135.5 39t105 121t69.5 220.5t24 326.5t-24 326t-69.5 219.5t-105 120t-135.5 38.5q-336 0 -336 -704t336 -707zM727 1460q313 0 485 -193t172 -546q0 -354 -172 -547.5t-485 -193.5q-314 0 -487.5 193.5t-173.5 547.5q0 353 173.5 546t487.5 193zM401 1874
h285l172 -334l-4 -4l-453 334v4z" />
    <glyph glyph-name="Oacute" unicode="&#xd3;" horiz-adv-x="1449" 
d="M768 1874h283v-4l-453 -334l-4 4zM727 14q76 0 135.5 39t105 121t69.5 220.5t24 326.5t-24 326t-69.5 219.5t-105 120t-135.5 38.5q-336 0 -336 -704t336 -707zM727 1460q313 0 485 -193t172 -546q0 -354 -172 -547.5t-485 -193.5q-314 0 -487.5 193.5t-173.5 547.5
q0 353 173.5 546t487.5 193z" />
    <glyph glyph-name="Ocircumflex" unicode="&#xd4;" horiz-adv-x="1449" 
d="M1036 1536l-2 -4l-309 147l-309 -147l-2 4l309 354h4zM727 14q76 0 135.5 39t105 121t69.5 220.5t24 326.5t-24 326t-69.5 219.5t-105 120t-135.5 38.5q-336 0 -336 -704t336 -707zM727 1460q313 0 485 -193t172 -546q0 -354 -172 -547.5t-485 -193.5
q-314 0 -487.5 193.5t-173.5 547.5q0 353 173.5 546t487.5 193z" />
    <glyph glyph-name="Otilde" unicode="&#xd5;" horiz-adv-x="1449" 
d="M727 14q76 0 135.5 39t105 121t69.5 220.5t24 326.5t-24 326t-69.5 219.5t-105 120t-135.5 38.5q-336 0 -336 -704t336 -707zM727 1460q313 0 485 -193t172 -546q0 -354 -172 -547.5t-485 -193.5q-314 0 -487.5 193.5t-173.5 547.5q0 353 173.5 546t487.5 193zM850 1585
q-49 0 -142.5 48t-136.5 48q-88 0 -127 -98h-4q0 22 4 62q9 83 50.5 131.5t107.5 48.5q49 0 141.5 -49.5t135.5 -49.5q91 0 129 99h4q0 -26 -4 -66q-9 -79 -51 -126.5t-107 -47.5z" />
    <glyph glyph-name="Odieresis" unicode="&#xd6;" horiz-adv-x="1449" 
d="M418 1708q0 52 36 87.5t87 35.5q50 0 85.5 -35.5t35.5 -87.5q0 -49 -35.5 -84t-85.5 -35q-51 0 -87 35t-36 84zM786 1708q0 52 34.5 87.5t84.5 35.5q53 0 89 -35.5t36 -87.5q0 -50 -36.5 -84.5t-88.5 -34.5q-49 0 -84 34.5t-35 84.5zM727 14q76 0 135.5 39t105 121
t69.5 220.5t24 326.5t-24 326t-69.5 219.5t-105 120t-135.5 38.5q-336 0 -336 -704t336 -707zM727 1460q313 0 485 -193t172 -546q0 -354 -172 -547.5t-485 -193.5q-314 0 -487.5 193.5t-173.5 547.5q0 353 173.5 546t487.5 193z" />
    <glyph glyph-name="multiply" unicode="&#xd7;" horiz-adv-x="1105" 
d="M248 330l-27 26l305 306l-305 305l27 26l305 -305l305 305l27 -26l-305 -305l305 -306l-27 -26l-305 305z" />
    <glyph glyph-name="Oslash" unicode="&#xd8;" horiz-adv-x="1449" 
d="M727 1460q168 0 293 -55l86 192l35 -16l-86 -192q161 -84 245 -253.5t84 -414.5q0 -354 -172 -547.5t-485 -193.5q-151 0 -272 47l-86 -195l-35 16l84 193q-171 78 -261.5 251.5t-90.5 428.5q0 353 173.5 546t487.5 193zM391 721q0 -361 90 -539l482 1092
q-86 151 -236 151q-336 0 -336 -704zM727 14q76 0 135.5 39t105 121t69.5 220.5t24 326.5q0 325 -76 508l-481 -1088q82 -127 223 -127z" />
    <glyph glyph-name="Ugrave" unicode="&#xd9;" horiz-adv-x="1355" 
d="M700 -20q-276 0 -398 118t-122 353v825q0 19 -3.5 26t-20.5 19l-144 115v4h629v-4l-154 -115q-15 -10 -18.5 -18t-3.5 -27v-791q0 -440 330 -440q156 0 241.5 120t85.5 347v659q0 24 -4.5 35t-25.5 29l-199 201v4h498v-4l-199 -201q-19 -18 -24 -29.5t-5 -34.5v-657
q0 -534 -463 -534zM430 1874h285l172 -334l-4 -4l-453 334v4z" />
    <glyph glyph-name="Uacute" unicode="&#xda;" horiz-adv-x="1355" 
d="M797 1874h282v-4l-452 -334l-4 4zM700 -20q-276 0 -398 118t-122 353v825q0 19 -3.5 26t-20.5 19l-144 115v4h629v-4l-154 -115q-15 -10 -18.5 -18t-3.5 -27v-791q0 -440 330 -440q156 0 241.5 120t85.5 347v659q0 24 -4.5 35t-25.5 29l-199 201v4h498v-4l-199 -201
q-19 -18 -24 -29.5t-5 -34.5v-657q0 -534 -463 -534z" />
    <glyph glyph-name="Ucircumflex" unicode="&#xdb;" horiz-adv-x="1355" 
d="M1065 1536l-2 -4l-309 147l-310 -147l-2 4l310 354h4zM700 -20q-276 0 -398 118t-122 353v825q0 19 -3.5 26t-20.5 19l-144 115v4h629v-4l-154 -115q-15 -10 -18.5 -18t-3.5 -27v-791q0 -440 330 -440q156 0 241.5 120t85.5 347v659q0 24 -4.5 35t-25.5 29l-199 201v4
h498v-4l-199 -201q-19 -18 -24 -29.5t-5 -34.5v-657q0 -534 -463 -534z" />
    <glyph glyph-name="Udieresis" unicode="&#xdc;" horiz-adv-x="1355" 
d="M446 1708q0 52 36 87.5t87 35.5q50 0 85.5 -35.5t35.5 -87.5q0 -49 -35.5 -84t-85.5 -35q-51 0 -87 35t-36 84zM815 1708q0 52 34.5 87.5t84.5 35.5q53 0 89 -35.5t36 -87.5q0 -50 -36.5 -84.5t-88.5 -34.5q-50 0 -84.5 34.5t-34.5 84.5zM700 -20q-276 0 -398 118
t-122 353v825q0 19 -3.5 26t-20.5 19l-144 115v4h629v-4l-154 -115q-15 -10 -18.5 -18t-3.5 -27v-791q0 -440 330 -440q156 0 241.5 120t85.5 347v659q0 24 -4.5 35t-25.5 29l-199 201v4h498v-4l-199 -201q-19 -18 -24 -29.5t-5 -34.5v-657q0 -534 -463 -534z" />
    <glyph glyph-name="Yacute" unicode="&#xdd;" horiz-adv-x="1261" 
d="M782 569v-403q0 -20 4 -27.5t21 -17.5l170 -117v-4h-674v4l172 117q15 11 19 18t4 27v375q0 32 -15 57l-350 649q-16 31 -55 76l-105 113v4h602v-4l-126 -121q-12 -12 -14 -20t5 -23l322 -610l268 524q10 23 8.5 32t-14.5 23l-176 195v4h487v-4l-205 -191
q-40 -35 -63 -78l-268 -522q-17 -33 -17 -76zM737 1874h283v-4l-453 -334l-4 4z" />
    <glyph glyph-name="Thorn" unicode="&#xde;" horiz-adv-x="1261" 
d="M1219 762q0 -144 -75 -247.5t-200.5 -153.5t-286.5 -50h-157v-141q0 -20 4 -28.5t20 -18.5l205 -119v-4h-694v4l158 111q14 10 18 18.5t4 28.5v1118q0 19 -3.5 27t-18.5 18l-158 111v4h465v-242h194q111 0 203 -24t165.5 -74.5t115 -136.5t41.5 -201zM500 350h123
q129 0 213 102.5t84 305.5q0 195 -80 298t-215 103h-125v-809z" />
    <glyph glyph-name="germandbls" unicode="&#xdf;" horiz-adv-x="1245" 
d="M1221 305q0 -102 -54.5 -176t-142 -109.5t-195.5 -35.5q-184 0 -340 69l113 287h4l121 -293q8 -22 39 -27q20 -4 68 -4q80 0 125 52t45 127q0 58 -37.5 99t-110.5 79l-151 78q-177 89 -177 221q0 63 31.5 106.5t104.5 104.5l79 67q103 84 103 258q0 96 -56 157.5
t-151 61.5q-201 0 -201 -313v-1114h-399v4l121 88q13 9 16.5 16.5t3.5 28.5v830h-133v37h133q1 130 31.5 219.5t91.5 141t141 73.5t191 22q103 0 191 -27.5t145 -85.5t57 -137q0 -64 -38.5 -113.5t-110.5 -95.5q-8 -4 -54 -35.5t-55 -37.5q-34 -27 -49.5 -52.5t-15.5 -58.5
q0 -86 151 -160l158 -77q100 -47 153.5 -111.5t53.5 -163.5z" />
    <glyph glyph-name="agrave" unicode="&#xe0;" horiz-adv-x="997" 
d="M608 504l4 219v8q0 117 -47 185.5t-141 68.5q-34 0 -43.5 -4t-18.5 -23l-143 -288h-4l-109 278q184 72 375 72q199 0 287 -84q96 -99 96 -330v-37l-12 -325q-6 -129 68 -129q45 0 61 49h4q3 -32 -14 -70q-22 -49 -67.5 -79.5t-108.5 -30.5q-81 0 -134.5 54t-54.5 155
q-31 -97 -105.5 -153t-172.5 -56q-114 0 -193.5 74t-79.5 202q0 97 50.5 168t126 104t161.5 33q134 0 215 -61zM508 506q-93 0 -146 -61.5t-53 -153.5q0 -81 40 -128.5t102 -47.5q44 0 84.5 25.5t68.5 70.5l4 278q-47 17 -100 17zM162 1440h284l172 -334l-4 -4l-452 334v4z
" />
    <glyph glyph-name="aacute" unicode="&#xe1;" horiz-adv-x="997" 
d="M608 504l4 219v8q0 117 -47 185.5t-141 68.5q-34 0 -43.5 -4t-18.5 -23l-143 -288h-4l-109 278q184 72 375 72q199 0 287 -84q96 -99 96 -330v-37l-12 -325q-6 -129 68 -129q45 0 61 49h4q3 -32 -14 -70q-22 -49 -67.5 -79.5t-108.5 -30.5q-81 0 -134.5 54t-54.5 155
q-31 -97 -105.5 -153t-172.5 -56q-114 0 -193.5 74t-79.5 202q0 97 50.5 168t126 104t161.5 33q134 0 215 -61zM508 506q-93 0 -146 -61.5t-53 -153.5q0 -81 40 -128.5t102 -47.5q44 0 84.5 25.5t68.5 70.5l4 278q-47 17 -100 17zM530 1440h283v-4l-453 -334l-4 4z" />
    <glyph glyph-name="acircumflex" unicode="&#xe2;" horiz-adv-x="997" 
d="M608 504l4 219v8q0 117 -47 185.5t-141 68.5q-34 0 -43.5 -4t-18.5 -23l-143 -288h-4l-109 278q184 72 375 72q199 0 287 -84q96 -99 96 -330v-37l-12 -325q-6 -129 68 -129q45 0 61 49h4q3 -32 -14 -70q-22 -49 -67.5 -79.5t-108.5 -30.5q-81 0 -134.5 54t-54.5 155
q-31 -97 -105.5 -153t-172.5 -56q-114 0 -193.5 74t-79.5 202q0 97 50.5 168t126 104t161.5 33q134 0 215 -61zM508 506q-93 0 -146 -61.5t-53 -153.5q0 -81 40 -128.5t102 -47.5q44 0 84.5 25.5t68.5 70.5l4 278q-47 17 -100 17zM797 1102l-2 -4l-310 147l-309 -147l-2 4
l309 354h4z" />
    <glyph glyph-name="atilde" unicode="&#xe3;" horiz-adv-x="997" 
d="M608 504l4 219v8q0 117 -47 185.5t-141 68.5q-34 0 -43.5 -4t-18.5 -23l-143 -288h-4l-109 278q184 72 375 72q199 0 287 -84q96 -99 96 -330v-37l-12 -325q-6 -129 68 -129q45 0 61 49h4q3 -32 -14 -70q-22 -49 -67.5 -79.5t-108.5 -30.5q-81 0 -134.5 54t-54.5 155
q-31 -97 -105.5 -153t-172.5 -56q-114 0 -193.5 74t-79.5 202q0 97 50.5 168t126 104t161.5 33q134 0 215 -61zM508 506q-93 0 -146 -61.5t-53 -153.5q0 -81 40 -128.5t102 -47.5q44 0 84.5 25.5t68.5 70.5l4 278q-47 17 -100 17zM612 1151q-49 0 -142 48t-136 48
q-88 0 -127 -98h-4q0 21 4 61q9 83 50.5 132t107.5 49q49 0 141 -49.5t135 -49.5q91 0 129 99h4q0 -26 -4 -66q-9 -79 -51 -126.5t-107 -47.5z" />
    <glyph glyph-name="adieresis" unicode="&#xe4;" horiz-adv-x="997" 
d="M608 504l4 219v8q0 117 -47 185.5t-141 68.5q-34 0 -43.5 -4t-18.5 -23l-143 -288h-4l-109 278q184 72 375 72q199 0 287 -84q96 -99 96 -330v-37l-12 -325q-6 -129 68 -129q45 0 61 49h4q3 -32 -14 -70q-22 -49 -67.5 -79.5t-108.5 -30.5q-81 0 -134.5 54t-54.5 155
q-31 -97 -105.5 -153t-172.5 -56q-114 0 -193.5 74t-79.5 202q0 97 50.5 168t126 104t161.5 33q134 0 215 -61zM508 506q-93 0 -146 -61.5t-53 -153.5q0 -81 40 -128.5t102 -47.5q44 0 84.5 25.5t68.5 70.5l4 278q-47 17 -100 17zM178 1274q0 52 36 87.5t87 35.5
q50 0 85.5 -35.5t35.5 -87.5q0 -49 -35.5 -84t-85.5 -35q-51 0 -87 35t-36 84zM547 1274q0 52 34.5 87.5t84.5 35.5q53 0 89 -35.5t36 -87.5q0 -50 -36.5 -84.5t-88.5 -34.5q-50 0 -84.5 34.5t-34.5 84.5z" />
    <glyph glyph-name="aring" unicode="&#xe5;" horiz-adv-x="997" 
d="M608 504l4 219v8q0 117 -47 185.5t-141 68.5q-34 0 -43.5 -4t-18.5 -23l-143 -288h-4l-109 278q184 72 375 72q199 0 287 -84q96 -99 96 -330v-37l-12 -325q-6 -129 68 -129q45 0 61 49h4q3 -32 -14 -70q-22 -49 -67.5 -79.5t-108.5 -30.5q-81 0 -134.5 54t-54.5 155
q-31 -97 -105.5 -153t-172.5 -56q-114 0 -193.5 74t-79.5 202q0 97 50.5 168t126 104t161.5 33q134 0 215 -61zM508 506q-93 0 -146 -61.5t-53 -153.5q0 -81 40 -128.5t102 -47.5q44 0 84.5 25.5t68.5 70.5l4 278q-47 17 -100 17zM666 1282q0 -75 -53 -125.5t-128 -50.5
q-73 0 -125.5 51.5t-52.5 124.5q0 75 51.5 126.5t126.5 51.5q76 0 128.5 -51t52.5 -127zM625 1282q0 60 -40 99.5t-100 39.5q-59 0 -98 -39.5t-39 -99.5q0 -57 40 -97t97 -40q60 0 100 39t40 98z" />
    <glyph glyph-name="ae" unicode="&#xe6;" horiz-adv-x="1548" 
d="M385 565q134 0 223 -61q0 7 2 111t2 112q0 119 -47.5 187.5t-142.5 68.5q-31 0 -42 -5t-18 -22l-143 -284h-4l-115 284q186 64 381 64q88 0 149 -18t111 -66l31 -39q123 123 305 123q81 0 152.5 -22t131.5 -67.5t95 -125t35 -184.5q0 -32 -2 -52h-619v-34
q0 -194 83.5 -298t213.5 -104q222 0 318 223h4q-35 -186 -143 -279t-279 -93q-125 0 -229.5 56.5t-165.5 166.5q-28 -95 -114 -159t-212 -64t-208.5 76t-82.5 208q0 71 30 129.5t78.5 94t105.5 54.5t116 19zM1073 987q-92 0 -144 -96t-59 -285h369q3 201 -37.5 291
t-128.5 90zM471 113q122 0 195 106q-58 113 -58 270q-56 17 -98 17q-95 0 -148 -59.5t-53 -149.5q0 -84 44 -134t118 -50z" />
    <glyph glyph-name="ccedilla" unicode="&#xe7;" horiz-adv-x="929" 
d="M610 135q181 0 273 203h4q-29 -165 -127.5 -259.5t-263.5 -94.5h-4l-17 -111q103 21 177.5 -29t74.5 -135q0 -84 -61.5 -138t-167.5 -54q-99 0 -166.5 52.5t-73.5 129.5l4 2q16 -55 64.5 -85t99.5 -30q56 0 94.5 31.5t38.5 85.5q0 56 -37.5 87.5t-97.5 31.5
q-44 0 -76 -12l-2 4l131 170q-85 3 -159.5 35t-134.5 92t-95 158t-35 223q0 113 29 204t77.5 150.5t115 99.5t137.5 57t149 17q160 0 320 -57l-111 -324h-4l-137 322q-8 15 -15.5 20.5t-23.5 5.5h-21q-121 0 -183 -107t-62 -309q0 -224 80.5 -330t205.5 -106z" />
    <glyph glyph-name="egrave" unicode="&#xe8;" horiz-adv-x="995" 
d="M934 569h-615v-32q0 -196 82.5 -300t212.5 -104q222 0 318 223h4q-35 -186 -143 -279t-279 -93q-92 0 -172.5 30.5t-145.5 91t-103 160.5t-38 228q0 112 27 202.5t72 149.5t106 99t127 57.5t137 17.5q81 0 152.5 -22t131.5 -67.5t95 -125t35 -184.5q0 -20 -4 -52z
M520 987q-91 0 -142.5 -96.5t-58.5 -284.5h367q2 16 2 39q0 174 -41.5 258t-126.5 84zM203 1440h284l172 -334l-4 -4l-452 334v4z" />
    <glyph glyph-name="eacute" unicode="&#xe9;" horiz-adv-x="995" 
d="M571 1440h283v-4l-453 -334l-4 4zM934 569h-615v-32q0 -196 82.5 -300t212.5 -104q222 0 318 223h4q-35 -186 -143 -279t-279 -93q-92 0 -172.5 30.5t-145.5 91t-103 160.5t-38 228q0 112 27 202.5t72 149.5t106 99t127 57.5t137 17.5q81 0 152.5 -22t131.5 -67.5
t95 -125t35 -184.5q0 -20 -4 -52zM520 987q-91 0 -142.5 -96.5t-58.5 -284.5h367q2 16 2 39q0 174 -41.5 258t-126.5 84z" />
    <glyph glyph-name="ecircumflex" unicode="&#xea;" horiz-adv-x="995" 
d="M838 1102l-2 -4l-310 147l-309 -147l-2 4l309 354h4zM934 569h-615v-32q0 -196 82.5 -300t212.5 -104q222 0 318 223h4q-35 -186 -143 -279t-279 -93q-92 0 -172.5 30.5t-145.5 91t-103 160.5t-38 228q0 112 27 202.5t72 149.5t106 99t127 57.5t137 17.5q81 0 152.5 -22
t131.5 -67.5t95 -125t35 -184.5q0 -20 -4 -52zM520 987q-91 0 -142.5 -96.5t-58.5 -284.5h367q2 16 2 39q0 174 -41.5 258t-126.5 84z" />
    <glyph glyph-name="edieresis" unicode="&#xeb;" horiz-adv-x="995" 
d="M219 1274q0 52 36 87.5t87 35.5q50 0 85.5 -35.5t35.5 -87.5q0 -49 -35.5 -84t-85.5 -35q-51 0 -87 35t-36 84zM588 1274q0 52 34.5 87.5t84.5 35.5q53 0 88.5 -35.5t35.5 -87.5q0 -50 -36 -84.5t-88 -34.5q-49 0 -84 34.5t-35 84.5zM934 569h-615v-32q0 -196 82.5 -300
t212.5 -104q222 0 318 223h4q-35 -186 -143 -279t-279 -93q-92 0 -172.5 30.5t-145.5 91t-103 160.5t-38 228q0 112 27 202.5t72 149.5t106 99t127 57.5t137 17.5q81 0 152.5 -22t131.5 -67.5t95 -125t35 -184.5q0 -20 -4 -52zM520 987q-91 0 -142.5 -96.5t-58.5 -284.5h367
q2 16 2 39q0 174 -41.5 258t-126.5 84z" />
    <glyph glyph-name="igrave" unicode="&#xec;" horiz-adv-x="608" 
d="M446 1004v-867q0 -13 1 -18.5t6 -12t16 -14.5l121 -88v-4h-543v4l121 88q14 10 17 18t3 27v713q0 20 -3.5 28.5t-16.5 18.5l-121 102v5h399zM-16 1440h284l172 -334l-4 -4l-452 334v4z" />
    <glyph glyph-name="iacute" unicode="&#xed;" horiz-adv-x="608" 
d="M350 1440h283v-4l-453 -334l-4 4zM446 1004v-867q0 -13 1 -18.5t6 -12t16 -14.5l121 -88v-4h-543v4l121 88q14 10 17 18t3 27v713q0 20 -3.5 28.5t-16.5 18.5l-121 102v5h399z" />
    <glyph glyph-name="icircumflex" unicode="&#xee;" horiz-adv-x="608" 
d="M598 1102l-2 -4l-309 147l-310 -147l-2 4l310 354h4zM446 1004v-867q0 -13 1 -18.5t6 -12t16 -14.5l121 -88v-4h-543v4l121 88q14 10 17 18t3 27v713q0 20 -3.5 28.5t-16.5 18.5l-121 102v5h399z" />
    <glyph glyph-name="idieresis" unicode="&#xef;" horiz-adv-x="608" 
d="M-18 1274q0 52 35.5 87.5t86.5 35.5q50 0 85.5 -35.5t35.5 -87.5q0 -49 -35.5 -84t-85.5 -35q-51 0 -86.5 34.5t-35.5 84.5zM350 1274q0 52 34.5 87.5t84.5 35.5q53 0 89 -35.5t36 -87.5q0 -50 -36.5 -84.5t-88.5 -34.5q-49 0 -84 34.5t-35 84.5zM446 1004v-867
q0 -13 1 -18.5t6 -12t16 -14.5l121 -88v-4h-543v4l121 88q14 10 17 18t3 27v713q0 20 -3.5 28.5t-16.5 18.5l-121 102v5h399z" />
    <glyph glyph-name="eth" unicode="&#xf0;" horiz-adv-x="1081" 
d="M258 1456v4q9 0 37 -4q203 -26 360 -127l242 137l16 -32l-223 -127q164 -120 248 -312.5t84 -419.5q0 -591 -494 -591q-202 0 -336.5 135.5t-134.5 369.5q0 119 34 218t91.5 163.5t133 100t159.5 35.5q166 0 246 -129q-47 218 -156 360l-252 -143l-16 32l246 140
q-110 128 -285 190zM752 545q0 156 -25 297q-70 88 -168 88q-73 0 -123 -65.5t-71 -164.5t-21 -223q0 -207 51 -333t140 -126q106 0 161.5 123.5t55.5 403.5z" />
    <glyph glyph-name="ntilde" unicode="&#xf1;" horiz-adv-x="1202" 
d="M799 545q0 171 -38.5 252.5t-129.5 81.5q-114 0 -187 -125v-617q0 -17 4 -25t19 -20l121 -88v-4h-543v4l121 88q13 10 16.5 18.5t3.5 26.5v713q0 21 -3.5 29t-16.5 18l-121 102v5h399v-234q75 250 314 250q299 0 299 -418q0 -137 -4 -465q0 -18 4 -26t18 -19l121 -88v-4
h-543v4l115 88q25 18 25 43q0 3 3 180t3 230zM735 1151q-49 0 -142 48t-136 48q-88 0 -127 -98h-4q0 21 4 61q9 84 50 132.5t107 48.5q49 0 141.5 -49.5t135.5 -49.5q91 0 129 99h4q0 -26 -4 -66q-9 -79 -51 -126.5t-107 -47.5z" />
    <glyph glyph-name="ograve" unicode="&#xf2;" horiz-adv-x="1097" 
d="M549 987q-48 0 -83.5 -23t-63 -77t-41 -149.5t-13.5 -233.5q0 -182 25.5 -292.5t68 -153t107.5 -42.5t108 42t69 152t26 292q0 137 -14 233t-41.5 150.5t-63.5 78t-84 23.5zM549 -16q-227 0 -360.5 135.5t-133.5 384.5q0 247 133.5 381.5t360.5 134.5q229 0 361 -134
t132 -384q0 -248 -132.5 -383t-360.5 -135zM223 1440h285l172 -334l-4 -4l-453 334v4z" />
    <glyph glyph-name="oacute" unicode="&#xf3;" horiz-adv-x="1097" 
d="M592 1440h282v-4l-452 -334l-4 4zM549 987q-48 0 -83.5 -23t-63 -77t-41 -149.5t-13.5 -233.5q0 -182 25.5 -292.5t68 -153t107.5 -42.5t108 42t69 152t26 292q0 137 -14 233t-41.5 150.5t-63.5 78t-84 23.5zM549 -16q-227 0 -360.5 135.5t-133.5 384.5
q0 247 133.5 381.5t360.5 134.5q229 0 361 -134t132 -384q0 -248 -132.5 -383t-360.5 -135z" />
    <glyph glyph-name="ocircumflex" unicode="&#xf4;" horiz-adv-x="1097" 
d="M858 1102l-2 -4l-309 147l-309 -147l-2 4l309 354h4zM549 987q-48 0 -83.5 -23t-63 -77t-41 -149.5t-13.5 -233.5q0 -182 25.5 -292.5t68 -153t107.5 -42.5t108 42t69 152t26 292q0 137 -14 233t-41.5 150.5t-63.5 78t-84 23.5zM549 -16q-227 0 -360.5 135.5
t-133.5 384.5q0 247 133.5 381.5t360.5 134.5q229 0 361 -134t132 -384q0 -248 -132.5 -383t-360.5 -135z" />
    <glyph glyph-name="otilde" unicode="&#xf5;" horiz-adv-x="1097" 
d="M549 987q-48 0 -83.5 -23t-63 -77t-41 -149.5t-13.5 -233.5q0 -182 25.5 -292.5t68 -153t107.5 -42.5t108 42t69 152t26 292q0 137 -14 233t-41.5 150.5t-63.5 78t-84 23.5zM549 -16q-227 0 -360.5 135.5t-133.5 384.5q0 247 133.5 381.5t360.5 134.5q229 0 361 -134
t132 -384q0 -248 -132.5 -383t-360.5 -135zM674 1151q-49 0 -142.5 48t-136.5 48q-88 0 -127 -98h-4q0 21 4 61q9 83 50.5 132t107.5 49q49 0 141 -49.5t135 -49.5q91 0 129 99h5q0 -16 -5 -66q-9 -79 -50.5 -126.5t-106.5 -47.5z" />
    <glyph glyph-name="odieresis" unicode="&#xf6;" horiz-adv-x="1097" 
d="M242 1274q0 52 36 87.5t87 35.5q50 0 85 -35.5t35 -87.5q0 -49 -35 -84t-85 -35q-51 0 -87 35t-36 84zM610 1274q0 52 34.5 87.5t84.5 35.5q53 0 89 -35.5t36 -87.5q0 -50 -36.5 -84.5t-88.5 -34.5q-49 0 -84 34.5t-35 84.5zM549 987q-48 0 -83.5 -23t-63 -77t-41 -149.5
t-13.5 -233.5q0 -182 25.5 -292.5t68 -153t107.5 -42.5t108 42t69 152t26 292q0 137 -14 233t-41.5 150.5t-63.5 78t-84 23.5zM549 -16q-227 0 -360.5 135.5t-133.5 384.5q0 247 133.5 381.5t360.5 134.5q229 0 361 -134t132 -384q0 -248 -132.5 -383t-360.5 -135z" />
    <glyph glyph-name="divide" unicode="&#xf7;" horiz-adv-x="1105" 
d="M102 629v37h902v-37h-902zM414 969q0 59 39.5 97t97.5 38q59 0 98 -38t39 -97q0 -58 -39 -95.5t-98 -37.5q-58 0 -97.5 37.5t-39.5 95.5zM414 313q0 59 39.5 97.5t97.5 38.5q59 0 98 -38t39 -98q0 -58 -39 -95.5t-98 -37.5q-58 0 -97.5 37.5t-39.5 95.5z" />
    <glyph glyph-name="oslash" unicode="&#xf8;" horiz-adv-x="1097" 
d="M852 1137l-72 -160q126 -54 195 -173t69 -302q0 -256 -132 -387t-363 -131q-104 0 -193 28l-80 -180l-36 18l77 177q-126 54 -194 173.5t-68 303.5q0 255 132 385.5t362 130.5q102 0 194 -29l72 160zM549 987q-67 0 -109.5 -41.5t-67 -150t-24.5 -291.5q0 -226 33 -332
l315 713q-48 102 -147 102zM750 502q0 205 -33 327l-316 -712q48 -99 148 -99q50 0 85.5 23.5t62.5 77.5t40 149.5t13 233.5z" />
    <glyph glyph-name="ugrave" unicode="&#xf9;" horiz-adv-x="1157" 
d="M997 1004v-850q0 -20 4 -29t17 -19l121 -102v-4h-402v227q-85 -243 -303 -243q-143 0 -218 103.5t-75 311.5q0 123 4 451q0 21 -3.5 29t-16.5 20l-123 100v5h401q0 -3 -1 -127.5t-2 -258t-1 -157.5q0 -171 37 -253.5t125 -82.5q103 0 176 125v600q0 21 -3.5 29t-16.5 18
l-121 102v5h401zM223 1440h285l172 -334l-4 -4l-453 334v4z" />
    <glyph glyph-name="uacute" unicode="&#xfa;" horiz-adv-x="1157" 
d="M592 1440h282v-4l-452 -334l-4 4zM997 1004v-850q0 -20 4 -29t17 -19l121 -102v-4h-402v227q-85 -243 -303 -243q-143 0 -218 103.5t-75 311.5q0 123 4 451q0 21 -3.5 29t-16.5 20l-123 100v5h401q0 -3 -1 -127.5t-2 -258t-1 -157.5q0 -171 37 -253.5t125 -82.5
q103 0 176 125v600q0 21 -3.5 29t-16.5 18l-121 102v5h401z" />
    <glyph glyph-name="ucircumflex" unicode="&#xfb;" horiz-adv-x="1157" 
d="M858 1102l-2 -4l-309 147l-309 -147l-2 4l309 354h4zM997 1004v-850q0 -20 4 -29t17 -19l121 -102v-4h-402v227q-85 -243 -303 -243q-143 0 -218 103.5t-75 311.5q0 123 4 451q0 21 -3.5 29t-16.5 20l-123 100v5h401q0 -3 -1 -127.5t-2 -258t-1 -157.5q0 -171 37 -253.5
t125 -82.5q103 0 176 125v600q0 21 -3.5 29t-16.5 18l-121 102v5h401z" />
    <glyph glyph-name="udieresis" unicode="&#xfc;" horiz-adv-x="1157" 
d="M240 1274q0 52 35.5 87.5t86.5 35.5q50 0 85.5 -35.5t35.5 -87.5q0 -49 -35.5 -84t-85.5 -35q-51 0 -86.5 34.5t-35.5 84.5zM608 1274q0 52 34.5 87.5t84.5 35.5q53 0 89 -35.5t36 -87.5q0 -50 -36.5 -84.5t-88.5 -34.5q-49 0 -84 34.5t-35 84.5zM997 1004v-850
q0 -20 4 -29t17 -19l121 -102v-4h-402v227q-85 -243 -303 -243q-143 0 -218 103.5t-75 311.5q0 123 4 451q0 21 -3.5 29t-16.5 20l-123 100v5h401q0 -3 -1 -127.5t-2 -258t-1 -157.5q0 -171 37 -253.5t125 -82.5q103 0 176 125v600q0 21 -3.5 29t-16.5 18l-121 102v5h401z
" />
    <glyph glyph-name="yacute" unicode="&#xfd;" horiz-adv-x="929" 
d="M115 -483q-47 0 -92 20l73 332h4l156 -203q14 -20 27 -20q10 0 24 20q55 73 129 244l-368 940q-10 25 -37 70l-51 79v5h460v-5l-90 -100q-11 -12 -12 -21t6 -28l227 -606l195 495q9 25 8.5 35.5t-12.5 30.5l-123 194v5h332v-5l-123 -180q-27 -41 -45 -86l-307 -788
q-57 -144 -138 -271q-53 -83 -110 -120t-133 -37zM561 1440h283v-4l-453 -334l-4 4z" />
    <glyph glyph-name="thorn" unicode="&#xfe;" horiz-adv-x="1128" 
d="M700 1020q171 0 269 -131t98 -361q0 -247 -108.5 -395.5t-294.5 -148.5q-206 0 -275 174v-469q0 -20 5 -29.5t24 -19.5l170 -103v-4h-600v4l121 88q14 9 18 17t4 28v1616q0 20 -3.5 27.5t-18.5 19.5l-121 103v4l401 18v-682q90 244 311 244zM578 879q-53 0 -103.5 -31
t-85.5 -92v-578q57 -94 168 -94q108 0 171 109.5t63 320.5q0 196 -53 280.5t-160 84.5z" />
    <glyph glyph-name="ydieresis" unicode="&#xff;" horiz-adv-x="929" 
d="M115 -483q-47 0 -92 20l73 332h4l156 -203q14 -20 27 -20q10 0 24 20q55 73 129 244l-368 940q-10 25 -37 70l-51 79v5h460v-5l-90 -100q-11 -12 -12 -21t6 -28l227 -606l195 495q9 25 8.5 35.5t-12.5 30.5l-123 194v5h332v-5l-123 -180q-27 -41 -45 -86l-307 -788
q-57 -144 -138 -271q-53 -83 -110 -120t-133 -37zM211 1274q0 52 36 87.5t87 35.5q50 0 85.5 -35.5t35.5 -87.5q0 -49 -35.5 -84t-85.5 -35q-51 0 -87 35t-36 84zM580 1274q0 52 34 87.5t84 35.5q53 0 89 -35.5t36 -87.5q0 -50 -36.5 -84.5t-88.5 -34.5q-49 0 -83.5 34.5
t-34.5 84.5z" />
    <glyph glyph-name="Amacron" unicode="&#x100;" horiz-adv-x="1304" 
d="M1178 195q15 -45 45 -82l86 -109v-4h-553v4l123 123q18 18 8 53l-107 324h-469l-78 -236q-7 -23 -4 -32t21 -29l186 -203v-4h-471v4l178 195q26 30 34.5 42.5t17.5 37.5l315 952q10 31 7.5 42t-21.5 32l-117 131v4h391zM549 1217l-225 -674h444zM885 1647h-537v36h537
v-36z" />
    <glyph glyph-name="amacron" unicode="&#x101;" horiz-adv-x="997" 
d="M608 504l4 219v8q0 117 -47 185.5t-141 68.5q-34 0 -43.5 -4t-18.5 -23l-143 -288h-4l-109 278q184 72 375 72q199 0 287 -84q96 -99 96 -330v-37l-12 -325q-6 -129 68 -129q45 0 61 49h4q3 -32 -14 -70q-22 -49 -67.5 -79.5t-108.5 -30.5q-81 0 -134.5 54t-54.5 155
q-31 -97 -105.5 -153t-172.5 -56q-114 0 -193.5 74t-79.5 202q0 97 50.5 168t126 104t161.5 33q134 0 215 -61zM508 506q-93 0 -146 -61.5t-53 -153.5q0 -81 40 -128.5t102 -47.5q44 0 84.5 25.5t68.5 70.5l4 278q-47 17 -100 17zM750 1212h-537v37h537v-37z" />
    <glyph glyph-name="Abreve" unicode="&#x102;" horiz-adv-x="1304" 
d="M1178 195q15 -45 45 -82l86 -109v-4h-553v4l123 123q18 18 8 53l-107 324h-469l-78 -236q-7 -23 -4 -32t21 -29l186 -203v-4h-471v4l178 195q26 30 34.5 42.5t17.5 37.5l315 952q10 31 7.5 42t-21.5 32l-117 131v4h391zM549 1217l-225 -674h444zM868 1798
q0 -127 -75 -191.5t-181 -64.5q-49 0 -93 15t-80.5 44.5t-58.5 80t-22 116.5q0 36 9 82h4q4 -93 70.5 -146t170.5 -53q105 0 172.5 53t71.5 146h4q8 -41 8 -82z" />
    <glyph glyph-name="abreve" unicode="&#x103;" horiz-adv-x="997" 
d="M608 504l4 219v8q0 117 -47 185.5t-141 68.5q-34 0 -43.5 -4t-18.5 -23l-143 -288h-4l-109 278q184 72 375 72q199 0 287 -84q96 -99 96 -330v-37l-12 -325q-6 -129 68 -129q45 0 61 49h4q3 -32 -14 -70q-22 -49 -67.5 -79.5t-108.5 -30.5q-81 0 -134.5 54t-54.5 155
q-31 -97 -105.5 -153t-172.5 -56q-114 0 -193.5 74t-79.5 202q0 97 50.5 168t126 104t161.5 33q134 0 215 -61zM508 506q-93 0 -146 -61.5t-53 -153.5q0 -81 40 -128.5t102 -47.5q44 0 84.5 25.5t68.5 70.5l4 278q-47 17 -100 17zM733 1364q0 -127 -75 -191.5t-181 -64.5
q-49 0 -93 15t-80.5 44.5t-58.5 80t-22 116.5q0 41 8 82h5q4 -93 70.5 -146t170.5 -53q105 0 172.5 53t71.5 146h4q8 -41 8 -82z" />
    <glyph glyph-name="Aogonek" unicode="&#x104;" horiz-adv-x="1304" 
d="M1178 195q15 -45 45 -82l86 -109v-4h-527q-67 -35 -103 -92t-36 -125q0 -75 43.5 -116.5t108.5 -41.5q41 0 83.5 21t71.5 61l4 -2q-72 -188 -241 -188q-83 0 -148 56t-65 153q0 86 69.5 163t186.5 115l123 123q18 18 8 53l-107 324h-469l-78 -236q-6 -22 -3 -32t20 -29
l186 -203v-4h-471v4l178 195q26 30 34.5 42.5t17.5 37.5l315 952q10 31 7.5 42t-21.5 32l-117 131v4h391zM549 1217l-225 -674h444z" />
    <glyph glyph-name="aogonek" unicode="&#x105;" horiz-adv-x="997" 
d="M827 -14q-135 -66 -135 -203q0 -75 43.5 -116.5t108.5 -41.5q41 0 83 21t70 61l4 -2q-68 -188 -239 -188q-83 0 -148 56t-65 153q0 86 68.5 154.5t187.5 103.5h-10q-81 0 -134.5 54t-54.5 155q-31 -97 -105.5 -153t-172.5 -56q-114 0 -193.5 74t-79.5 202q0 97 50.5 168
t126 104t161.5 33q134 0 215 -61l4 219v8q0 117 -47 185.5t-141 68.5q-34 0 -43.5 -4t-18.5 -23l-143 -288h-4l-109 278q184 72 375 72q199 0 287 -84q96 -99 96 -330v-37l-12 -325q-6 -129 68 -129q45 0 61 49h4q3 -32 -14 -70q-18 -42 -55.5 -71.5t-88.5 -36.5zM508 506
q-93 0 -146 -61.5t-53 -153.5q0 -81 40 -128.5t102 -47.5q44 0 84.5 25.5t68.5 70.5l4 278q-47 17 -100 17z" />
    <glyph glyph-name="Cacute" unicode="&#x106;" horiz-adv-x="1253" 
d="M784 1874h283v-4l-453 -334l-4 4zM63 715q0 223 78 390t233 261t369 94q213 0 406 -43v-463h-4l-254 430q-13 23 -24.5 29.5t-41.5 9.5q-20 2 -59 2q-377 0 -377 -706q0 -705 385 -705q37 0 51 2q29 3 40.5 9.5t23.5 25.5l256 445h4v-482q-167 -34 -385 -34
q-179 0 -314.5 53t-219.5 151.5t-125.5 231.5t-41.5 299z" />
    <glyph glyph-name="cacute" unicode="&#x107;" horiz-adv-x="929" 
d="M588 1440h282v-4l-452 -334l-4 4zM496 -16q-87 0 -164.5 30.5t-141 90.5t-100.5 160t-37 227q0 113 29 204t77.5 150.5t115 99.5t137.5 57t149 17q160 0 320 -57l-111 -324h-4l-137 322q-8 15 -15.5 20.5t-23.5 5.5h-21q-121 0 -183 -107t-62 -309q0 -224 80.5 -330
t205.5 -106q181 0 273 203h4q-29 -165 -127.5 -259.5t-263.5 -94.5z" />
    <glyph glyph-name="Ccircumflex" unicode="&#x108;" horiz-adv-x="1253" 
d="M1051 1536l-2 -4l-310 147l-309 -147l-2 4l309 354h4zM63 715q0 223 78 390t233 261t369 94q213 0 406 -43v-463h-4l-254 430q-13 23 -24.5 29.5t-41.5 9.5q-20 2 -59 2q-377 0 -377 -706q0 -705 385 -705q37 0 51 2q29 3 40.5 9.5t23.5 25.5l256 445h4v-482
q-167 -34 -385 -34q-179 0 -314.5 53t-219.5 151.5t-125.5 231.5t-41.5 299z" />
    <glyph glyph-name="ccircumflex" unicode="&#x109;" horiz-adv-x="929" 
d="M856 1102l-2 -4l-309 147l-309 -147l-3 4l310 354h4zM496 -16q-87 0 -164.5 30.5t-141 90.5t-100.5 160t-37 227q0 113 29 204t77.5 150.5t115 99.5t137.5 57t149 17q160 0 320 -57l-111 -324h-4l-137 322q-8 15 -15.5 20.5t-23.5 5.5h-21q-121 0 -183 -107t-62 -309
q0 -224 80.5 -330t205.5 -106q181 0 273 203h4q-29 -165 -127.5 -259.5t-263.5 -94.5z" />
    <glyph glyph-name="Cdotaccent" unicode="&#x10a;" horiz-adv-x="1253" 
d="M63 715q0 223 78 390t233 261t369 94q213 0 406 -43v-463h-4l-254 430q-13 23 -24.5 29.5t-41.5 9.5q-20 2 -59 2q-377 0 -377 -706q0 -705 385 -705q37 0 51 2q29 3 40.5 9.5t23.5 25.5l256 445h4v-482q-167 -34 -385 -34q-179 0 -314.5 53t-219.5 151.5t-125.5 231.5
t-41.5 299zM602 1702q0 59 39.5 97t97.5 38q59 0 98.5 -38t39.5 -97q0 -58 -39.5 -95.5t-98.5 -37.5q-58 0 -97.5 37.5t-39.5 95.5z" />
    <glyph glyph-name="cdotaccent" unicode="&#x10b;" horiz-adv-x="929" 
d="M496 -16q-87 0 -164.5 30.5t-141 90.5t-100.5 160t-37 227q0 113 29 204t77.5 150.5t115 99.5t137.5 57t149 17q160 0 320 -57l-111 -324h-4l-137 322q-8 15 -15.5 20.5t-23.5 5.5h-21q-121 0 -183 -107t-62 -309q0 -224 80.5 -330t205.5 -106q181 0 273 203h4
q-29 -165 -127.5 -259.5t-263.5 -94.5zM406 1268q0 59 39.5 97t97.5 38q59 0 98 -38t39 -97q0 -58 -39 -95.5t-98 -37.5q-58 0 -97.5 37.5t-39.5 95.5z" />
    <glyph glyph-name="Ccaron" unicode="&#x10c;" horiz-adv-x="1253" 
d="M739 1731l310 147l2 -2l-310 -356h-4l-309 356l2 2zM63 715q0 223 78 390t233 261t369 94q213 0 406 -43v-463h-4l-254 430q-13 23 -24.5 29.5t-41.5 9.5q-20 2 -59 2q-377 0 -377 -706q0 -705 385 -705q37 0 51 2q29 3 40.5 9.5t23.5 25.5l256 445h4v-482
q-167 -34 -385 -34q-179 0 -314.5 53t-219.5 151.5t-125.5 231.5t-41.5 299z" />
    <glyph glyph-name="ccaron" unicode="&#x10d;" horiz-adv-x="929" 
d="M545 1298l309 148l2 -2l-309 -357h-4l-310 357l3 2zM496 -16q-87 0 -164.5 30.5t-141 90.5t-100.5 160t-37 227q0 113 29 204t77.5 150.5t115 99.5t137.5 57t149 17q160 0 320 -57l-111 -324h-4l-137 322q-8 15 -15.5 20.5t-23.5 5.5h-21q-121 0 -183 -107t-62 -309
q0 -224 80.5 -330t205.5 -106q181 0 273 203h4q-29 -165 -127.5 -259.5t-263.5 -94.5z" />
    <glyph glyph-name="Dcaron" unicode="&#x10e;" horiz-adv-x="1421" 
d="M668 1731l309 147l2 -2l-309 -356h-4l-310 356l2 2zM35 0v4l158 111q15 10 18.5 18t3.5 27v1120q0 19 -3.5 27t-18.5 18l-158 111v4h635q339 0 514.5 -184t175.5 -511q0 -348 -184 -546.5t-525 -198.5h-616zM549 39h43q222 0 333 165t111 523q0 674 -413 674h-91
q-19 0 -25.5 -7.5t-6.5 -31.5v-1278q0 -30 8 -37.5t41 -7.5z" />
    <glyph glyph-name="dcaron" unicode="&#x10f;" horiz-adv-x="1193" 
d="M1102 1044l18 396h209l-223 -396h-4zM995 1487v-1333q0 -20 4 -29t17 -19l123 -102v-4h-402v201q-43 -110 -121 -163.5t-176 -53.5q-170 0 -276.5 139.5t-106.5 372.5q0 235 119 379.5t297 144.5q183 0 264 -172v452q0 21 -3.5 29.5t-16.5 18.5l-121 88v4zM563 109
q94 0 174 110v608q-69 95 -168 95q-103 0 -169 -101t-66 -307t64.5 -305.5t164.5 -99.5z" />
    <glyph glyph-name="Dcroat" unicode="&#x110;" horiz-adv-x="1433" 
d="M47 713v37h182v524q0 25 -3.5 34t-18.5 19l-162 109v4h639q339 0 514.5 -183t175.5 -509q0 -227 -80 -394t-240.5 -260.5t-387.5 -93.5h-621v4l162 109q15 10 18.5 19.5t3.5 35.5v545h-182zM635 1401h-84q-21 0 -29 -7.5t-8 -31.5v-612h240v-37h-240v-629q0 -30 8 -37.5
t41 -7.5h43q443 0 443 688q0 674 -414 674z" />
    <glyph glyph-name="dcroat" unicode="&#x111;" horiz-adv-x="1161" 
d="M995 1487v-297h150v-35h-150v-1001q0 -20 4 -29t17 -19l123 -102v-4h-402v201q-43 -110 -121 -163.5t-176 -53.5q-170 0 -276.5 139.5t-106.5 372.5q0 235 119 379.5t297 144.5q183 0 264 -172v307h-266v35h266v110q0 21 -3.5 29.5t-16.5 18.5l-121 88v4zM563 109
q94 0 174 110v608q-69 95 -168 95q-103 0 -169 -101t-66 -307t64.5 -305.5t164.5 -99.5z" />
    <glyph glyph-name="Emacron" unicode="&#x112;" horiz-adv-x="1226" 
d="M1124 0h-1089v4l158 111q15 10 18.5 18t3.5 27v1120q0 19 -3.5 27t-18.5 18l-158 111v4h1071v-467h-4l-215 393q-11 22 -23 28.5t-35 6.5h-297q-20 0 -26 -7.5t-6 -35.5v-610h200q20 2 30.5 8t25.5 26l155 197h4v-500h-4l-155 199q-16 20 -26.5 26.5t-31.5 6.5h-198v-629
q0 -28 6 -35.5t26 -7.5h308q30 0 42.5 5t22.5 22l215 401h4v-467zM905 1647h-536v36h536v-36z" />
    <glyph glyph-name="emacron" unicode="&#x113;" horiz-adv-x="995" 
d="M934 569h-615v-32q0 -196 82.5 -300t212.5 -104q222 0 318 223h4q-35 -186 -143 -279t-279 -93q-92 0 -172.5 30.5t-145.5 91t-103 160.5t-38 228q0 112 27 202.5t72 149.5t106 99t127 57.5t137 17.5q81 0 152.5 -22t131.5 -67.5t95 -125t35 -184.5q0 -20 -4 -52z
M520 987q-91 0 -142.5 -96.5t-58.5 -284.5h367q2 16 2 39q0 174 -41.5 258t-126.5 84zM791 1212h-537v37h537v-37z" />
    <glyph glyph-name="Ebreve" unicode="&#x114;" horiz-adv-x="1226" 
d="M1124 0h-1089v4l158 111q15 10 18.5 18t3.5 27v1120q0 19 -3.5 27t-18.5 18l-158 111v4h1071v-467h-4l-215 393q-11 22 -23 28.5t-35 6.5h-297q-20 0 -26 -7.5t-6 -35.5v-610h200q20 2 30.5 8t25.5 26l155 197h4v-500h-4l-155 199q-16 20 -26.5 26.5t-31.5 6.5h-198v-629
q0 -28 6 -35.5t26 -7.5h308q30 0 42.5 5t22.5 22l215 401h4v-467zM889 1798q0 -127 -75 -191.5t-181 -64.5q-49 0 -93 15t-80.5 44.5t-58.5 80t-22 116.5q0 41 8 82h4q4 -93 71 -146t171 -53q105 0 172.5 53t71.5 146h4q8 -41 8 -82z" />
    <glyph glyph-name="ebreve" unicode="&#x115;" horiz-adv-x="995" 
d="M934 569h-615v-32q0 -196 82.5 -300t212.5 -104q222 0 318 223h4q-35 -186 -143 -279t-279 -93q-92 0 -172.5 30.5t-145.5 91t-103 160.5t-38 228q0 112 27 202.5t72 149.5t106 99t127 57.5t137 17.5q81 0 152.5 -22t131.5 -67.5t95 -125t35 -184.5q0 -20 -4 -52z
M520 987q-91 0 -142.5 -96.5t-58.5 -284.5h367q2 16 2 39q0 174 -41.5 258t-126.5 84zM774 1364q0 -127 -75 -191.5t-181 -64.5q-49 0 -93 15t-80.5 44.5t-58.5 80t-22 116.5q0 41 8 82h4q4 -93 71 -146t171 -53q105 0 172.5 53t71.5 146h4q8 -41 8 -82z" />
    <glyph glyph-name="Edotaccent" unicode="&#x116;" horiz-adv-x="1226" 
d="M1124 0h-1089v4l158 111q15 10 18.5 18t3.5 27v1120q0 19 -3.5 27t-18.5 18l-158 111v4h1071v-467h-4l-215 393q-11 22 -23 28.5t-35 6.5h-297q-20 0 -26 -7.5t-6 -35.5v-610h200q20 2 30.5 8t25.5 26l155 197h4v-500h-4l-155 199q-16 20 -26.5 26.5t-31.5 6.5h-198v-629
q0 -28 6 -35.5t26 -7.5h308q30 0 42.5 5t22.5 22l215 401h4v-467zM504 1702q0 59 39.5 97t97.5 38q59 0 98 -38t39 -97q0 -58 -39 -95.5t-98 -37.5q-58 0 -97.5 37.5t-39.5 95.5z" />
    <glyph glyph-name="edotaccent" unicode="&#x117;" horiz-adv-x="995" 
d="M934 569h-615v-32q0 -196 82.5 -300t212.5 -104q222 0 318 223h4q-35 -186 -143 -279t-279 -93q-92 0 -172.5 30.5t-145.5 91t-103 160.5t-38 228q0 112 27 202.5t72 149.5t106 99t127 57.5t137 17.5q81 0 152.5 -22t131.5 -67.5t95 -125t35 -184.5q0 -20 -4 -52z
M520 987q-91 0 -142.5 -96.5t-58.5 -284.5h367q2 16 2 39q0 174 -41.5 258t-126.5 84zM389 1268q0 59 39.5 97t97.5 38q59 0 98.5 -38t39.5 -97q0 -58 -39.5 -95.5t-98.5 -37.5q-58 0 -97.5 37.5t-39.5 95.5z" />
    <glyph glyph-name="Eogonek" unicode="&#x118;" horiz-adv-x="1226" 
d="M829 -483q-83 0 -148 56t-65 153q0 90 73.5 164.5t201.5 109.5h-856v4l158 111q15 10 18.5 18t3.5 27v1120q0 19 -3.5 27t-18.5 18l-158 111v4h1071v-467h-4l-215 393q-11 22 -23 28.5t-35 6.5h-297q-20 0 -26 -7.5t-6 -35.5v-610h200q20 2 30.5 8t25.5 26l155 197h4
v-500h-4l-155 199q-16 20 -26.5 26.5t-31.5 6.5h-198v-629q0 -28 6 -35.5t26 -7.5h308q30 0 42.5 5t22.5 22l215 401h4v-467h-217q-147 -72 -147 -217q0 -75 42.5 -116.5t108.5 -41.5q40 0 83.5 21t70.5 61l4 -2q-72 -188 -240 -188z" />
    <glyph glyph-name="eogonek" unicode="&#x119;" horiz-adv-x="995" 
d="M539 -483q-85 0 -149 56t-64 153q0 86 68 157.5t184 104.5q-40 -4 -64 -4q-92 0 -172.5 30.5t-145.5 91t-103 160.5t-38 228q0 112 27 202.5t72 149.5t106 99t127 57.5t137 17.5q81 0 152.5 -22t131.5 -67.5t95 -125t35 -184.5q0 -23 -2 -52h-617v-32q0 -196 82.5 -300
t212.5 -104q222 0 318 223h4q-57 -311 -315 -362q-71 -26 -111.5 -83.5t-40.5 -127.5q0 -75 42.5 -116.5t106.5 -41.5q41 0 84 21t72 61l4 -2q-72 -188 -239 -188zM520 987q-91 0 -142.5 -96.5t-58.5 -284.5h367q2 16 2 39q0 174 -41.5 258t-126.5 84z" />
    <glyph glyph-name="Ecaron" unicode="&#x11a;" horiz-adv-x="1226" 
d="M641 1731l309 147l2 -2l-309 -356h-4l-309 356l2 2zM1124 0h-1089v4l158 111q15 10 18.5 18t3.5 27v1120q0 19 -3.5 27t-18.5 18l-158 111v4h1071v-467h-4l-215 393q-11 22 -23 28.5t-35 6.5h-297q-20 0 -26 -7.5t-6 -35.5v-610h200q20 2 30.5 8t25.5 26l155 197h4v-500
h-4l-155 199q-16 20 -26.5 26.5t-31.5 6.5h-198v-629q0 -28 6 -35.5t26 -7.5h308q30 0 42.5 5t22.5 22l215 401h4v-467z" />
    <glyph glyph-name="ecaron" unicode="&#x11b;" horiz-adv-x="995" 
d="M526 1298l310 148l2 -2l-310 -357h-4l-309 357l2 2zM934 569h-615v-32q0 -196 82.5 -300t212.5 -104q222 0 318 223h4q-35 -186 -143 -279t-279 -93q-92 0 -172.5 30.5t-145.5 91t-103 160.5t-38 228q0 112 27 202.5t72 149.5t106 99t127 57.5t137 17.5q81 0 152.5 -22
t131.5 -67.5t95 -125t35 -184.5q0 -20 -4 -52zM520 987q-91 0 -142.5 -96.5t-58.5 -284.5h367q2 16 2 39q0 174 -41.5 258t-126.5 84z" />
    <glyph glyph-name="Gcircumflex" unicode="&#x11c;" horiz-adv-x="1363" 
d="M1042 1536l-2 -4l-309 147l-309 -147l-2 4l309 354h4zM700 -20q-207 0 -351.5 92.5t-215 256.5t-70.5 388q0 221 79 387.5t234.5 261t368.5 94.5q231 0 429 -45v-465h-5l-256 432q-13 24 -23 32t-36 9q-29 2 -72 2q-107 0 -183.5 -49.5t-121.5 -144t-65.5 -218
t-20.5 -284.5q0 -364 85 -537.5t265 -173.5q66 0 136 25q24 9 24 39v385q0 24 -3 31.5t-17 19.5l-140 115v4h607v-4l-140 -113q-15 -12 -18.5 -20t-3.5 -33v-487l-248 47q-122 -47 -238 -47z" />
    <glyph glyph-name="gcircumflex" unicode="&#x11d;" horiz-adv-x="1026" 
d="M811 1102l-2 -4l-309 147l-310 -147l-2 4l310 354h4zM82 686q0 108 55.5 185t145.5 113t204 36q152 0 254 -62q13 -8 20 -6t19 15l205 247h4v-309h-190q110 -88 110 -229q0 -105 -57 -179t-149 -108.5t-209 -34.5q-74 0 -138 15q-96 -27 -96 -95q0 -43 49 -68.5
t142 -25.5h176q177 0 271.5 -72t94.5 -208q0 -117 -72.5 -205.5t-191 -133t-262.5 -44.5q-79 0 -152 14t-133.5 41t-96.5 71.5t-36 100.5q0 73 60 127.5t178 77.5q-92 20 -142.5 74t-50.5 127q0 79 62.5 140t171.5 87q-113 32 -179.5 110t-66.5 199zM360 -59l-51 4
q-104 -52 -104 -160t94 -168.5t223 -60.5q80 0 147 23t111.5 73t44.5 119q0 74 -53 115.5t-174 45.5zM338 688q0 -301 158 -301q157 0 157 301t-157 301q-158 0 -158 -301z" />
    <glyph glyph-name="Gbreve" unicode="&#x11e;" horiz-adv-x="1363" 
d="M700 -20q-207 0 -351.5 92.5t-215 256.5t-70.5 388q0 221 79 387.5t234.5 261t368.5 94.5q231 0 429 -45v-465h-5l-256 432q-13 24 -23 32t-36 9q-29 2 -72 2q-107 0 -183.5 -49.5t-121.5 -144t-65.5 -218t-20.5 -284.5q0 -364 85 -537.5t265 -173.5q66 0 136 25
q24 9 24 39v385q0 24 -3 31.5t-17 19.5l-140 115v4h607v-4l-140 -113q-15 -12 -18.5 -20t-3.5 -33v-487l-248 47q-122 -47 -238 -47zM979 1798q0 -127 -75 -191.5t-181 -64.5q-49 0 -93 15t-80.5 44.5t-58.5 80t-22 116.5q0 41 8 82h4q4 -93 71 -146t171 -53q105 0 172.5 53
t71.5 146h4q8 -41 8 -82z" />
    <glyph glyph-name="gbreve" unicode="&#x11f;" horiz-adv-x="1026" 
d="M82 686q0 108 55.5 185t145.5 113t204 36q152 0 254 -62q13 -8 20 -6t19 15l205 247h4v-309h-190q110 -88 110 -229q0 -105 -57 -179t-149 -108.5t-209 -34.5q-74 0 -138 15q-96 -27 -96 -95q0 -43 49 -68.5t142 -25.5h176q177 0 271.5 -72t94.5 -208
q0 -117 -72.5 -205.5t-191 -133t-262.5 -44.5q-79 0 -152 14t-133.5 41t-96.5 71.5t-36 100.5q0 73 60 127.5t178 77.5q-92 20 -142.5 74t-50.5 127q0 79 62.5 140t171.5 87q-113 32 -179.5 110t-66.5 199zM360 -59l-51 4q-104 -52 -104 -160t94 -168.5t223 -60.5
q80 0 147 23t111.5 73t44.5 119q0 74 -53 115.5t-174 45.5zM338 688q0 -301 158 -301q157 0 157 301t-157 301q-158 0 -158 -301zM748 1364q0 -127 -75 -191.5t-181 -64.5q-49 0 -93 15t-80.5 44.5t-58.5 80t-22 116.5q0 41 8 82h4q4 -93 71 -146t171 -53q105 0 172 53
t71 146h4q9 -46 9 -82z" />
    <glyph glyph-name="Gdotaccent" unicode="&#x120;" horiz-adv-x="1363" 
d="M700 -20q-207 0 -351.5 92.5t-215 256.5t-70.5 388q0 221 79 387.5t234.5 261t368.5 94.5q231 0 429 -45v-465h-5l-256 432q-13 24 -23 32t-36 9q-29 2 -72 2q-107 0 -183.5 -49.5t-121.5 -144t-65.5 -218t-20.5 -284.5q0 -364 85 -537.5t265 -173.5q66 0 136 25
q24 9 24 39v385q0 24 -3 31.5t-17 19.5l-140 115v4h607v-4l-140 -113q-15 -12 -18.5 -20t-3.5 -33v-487l-248 47q-122 -47 -238 -47zM594 1702q0 59 39.5 97t97.5 38q59 0 98 -38t39 -97q0 -58 -39 -95.5t-98 -37.5q-58 0 -97.5 37.5t-39.5 95.5z" />
    <glyph glyph-name="gdotaccent" unicode="&#x121;" horiz-adv-x="1026" 
d="M82 686q0 108 55.5 185t145.5 113t204 36q152 0 254 -62q13 -8 20 -6t19 15l205 247h4v-309h-190q110 -88 110 -229q0 -105 -57 -179t-149 -108.5t-209 -34.5q-74 0 -138 15q-96 -27 -96 -95q0 -43 49 -68.5t142 -25.5h176q177 0 271.5 -72t94.5 -208
q0 -117 -72.5 -205.5t-191 -133t-262.5 -44.5q-79 0 -152 14t-133.5 41t-96.5 71.5t-36 100.5q0 73 60 127.5t178 77.5q-92 20 -142.5 74t-50.5 127q0 79 62.5 140t171.5 87q-113 32 -179.5 110t-66.5 199zM360 -59l-51 4q-104 -52 -104 -160t94 -168.5t223 -60.5
q80 0 147 23t111.5 73t44.5 119q0 74 -53 115.5t-174 45.5zM338 688q0 -301 158 -301q157 0 157 301t-157 301q-158 0 -158 -301zM362 1268q0 59 40 97t98 38q59 0 98 -38t39 -97q0 -58 -39 -95.5t-98 -37.5q-58 0 -98 37.5t-40 95.5z" />
    <glyph glyph-name="Gcommaaccent" unicode="&#x122;" horiz-adv-x="1363" 
d="M612 -502l-2 4q108 69 113 170q0 21 -18 21q-44 0 -71.5 33.5t-27.5 83.5t33.5 84t85.5 34q55 0 90 -39t35 -104q0 -96 -69 -178.5t-169 -108.5zM700 -20q-207 0 -351.5 92.5t-215 256.5t-70.5 388q0 221 79 387.5t234.5 261t368.5 94.5q231 0 429 -45v-465h-5l-256 432
q-13 24 -23 32t-36 9q-29 2 -72 2q-107 0 -183.5 -49.5t-121.5 -144t-65.5 -218t-20.5 -284.5q0 -364 85 -537.5t265 -173.5q66 0 136 25q24 9 24 39v385q0 24 -3 31.5t-17 19.5l-140 115v4h607v-4l-140 -113q-15 -12 -18.5 -20t-3.5 -33v-487l-248 47q-122 -47 -238 -47z
" />
    <glyph glyph-name="gcommaaccent" unicode="&#x123;" horiz-adv-x="1026" 
d="M82 686q0 108 55.5 185t145.5 113t204 36q152 0 254 -62q13 -8 20 -6t19 15l205 247h4v-309h-190q110 -88 110 -229q0 -105 -57 -179t-149 -108.5t-209 -34.5q-74 0 -138 15q-96 -27 -96 -95q0 -43 49 -68.5t142 -25.5h176q177 0 271.5 -72t94.5 -208
q0 -117 -72.5 -205.5t-191 -133t-262.5 -44.5q-79 0 -152 14t-133.5 41t-96.5 71.5t-36 100.5q0 73 60 127.5t178 77.5q-92 20 -142.5 74t-50.5 127q0 79 62.5 140t171.5 87q-113 32 -179.5 110t-66.5 199zM360 -59l-51 4q-104 -52 -104 -160t94 -168.5t223 -60.5
q80 0 147 23t111.5 73t44.5 119q0 74 -53 115.5t-174 45.5zM338 688q0 -301 158 -301q157 0 157 301t-157 301q-158 0 -158 -301zM625 1540l2 -4q-100 -64 -111 -170q-1 -11 3.5 -14.5t15.5 -5.5q45 -6 71.5 -37t26.5 -78q0 -52 -33.5 -86.5t-85.5 -34.5q-56 0 -91.5 39
t-35.5 104q0 97 69 178.5t169 108.5z" />
    <glyph glyph-name="Hcircumflex" unicode="&#x124;" horiz-adv-x="1550" 
d="M1085 1536l-2 -4l-309 147l-309 -147l-2 4l309 354h4zM1335 1280v-1120q0 -19 4 -27t21 -18l158 -111v-4h-648v4l158 111q14 11 18.5 19t4.5 26v559h-551v-559q0 -20 3.5 -27.5t20.5 -17.5l158 -111v-4h-647v4l158 111q15 10 18.5 18t3.5 27v1120q0 19 -3.5 27t-18.5 18
l-158 111v4h647v-4l-158 -111q-17 -12 -20.5 -19t-3.5 -26v-522h551v522q0 19 -4 27t-19 18l-158 111v4h648v-4l-158 -111q-17 -12 -21 -19t-4 -26z" />
    <glyph glyph-name="hcircumflex" unicode="&#x125;" horiz-adv-x="1171" 
d="M598 1536l-2 -4l-309 147l-310 -147l-2 4l310 354h4zM1024 137q0 -18 4.5 -26t18.5 -19l122 -88v-4h-544v4l116 88q23 18 23 43q0 3 3 180t3 230q0 171 -38.5 252.5t-129.5 81.5q-113 0 -186 -125v-617q0 -18 3.5 -25.5t18.5 -19.5l121 -88v-4h-543v4l121 88
q13 10 17 18.5t4 26.5v1163q0 20 -4 29t-17 19l-121 88v4l400 47v-717q75 250 313 250q299 0 299 -418q0 -137 -4 -465z" />
    <glyph glyph-name="Hbar" unicode="&#x126;" horiz-adv-x="1550" 
d="M215 975h-170v37h170v268q0 17 -0.5 22t-5.5 11.5t-16 13.5l-162 109v4h655v-4l-162 -109q-17 -10 -20.5 -18t-3.5 -29v-268h551v268q0 20 -4 28t-19 19l-164 109v4h658v-4l-162 -109q-17 -10 -21 -18t-4 -29v-268h170v-37h-170v-815q0 -21 4 -29t21 -18l162 -109v-4
h-658v4l164 109q15 11 19 19t4 28v456h-551v-456q0 -21 3.5 -29t20.5 -18l162 -109v-4h-655v4l162 109q15 10 18.5 18t3.5 29v815zM500 975v-318h551v318h-551z" />
    <glyph glyph-name="hbar" unicode="&#x127;" horiz-adv-x="1171" 
d="M1024 137q0 -18 4.5 -26t18.5 -19l122 -88v-4h-544v4l116 88q23 18 23 43q0 3 3 180t3 230q0 171 -38.5 252.5t-129.5 81.5q-113 0 -186 -125v-617q0 -18 3.5 -25.5t18.5 -19.5l121 -88v-4h-543v4l121 88q13 10 17 18.5t4 26.5v1018h-146v35h146v110q0 20 -4 29t-17 19
l-121 88v4l400 47v-297h276v-35h-276v-385q75 250 313 250q299 0 299 -418q0 -137 -4 -465z" />
    <glyph glyph-name="Itilde" unicode="&#x128;" horiz-adv-x="716" 
d="M500 1280v-1120q0 -20 3.5 -27.5t20.5 -17.5l158 -111v-4h-647v4l158 111q15 10 18.5 18t3.5 27v1120q0 19 -3.5 27t-18.5 18l-158 111v4h647v-4l-158 -111q-17 -12 -20.5 -19t-3.5 -26zM485 1585q-49 0 -142 48t-136 48q-88 0 -127 -98h-4q0 22 4 62q9 83 50.5 131.5
t107.5 48.5q49 0 141 -49.5t135 -49.5q91 0 129 99h4q0 -26 -4 -66q-9 -79 -51 -126.5t-107 -47.5z" />
    <glyph glyph-name="itilde" unicode="&#x129;" horiz-adv-x="608" 
d="M446 1004v-867q0 -13 1 -18.5t6 -12t16 -14.5l121 -88v-4h-543v4l121 88q14 10 17 18t3 27v713q0 20 -3.5 28.5t-16.5 18.5l-121 102v5h399zM414 1151q-49 0 -142.5 48t-136.5 48q-88 0 -127 -98h-4q0 21 4 61q9 83 50.5 132t107.5 49q49 0 141 -49.5t135 -49.5
q91 0 129 99h4q0 -26 -4 -66q-9 -79 -50.5 -126.5t-106.5 -47.5z" />
    <glyph glyph-name="Imacron" unicode="&#x12a;" horiz-adv-x="716" 
d="M500 1280v-1120q0 -20 3.5 -27.5t20.5 -17.5l158 -111v-4h-647v4l158 111q15 10 18.5 18t3.5 27v1120q0 19 -3.5 27t-18.5 18l-158 111v4h647v-4l-158 -111q-17 -12 -20.5 -19t-3.5 -26zM623 1647h-537v36h537v-36z" />
    <glyph glyph-name="imacron" unicode="&#x12b;" horiz-adv-x="608" 
d="M446 1004v-867q0 -13 1 -18.5t6 -12t16 -14.5l121 -88v-4h-543v4l121 88q14 10 17 18t3 27v713q0 20 -3.5 28.5t-16.5 18.5l-121 102v5h399zM549 1212h-537v37h537v-37z" />
    <glyph glyph-name="Ibreve" unicode="&#x12c;" horiz-adv-x="716" 
d="M500 1280v-1120q0 -20 3.5 -27.5t20.5 -17.5l158 -111v-4h-647v4l158 111q15 10 18.5 18t3.5 27v1120q0 19 -3.5 27t-18.5 18l-158 111v4h647v-4l-158 -111q-17 -12 -20.5 -19t-3.5 -26zM606 1798q0 -127 -75 -191.5t-181 -64.5q-49 0 -93 15t-80.5 44.5t-58.5 80
t-22 116.5q0 41 8 82h5q4 -93 70.5 -146t170.5 -53q105 0 172.5 53t71.5 146h4q8 -41 8 -82z" />
    <glyph glyph-name="ibreve" unicode="&#x12d;" horiz-adv-x="608" 
d="M446 1004v-867q0 -13 1 -18.5t6 -12t16 -14.5l121 -88v-4h-543v4l121 88q14 10 17 18t3 27v713q0 20 -3.5 28.5t-16.5 18.5l-121 102v5h399zM535 1364q0 -127 -75 -191.5t-181 -64.5q-49 0 -93 15t-80.5 44.5t-58.5 80t-22 116.5q0 41 8 82h4q4 -93 71 -146t171 -53
q105 0 172 53t71 146h4q9 -46 9 -82z" />
    <glyph glyph-name="Iogonek" unicode="&#x12e;" horiz-adv-x="716" 
d="M356 -483q-83 0 -148 56t-65 153q0 92 72.5 168t196.5 106h-377v4l158 111q15 10 18.5 18t3.5 27v1120q0 19 -3.5 27t-18.5 18l-158 111v4h647v-4l-158 -111q-17 -12 -20.5 -19t-3.5 -26v-1120q0 -20 3.5 -27.5t20.5 -17.5l158 -111v-4h-250q-72 -32 -108.5 -88.5
t-36.5 -128.5q0 -75 42.5 -116.5t106.5 -41.5q41 0 84 21t72 61l4 -2q-72 -188 -240 -188z" />
    <glyph glyph-name="iogonek" unicode="&#x12f;" horiz-adv-x="608" 
d="M319 -483q-83 0 -148 56t-65 153q0 92 72.5 168t196.5 106h-330v4l121 88q13 10 16.5 18.5t3.5 26.5v713q0 21 -3.5 29t-16.5 18l-121 102v5h399v-867q0 -17 4 -25t19 -20l121 -88v-4h-193q-72 -32 -108.5 -88.5t-36.5 -128.5q0 -75 42.5 -116.5t106.5 -41.5q41 0 84 21
t72 61l4 -2q-72 -188 -240 -188zM305 1139q-59 0 -100 38.5t-41 96.5q0 62 40.5 101.5t100.5 39.5q61 0 102.5 -39.5t41.5 -101.5q0 -58 -41.5 -96.5t-102.5 -38.5z" />
    <glyph glyph-name="Idotaccent" unicode="&#x130;" horiz-adv-x="716" 
d="M500 1280v-1120q0 -20 3.5 -27.5t20.5 -17.5l158 -111v-4h-647v4l158 111q15 10 18.5 18t3.5 27v1120q0 19 -3.5 27t-18.5 18l-158 111v4h647v-4l-158 -111q-17 -12 -20.5 -19t-3.5 -26zM217 1702q0 59 39.5 97t97.5 38q59 0 98.5 -38t39.5 -97q0 -58 -39.5 -95.5
t-98.5 -37.5q-58 0 -97.5 37.5t-39.5 95.5z" />
    <glyph glyph-name="dotlessi" unicode="&#x131;" horiz-adv-x="608" 
d="M446 1004v-867q0 -13 1 -18.5t6 -12t16 -14.5l121 -88v-4h-543v4l121 88q14 10 17 18t3 27v713q0 20 -3.5 28.5t-16.5 18.5l-121 102v5h399z" />
    <glyph glyph-name="IJ" unicode="&#x132;" horiz-adv-x="1372" 
d="M500 1280v-1120q0 -20 3.5 -27.5t20.5 -17.5l158 -111v-4h-647v4l158 111q15 10 18.5 18t3.5 27v1120q0 19 -3.5 27t-18.5 18l-158 111v4h647v-4l-158 -111q-17 -12 -20.5 -19t-3.5 -26zM901 82v1198q0 18 -4.5 26t-19.5 19l-158 111v4h647v-4l-158 -111
q-17 -12 -20.5 -19t-3.5 -26v-1141q0 -253 -143 -401t-396 -170l-2 4q132 66 195 199.5t63 310.5z" />
    <glyph glyph-name="ij" unicode="&#x133;" horiz-adv-x="1167" 
d="M305 1139q-59 0 -100 38.5t-41 96.5q0 62 40.5 101.5t100.5 39.5q61 0 102.5 -39.5t41.5 -101.5q0 -58 -41.5 -96.5t-102.5 -38.5zM45 1004h399v-867q0 -17 4 -25t19 -20l121 -88v-4h-543v4l121 88q13 10 16.5 18.5t3.5 26.5v713q0 21 -3.5 29t-16.5 18l-121 102v5z
M639 1004h399v-947q0 -230 -113.5 -368t-330.5 -138q-10 0 -55 5v4q122 18 181.5 116.5t59.5 300.5v873q0 21 -3.5 29t-16.5 18l-121 102v5zM758 1274q0 62 40.5 101.5t100.5 39.5q61 0 101 -39.5t40 -101.5q0 -58 -40.5 -96.5t-100.5 -38.5q-59 0 -100 38.5t-41 96.5z" />
    <glyph glyph-name="Jcircumflex" unicode="&#x134;" horiz-adv-x="655" 
d="M641 1536l-2 -4l-309 147l-310 -147l-2 4l310 354h4zM186 82v1198q0 18 -4.5 26t-19.5 19l-158 111v4h647v-4l-157 -111q-17 -12 -21 -19t-4 -26v-1141q0 -253 -143 -401t-396 -170l-2 4q132 66 195 199.5t63 310.5z" />
    <glyph glyph-name="jcircumflex" unicode="&#x135;" horiz-adv-x="559" 
d="M-10 -449q-35 0 -60 5v4q122 18 182 116.5t60 300.5v873q0 20 -3.5 28t-16.5 19l-121 102v5h399v-947q0 -150 -47 -262.5t-147.5 -178t-245.5 -65.5zM592 1102l-2 -4l-309 147l-310 -147l-2 4l310 354h4z" />
    <glyph glyph-name="Kcommaaccent" unicode="&#x136;" horiz-adv-x="1382" 
d="M655 -502l-2 4q108 69 113 170q0 21 -18 21q-44 0 -71.5 33.5t-27.5 83.5t33.5 84t85.5 34q55 0 90 -39t35 -104q0 -96 -69 -178.5t-169 -108.5zM500 1280v-1120q0 -20 3.5 -27.5t20.5 -17.5l158 -111v-4h-647v4l158 111q15 10 18.5 18t3.5 27v1120q0 19 -3.5 27
t-18.5 18l-158 111v4h647v-4l-158 -111q-17 -12 -20.5 -19t-3.5 -26zM1038 1202l-301 -313l477 -701q29 -43 62 -69l133 -115v-4h-405l-486 713l483 508q16 20 14.5 28t-20.5 27l-166 160v4h580v-4l-276 -164q-3 -2 -8 -5q-52 -31 -80 -59q-4 -3 -7 -6z" />
    <glyph glyph-name="kcommaaccent" unicode="&#x137;" horiz-adv-x="1095" 
d="M487 -502l-2 4q108 69 113 170q0 21 -18 21q-44 0 -71.5 33.5t-27.5 83.5t33.5 84t85.5 34q55 0 90 -39t35 -104q0 -96 -69 -178.5t-169 -108.5zM969 143q17 -35 47 -59l102 -80v-4h-370l-248 496q-15 30 -43 30q-20 0 -41 -14v-375q0 -18 3.5 -25.5t18.5 -19.5l121 -88
v-4h-543v4l121 88q13 10 17 18.5t4 26.5v1163q0 20 -4 29t-17 19l-121 88v4l400 47v-957l368 279q20 14 2 35l-147 155v5h453v-5l-390 -292q-12 -9 -15 -16t3 -19z" />
    <glyph glyph-name="kgreenlandic" unicode="&#x138;" horiz-adv-x="1124" 
d="M1147 0h-371l-248 496q-15 30 -41 30q-22 0 -43 -14v-375q0 -17 4 -25t19 -20l121 -88v-4h-543v4l121 88q13 10 16.5 18.5t3.5 26.5v713q0 21 -3.5 29t-16.5 18l-121 102v5h399v-474l369 279q20 14 2 35l-147 155v5h452v-5l-389 -292q-12 -9 -15 -16t3 -19l278 -529
q17 -35 47 -59l103 -80v-4z" />
    <glyph glyph-name="Lacute" unicode="&#x139;" horiz-adv-x="1161" 
d="M401 1874h283v-4l-453 -334l-4 4zM1100 0h-1065v4l158 111q15 10 18.5 18t3.5 27v1120q0 19 -3.5 27t-18.5 18l-158 111v4h647v-4l-158 -111q-17 -12 -20.5 -19t-3.5 -26v-1198q0 -28 6 -35.5t26 -7.5h265q30 0 43 5t22 22l234 426h4v-492z" />
    <glyph glyph-name="lacute" unicode="&#x13a;" horiz-adv-x="575" 
d="M332 1874h282v-4l-452 -334l-4 4zM416 1487v-1350q0 -18 3.5 -25.5t18.5 -19.5l121 -88v-4h-543v4l121 88q13 10 17 18.5t4 26.5v1163q0 20 -4 29t-17 19l-121 88v4z" />
    <glyph glyph-name="Lcommaaccent" unicode="&#x13b;" horiz-adv-x="1161" 
d="M516 -502l-2 4q108 69 113 170q0 21 -19 21q-44 0 -71 33.5t-27 83.5t33.5 84t85.5 34q55 0 90 -39t35 -104q0 -96 -69 -178.5t-169 -108.5zM1100 0h-1065v4l158 111q15 10 18.5 18t3.5 27v1120q0 19 -3.5 27t-18.5 18l-158 111v4h647v-4l-158 -111q-17 -12 -20.5 -19
t-3.5 -26v-1198q0 -28 6 -35.5t26 -7.5h265q30 0 43 5t22 22l234 426h4v-492z" />
    <glyph glyph-name="lcommaaccent" unicode="&#x13c;" horiz-adv-x="575" 
d="M176 -502l-2 4q108 69 113 170q0 21 -19 21q-44 0 -71 33.5t-27 83.5t33.5 84t85.5 34q55 0 90 -39t35 -104q0 -96 -69 -178.5t-169 -108.5zM416 1487v-1350q0 -18 3.5 -25.5t18.5 -19.5l121 -88v-4h-543v4l121 88q13 10 17 18.5t4 26.5v1163q0 20 -4 29t-17 19l-121 88
v4z" />
    <glyph glyph-name="Lcaron" unicode="&#x13d;" horiz-adv-x="1157" 
d="M799 1044l18 396h209l-223 -396h-4zM1100 0h-1065v4l158 111q15 10 18.5 18t3.5 27v1120q0 19 -3.5 27t-18.5 18l-158 111v4h647v-4l-158 -111q-17 -12 -20.5 -19t-3.5 -26v-1198q0 -28 6 -35.5t26 -7.5h265q30 0 43 5t22 22l234 426h4v-492z" />
    <glyph glyph-name="lcaron" unicode="&#x13e;" horiz-adv-x="616" 
d="M524 1044l19 396h209l-224 -396h-4zM416 1487v-1350q0 -18 3.5 -25.5t18.5 -19.5l121 -88v-4h-543v4l121 88q13 10 17 18.5t4 26.5v1163q0 20 -4 29t-17 19l-121 88v4z" />
    <glyph glyph-name="Ldot" unicode="&#x13f;" horiz-adv-x="1171" 
d="M1102 0h-1065v4l158 111q15 10 18.5 18t3.5 27v1120q0 19 -3.5 27t-18.5 18l-158 111v4h647v-4l-158 -111q-17 -12 -20.5 -19t-3.5 -26v-1198q0 -27 6 -35t27 -8h264q30 0 43 5t22 22l234 426h4v-492zM739 791q0 59 40 97t98 38q59 0 98 -38t39 -97q0 -58 -39 -96
t-98 -38q-58 0 -98 38t-40 96z" />
    <glyph glyph-name="ldot" unicode="&#x140;" horiz-adv-x="784" 
d="M416 1487v-1350q0 -18 3.5 -25.5t18.5 -19.5l121 -88v-4h-543v4l121 88q13 10 17 18.5t4 26.5v1163q0 20 -4 29t-17 19l-121 88v4zM512 727q0 59 39.5 97t97.5 38q59 0 98 -38t39 -97q0 -58 -39 -95.5t-98 -37.5q-58 0 -97.5 37.5t-39.5 95.5z" />
    <glyph glyph-name="Lslash" unicode="&#x141;" horiz-adv-x="1173" 
d="M512 78q0 -26 7.5 -32.5t29.5 -6.5h260q30 0 43 5t22 22l234 426h4v-492h-1065v4l158 111q15 10 18.5 18t3.5 27v444l-164 -67l-14 32l178 74v637q0 19 -3.5 27t-18.5 18l-158 111v4h647v-4l-157 -111q-17 -12 -21 -19t-4 -26v-518l258 108l14 -34l-272 -115v-643z" />
    <glyph glyph-name="lslash" unicode="&#x142;" horiz-adv-x="634" 
d="M442 137q0 -17 4 -25t19 -20l121 -88v-4h-543v4l121 88q13 10 16.5 18.5t3.5 26.5v479l-192 -79l-15 32l207 86v645q0 21 -3.5 29.5t-16.5 18.5l-121 88v4l399 47v-723l222 92l14 -33l-236 -98v-588z" />
    <glyph glyph-name="Nacute" unicode="&#x143;" horiz-adv-x="1419" 
d="M762 1874h282v-4l-452 -334l-4 4zM37 1440h414l716 -1147v878q0 23 -4.5 34t-23.5 30l-201 201v4h500v-4l-199 -201q-20 -22 -25.5 -32t-5.5 -32v-1171h-190l-731 1167v-899q0 -24 4.5 -34t25.5 -29l201 -201v-4h-502v4l201 201q19 19 24 29.5t5 33.5v920q0 41 -23 67
l-186 181v4z" />
    <glyph glyph-name="nacute" unicode="&#x144;" horiz-adv-x="1202" 
d="M653 1440h283v-4l-453 -334l-4 4zM799 545q0 171 -38.5 252.5t-129.5 81.5q-114 0 -187 -125v-617q0 -17 4 -25t19 -20l121 -88v-4h-543v4l121 88q13 10 16.5 18.5t3.5 26.5v713q0 21 -3.5 29t-16.5 18l-121 102v5h399v-234q75 250 314 250q299 0 299 -418
q0 -137 -4 -465q0 -18 4 -26t18 -19l121 -88v-4h-543v4l115 88q25 18 25 43q0 3 3 180t3 230z" />
    <glyph glyph-name="Ncommaaccent" unicode="&#x145;" horiz-adv-x="1419" 
d="M608 -502l-2 4q108 69 113 170q0 21 -19 21q-44 0 -71 33.5t-27 83.5t33.5 84t85.5 34q55 0 90 -39t35 -104q0 -96 -69 -178.5t-169 -108.5zM37 1440h414l716 -1147v878q0 23 -4.5 34t-23.5 30l-201 201v4h500v-4l-199 -201q-20 -22 -25.5 -32t-5.5 -32v-1171h-190
l-731 1167v-899q0 -24 4.5 -34t25.5 -29l201 -201v-4h-502v4l201 201q19 19 24 29.5t5 33.5v920q0 41 -23 67l-186 181v4z" />
    <glyph glyph-name="ncommaaccent" unicode="&#x146;" horiz-adv-x="1202" 
d="M510 -502l-2 4q108 69 113 170q0 21 -19 21q-44 0 -71 33.5t-27 83.5t33.5 84t85.5 34q55 0 90 -39t35 -104q0 -96 -69 -178.5t-169 -108.5zM799 545q0 171 -38.5 252.5t-129.5 81.5q-114 0 -187 -125v-617q0 -17 4 -25t19 -20l121 -88v-4h-543v4l121 88q13 10 16.5 18.5
t3.5 26.5v713q0 21 -3.5 29t-16.5 18l-121 102v5h399v-234q75 250 314 250q299 0 299 -418q0 -137 -4 -465q0 -18 4 -26t18 -19l121 -88v-4h-543v4l115 88q25 18 25 43q0 3 3 180t3 230z" />
    <glyph glyph-name="Ncaron" unicode="&#x147;" horiz-adv-x="1419" 
d="M717 1731l309 147l2 -2l-309 -356h-4l-309 356l2 2zM37 1440h414l716 -1147v878q0 23 -4.5 34t-23.5 30l-201 201v4h500v-4l-199 -201q-20 -22 -25.5 -32t-5.5 -32v-1171h-190l-731 1167v-899q0 -24 4.5 -34t25.5 -29l201 -201v-4h-502v4l201 201q19 19 24 29.5t5 33.5
v920q0 41 -23 67l-186 181v4z" />
    <glyph glyph-name="ncaron" unicode="&#x148;" horiz-adv-x="1202" 
d="M608 1298l310 148l2 -2l-310 -357h-4l-309 357l2 2zM799 545q0 171 -38.5 252.5t-129.5 81.5q-114 0 -187 -125v-617q0 -17 4 -25t19 -20l121 -88v-4h-543v4l121 88q13 10 16.5 18.5t3.5 26.5v713q0 21 -3.5 29t-16.5 18l-121 102v5h399v-234q75 250 314 250
q299 0 299 -418q0 -137 -4 -465q0 -18 4 -26t18 -19l121 -88v-4h-543v4l115 88q25 18 25 43q0 3 3 180t3 230z" />
    <glyph glyph-name="napostrophe" unicode="&#x149;" horiz-adv-x="1290" 
d="M-55 983l-2 4q107 68 112 170q0 21 -18 21q-44 0 -71 33t-27 83t33 84.5t85 34.5q55 0 90 -39t35 -104q0 -96 -68.5 -178.5t-168.5 -108.5zM887 545q0 171 -38.5 252.5t-129.5 81.5q-114 0 -187 -125v-617q0 -17 4 -25t19 -20l121 -88v-4h-543v4l121 88q13 10 16.5 18.5
t3.5 26.5v713q0 21 -3.5 29t-16.5 18l-121 102v5h399v-234q75 250 314 250q299 0 299 -418q0 -137 -4 -465q0 -18 4 -26t18 -19l121 -88v-4h-543v4l115 88q25 18 25 43q0 3 3 180t3 230z" />
    <glyph glyph-name="Eng" unicode="&#x14a;" horiz-adv-x="1353" 
d="M1251 1038v-923q0 -253 -136 -395t-370 -142v4q119 27 177.5 131.5t58.5 272.5v1009q0 166 -67 244t-181 78q-65 0 -133 -36.5t-100 -90.5v-1030q0 -20 3.5 -27.5t20.5 -17.5l158 -111v-4h-647v4l158 111q15 10 18.5 18t3.5 27v1120q0 19 -3.5 27t-18.5 18l-158 111v4
h465v-234q37 119 136.5 185.5t223.5 66.5q111 0 198 -45t140 -141.5t53 -233.5z" />
    <glyph glyph-name="eng" unicode="&#x14b;" horiz-adv-x="1171" 
d="M799 -37v582q0 171 -38.5 252.5t-129.5 81.5q-114 0 -187 -125v-617q0 -17 4 -25t19 -20l121 -88v-4h-543v4l121 88q13 10 16.5 18.5t3.5 26.5v713q0 21 -3.5 29t-16.5 18l-121 102v5h399v-234q75 250 314 250q299 0 299 -418v-510q0 -253 -133.5 -394.5t-366.5 -141.5v4
q120 27 181 131.5t61 271.5z" />
    <glyph glyph-name="Omacron" unicode="&#x14c;" horiz-adv-x="1449" 
d="M987 1647h-536v36h536v-36zM727 14q76 0 135.5 39t105 121t69.5 220.5t24 326.5t-24 326t-69.5 219.5t-105 120t-135.5 38.5q-336 0 -336 -704t336 -707zM727 1460q313 0 485 -193t172 -546q0 -354 -172 -547.5t-485 -193.5q-314 0 -487.5 193.5t-173.5 547.5
q0 353 173.5 546t487.5 193z" />
    <glyph glyph-name="omacron" unicode="&#x14d;" horiz-adv-x="1097" 
d="M811 1212h-537v37h537v-37zM549 987q-48 0 -83.5 -23t-63 -77t-41 -149.5t-13.5 -233.5q0 -182 25.5 -292.5t68 -153t107.5 -42.5t108 42t69 152t26 292q0 137 -14 233t-41.5 150.5t-63.5 78t-84 23.5zM549 -16q-227 0 -360.5 135.5t-133.5 384.5q0 247 133.5 381.5
t360.5 134.5q229 0 361 -134t132 -384q0 -248 -132.5 -383t-360.5 -135z" />
    <glyph glyph-name="Obreve" unicode="&#x14e;" horiz-adv-x="1449" 
d="M727 14q76 0 135.5 39t105 121t69.5 220.5t24 326.5t-24 326t-69.5 219.5t-105 120t-135.5 38.5q-336 0 -336 -704t336 -707zM727 1460q313 0 485 -193t172 -546q0 -354 -172 -547.5t-485 -193.5q-314 0 -487.5 193.5t-173.5 547.5q0 353 173.5 546t487.5 193zM971 1798
q0 -127 -75 -191.5t-181 -64.5q-49 0 -93 15t-80.5 44.5t-58.5 80t-22 116.5q0 41 8 82h4q4 -93 71 -146t171 -53q105 0 172 53t71 146h5q8 -41 8 -82z" />
    <glyph glyph-name="obreve" unicode="&#x14f;" horiz-adv-x="1097" 
d="M549 987q-48 0 -83.5 -23t-63 -77t-41 -149.5t-13.5 -233.5q0 -182 25.5 -292.5t68 -153t107.5 -42.5t108 42t69 152t26 292q0 137 -14 233t-41.5 150.5t-63.5 78t-84 23.5zM549 -16q-227 0 -360.5 135.5t-133.5 384.5q0 247 133.5 381.5t360.5 134.5q229 0 361 -134
t132 -384q0 -248 -132.5 -383t-360.5 -135zM795 1364q0 -127 -75 -191.5t-181 -64.5q-49 0 -93 15t-80.5 44.5t-58.5 80t-22 116.5q0 41 8 82h4q4 -93 71 -146t171 -53q105 0 172 53t71 146h4q9 -46 9 -82z" />
    <glyph glyph-name="Ohungarumlaut" unicode="&#x150;" horiz-adv-x="1449" 
d="M631 1874h235v-4l-356 -348h-4zM940 1874h234v-4l-355 -348h-4zM727 14q76 0 135.5 39t105 121t69.5 220.5t24 326.5t-24 326t-69.5 219.5t-105 120t-135.5 38.5q-336 0 -336 -704t336 -707zM727 1460q313 0 485 -193t172 -546q0 -354 -172 -547.5t-485 -193.5
q-314 0 -487.5 193.5t-173.5 547.5q0 353 173.5 546t487.5 193z" />
    <glyph glyph-name="ohungarumlaut" unicode="&#x151;" horiz-adv-x="1097" 
d="M455 1440h235v-4l-356 -349h-4zM764 1440h233v-4l-354 -349h-4zM549 987q-48 0 -83.5 -23t-63 -77t-41 -149.5t-13.5 -233.5q0 -182 25.5 -292.5t68 -153t107.5 -42.5t108 42t69 152t26 292q0 137 -14 233t-41.5 150.5t-63.5 78t-84 23.5zM549 -16q-227 0 -360.5 135.5
t-133.5 384.5q0 247 133.5 381.5t360.5 134.5q229 0 361 -134t132 -384q0 -248 -132.5 -383t-360.5 -135z" />
    <glyph glyph-name="OE" unicode="&#x152;" horiz-adv-x="1996" 
d="M1679 477l-141 197q-15 22 -25 27.5t-32 5.5h-213v-623q0 -31 8.5 -38t46.5 -7h285q30 0 43 5t22 22l215 387h6v-453h-864q-126 -20 -258 -20q-234 0 -394 91.5t-236 255.5t-76 394q0 341 182.5 540t505.5 199q156 0 268 -20h842v-453h-4l-218 379q-13 22 -24.5 28.5
t-34.5 6.5h-283q-20 0 -26 -7.5t-6 -35.5v-615h215q21 2 30.5 8t24.5 27l141 197h4v-498h-4zM983 147v1137q0 56 -33 80q-47 34 -91 47.5t-105 13.5q-363 0 -363 -702q0 -355 91.5 -532t289.5 -177q54 0 104 21t76 43q31 28 31 69z" />
    <glyph glyph-name="oe" unicode="&#x153;" horiz-adv-x="1710" 
d="M549 -16q-227 0 -360.5 135.5t-133.5 384.5q0 247 133.5 381.5t360.5 134.5q113 0 206.5 -40t151.5 -114q59 76 148.5 115t185.5 39q80 0 151 -22t131 -67.5t95 -125t35 -184.5q0 -29 -2 -52h-617v-55q0 -184 84 -282.5t211 -98.5q221 0 320 223h4q-35 -186 -143.5 -279
t-280.5 -93q-96 0 -183.5 38.5t-142.5 112.5q-58 -73 -150.5 -112t-203.5 -39zM549 987q-48 0 -83.5 -23t-63 -77t-41 -149.5t-13.5 -233.5q0 -182 25.5 -292t68 -152t107.5 -42t108 41.5t69 151t26 291.5q0 137 -14 233t-41.5 150.5t-63.5 78t-84 23.5zM1036 606h367v6
q0 199 -40 287t-126 88q-186 0 -201 -381z" />
    <glyph glyph-name="Racute" unicode="&#x154;" horiz-adv-x="1359" 
d="M688 1874h283v-4l-453 -334l-4 4zM588 662h-88v-504q0 -20 3.5 -27.5t20.5 -17.5l162 -109v-4h-651v4l158 111q15 10 18.5 18t3.5 27v1120q0 19 -3.5 27t-18.5 18l-158 111v4h696q80 0 149.5 -13.5t130 -43.5t103.5 -74t67.5 -108t24.5 -142q0 -146 -103 -246.5
t-282 -128.5v-4l152 -80l252 -434q22 -40 61 -76l98 -86v-4h-393l-350 631q-18 31 -53 31zM500 1360v-660h102q137 0 216 81.5t79 260.5q0 193 -72.5 276t-206.5 83h-79q-23 0 -31 -8t-8 -33z" />
    <glyph glyph-name="racute" unicode="&#x155;" horiz-adv-x="843" 
d="M502 1440h282v-4l-452 -334l-4 4zM444 692v-538q0 -19 5 -28.5t24 -19.5l211 -102v-4h-639v4l121 88q13 10 16.5 18.5t3.5 26.5v713q0 21 -3.5 29t-16.5 18l-121 102v5h399v-289q12 56 36.5 108t60.5 97.5t88 72.5t112 27q70 0 119 -43l-108 -311h-4l-130 211
q-10 12 -26 6q-11 -5 -21.5 -12t-18.5 -13t-17.5 -16.5t-15 -17t-14.5 -20.5t-13 -20t-13 -23t-11.5 -22l-12 -24z" />
    <glyph glyph-name="Rcommaaccent" unicode="&#x156;" horiz-adv-x="1359" 
d="M637 -502l-2 4q108 69 113 170q0 21 -19 21q-44 0 -71 33.5t-27 83.5t33.5 84t85.5 34q55 0 89.5 -39t34.5 -104q0 -96 -68.5 -178.5t-168.5 -108.5zM588 662h-88v-504q0 -20 3.5 -27.5t20.5 -17.5l162 -109v-4h-651v4l158 111q15 10 18.5 18t3.5 27v1120q0 19 -3.5 27
t-18.5 18l-158 111v4h696q80 0 149.5 -13.5t130 -43.5t103.5 -74t67.5 -108t24.5 -142q0 -146 -103 -246.5t-282 -128.5v-4l152 -80l252 -434q22 -40 61 -76l98 -86v-4h-393l-350 631q-18 31 -53 31zM500 1360v-660h102q137 0 216 81.5t79 260.5q0 193 -72.5 276t-206.5 83
h-79q-23 0 -31 -8t-8 -33z" />
    <glyph glyph-name="rcommaaccent" unicode="&#x157;" horiz-adv-x="843" 
d="M203 -502l-2 4q107 68 112 170q0 21 -18 21q-44 0 -71 33.5t-27 83.5t33 84t85 34q55 0 90 -39t35 -104q0 -96 -68.5 -178.5t-168.5 -108.5zM444 692v-538q0 -19 5 -28.5t24 -19.5l211 -102v-4h-639v4l121 88q13 10 16.5 18.5t3.5 26.5v713q0 21 -3.5 29t-16.5 18
l-121 102v5h399v-289q12 56 36.5 108t60.5 97.5t88 72.5t112 27q70 0 119 -43l-108 -311h-4l-130 211q-10 12 -26 6q-11 -5 -21.5 -12t-18.5 -13t-17.5 -16.5t-15 -17t-14.5 -20.5t-13 -20t-13 -23t-11.5 -22l-12 -24z" />
    <glyph glyph-name="Rcaron" unicode="&#x158;" horiz-adv-x="1359" 
d="M645 1731l309 147l2 -2l-309 -356h-4l-309 356l2 2zM588 662h-88v-504q0 -20 3.5 -27.5t20.5 -17.5l162 -109v-4h-651v4l158 111q15 10 18.5 18t3.5 27v1120q0 19 -3.5 27t-18.5 18l-158 111v4h696q80 0 149.5 -13.5t130 -43.5t103.5 -74t67.5 -108t24.5 -142
q0 -146 -103 -246.5t-282 -128.5v-4l152 -80l252 -434q22 -40 61 -76l98 -86v-4h-393l-350 631q-18 31 -53 31zM500 1360v-660h102q137 0 216 81.5t79 260.5q0 193 -72.5 276t-206.5 83h-79q-23 0 -31 -8t-8 -33z" />
    <glyph glyph-name="rcaron" unicode="&#x159;" horiz-adv-x="843" 
d="M457 1298l309 148l2 -2l-309 -357h-4l-310 357l2 2zM444 692v-538q0 -19 5 -28.5t24 -19.5l211 -102v-4h-639v4l121 88q13 10 16.5 18.5t3.5 26.5v713q0 21 -3.5 29t-16.5 18l-121 102v5h399v-289q12 56 36.5 108t60.5 97.5t88 72.5t112 27q70 0 119 -43l-108 -311h-4
l-130 211q-10 12 -26 6q-11 -5 -21.5 -12t-18.5 -13t-17.5 -16.5t-15 -17t-14.5 -20.5t-13 -20t-13 -23t-11.5 -22l-12 -24z" />
    <glyph glyph-name="Sacute" unicode="&#x15a;" horiz-adv-x="1101" 
d="M596 1874h283v-4l-453 -334l-4 4zM520 -20q-210 0 -397 55v457h4l223 -433q11 -20 19 -26.5t26 -9.5q79 -9 105 -9q137 0 223 66t86 194q0 99 -63 161.5t-207 131.5l-125 60q-326 153 -326 426q0 182 133.5 294.5t349.5 112.5q182 0 371 -47v-440h-4l-231 413
q-18 35 -45 37q-25 2 -72 2q-125 0 -201 -69t-76 -189q0 -94 58.5 -154t171.5 -114l151 -72q85 -40 141 -74t108.5 -82.5t78 -110t25.5 -138.5q0 -193 -144.5 -317.5t-382.5 -124.5z" />
    <glyph glyph-name="sacute" unicode="&#x15b;" horiz-adv-x="888" 
d="M500 1440h282v-4l-452 -334l-4 4zM829 307q0 -154 -118 -238.5t-299 -84.5q-186 0 -349 63l99 299h4l137 -299q6 -12 12.5 -16.5t24.5 -7.5q40 -7 70 -7q94 0 147 49.5t53 122.5q0 68 -44 106t-148 85l-131 59q-197 91 -197 281q0 136 107.5 218.5t269.5 82.5
q173 0 332 -51l-94 -279h-5l-143 266q-9 18 -22 24.5t-41 6.5h-25q-75 0 -125.5 -43t-50.5 -121q0 -65 43 -105t129 -77l135 -57q52 -22 88.5 -44.5t71 -55t52 -77t17.5 -100.5z" />
    <glyph glyph-name="Scircumflex" unicode="&#x15c;" horiz-adv-x="1101" 
d="M862 1536l-2 -4l-309 147l-309 -147l-2 4l309 354h4zM520 -20q-210 0 -397 55v457h4l223 -433q11 -20 19 -26.5t26 -9.5q79 -9 105 -9q137 0 223 66t86 194q0 99 -63 161.5t-207 131.5l-125 60q-326 153 -326 426q0 182 133.5 294.5t349.5 112.5q182 0 371 -47v-440h-4
l-231 413q-18 35 -45 37q-25 2 -72 2q-125 0 -201 -69t-76 -189q0 -94 58.5 -154t171.5 -114l151 -72q85 -40 141 -74t108.5 -82.5t78 -110t25.5 -138.5q0 -193 -144.5 -317.5t-382.5 -124.5z" />
    <glyph glyph-name="scircumflex" unicode="&#x15d;" horiz-adv-x="888" 
d="M768 1102l-2 -4l-309 147l-310 -147l-2 4l310 354h4zM829 307q0 -154 -118 -238.5t-299 -84.5q-186 0 -349 63l99 299h4l137 -299q6 -12 12.5 -16.5t24.5 -7.5q40 -7 70 -7q94 0 147 49.5t53 122.5q0 68 -44 106t-148 85l-131 59q-197 91 -197 281q0 136 107.5 218.5
t269.5 82.5q173 0 332 -51l-94 -279h-5l-143 266q-9 18 -22 24.5t-41 6.5h-25q-75 0 -125.5 -43t-50.5 -121q0 -65 43 -105t129 -77l135 -57q52 -22 88.5 -44.5t71 -55t52 -77t17.5 -100.5z" />
    <glyph glyph-name="Scedilla" unicode="&#x15e;" horiz-adv-x="1101" 
d="M549 -483q-97 0 -164.5 52.5t-75.5 129.5l4 2q18 -55 65.5 -85t98.5 -30q57 0 95 31.5t38 85.5t-36 86.5t-93 34.5q-39 0 -80 -14l-2 4l136 166h-15q-210 0 -397 55v457h4l223 -433q11 -20 19 -26.5t26 -9.5q79 -9 105 -9q137 0 223 66t86 194q0 99 -63 161.5t-207 131.5
l-125 60q-326 153 -326 426q0 182 133.5 294.5t349.5 112.5q182 0 371 -47v-440h-4l-231 413q-18 35 -52 37q-25 2 -65 2q-125 0 -201 -69t-76 -189q0 -94 58.5 -154t171.5 -114l151 -72q85 -40 141 -74t108.5 -82.5t78 -110t25.5 -138.5q0 -188 -137.5 -311.5
t-366.5 -130.5l-15 -107q103 21 177.5 -29t74.5 -135q0 -84 -62 -138t-169 -54z" />
    <glyph glyph-name="scedilla" unicode="&#x15f;" horiz-adv-x="888" 
d="M420 -483q-99 0 -166.5 52.5t-73.5 129.5l4 2q16 -55 64.5 -85t99.5 -30q56 0 94.5 31.5t38.5 85.5q0 56 -37.5 87.5t-97.5 31.5q-44 0 -76 -12l-2 4l131 170q-188 4 -336 63l99 299h4l137 -299q6 -12 12.5 -16.5t24.5 -7.5q40 -7 70 -7q94 0 147 49.5t53 122.5
q0 68 -44 106t-148 85l-131 59q-197 91 -197 281q0 136 107.5 218.5t269.5 82.5q173 0 332 -51l-94 -279h-5l-143 266q-9 18 -22 24.5t-41 6.5h-25q-75 0 -125.5 -43t-50.5 -121q0 -65 43 -105t129 -77l135 -57q52 -22 88.5 -44.5t71 -55t52 -77t17.5 -100.5
q0 -153 -117 -237t-298 -86l-17 -111q103 21 177.5 -29t74.5 -135q0 -84 -61.5 -138t-167.5 -54z" />
    <glyph glyph-name="Scaron" unicode="&#x160;" horiz-adv-x="1101" 
d="M551 1731l309 147l2 -2l-309 -356h-4l-309 356l2 2zM520 -20q-210 0 -397 55v457h4l223 -433q11 -20 19 -26.5t26 -9.5q79 -9 105 -9q137 0 223 66t86 194q0 99 -63 161.5t-207 131.5l-125 60q-326 153 -326 426q0 182 133.5 294.5t349.5 112.5q182 0 371 -47v-440h-4
l-231 413q-18 35 -45 37q-25 2 -72 2q-125 0 -201 -69t-76 -189q0 -94 58.5 -154t171.5 -114l151 -72q85 -40 141 -74t108.5 -82.5t78 -110t25.5 -138.5q0 -193 -144.5 -317.5t-382.5 -124.5z" />
    <glyph glyph-name="scaron" unicode="&#x161;" horiz-adv-x="888" 
d="M457 1298l309 148l2 -2l-309 -357h-4l-310 357l2 2zM829 307q0 -154 -118 -238.5t-299 -84.5q-186 0 -349 63l99 299h4l137 -299q6 -12 12.5 -16.5t24.5 -7.5q40 -7 70 -7q94 0 147 49.5t53 122.5q0 68 -44 106t-148 85l-131 59q-197 91 -197 281q0 136 107.5 218.5
t269.5 82.5q173 0 332 -51l-94 -279h-5l-143 266q-9 18 -22 24.5t-41 6.5h-25q-75 0 -125.5 -43t-50.5 -121q0 -65 43 -105t129 -77l135 -57q52 -22 88.5 -44.5t71 -55t52 -77t17.5 -100.5z" />
    <glyph glyph-name="Tcommaaccent" unicode="&#x162;" horiz-adv-x="1263" 
d="M514 -516l-2 4q108 69 113 170q0 20 -19 20q-44 0 -71 33.5t-27 83.5t33.5 84.5t85.5 34.5q55 0 90 -39t35 -104q0 -96 -69 -178.5t-169 -108.5zM774 166q0 -20 4 -27t19 -18l172 -117v-4h-674v4l170 117q16 11 20 18t4 27v1235h-180q-25 0 -34 -5.5t-19 -31.5l-213 -430
h-4v506h1184v-506h-4l-211 430q-11 24 -20.5 30.5t-33.5 6.5h-180v-1235z" />
    <glyph glyph-name="tcommaaccent" unicode="&#x163;" horiz-adv-x="659" 
d="M260 -502l-2 4q108 69 113 170q0 21 -19 21q-44 0 -71 33.5t-27 83.5t33.5 84t85.5 34q55 0 90 -39t35 -104q0 -96 -69 -178.5t-169 -108.5zM397 967v-707q0 -69 29.5 -107t83.5 -38q47 0 85 28.5t56 71.5l4 -2q-17 -98 -85 -163.5t-191 -65.5q-240 0 -240 254v729h-129
v37h105q22 0 32 4.5t23 21.5l223 311h4v-337h273v-37h-273z" />
    <glyph glyph-name="Tcaron" unicode="&#x164;" horiz-adv-x="1263" 
d="M631 1731l309 147l2 -2l-309 -356h-4l-310 356l3 2zM774 166q0 -20 4 -27t19 -18l172 -117v-4h-674v4l170 117q16 11 20 18t4 27v1235h-180q-25 0 -34 -5.5t-19 -31.5l-213 -430h-4v506h1184v-506h-4l-211 430q-11 24 -20.5 30.5t-33.5 6.5h-180v-1235z" />
    <glyph glyph-name="tcaron" unicode="&#x165;" horiz-adv-x="659" 
d="M487 1044l19 396h209l-223 -396h-5zM397 967v-707q0 -69 29.5 -107t83.5 -38q47 0 85 28.5t56 71.5l4 -2q-17 -98 -85 -163.5t-191 -65.5q-240 0 -240 254v729h-129v37h105q22 0 32 4.5t23 21.5l223 311h4v-337h273v-37h-273z" />
    <glyph glyph-name="Tbar" unicode="&#x166;" horiz-adv-x="1271" 
d="M1057 684h-279v-518q0 -20 4 -27t19 -18l172 -117v-4h-674v4l170 117q16 11 20.5 18.5t4.5 26.5v518h-279v37h279v680h-181q-25 0 -34 -5.5t-19 -31.5l-213 -430h-4v506h1184v-506h-4l-211 430q-11 24 -20.5 30.5t-33.5 6.5h-180v-680h279v-37z" />
    <glyph glyph-name="tbar" unicode="&#x167;" horiz-adv-x="681" 
d="M20 682v37h130v248h-130v37h105q22 0 32 4.5t23 21.5l223 311h5v-337h272v-37h-272v-248h272v-37h-272v-422q0 -69 29 -107t83 -38q47 0 85.5 29t56.5 71l4 -2q-17 -98 -85.5 -163.5t-191.5 -65.5q-239 0 -239 254v444h-130z" />
    <glyph glyph-name="Utilde" unicode="&#x168;" horiz-adv-x="1355" 
d="M700 -20q-276 0 -398 118t-122 353v825q0 19 -3.5 26t-20.5 19l-144 115v4h629v-4l-154 -115q-15 -10 -18.5 -18t-3.5 -27v-791q0 -440 330 -440q156 0 241.5 120t85.5 347v659q0 24 -4.5 35t-25.5 29l-199 201v4h498v-4l-199 -201q-19 -18 -24 -29.5t-5 -34.5v-657
q0 -534 -463 -534zM881 1585q-49 0 -142.5 48t-136.5 48q-88 0 -127 -98h-4q0 22 4 62q9 83 50.5 131.5t107.5 48.5q49 0 141 -49.5t135 -49.5q91 0 129 99h4q0 -26 -4 -66q-9 -79 -50.5 -126.5t-106.5 -47.5z" />
    <glyph glyph-name="utilde" unicode="&#x169;" horiz-adv-x="1157" 
d="M997 1004v-850q0 -20 4 -29t17 -19l121 -102v-4h-402v227q-85 -243 -303 -243q-143 0 -218 103.5t-75 311.5q0 123 4 451q0 21 -3.5 29t-16.5 20l-123 100v5h401q0 -3 -1 -127.5t-2 -258t-1 -157.5q0 -171 37 -253.5t125 -82.5q103 0 176 125v600q0 21 -3.5 29t-16.5 18
l-121 102v5h401zM674 1151q-49 0 -142.5 48t-136.5 48q-88 0 -127 -98h-4q0 21 4 61q9 83 50.5 132t107.5 49q49 0 141 -49.5t135 -49.5q91 0 129 99h5q0 -16 -5 -66q-9 -79 -50.5 -126.5t-106.5 -47.5z" />
    <glyph glyph-name="Umacron" unicode="&#x16a;" horiz-adv-x="1355" 
d="M700 -20q-276 0 -398 118t-122 353v825q0 19 -3.5 26t-20.5 19l-144 115v4h629v-4l-154 -115q-15 -10 -18.5 -18t-3.5 -27v-791q0 -440 330 -440q156 0 241.5 120t85.5 347v659q0 24 -4.5 35t-25.5 29l-199 201v4h498v-4l-199 -201q-19 -18 -24 -29.5t-5 -34.5v-657
q0 -534 -463 -534zM1018 1647h-537v36h537v-36z" />
    <glyph glyph-name="umacron" unicode="&#x16b;" horiz-adv-x="1157" 
d="M997 1004v-850q0 -20 4 -29t17 -19l121 -102v-4h-402v227q-85 -243 -303 -243q-143 0 -218 103.5t-75 311.5q0 123 4 451q0 21 -3.5 29t-16.5 20l-123 100v5h401q0 -3 -1 -127.5t-2 -258t-1 -157.5q0 -171 37 -253.5t125 -82.5q103 0 176 125v600q0 21 -3.5 29t-16.5 18
l-121 102v5h401zM811 1212h-537v37h537v-37z" />
    <glyph glyph-name="Ubreve" unicode="&#x16c;" horiz-adv-x="1355" 
d="M700 -20q-276 0 -398 118t-122 353v825q0 19 -3.5 26t-20.5 19l-144 115v4h629v-4l-154 -115q-15 -10 -18.5 -18t-3.5 -27v-791q0 -440 330 -440q156 0 241.5 120t85.5 347v659q0 24 -4.5 35t-25.5 29l-199 201v4h498v-4l-199 -201q-19 -18 -24 -29.5t-5 -34.5v-657
q0 -534 -463 -534zM1001 1798q0 -127 -75 -191.5t-181 -64.5q-104 0 -178.5 64.5t-74.5 191.5q0 41 8 82h4q4 -93 70.5 -146t170.5 -53q105 0 172.5 53t71.5 146h4q8 -41 8 -82z" />
    <glyph glyph-name="ubreve" unicode="&#x16d;" horiz-adv-x="1157" 
d="M997 1004v-850q0 -20 4 -29t17 -19l121 -102v-4h-402v227q-85 -243 -303 -243q-143 0 -218 103.5t-75 311.5q0 123 4 451q0 21 -3.5 29t-16.5 20l-123 100v5h401q0 -3 -1 -127.5t-2 -258t-1 -157.5q0 -171 37 -253.5t125 -82.5q103 0 176 125v600q0 21 -3.5 29t-16.5 18
l-121 102v5h401zM795 1364q0 -127 -75 -191.5t-181 -64.5q-49 0 -93 15t-80.5 44.5t-58.5 80t-22 116.5q0 41 8 82h4q4 -93 71 -146t171 -53q105 0 172 53t71 146h4q9 -46 9 -82z" />
    <glyph glyph-name="Uring" unicode="&#x16e;" horiz-adv-x="1355" 
d="M934 1716q0 -75 -52.5 -125.5t-127.5 -50.5q-73 0 -126 51.5t-53 124.5q0 75 52 126.5t127 51.5q76 0 128 -51t52 -127zM893 1716q0 60 -39.5 99.5t-99.5 39.5q-59 0 -98.5 -39.5t-39.5 -99.5q0 -57 40.5 -97t97.5 -40q60 0 99.5 39t39.5 98zM700 -20q-276 0 -398 118
t-122 353v825q0 19 -3.5 26t-20.5 19l-144 115v4h629v-4l-154 -115q-15 -10 -18.5 -18t-3.5 -27v-791q0 -440 330 -440q156 0 241.5 120t85.5 347v659q0 24 -4.5 35t-25.5 29l-199 201v4h498v-4l-199 -201q-19 -18 -24 -29.5t-5 -34.5v-657q0 -534 -463 -534z" />
    <glyph glyph-name="uring" unicode="&#x16f;" horiz-adv-x="1157" 
d="M727 1282q0 -75 -52.5 -125.5t-127.5 -50.5q-73 0 -125.5 51.5t-52.5 124.5q0 75 51.5 126.5t126.5 51.5q76 0 128 -51t52 -127zM686 1282q0 60 -39.5 99.5t-99.5 39.5q-59 0 -98 -39.5t-39 -99.5q0 -57 40 -97t97 -40q60 0 99.5 39t39.5 98zM997 1004v-850q0 -20 4 -29
t17 -19l121 -102v-4h-402v227q-85 -243 -303 -243q-143 0 -218 103.5t-75 311.5q0 123 4 451q0 21 -3.5 29t-16.5 20l-123 100v5h401q0 -3 -1 -127.5t-2 -258t-1 -157.5q0 -171 37 -253.5t125 -82.5q103 0 176 125v600q0 21 -3.5 29t-16.5 18l-121 102v5h401z" />
    <glyph glyph-name="Uhungarumlaut" unicode="&#x170;" horiz-adv-x="1355" 
d="M700 -20q-276 0 -398 118t-122 353v825q0 19 -3.5 26t-20.5 19l-144 115v4h629v-4l-154 -115q-15 -10 -18.5 -18t-3.5 -27v-791q0 -440 330 -440q156 0 241.5 120t85.5 347v659q0 24 -4.5 35t-25.5 29l-199 201v4h498v-4l-199 -201q-19 -18 -24 -29.5t-5 -34.5v-657
q0 -534 -463 -534zM662 1874h235v-4l-356 -348h-4zM971 1874h233v-4l-354 -348h-4z" />
    <glyph glyph-name="uhungarumlaut" unicode="&#x171;" horiz-adv-x="1157" 
d="M997 1004v-850q0 -20 4 -29t17 -19l121 -102v-4h-402v227q-85 -243 -303 -243q-143 0 -218 103.5t-75 311.5q0 123 4 451q0 21 -3.5 29t-16.5 20l-123 100v5h401q0 -3 -1 -127.5t-2 -258t-1 -157.5q0 -171 37 -253.5t125 -82.5q103 0 176 125v600q0 21 -3.5 29t-16.5 18
l-121 102v5h401zM455 1440h235v-4l-356 -349h-4zM764 1440h233v-4l-354 -349h-4z" />
    <glyph glyph-name="Uogonek" unicode="&#x172;" horiz-adv-x="1355" 
d="M666 -483q-84 0 -148.5 55.5t-64.5 151.5q0 83 61.5 151t167.5 105q-266 4 -384 121.5t-118 349.5v825q0 19 -3.5 26t-20.5 19l-144 115v4h629v-4l-154 -115q-15 -10 -18.5 -18t-3.5 -27v-791q0 -440 330 -440q156 0 241.5 120t85.5 347v659q0 24 -4.5 35t-25.5 29
l-199 201v4h498v-4l-199 -201q-19 -18 -24 -29.5t-5 -34.5v-657q0 -526 -450 -534q-117 -70 -117 -197q0 -75 42.5 -116.5t106.5 -41.5q41 0 84 21t72 61l4 -2q-72 -188 -239 -188z" />
    <glyph glyph-name="uogonek" unicode="&#x173;" horiz-adv-x="1157" 
d="M399 461q0 -171 37 -253.5t125 -82.5q103 0 176 125v600q0 21 -3.5 29t-16.5 18l-121 102v5h401v-850q0 -20 4 -29t17 -19l121 -102v-4h-375q-129 -57 -129 -217q0 -75 43 -116.5t108 -41.5q41 0 84 21t72 61l4 -2q-72 -188 -239 -188q-85 0 -150 56t-65 153
q0 92 68 169.5t177 104.5v227q-85 -243 -303 -243q-143 0 -218 103.5t-75 311.5q0 123 4 451q0 21 -3.5 29t-16.5 20l-123 100v5h401q0 -3 -1 -127.5t-2 -258t-1 -157.5z" />
    <glyph glyph-name="Wcircumflex" unicode="&#x174;" horiz-adv-x="2017" 
d="M1354 1536l-2 -4l-310 147l-309 -147l-2 4l309 354h4zM1491 0h-197l-288 907l-291 -907h-197l-407 1245q-15 45 -45 82l-86 109v4h552v-4l-122 -123q-19 -19 -9 -51l340 -1045l244 756l-86 272q-9 32 -41 80l-78 111v4h543v-4l-123 -123q-18 -18 -8 -49l326 -1041
l301 940q6 28 2 39t-25 35l-180 199v4h471v-4l-172 -191q-27 -29 -36 -42t-17 -42z" />
    <glyph glyph-name="wcircumflex" unicode="&#x175;" horiz-adv-x="1503" 
d="M1100 1102l-2 -4l-310 147l-309 -147l-2 4l309 354h5zM1540 999l-129 -184q-17 -25 -23.5 -37.5t-15.5 -38.5l-260 -739h-158l-213 596l-215 -596h-157l-293 821q-13 40 -35 80l-64 98v5h455v-5l-86 -102q-10 -12 -11 -21.5t5 -29.5l221 -637l160 442l-59 170
q-15 46 -35 80l-64 98v5h453v-5l-84 -102q-11 -15 -13 -22.5t5 -28.5l223 -635l186 532q9 25 7.5 37t-15.5 33l-119 186v5h334v-5z" />
    <glyph glyph-name="Ycircumflex" unicode="&#x176;" horiz-adv-x="1261" 
d="M782 569v-403q0 -20 4 -27.5t21 -17.5l170 -117v-4h-674v4l172 117q15 11 19 18t4 27v375q0 32 -15 57l-350 649q-16 31 -55 76l-105 113v4h602v-4l-126 -121q-12 -12 -14 -20t5 -23l322 -610l268 524q10 23 8.5 32t-14.5 23l-176 195v4h487v-4l-205 -191
q-40 -35 -63 -78l-268 -522q-17 -33 -17 -76zM1006 1536l-2 -4l-310 147l-309 -147l-2 4l309 354h4z" />
    <glyph glyph-name="ycircumflex" unicode="&#x177;" horiz-adv-x="929" 
d="M115 -483q-47 0 -92 20l73 332h4l156 -203q14 -20 27 -20q10 0 24 20q55 73 129 244l-368 940q-10 25 -37 70l-51 79v5h460v-5l-90 -100q-11 -12 -12 -21t6 -28l227 -606l195 495q9 25 8.5 35.5t-12.5 30.5l-123 194v5h332v-5l-123 -180q-27 -41 -45 -86l-307 -788
q-57 -144 -138 -271q-53 -83 -110 -120t-133 -37zM827 1102l-2 -4l-309 147l-309 -147l-2 4l309 354h4z" />
    <glyph glyph-name="Ydieresis" unicode="&#x178;" horiz-adv-x="1261" 
d="M782 569v-403q0 -20 4 -27.5t21 -17.5l170 -117v-4h-674v4l172 117q15 11 19 18t4 27v375q0 32 -15 57l-350 649q-16 31 -55 76l-105 113v4h602v-4l-126 -121q-12 -12 -14 -20t5 -23l322 -610l268 524q10 23 8.5 32t-14.5 23l-176 195v4h487v-4l-205 -191
q-40 -35 -63 -78l-268 -522q-17 -33 -17 -76zM387 1708q0 52 36 87.5t87 35.5q50 0 85.5 -35.5t35.5 -87.5q0 -49 -35.5 -84t-85.5 -35q-51 0 -87 35t-36 84zM756 1708q0 52 34 87.5t84 35.5q53 0 89 -35.5t36 -87.5q0 -50 -36.5 -84.5t-88.5 -34.5q-49 0 -83.5 34.5
t-34.5 84.5z" />
    <glyph glyph-name="Zacute" unicode="&#x179;" horiz-adv-x="1226" 
d="M674 1874h282v-4l-452 -334l-4 4zM1128 504v-504h-1101v4l817 1397h-418q-30 0 -42 -5t-22 -22l-243 -444h-4v510h1065v-4l-820 -1397h451q29 0 41.5 5t21.5 22l250 438h4z" />
    <glyph glyph-name="zacute" unicode="&#x17a;" horiz-adv-x="925" 
d="M528 1440h283v-4l-453 -334l-4 4zM635 68l225 342h6l-30 -410h-807v4l569 965h-248q-26 0 -33.5 -4.5t-21.5 -26.5l-211 -324h-6v390h815v-5l-563 -962h248q27 0 35 4.5t22 26.5z" />
    <glyph glyph-name="Zdotaccent" unicode="&#x17b;" horiz-adv-x="1226" 
d="M1128 504v-504h-1101v4l817 1397h-418q-30 0 -42 -5t-22 -22l-243 -444h-4v510h1065v-4l-820 -1397h451q29 0 41.5 5t21.5 22l250 438h4zM492 1702q0 59 39.5 97t97.5 38q59 0 98 -38t39 -97q0 -58 -39 -95.5t-98 -37.5q-58 0 -97.5 37.5t-39.5 95.5z" />
    <glyph glyph-name="zdotaccent" unicode="&#x17c;" horiz-adv-x="925" 
d="M635 68l225 342h6l-30 -410h-807v4l569 965h-248q-26 0 -33.5 -4.5t-21.5 -26.5l-211 -324h-6v390h815v-5l-563 -962h248q27 0 35 4.5t22 26.5zM346 1268q0 59 39.5 97t97.5 38q59 0 98.5 -38t39.5 -97q0 -58 -39.5 -95.5t-98.5 -37.5q-58 0 -97.5 37.5t-39.5 95.5z" />
    <glyph glyph-name="Zcaron" unicode="&#x17d;" horiz-adv-x="1226" 
d="M629 1731l309 147l2 -2l-309 -356h-4l-310 356l2 2zM1128 504v-504h-1101v4l817 1397h-418q-30 0 -42 -5t-22 -22l-243 -444h-4v510h1065v-4l-820 -1397h451q29 0 41.5 5t21.5 22l250 438h4z" />
    <glyph glyph-name="zcaron" unicode="&#x17e;" horiz-adv-x="925" 
d="M483 1298l310 148l2 -2l-310 -357h-4l-309 357l2 2zM635 68l225 342h6l-30 -410h-807v4l569 965h-248q-26 0 -33.5 -4.5t-21.5 -26.5l-211 -324h-6v390h815v-5l-563 -962h248q27 0 35 4.5t22 26.5z" />
    <glyph glyph-name="florin" unicode="&#x192;" horiz-adv-x="901" 
d="M115 598v37h192v407q0 221 89.5 319.5t269.5 98.5q146 0 288 -49l-114 -276h-4l-121 266q-7 18 -14 22t-29 4q-57 0 -82 -51t-25 -162v-579h221v-37h-221v-594q0 -253 -88 -370t-264 -117q-146 0 -295 49l115 276h4l119 -264q8 -19 16.5 -25t28.5 -6q24 0 42.5 6.5
t29.5 21.5t18.5 31.5t10.5 43t4 49t1 57.5v842h-192z" />
    <glyph glyph-name="uni01B5" unicode="&#x1b5;" horiz-adv-x="1226" 
d="M1057 709h-303l-394 -670h451q29 0 41.5 5t21.5 22l250 438h4v-504h-1101v4l411 705h-301v36h324l383 656h-418q-30 0 -42 -5t-22 -22l-243 -444h-4v510h1065v-4l-406 -691h283v-36z" />
    <glyph glyph-name="uni01B6" unicode="&#x1b6;" horiz-adv-x="931" 
d="M106 496v36h236l258 437h-248q-26 0 -33.5 -4.5t-21.5 -26.5l-211 -324h-6v390h815v-5l-272 -467h211v-36h-234l-268 -459h248q27 0 35 4.5t22 26.5l225 342h6l-30 -410h-807v4l288 492h-213z" />
    <glyph glyph-name="Aringacute" unicode="&#x1fa;" horiz-adv-x="1304" 
d="M612 2005h271v-4l-312 -199q-76 -52 -90 -71q58 53 137 53q75 0 128 -37t53 -100q0 -61 -52.5 -97.5t-125.5 -36.5q-71 0 -126 37.5t-55 96.5q0 32 25 77zM758 1649q0 47 -39.5 72.5t-97.5 25.5q-57 0 -98.5 -26.5t-41.5 -71.5t42 -72t98 -27q58 0 97.5 26t39.5 73z
M1178 195q15 -45 45 -82l86 -109v-4h-553v4l123 123q18 18 8 53l-107 324h-469l-78 -236q-6 -22 -3 -32t20 -29l186 -203v-4h-471v4l178 195q26 30 34.5 42.5t17.5 37.5l315 952q10 31 7.5 42t-21.5 32l-117 131v4h391zM549 1217l-225 -674h444z" />
    <glyph glyph-name="aringacute" unicode="&#x1fb;" horiz-adv-x="997" 
d="M477 1565h271v-4l-312 -199q-71 -42 -92 -72q58 53 139 53q74 0 127.5 -36.5t53.5 -98.5t-53.5 -98.5t-127.5 -36.5q-70 0 -124 37.5t-54 97.5q0 28 23 76zM623 1208q0 47 -41 73t-99 26q-57 0 -97 -27t-40 -72t41 -71.5t96 -26.5q58 0 99 25.5t41 72.5zM608 504l4 219v8
q0 117 -47 185.5t-141 68.5q-34 0 -43.5 -4t-18.5 -23l-143 -288h-4l-109 278q184 72 375 72q199 0 287 -84q96 -99 96 -330v-37l-12 -325q-3 -129 68 -129q45 0 61 49h4q3 -32 -14 -70q-22 -49 -67.5 -79.5t-108.5 -30.5q-81 0 -135.5 54t-55.5 155q-31 -97 -104.5 -153
t-171.5 -56q-114 0 -193.5 74t-79.5 202q0 97 50.5 168t126 104t161.5 33q134 0 215 -61zM508 506q-93 0 -146 -61.5t-53 -153.5q0 -81 40 -128.5t102 -47.5q44 0 84.5 25.5t68.5 70.5l4 278q-47 17 -100 17z" />
    <glyph glyph-name="AEacute" unicode="&#x1fc;" horiz-adv-x="1898" 
d="M1237 1878h283v-4l-453 -334l-4 4zM1370 748q20 1 30 7.5t25 26.5l158 197h4v-500h-4l-158 199q-16 20 -26 26.5t-29 6.5h-201v-629q0 -27 6.5 -35t28.5 -8h305q30 0 43 5t23 22l215 401h6v-467h-1091v4l157 111q16 11 20.5 19t4.5 26v342h-481l-136 -223
q-20 -34 -20 -47.5t20 -38.5l158 -189v-4h-481v4l188 176q9 9 25 23.5t22.5 21t16.5 18t18 23.5l590 967q17 30 16.5 39t-18.5 28l-133 136v4h1104v-467h-4l-216 393q-11 22 -22.5 28.5t-34.5 6.5h-295q-22 0 -28.5 -8t-6.5 -35v-610h201zM887 541v747l-457 -747h457z" />
    <glyph glyph-name="aeacute" unicode="&#x1fd;" horiz-adv-x="1548" 
d="M856 1440h283v-4l-453 -334l-4 4zM385 565q134 0 223 -61q0 7 2 111t2 112q0 119 -47.5 187.5t-142.5 68.5q-31 0 -42 -5t-18 -22l-143 -284h-4l-115 284q186 64 381 64q88 0 149 -18t111 -66l31 -39q123 123 305 123q81 0 152.5 -22t131.5 -67.5t95 -125t35 -184.5
q0 -32 -2 -52h-619v-34q0 -194 83.5 -298t213.5 -104q222 0 318 223h4q-35 -186 -143 -279t-279 -93q-125 0 -229.5 56.5t-165.5 166.5q-28 -95 -114 -159t-212 -64t-208.5 76t-82.5 208q0 71 30 129.5t78.5 94t105.5 54.5t116 19zM1073 987q-92 0 -144 -96t-59 -285h369
q3 201 -37.5 291t-128.5 90zM471 113q122 0 195 106q-58 113 -58 270q-56 17 -98 17q-95 0 -148 -59.5t-53 -149.5q0 -84 44 -134t118 -50z" />
    <glyph glyph-name="Oslashacute" unicode="&#x1fe;" horiz-adv-x="1449" 
d="M727 1460q168 0 293 -55l86 192l35 -16l-86 -192q161 -84 245 -253.5t84 -414.5q0 -354 -172 -547.5t-485 -193.5q-151 0 -272 47l-86 -195l-35 16l84 193q-171 78 -261.5 251.5t-90.5 428.5q0 353 173.5 546t487.5 193zM391 721q0 -361 90 -539l482 1092
q-86 151 -236 151q-336 0 -336 -704zM727 14q76 0 135.5 39t105 121t69.5 220.5t24 326.5q0 325 -76 508l-481 -1088q82 -127 223 -127zM809 1874h283v-4l-453 -334l-4 4z" />
    <glyph glyph-name="oslashacute" unicode="&#x1ff;" horiz-adv-x="1097" 
d="M852 1137l-72 -160q126 -54 195 -173t69 -302q0 -256 -132 -387t-363 -131q-104 0 -193 28l-80 -180l-36 18l77 177q-126 54 -194 173.5t-68 303.5q0 255 132 385.5t362 130.5q102 0 194 -29l72 160zM549 987q-67 0 -109.5 -41.5t-67 -150t-24.5 -291.5q0 -226 33 -332
l315 713q-48 102 -147 102zM750 502q0 205 -33 327l-316 -712q48 -99 148 -99q50 0 85.5 23.5t62.5 77.5t40 149.5t13 233.5zM592 1440h282v-4l-452 -334l-4 4z" />
    <glyph glyph-name="Scommaaccent" unicode="&#x218;" horiz-adv-x="1101" 
d="M432 -502l-2 4q108 69 113 170q0 21 -19 21q-44 0 -71 33.5t-27 83.5t33.5 84t85.5 34q55 0 90 -39t35 -104q0 -96 -69 -178.5t-169 -108.5zM520 -20q-210 0 -397 55v457h4l223 -433q11 -20 19 -26.5t26 -9.5q79 -9 105 -9q137 0 223 66t86 194q0 99 -63 161.5
t-207 131.5l-125 60q-326 153 -326 426q0 182 133.5 294.5t349.5 112.5q182 0 371 -47v-440h-4l-231 413q-18 35 -45 37q-25 2 -72 2q-125 0 -201 -69t-76 -189q0 -94 58.5 -154t171.5 -114l151 -72q85 -40 141 -74t108.5 -82.5t78 -110t25.5 -138.5q0 -193 -144.5 -317.5
t-382.5 -124.5z" />
    <glyph glyph-name="scommaaccent" unicode="&#x219;" horiz-adv-x="888" 
d="M340 -516l-2 4q108 69 113 170q0 20 -19 20q-44 0 -71 33.5t-27 83.5t33.5 84.5t85.5 34.5q55 0 90 -39t35 -104q0 -96 -69 -178.5t-169 -108.5zM829 307q0 -154 -118 -238.5t-299 -84.5q-186 0 -349 63l99 299h4l137 -299q6 -12 12.5 -16.5t24.5 -7.5q40 -7 70 -7
q94 0 147 49.5t53 122.5q0 68 -44 106t-148 85l-131 59q-197 91 -197 281q0 136 107.5 218.5t269.5 82.5q173 0 332 -51l-94 -279h-5l-143 266q-9 18 -22 24.5t-41 6.5h-25q-75 0 -125.5 -43t-50.5 -121q0 -65 43 -105t129 -77l135 -57q52 -22 88.5 -44.5t71 -55t52 -77
t17.5 -100.5z" />
    <glyph glyph-name="uni021A" unicode="&#x21a;" horiz-adv-x="1263" 
d="M514 -516l-2 4q108 69 113 170q0 20 -19 20q-44 0 -71 33.5t-27 83.5t33.5 84.5t85.5 34.5q55 0 90 -39t35 -104q0 -96 -69 -178.5t-169 -108.5zM774 166q0 -20 4 -27t19 -18l172 -117v-4h-674v4l170 117q16 11 20 18t4 27v1235h-180q-25 0 -34 -5.5t-19 -31.5l-213 -430
h-4v506h1184v-506h-4l-211 430q-11 24 -20.5 30.5t-33.5 6.5h-180v-1235z" />
    <glyph glyph-name="uni021B" unicode="&#x21b;" horiz-adv-x="659" 
d="M260 -502l-2 4q108 69 113 170q0 21 -19 21q-44 0 -71 33.5t-27 83.5t33.5 84t85.5 34q55 0 90 -39t35 -104q0 -96 -69 -178.5t-169 -108.5zM397 967v-707q0 -69 29.5 -107t83.5 -38q47 0 85 28.5t56 71.5l4 -2q-17 -98 -85 -163.5t-191 -65.5q-240 0 -240 254v729h-129
v37h105q22 0 32 4.5t23 21.5l223 311h4v-337h273v-37h-273z" />
    <glyph glyph-name="dotlessj" unicode="&#x237;" horiz-adv-x="557" 
d="M-10 -449q-35 0 -60 5v4q122 18 182 116.5t60 300.5v873q0 20 -3.5 28t-16.5 19l-121 102v5h399v-947q0 -150 -47 -262.5t-147.5 -178t-245.5 -65.5z" />
    <glyph glyph-name="circumflex" unicode="&#x2c6;" horiz-adv-x="827" 
d="M725 1102l-2 -4l-309 147l-310 -147l-2 4l310 354h4z" />
    <glyph glyph-name="caron" unicode="&#x2c7;" horiz-adv-x="827" 
d="M414 1309l309 147l2 -2l-309 -356h-4l-310 356l2 2z" />
    <glyph glyph-name="uni02C9" unicode="&#x2c9;" horiz-adv-x="761" 
d="M643 1212h-534v37h534v-37z" />
    <glyph glyph-name="breve" unicode="&#x2d8;" horiz-adv-x="714" 
d="M612 1364q0 -127 -75 -191.5t-181 -64.5q-49 0 -93 15t-80.5 44.5t-58.5 80t-22 116.5q0 36 9 82h4q4 -93 70.5 -146t170.5 -53q105 0 172.5 53t71.5 146h4q8 -41 8 -82z" />
    <glyph glyph-name="dotaccent" unicode="&#x2d9;" horiz-adv-x="479" 
d="M102 1268q0 59 40 97t98 38q59 0 98 -38t39 -97q0 -58 -39 -95.5t-98 -37.5q-58 0 -98 37.5t-40 95.5z" />
    <glyph glyph-name="ring" unicode="&#x2da;" horiz-adv-x="563" 
d="M461 1282q0 -75 -52.5 -125.5t-127.5 -50.5q-73 0 -126 51.5t-53 124.5q0 75 52 126.5t127 51.5q76 0 128 -51t52 -127zM420 1282q0 60 -39.5 99.5t-99.5 39.5q-59 0 -98.5 -39.5t-39.5 -99.5q0 -57 40.5 -97t97.5 -40q60 0 99.5 39t39.5 98z" />
    <glyph glyph-name="ogonek" unicode="&#x2db;" horiz-adv-x="657" 
d="M551 -293l4 -2q-72 -188 -240 -188q-83 0 -148 56t-65 153q0 91 77.5 166t209.5 110l4 -2q-147 -72 -147 -217q0 -75 42.5 -116.5t108.5 -41.5q40 0 83.5 21t70.5 61z" />
    <glyph glyph-name="tilde" unicode="&#x2dc;" horiz-adv-x="776" 
d="M512 1151q-49 0 -142.5 48t-136.5 48q-88 0 -127 -98h-4q0 21 4 61q9 83 50.5 132t107.5 49q49 0 141.5 -49.5t135.5 -49.5q91 0 129 99h4q0 -26 -4 -66q-9 -79 -51 -126.5t-107 -47.5z" />
    <glyph glyph-name="hungarumlaut" unicode="&#x2dd;" horiz-adv-x="872" 
d="M227 1440h236v-4l-357 -349h-4zM537 1440h233v-4l-354 -349h-4z" />
    <glyph glyph-name="uni0394" unicode="&#x394;" horiz-adv-x="1335" 
d="M61 0l480 1225q12 32 9 48.5t-26 41.5l-116 121v4h393l497 -1440h-1237zM989 39l-409 1171l-461 -1171h870z" />
    <glyph glyph-name="uni03A9" unicode="&#x3a9;" horiz-adv-x="1478" 
d="M739 1425q-157 0 -247.5 -159t-90.5 -488q0 -136 19.5 -238.5t57.5 -170t85.5 -108t110.5 -62.5v-199h-590l-16 444h4l223 -374q13 -21 26.5 -26t49.5 -5h264v131q-114 20 -214.5 74t-177.5 134.5t-122 192t-45 238.5q0 141 43.5 260t125.5 206t208.5 136t285.5 49
t285.5 -49t209 -136t126 -206t43.5 -260q0 -127 -45 -238.5t-122 -192t-177.5 -134.5t-214.5 -74v-131h264q37 0 50 4.5t26 26.5l223 374h4l-16 -444h-590v199q62 22 109.5 62.5t85 107.5t57.5 170.5t20 238.5q0 329 -90.5 488t-247.5 159z" />
    <glyph glyph-name="uni03BC" unicode="&#x3bc;" horiz-adv-x="1159" 
d="M999 147q0 -20 4 -29.5t17 -19.5l121 -94v-4h-402v229q-32 -107 -106 -170t-168 -63q-31 0 -64 8v-315q0 -20 5 -29.5t24 -19.5l170 -103v-4h-600v4l125 88q14 10 17 17.5t3 27.5v1188q0 21 -3.5 29t-16.5 18l-121 94v5h397v-584q0 -166 36.5 -232.5t123.5 -66.5
q107 0 178 129v606q0 20 -3.5 28.5t-16.5 20.5l-121 94v5h401v-857z" />
    <glyph glyph-name="pi" unicode="&#x3c0;" horiz-adv-x="1241" 
d="M1053 850v-713q0 -18 3.5 -27t16.5 -18l123 -88v-4h-543v4l119 88q16 11 19.5 18.5t3.5 26.5v830h-351v-830q0 -17 4 -25t19 -20l121 -88v-4h-543v4l121 88q13 10 16.5 18.5t3.5 26.5v713q0 21 -3.5 29t-16.5 18l-121 102v5h1151v-5l-123 -102q-13 -10 -16.5 -18
t-3.5 -29z" />
    <glyph glyph-name="Wgrave" unicode="&#x1e80;" horiz-adv-x="2017" 
d="M1491 0h-197l-288 907l-291 -907h-197l-407 1245q-15 45 -45 82l-86 109v4h552v-4l-122 -123q-19 -19 -9 -51l340 -1045l244 756l-86 272q-9 32 -41 80l-78 111v4h543v-4l-123 -123q-18 -18 -8 -49l326 -1041l301 940q6 28 2 39t-25 35l-180 199v4h471v-4l-172 -191
q-27 -29 -36 -42t-17 -42zM719 1874h285l172 -334l-5 -4l-452 334v4z" />
    <glyph glyph-name="wgrave" unicode="&#x1e81;" horiz-adv-x="1503" 
d="M1540 999l-129 -184q-17 -25 -23.5 -37.5t-15.5 -38.5l-260 -739h-158l-213 596l-215 -596h-157l-293 821q-13 40 -35 80l-64 98v5h455v-5l-86 -102q-10 -12 -11 -21.5t5 -29.5l221 -637l160 442l-59 170q-15 46 -35 80l-64 98v5h453v-5l-84 -102q-11 -15 -13 -22.5
t5 -28.5l223 -635l186 532q9 25 7.5 37t-15.5 33l-119 186v5h334v-5zM465 1440h285l172 -334l-4 -4l-453 334v4z" />
    <glyph glyph-name="Wacute" unicode="&#x1e82;" horiz-adv-x="2017" 
d="M1087 1874h283v-4l-452 -334l-5 4zM1491 0h-197l-288 907l-291 -907h-197l-407 1245q-15 45 -45 82l-86 109v4h552v-4l-122 -123q-19 -19 -9 -51l340 -1045l244 756l-86 272q-9 32 -41 80l-78 111v4h543v-4l-123 -123q-18 -18 -8 -49l326 -1041l301 940q6 28 2 39t-25 35
l-180 199v4h471v-4l-172 -191q-27 -29 -36 -42t-17 -42z" />
    <glyph glyph-name="wacute" unicode="&#x1e83;" horiz-adv-x="1503" 
d="M834 1440h282v-4l-452 -334l-5 4zM1540 999l-129 -184q-17 -25 -23.5 -37.5t-15.5 -38.5l-260 -739h-158l-213 596l-215 -596h-157l-293 821q-13 40 -35 80l-64 98v5h455v-5l-86 -102q-10 -12 -11 -21.5t5 -29.5l221 -637l160 442l-59 170q-15 46 -35 80l-64 98v5h453v-5
l-84 -102q-11 -15 -13 -22.5t5 -28.5l223 -635l186 532q9 25 7.5 37t-15.5 33l-119 186v5h334v-5z" />
    <glyph glyph-name="Wdieresis" unicode="&#x1e84;" horiz-adv-x="2017" 
d="M737 1708q0 52 36 87.5t87 35.5q50 0 85.5 -35.5t35.5 -87.5q0 -49 -35.5 -84t-85.5 -35q-51 0 -87 35t-36 84zM1106 1708q0 52 34.5 87.5t84.5 35.5q53 0 89 -35.5t36 -87.5q0 -50 -36.5 -84.5t-88.5 -34.5q-49 0 -84 34.5t-35 84.5zM1491 0h-197l-288 907l-291 -907
h-197l-407 1245q-15 45 -45 82l-86 109v4h552v-4l-122 -123q-19 -19 -9 -51l340 -1045l244 756l-86 272q-9 32 -41 80l-78 111v4h543v-4l-123 -123q-18 -18 -8 -49l326 -1041l301 940q6 28 2 39t-25 35l-180 199v4h471v-4l-172 -191q-27 -29 -36 -42t-17 -42z" />
    <glyph glyph-name="wdieresis" unicode="&#x1e85;" horiz-adv-x="1503" 
d="M483 1274q0 52 36 87.5t87 35.5q50 0 85.5 -35.5t35.5 -87.5q0 -49 -35.5 -84t-85.5 -35q-51 0 -87 35t-36 84zM852 1274q0 52 34.5 87.5t84.5 35.5q53 0 89 -35.5t36 -87.5q0 -50 -36.5 -84.5t-88.5 -34.5q-49 0 -84 34.5t-35 84.5zM1540 999l-129 -184
q-17 -25 -23.5 -37.5t-15.5 -38.5l-260 -739h-158l-213 596l-215 -596h-157l-293 821q-13 40 -35 80l-64 98v5h455v-5l-86 -102q-10 -12 -11 -21.5t5 -29.5l221 -637l160 442l-59 170q-15 46 -35 80l-64 98v5h453v-5l-84 -102q-11 -15 -13 -22.5t5 -28.5l223 -635l186 532
q9 25 7.5 37t-15.5 33l-119 186v5h334v-5z" />
    <glyph glyph-name="uni1E8A" unicode="&#x1e8a;" horiz-adv-x="1392" 
d="M1284 117l123 -113v-4h-616v4l108 102q17 15 17.5 25.5t-11.5 28.5l-291 456l-264 -376q-17 -23 -17.5 -34t13.5 -24l176 -178v-4h-534v4l231 166q60 41 92 86l279 397l-381 600q-19 30 -64 70l-125 113v4h619v-4l-111 -103q-16 -14 -16.5 -24.5t12.5 -28.5l254 -401
l226 321q17 23 17.5 33.5t-13.5 23.5l-177 179v4h535v-4l-231 -166q-24 -17 -35.5 -25.5t-27 -24t-30.5 -36.5l-239 -342l418 -656q19 -29 63 -69zM614 1702q0 59 40 97t98 38q59 0 98 -38t39 -97q0 -58 -39 -95.5t-98 -37.5q-58 0 -98 37.5t-40 95.5z" />
    <glyph glyph-name="uni1E8B" unicode="&#x1e8b;" horiz-adv-x="1001" 
d="M408 430l-283 416q-28 43 -66 78l-82 75v5h523v-5l-103 -84q-13 -11 -12.5 -19.5t12.5 -27.5l172 -254l150 195q15 20 15.5 28t-13.5 27l-111 135v5h394v-5l-191 -149q-40 -29 -74 -74l-149 -192l291 -426q27 -39 63 -74l82 -80v-4h-522v4l104 86q13 12 12 20.5t-14 26.5
l-178 262l-156 -202q-16 -23 -16 -30.5t14 -27.5l111 -135v-4h-393v4l190 150q36 29 74 75zM401 1268q0 59 40 97t98 38q59 0 98 -38t39 -97q0 -58 -39 -95.5t-98 -37.5q-58 0 -98 37.5t-40 95.5z" />
    <glyph glyph-name="Ygrave" unicode="&#x1ef2;" horiz-adv-x="1261" 
d="M782 569v-403q0 -20 4 -27.5t21 -17.5l170 -117v-4h-674v4l172 117q15 11 19 18t4 27v375q0 32 -15 57l-350 649q-16 31 -55 76l-105 113v4h602v-4l-126 -121q-12 -12 -14 -20t5 -23l322 -610l268 524q10 23 8.5 32t-14.5 23l-176 195v4h487v-4l-205 -191
q-40 -35 -63 -78l-268 -522q-17 -33 -17 -76zM371 1874h284l172 -334l-4 -4l-452 334v4z" />
    <glyph glyph-name="ygrave" unicode="&#x1ef3;" horiz-adv-x="929" 
d="M115 -483q-47 0 -92 20l73 332h4l156 -203q14 -20 27 -20q10 0 24 20q55 73 129 244l-368 940q-10 25 -37 70l-51 79v5h460v-5l-90 -100q-11 -12 -12 -21t6 -28l227 -606l195 495q9 25 8.5 35.5t-12.5 30.5l-123 194v5h332v-5l-123 -180q-27 -41 -45 -86l-307 -788
q-57 -144 -138 -271q-53 -83 -110 -120t-133 -37zM193 1440h284l172 -334l-4 -4l-452 334v4z" />
    <glyph glyph-name="endash" unicode="&#x2013;" horiz-adv-x="1024" 
d="M1014 481h-1004v37h1004v-37z" />
    <glyph glyph-name="emdash" unicode="&#x2014;" horiz-adv-x="2048" 
d="M2038 481h-2028v37h2028v-37z" />
    <glyph glyph-name="quoteleft" unicode="&#x2018;" horiz-adv-x="415" 
d="M344 1473l2 -5q-58 -32 -92.5 -91t-34.5 -122q0 -11 5 -16t18 -6q45 -6 74.5 -41.5t29.5 -85.5q0 -53 -37 -90t-92 -37q-60 0 -99.5 41t-39.5 110q0 110 74.5 211t191.5 132z" />
    <glyph glyph-name="quoteright" unicode="&#x2019;" horiz-adv-x="415" 
d="M78 967l-2 4q58 32 92.5 90.5t34.5 122.5q0 10 -5.5 14.5t-19.5 7.5q-46 8 -75 41.5t-29 83.5q0 54 37 91.5t92 37.5q61 0 100 -41t39 -110q0 -111 -74 -211t-190 -131z" />
    <glyph glyph-name="quotesinglbase" unicode="&#x201a;" horiz-adv-x="415" 
d="M76 -213l-2 4q58 32 93.5 91.5t35.5 121.5q0 20 -25 23q-45 6 -74.5 41.5t-29.5 85.5q0 53 37 90t92 37q61 0 100 -41.5t39 -110.5q0 -110 -74.5 -210.5t-191.5 -131.5z" />
    <glyph glyph-name="quotedblleft" unicode="&#x201c;" horiz-adv-x="768" 
d="M696 1473l2 -5q-58 -32 -92.5 -91t-34.5 -122q0 -19 23 -22q45 -6 74.5 -41.5t29.5 -85.5q0 -53 -36 -90t-91 -37q-61 0 -100 41t-39 110q0 111 73.5 211.5t190.5 131.5zM344 1473l2 -5q-58 -32 -92.5 -91t-34.5 -122q0 -11 5 -16t18 -6q45 -6 74.5 -41.5t29.5 -85.5
q0 -53 -37 -90t-92 -37q-60 0 -99.5 41t-39.5 110q0 110 74.5 211t191.5 132z" />
    <glyph glyph-name="quotedblright" unicode="&#x201d;" horiz-adv-x="770" 
d="M78 967l-2 4q58 32 92.5 90.5t34.5 122.5q0 10 -5.5 14.5t-19.5 7.5q-46 9 -75 42.5t-29 82.5q0 54 37 91.5t92 37.5q61 0 100 -41t39 -110q0 -111 -74 -211t-190 -131zM430 967l-2 4q58 32 92.5 90.5t34.5 122.5q0 10 -4.5 14.5t-18.5 7.5q-46 9 -75 42.5t-29 82.5
q0 54 37 91.5t92 37.5q60 0 99.5 -41t39.5 -110q0 -111 -74 -211t-192 -131z" />
    <glyph glyph-name="quotedblbase" unicode="&#x201e;" horiz-adv-x="768" 
d="M428 -213l-2 4q58 32 93.5 91.5t35.5 121.5q0 20 -25 23q-45 6 -74.5 41.5t-29.5 85.5q0 53 37 90t92 37q61 0 100 -41.5t39 -110.5q0 -110 -74.5 -210.5t-191.5 -131.5zM76 -213l-2 4q58 32 93.5 91.5t35.5 121.5q0 20 -25 23q-45 6 -74.5 41.5t-29.5 85.5q0 53 37 90
t92 37q61 0 100 -41.5t39 -110.5q0 -110 -74.5 -210.5t-191.5 -131.5z" />
    <glyph glyph-name="dagger" unicode="&#x2020;" horiz-adv-x="880" 
d="M768 1053h-309v-787h-39v787h-307v37h307v350h39v-350h309v-37z" />
    <glyph glyph-name="daggerdbl" unicode="&#x2021;" horiz-adv-x="880" 
d="M113 1053v37h307v350h39v-350h309v-37h-309v-400h309v-37h-309v-350h-39v350h-307v37h307v400h-307z" />
    <glyph glyph-name="bullet" unicode="&#x2022;" horiz-adv-x="708" 
d="M143 725q0 89 61.5 148t149.5 59q89 0 150 -58.5t61 -148.5q0 -88 -61 -143.5t-150 -55.5q-88 0 -149.5 56t-61.5 143z" />
    <glyph glyph-name="ellipsis" unicode="&#x2026;" horiz-adv-x="1333" 
d="M98 123q0 62 41.5 102.5t102.5 40.5q62 0 103.5 -40.5t41.5 -102.5q0 -60 -41.5 -100.5t-103.5 -40.5q-60 0 -102 40.5t-42 100.5zM522 123q0 62 42 102.5t102 40.5q62 0 103.5 -40.5t41.5 -102.5q0 -60 -41.5 -100.5t-103.5 -40.5q-59 0 -101.5 41t-42.5 100zM948 123
q0 62 41.5 102.5t102.5 40.5t102 -40.5t41 -102.5q0 -60 -41.5 -100.5t-101.5 -40.5t-102 40.5t-42 100.5z" />
    <glyph glyph-name="perthousand" unicode="&#x2030;" horiz-adv-x="1912" 
d="M1589 561q-61 0 -80.5 -62.5t-19.5 -213.5q0 -150 19.5 -212.5t80.5 -62.5q62 0 81.5 62.5t19.5 212.5q0 152 -19.5 214t-81.5 62zM1589 590q135 0 204 -82.5t69 -222.5q0 -139 -69 -221t-204 -82q-134 0 -202 82t-68 221t68.5 222t201.5 83zM393 1432q-61 0 -80.5 -63
t-19.5 -214q0 -149 19.5 -211.5t80.5 -62.5q62 0 81.5 62t19.5 212q0 152 -19.5 214.5t-81.5 62.5zM393 1460q135 0 204 -82.5t69 -222.5q0 -139 -69 -221t-204 -82q-134 0 -202 82t-68 221t68.5 222t201.5 83zM948 561q-61 0 -80.5 -62.5t-19.5 -213.5q0 -150 19.5 -212.5
t80.5 -62.5q62 0 81.5 62.5t19.5 212.5q0 152 -19.5 214t-81.5 62zM948 590q135 0 204 -82.5t69 -222.5q0 -139 -69 -221t-204 -82q-134 0 -202 82t-68 221t68.5 222t201.5 83zM1204 1436l-1030 -1456l-33 26l1030 1454z" />
    <glyph glyph-name="guilsinglleft" unicode="&#x2039;" horiz-adv-x="555" 
d="M59 516l435 436l2 -2l-197 -436l197 -436l-2 -2l-435 436v4z" />
    <glyph glyph-name="guilsinglright" unicode="&#x203a;" horiz-adv-x="555" 
d="M496 512l-435 -436l-2 2l195 436l-195 436l2 2l435 -436v-4z" />
    <glyph glyph-name="fraction" unicode="&#x2044;" horiz-adv-x="98" 
d="M600 1436l-1030 -1456l-33 26l1030 1454z" />
    <glyph glyph-name="Euro" unicode="&#x20ac;" horiz-adv-x="1392" 
d="M975 580h-443q18 -278 110.5 -422t270.5 -144q27 0 45 2q29 3 43.5 10t24.5 25l256 445h4v-482q-167 -34 -385 -34q-315 0 -487.5 159t-204.5 441h-146v36h144q-4 62 -4 99q0 65 4 98h-144v37h148q34 283 208.5 446.5t463.5 163.5q213 0 403 -43v-463h-4l-254 432
q-11 21 -25 27.5t-45 9.5q-20 2 -65 2q-170 0 -257.5 -153t-103.5 -422h443v-37h-445q-2 -31 -2 -94q0 -70 2 -103h445v-36z" />
    <glyph glyph-name="trademark" unicode="&#x2122;" horiz-adv-x="1699" 
d="M885 877q0 -15 1 -21t5 -12.5t14 -14.5l92 -81v-5h-260v5l94 81q17 15 17 48v469q0 18 -10 28l-80 62v4h248l190 -445l178 445h244v-4l-80 -56q-12 -7 -12 -22v-537q0 -13 14 -22l78 -51v-5h-344v5l78 51q12 8 12 22v441q0 45 2 65l-231 -592h-2l-226 518l-22 62v-438z
M459 827q0 -17 10 -24l76 -55v-5h-340v5l78 55q12 7 12 24v578h-82q-12 0 -17 -3t-12 -16l-112 -192h-4l14 246h590l12 -246h-4l-111 192q-8 12 -13 15.5t-17 3.5h-80v-578z" />
    <glyph glyph-name="Omega" unicode="&#x2126;" horiz-adv-x="1478" 
d="M739 1425q-157 0 -247.5 -159t-90.5 -488q0 -136 19.5 -238.5t57.5 -170t85.5 -108t110.5 -62.5v-199h-590l-16 444h4l223 -374q13 -21 26.5 -26t49.5 -5h264v131q-114 20 -214.5 74t-177.5 134.5t-122 192t-45 238.5q0 141 43.5 260t125.5 206t208.5 136t285.5 49
t285.5 -49t209 -136t126 -206t43.5 -260q0 -127 -45 -238.5t-122 -192t-177.5 -134.5t-214.5 -74v-131h264q37 0 50 4.5t26 26.5l223 374h4l-16 -444h-590v199q62 22 109.5 62.5t85 107.5t57.5 170.5t20 238.5q0 329 -90.5 488t-247.5 159z" />
    <glyph glyph-name="estimated" unicode="&#x212e;" horiz-adv-x="1359" 
d="M1227 481h-1041q4 -138 72.5 -244.5t180 -162.5t245.5 -56q165 0 294.5 88t178.5 238l43 -14q-53 -163 -193.5 -256.5t-322.5 -93.5q-150 0 -272.5 62.5t-195.5 182.5t-73 275q0 157 73 276.5t195.5 181.5t272.5 62t273 -62t196.5 -181.5t73.5 -276.5v-19zM684 983
q-134 0 -245 -56.5t-179.5 -163t-73.5 -243.5h998q-5 137 -74 243.5t-180.5 163t-245.5 56.5z" />
    <glyph glyph-name="uni2153" unicode="&#x2153;" horiz-adv-x="993" 
d="M123 702v37h747v-37h-747zM584 950q0 -10 2 -14t12 -8l133 -66v-2h-452v2l133 66q14 7 14 22v381q0 14 -14 19l-146 45v4l318 67v-516zM758 168q0 -76 -75.5 -126t-207.5 -50q-138 0 -239 37l102 198h4l57 -186q5 -13 21 -16q16 -2 47 -2q55 0 91 38t36 105
q0 128 -168 137v4q149 24 149 154q0 53 -24.5 80.5t-69.5 27.5h-37q-14 0 -24 -16l-84 -184h-4l-82 186q113 45 246 45q118 0 178.5 -37t60.5 -106q0 -109 -162 -142v-4q88 -4 136.5 -42t48.5 -101z" />
    <glyph glyph-name="uni2154" unicode="&#x2154;" horiz-adv-x="993" 
d="M123 702v37h747v-37h-747zM758 168q0 -76 -75.5 -126t-207.5 -50q-138 0 -239 37l102 198h4l57 -186q5 -13 21 -16q16 -2 47 -2q55 0 91 38t36 105q0 128 -168 137v4q149 24 149 154q0 53 -24.5 80.5t-69.5 27.5h-37q-14 0 -24 -16l-84 -184h-4l-82 186q113 45 246 45
q118 0 178.5 -37t60.5 -106q0 -109 -162 -142v-4q88 -4 136.5 -42t48.5 -101zM750 1069l-29 -209h-492v4q102 90 197 185q72 71 110.5 131.5t38.5 119.5q0 130 -110 130h-25q-17 0 -24 -17l-84 -188h-4l-82 190q120 45 241 45t188.5 -44t67.5 -124q0 -48 -20.5 -87
t-67.5 -75.5t-105.5 -68.5t-152.5 -74v-4h215q30 0 39.5 2.5t20.5 13.5l73 70h5z" />
    <glyph glyph-name="uni2155" unicode="&#x2155;" horiz-adv-x="993" 
d="M123 702v37h747v-37h-747zM584 1466v-516q0 -10 2 -14t12 -8l133 -66v-2h-452v2l133 66q14 7 14 22v381q0 14 -14 19l-146 45v4zM752 188q0 -99 -73.5 -147.5t-201.5 -48.5q-146 0 -241 39l102 192h2l57 -178q7 -19 29 -22q24 -3 41 -3q56 0 90.5 41.5t34.5 108.5
q0 64 -40.5 101.5t-121.5 37.5q-67 0 -135 -30l-4 2l16 313q153 -6 217 -6q51 0 84 2q30 1 43 2.5t30 7t26 16.5l14 17h4l-8 -78q-9 -88 -94 -88h-109q-77 0 -182 6l-10 -158q104 58 204 58q105 0 165.5 -52.5t60.5 -132.5z" />
    <glyph glyph-name="uni2156" unicode="&#x2156;" horiz-adv-x="993" 
d="M123 739v-37h747v37h-747zM752 188q0 -99 -73.5 -147.5t-201.5 -48.5q-146 0 -241 39l102 192h2l57 -178q7 -19 29 -22q24 -3 41 -3q56 0 90.5 41.5t34.5 108.5q0 64 -40.5 101.5t-121.5 37.5q-67 0 -135 -30l-4 2l16 313q102 -6 217 -6q51 0 84 2q30 1 43 2.5t30 7
t26 16.5l14 17h4l-8 -78q-9 -88 -94 -88h-109q-77 0 -182 6l-10 -158q104 58 204 58q105 0 165.5 -52.5t60.5 -132.5zM750 1069l-29 -209h-492v4q102 90 197 185q72 71 110.5 131.5t38.5 119.5q0 130 -110 130h-25q-17 0 -24 -17l-84 -188h-4l-82 190q120 45 241 45
t188.5 -44t67.5 -124q0 -48 -20.5 -87t-67.5 -75.5t-105.5 -68.5t-152.5 -74v-4h215q30 0 39.5 2.5t20.5 13.5l73 70h5z" />
    <glyph glyph-name="uni2157" unicode="&#x2157;" horiz-adv-x="993" 
d="M123 702v37h747v-37h-747zM752 188q0 -99 -73.5 -147.5t-201.5 -48.5q-146 0 -241 39l102 192h2l57 -178q7 -19 29 -22q24 -3 41 -3q56 0 90.5 41.5t34.5 108.5q0 64 -40.5 101.5t-121.5 37.5q-67 0 -135 -30l-4 2l16 313q105 -6 217 -6q51 0 84 2q30 1 43 2.5t30 7
t26 16.5l14 17h4l-8 -78q-9 -88 -94 -88h-109q-77 0 -182 6l-10 -158q104 58 204 58q105 0 165.5 -52.5t60.5 -132.5zM758 1028q0 -76 -75.5 -126t-207.5 -50q-138 0 -239 37l102 198h4l57 -186q5 -13 21 -16q16 -2 47 -2q55 0 91 38t36 105q0 128 -168 137v4
q149 24 149 154q0 53 -24.5 81t-69.5 28h-37q-14 0 -24 -17l-84 -184h-4l-82 186q113 45 246 45q118 0 178.5 -37t60.5 -106q0 -108 -162 -141v-5q88 -4 136.5 -42t48.5 -101z" />
    <glyph glyph-name="uni2158" unicode="&#x2158;" horiz-adv-x="993" 
d="M123 702v37h747v-37h-747zM631 1452v-414h31q20 0 30 17l96 168h5l-15 -215h-147v-68q0 -13 14 -22l86 -56v-2h-354v2l92 56q12 9 12 22v68h-293v4l324 440h119zM250 1038h231v316zM332 473l-10 -158q104 58 204 58q105 0 165.5 -52.5t60.5 -132.5q0 -99 -73.5 -147.5
t-201.5 -48.5q-146 0 -241 39l102 192h2l57 -178q7 -19 29 -22q24 -3 41 -3q56 0 90.5 41.5t34.5 108.5q0 64 -40.5 101.5t-121.5 37.5q-67 0 -135 -30l-4 2l16 313q123 -6 217 -6q51 0 84 2q30 1 43 2.5t30 7t26 16.5l14 17h4l-8 -78q-9 -88 -94 -88h-109q-77 0 -182 6z
" />
    <glyph glyph-name="uni2159" unicode="&#x2159;" horiz-adv-x="993" 
d="M123 702v37h747v-37h-747zM584 1466v-516q0 -10 2 -14t12 -8l133 -66v-2h-452v2l133 66q14 7 14 22v381q0 14 -14 19l-146 45v4zM561 373q89 0 143 -48.5t54 -131.5q0 -87 -67.5 -144t-184.5 -57q-142 0 -210.5 81.5t-68.5 221.5q0 141 76 223t219 82q106 0 213 -29
l-71 -168h-5l-92 154q-9 12 -24 12h-25q-37 0 -61.5 -17.5t-37.5 -54.5t-17.5 -82.5t-4.5 -113.5q38 38 74 55t90 17zM500 326q-32 0 -53 -10.5t-50 -36.5q0 -144 23.5 -201.5t87.5 -57.5q88 0 88 162q0 144 -96 144z" />
    <glyph glyph-name="uni215A" unicode="&#x215a;" horiz-adv-x="993" 
d="M123 702v37h747v-37h-747zM477 852q-146 0 -241 39l102 192h2l57 -178q7 -19 29 -22q16 -2 41 -2q56 0 90.5 41t34.5 108q0 64 -40.5 101.5t-121.5 37.5q-67 0 -135 -30l-4 2l16 313q99 -6 217 -6q51 0 84 2q79 3 99 27l14 16h4l-8 -78q-9 -88 -94 -88h-109q-77 0 -182 6
l-10 -157q102 57 204 57q105 0 165.5 -52.5t60.5 -131.5q0 -99 -73.5 -148t-201.5 -49zM561 373q89 0 143 -48.5t54 -131.5q0 -87 -67.5 -144t-184.5 -57q-142 0 -210.5 81.5t-68.5 221.5q0 141 76 223t219 82q106 0 213 -29l-71 -168h-5l-92 154q-9 12 -24 12h-25
q-37 0 -61.5 -17.5t-37.5 -54.5t-17.5 -82.5t-4.5 -113.5q38 38 74 55t90 17zM500 326q-32 0 -53 -10.5t-50 -36.5q0 -144 23.5 -201.5t87.5 -57.5q88 0 88 162q0 144 -96 144z" />
    <glyph glyph-name="uni215B" unicode="&#x215b;" horiz-adv-x="993" 
d="M123 702v37h747v-37h-747zM489 -8q-106 0 -176.5 42.5t-70.5 104.5q0 99 153 127q-60 23 -93.5 67.5t-33.5 100.5q0 72 62 119t166 47q99 0 162 -41t63 -96q0 -102 -152 -119l56 -22q133 -54 133 -154q0 -77 -70 -126.5t-199 -49.5zM530 215l-118 45q-43 -38 -43 -113
q0 -52 36.5 -89.5t96.5 -37.5q59 0 90 27t31 66q0 35 -22 59t-71 43zM395 479q0 -63 107 -108l51 -21q47 39 47 107q0 48 -29 81t-77 33q-46 0 -72.5 -28t-26.5 -64zM731 862v-2h-452v2l133 66q14 7 14 22v381q0 14 -14 19l-146 45v4l318 67v-516q0 -10 2 -14t12 -8z" />
    <glyph glyph-name="uni215C" unicode="&#x215c;" horiz-adv-x="993" 
d="M870 739v-37h-747v37h747zM489 -8q-106 0 -176.5 42.5t-70.5 104.5q0 99 153 127q-60 23 -93.5 67.5t-33.5 100.5q0 72 62 119t166 47q99 0 162 -41t63 -96q0 -102 -152 -119l56 -22q133 -54 133 -154q0 -77 -70 -126.5t-199 -49.5zM530 215l-118 45q-43 -38 -43 -113
q0 -52 36.5 -89.5t96.5 -37.5q59 0 90 27t31 66q0 35 -22 59t-71 43zM395 479q0 -66 107 -108l51 -21q47 39 47 107q0 48 -29 81t-77 33q-46 0 -72.5 -28t-26.5 -64zM758 1028q0 -76 -75.5 -126t-207.5 -50q-138 0 -239 37l102 198h4l57 -186q5 -13 21 -16q16 -2 47 -2
q55 0 91 38t36 105q0 128 -168 137v4q149 24 149 154q0 53 -24.5 81t-69.5 28h-37q-14 0 -24 -17l-84 -184h-4l-82 186q113 45 246 45q118 0 178.5 -37t60.5 -106q0 -108 -162 -141v-5q88 -4 136.5 -42t48.5 -101z" />
    <glyph glyph-name="uni215D" unicode="&#x215d;" horiz-adv-x="993" 
d="M123 702v37h747v-37h-747zM489 -8q-106 0 -176.5 42.5t-70.5 104.5q0 99 153 127q-60 23 -93.5 67.5t-33.5 100.5q0 72 62 119t166 47q99 0 162 -41t63 -96q0 -102 -152 -119l56 -22q133 -51 133 -154q0 -77 -70 -126.5t-199 -49.5zM530 215l-118 45q-43 -38 -43 -113
q0 -52 36.5 -89.5t96.5 -37.5q59 0 90 27t31 66q0 35 -21.5 58.5t-71.5 43.5zM395 479q0 -66 107 -108l51 -21q47 39 47 107q0 48 -29 81t-77 33q-46 0 -72.5 -28t-26.5 -64zM752 1049q0 -99 -73.5 -148t-201.5 -49q-146 0 -241 39l102 192h2l57 -178q7 -19 29 -22
q16 -2 41 -2q56 0 90.5 41t34.5 108q0 64 -40.5 101.5t-121.5 37.5q-67 0 -135 -30l-4 2l16 313q114 -6 217 -6q51 0 84 2q79 3 99 27l14 16h4l-8 -78q-9 -88 -94 -88h-109q-77 0 -182 6l-10 -157q102 57 204 57q105 0 165.5 -52.5t60.5 -131.5z" />
    <glyph glyph-name="uni215E" unicode="&#x215e;" horiz-adv-x="993" 
d="M868 739v-37h-745v37h745zM489 -8q-106 0 -176.5 42.5t-70.5 104.5q0 99 153 127q-60 23 -93.5 67.5t-33.5 100.5q0 72 62 119t166 47q99 0 162 -41t63 -96q0 -102 -152 -119l56 -22q133 -51 133 -154q0 -77 -70 -126.5t-199 -49.5zM530 215l-118 45q-43 -38 -43 -113
q0 -52 36.5 -89.5t96.5 -37.5q59 0 90 27t31 66q0 35 -21.5 58.5t-71.5 43.5zM395 479q0 -66 107 -108l51 -21q47 39 47 107q0 48 -29 81t-77 33q-46 0 -72.5 -28t-26.5 -64zM549 860h-201q80 140 172.5 272.5t153.5 206.5h-301q-22 0 -32 -3t-22 -15l-53 -55h-2l25 186h510
l-70 -80q-16 -16 -22 -31q-75 -176 -158 -481z" />
    <glyph glyph-name="uni2190" unicode="&#x2190;" horiz-adv-x="1445" 
d="M1333 494h-1151l469 -469l-24 -29l-514 514l514 514l26 -27l-471 -469h1151v-34z" />
    <glyph glyph-name="uni2191" unicode="&#x2191;" horiz-adv-x="1253" 
d="M643 -100h-37v1151l-467 -471l-26 26l514 514l514 -514l-27 -26l-471 471v-1151z" />
    <glyph glyph-name="uni2192" unicode="&#x2192;" horiz-adv-x="1445" 
d="M113 528h1151l-471 469l26 27l514 -514l-514 -514l-24 29l469 469h-1151v34z" />
    <glyph glyph-name="uni2193" unicode="&#x2193;" horiz-adv-x="1253" 
d="M606 1085h37v-1151l471 472l27 -27l-514 -514l-514 514l26 27l467 -472v1151z" />
    <glyph glyph-name="uni2196" unicode="&#x2196;" horiz-adv-x="1103" 
d="M971 66l-811 811v-666h-37v729h725v-35h-664l815 -813z" />
    <glyph glyph-name="uni2197" unicode="&#x2197;" horiz-adv-x="1103" 
d="M981 211h-37v666l-811 -811l-29 26l816 813h-664v35h725v-729z" />
    <glyph glyph-name="uni2198" unicode="&#x2198;" horiz-adv-x="1103" 
d="M104 911l29 27l811 -811v666h37v-730h-725v35h664z" />
    <glyph glyph-name="uni2199" unicode="&#x2199;" horiz-adv-x="1103" 
d="M971 938l28 -27l-815 -813h664v-35h-725v730h37v-666z" />
    <glyph glyph-name="partialdiff" unicode="&#x2202;" horiz-adv-x="1081" 
d="M528 -16q-202 0 -336.5 135.5t-134.5 369.5q0 119 34 218t91.5 163.5t133 100t159.5 35.5q166 0 246 -129q-91 449 -463 579v4q4 -1 19 -2t18 -2q146 -25 266.5 -83t205 -140t142.5 -186.5t85.5 -222.5t27.5 -249q0 -591 -494 -591zM752 545q0 156 -25 297
q-70 88 -168 88q-73 0 -123 -65.5t-71 -164.5t-21 -223q0 -207 51 -333t140 -126q106 0 161.5 123.5t55.5 403.5z" />
    <glyph glyph-name="Delta" unicode="&#x2206;" horiz-adv-x="1357" 
d="M61 0l480 1225q12 32 9 48.5t-26 41.5l-116 121v4h393l497 -1440h-1237zM989 39l-409 1171l-461 -1171h870z" />
    <glyph glyph-name="product" unicode="&#x220f;" horiz-adv-x="1550" 
d="M1335 1280v-1120q0 -19 4 -27t21 -18l158 -111v-4h-648v4l158 111q15 10 19 18t4 27v1241h-551v-1241q0 -20 3.5 -27.5t20.5 -17.5l158 -111v-4h-647v4l158 111q15 10 18.5 18t3.5 27v1120q0 19 -3.5 27t-18.5 18l-158 111v4h1483v-4l-158 -111q-17 -10 -21 -18t-4 -27z
" />
    <glyph glyph-name="summation" unicode="&#x2211;" horiz-adv-x="1224" 
d="M1090 1440l16 -453h-4l-232 379q-11 22 -22.5 28.5t-34.5 6.5h-375l387 -674l-708 -688h721q28 0 40.5 5t24.5 22l215 387h4v-453h-1095v4l583 574l-407 714q-18 28 -53 51l-138 93v4h1078z" />
    <glyph glyph-name="minus" unicode="&#x2212;" horiz-adv-x="1105" 
d="M102 643v37h902v-37h-902z" />
    <glyph glyph-name="uni2215" unicode="&#x2215;" horiz-adv-x="98" 
d="M600 1436l-1030 -1456l-33 26l1030 1454z" />
    <glyph glyph-name="uni2219" unicode="&#x2219;" horiz-adv-x="481" 
d="M96 868q0 62 42 104t102 42q62 0 103.5 -41.5t41.5 -104.5q0 -60 -41.5 -100.5t-103.5 -40.5q-60 0 -102 40.5t-42 100.5z" />
    <glyph glyph-name="radical" unicode="&#x221a;" horiz-adv-x="1105" 
d="M991 1536l-538 -1536h-4l-324 909l37 15l289 -813l503 1435z" />
    <glyph glyph-name="infinity" unicode="&#x221e;" horiz-adv-x="1566" 
d="M104 666q0 113 77.5 200.5t193.5 87.5q40 0 79.5 -11.5t68.5 -27t67.5 -46.5t61 -52.5t65 -63.5t65.5 -63q23 21 65.5 63t65 64t61 52.5t67.5 46t68.5 27t80.5 11.5q116 0 193 -87.5t77 -200.5t-77 -201t-193 -88q-41 0 -80.5 11.5t-68.5 27t-67.5 46t-61 52.5t-65 64
t-65.5 63q-23 -21 -65.5 -63t-65 -63.5t-61 -52.5t-67.5 -46.5t-68.5 -27t-79.5 -11.5q-116 0 -193.5 88t-77.5 201zM1190 414q104 0 168.5 75.5t64.5 176.5t-64.5 176.5t-168.5 75.5q-37 0 -73 -11t-63 -25t-62.5 -43t-57 -49.5t-62 -61t-63.5 -62.5q23 -22 63.5 -62.5
t62 -61t57 -49.5t62.5 -43t63 -25t73 -11zM143 666q0 -100 64.5 -176t167.5 -76q37 0 73 11t62.5 24.5t62.5 43t57 49.5t62.5 61.5t63.5 62.5q-22 21 -63.5 62.5t-62.5 61.5t-57 49.5t-62.5 43t-62.5 24.5t-73 11q-103 0 -167.5 -76t-64.5 -176z" />
    <glyph glyph-name="integral" unicode="&#x222b;" horiz-adv-x="901" 
d="M565 1214v-1210q0 -253 -88 -370t-264 -117q-146 0 -295 49l115 276h4l119 -264q9 -21 17 -27t28 -6q24 0 42.5 6.5t29.5 21.5t18.5 31.5t10.5 43.5t4 50t1 58v1286q0 221 89.5 319.5t269.5 98.5q146 0 288 -49l-114 -276h-4l-121 266q-7 18 -14 22t-29 4q-57 0 -82 -51
t-25 -162z" />
    <glyph glyph-name="approxequal" unicode="&#x2248;" horiz-adv-x="1105" 
d="M784 756q-62 0 -127 21t-111.5 46.5t-108.5 46.5t-118 21q-123 0 -196 -119l-33 19q82 137 229 137q62 0 127 -21t111.5 -46.5t108.5 -46.5t118 -21q64 0 115.5 32.5t85.5 87.5l31 -20q-82 -137 -232 -137zM784 391q-62 0 -127 21t-111.5 46.5t-108.5 46.5t-118 21
q-124 0 -196 -118l-33 18q82 137 229 137q62 0 127 -21t111.5 -46.5t108.5 -46.5t118 -21q63 0 115 33t86 88l31 -21q-82 -137 -232 -137z" />
    <glyph glyph-name="notequal" unicode="&#x2260;" horiz-adv-x="1105" 
d="M102 827v37h539l117 209l35 -18l-107 -191h318v-37h-338l-183 -329h521v-37h-541l-121 -217l-35 18l111 199h-316v37h336l183 329h-519z" />
    <glyph glyph-name="lessequal" unicode="&#x2264;" horiz-adv-x="1105" 
d="M102 213v37h902v-37h-902zM145 766l795 262l12 -37l-702 -227l702 -227l-12 -37l-795 262v4z" />
    <glyph glyph-name="greaterequal" unicode="&#x2265;" horiz-adv-x="1105" 
d="M1004 250v-37h-902v37h902zM166 1028l795 -262v-4l-795 -262l-12 37l702 227l-702 227z" />
    <glyph glyph-name="lozenge" unicode="&#x25ca;" horiz-adv-x="1105" 
d="M555 -166h-4l-449 830l449 829h4l449 -829zM553 1413l-406 -749l406 -750l405 750z" />
    <glyph glyph-name="commaaccent" unicode="&#xf6c3;" horiz-adv-x="450" 
d="M111 -516l-2 4q107 68 112 170q0 20 -18 20q-44 0 -71.5 33.5t-27.5 83.5t33.5 84.5t85.5 34.5q55 0 90 -39t35 -104q0 -96 -68.5 -178.5t-168.5 -108.5z" />
    <glyph glyph-name="apple" unicode="&#xf8ff;" horiz-adv-x="2568" 
d="M1364 698q-22 0 -84 3.5t-80 3.5q-110 0 -170.5 -49.5t-107.5 -155.5q-52 -116 -130 -181t-208 -65q-26 0 -86.5 4t-83.5 4q-118 0 -190 -62t-72 -155q0 -33 2 -45h-39q-2 14 -2 45q0 111 85 183.5t218 72.5q25 0 87 -4t83 -4q209 0 301 223q93 227 313 227q22 0 84 -3
t80 -3q108 0 171.5 51t109.5 154q52 117 128.5 180.5t206.5 63.5q26 0 86.5 -4t83.5 -4q117 0 192 64t75 153q0 33 -2 45h39q2 -14 2 -45q0 -108 -88 -182t-220 -74q-25 0 -87 4t-83 4q-113 0 -182.5 -55.5t-116.5 -163.5q-98 -230 -315 -230z" />
    <glyph glyph-name="Iacute_Jacute" horiz-adv-x="1372" 
d="M500 1280v-1120q0 -20 3.5 -27.5t20.5 -17.5l158 -111v-4h-647v4l158 111q15 10 18.5 18t3.5 27v1120q0 19 -3.5 27t-18.5 18l-158 111v4h647v-4l-158 -111q-17 -12 -20.5 -19t-3.5 -26zM401 1874h283v-4l-453 -334l-4 4zM1081 1874h283v-4l-453 -334l-4 4zM901 82v1198
q0 18 -4.5 26t-19.5 19l-158 111v4h647v-4l-158 -111q-17 -12 -20.5 -19t-3.5 -26v-1141q0 -253 -143 -401t-396 -170l-2 4q132 66 195 199.5t63 310.5z" />
    <glyph glyph-name="Jacute" horiz-adv-x="655" 
d="M367 1874h282v-4l-452 -334l-4 4zM186 82v1198q0 18 -4.5 26t-19.5 19l-158 111v4h647v-4l-157 -111q-17 -12 -21 -19t-4 -26v-1141q0 -253 -143 -401t-396 -170l-2 4q132 66 195 199.5t63 310.5z" />
    <glyph glyph-name="caronslovak" horiz-adv-x="497" 
d="M168 1044l18 396h209l-223 -396h-4z" />
    <glyph glyph-name="commatop" horiz-adv-x="481" 
d="M348 1554l2 -4q-99 -63 -110 -170q-1 -11 3 -14.5t15 -5.5q45 -6 71.5 -37t26.5 -78q0 -52 -33 -86.5t-85 -34.5q-56 0 -91.5 39.5t-35.5 104.5q0 97 68.5 178t168.5 108z" />
    <glyph glyph-name="jacute" horiz-adv-x="559" 
d="M-10 -449q-35 0 -60 5v4q122 18 182 116.5t60 300.5v873q0 20 -3.5 28t-16.5 19l-121 102v5h399v-947q0 -150 -47 -262.5t-147.5 -178t-245.5 -65.5zM317 1440h283v-4l-453 -334l-4 4z" />
    <glyph glyph-name="smiley" horiz-adv-x="1675" 
d="M838 1460q158 0 294.5 -54.5t233.5 -150.5t152 -234t55 -300q0 -155 -53 -291t-147.5 -235.5t-233 -157t-301.5 -57.5q-166 0 -305 57.5t-233 157.5t-146 235.5t-52 290.5q0 207 98.5 377t267 266t370.5 96zM139 721q0 -198 84.5 -358t245 -254.5t369.5 -94.5
q206 0 366.5 94t246 254.5t85.5 358.5q0 154 -52 285.5t-144 223.5t-221.5 143.5t-280.5 51.5q-144 0 -273 -54t-222.5 -147t-148.5 -224t-55 -279zM1399 633l4 -2q-20 -78 -86 -74q-12 -169 -144 -280t-335 -111t-335.5 111t-146.5 280q-66 -4 -86 74l4 2q26 -33 80 -33
q32 0 61.5 16.5t39.5 45.5h4q3 -86 -70 -101q14 -156 135 -258t314 -102q190 0 309 101.5t137 256.5q-75 15 -70 103h5q10 -29 39 -45.5t61 -16.5q54 0 80 33zM952 934q0 101 7 176.5t18.5 113.5t26.5 38q24 0 38.5 -87.5t14.5 -240.5q0 -147 -14.5 -231.5t-38.5 -84.5
q-15 0 -26.5 37t-18.5 109.5t-7 169.5zM672 1262q14 0 25.5 -38t18.5 -114t7 -176q0 -96 -7 -169.5t-18.5 -110t-25.5 -36.5q-24 0 -39 85t-15 231q0 152 15 240t39 88z" />
    <glyph glyph-name="backslash.case" horiz-adv-x="778" 
d="M674 -193l-608 1813l36 12l611 -1812z" />
    <glyph glyph-name="bar.case" horiz-adv-x="448" 
d="M244 -381h-39v2048h39v-2048z" />
    <glyph glyph-name="braceleft.case" horiz-adv-x="720" 
d="M444 487l-32 -356q-5 -49 8.5 -100t44.5 -97.5t92.5 -74t142.5 -23.5v-4q-69 -16 -133 -16q-70 0 -136.5 24t-120 68.5t-82 116t-19.5 157.5l35 359q6 63 -41.5 109t-130.5 55v4q83 9 130.5 54t41.5 109l-35 359q-8 86 20.5 157t81.5 115.5t119.5 69t136.5 24.5
q64 0 133 -16v-4q-66 3 -119 -14.5t-85.5 -48.5t-53 -72t-27.5 -82t-3 -80l32 -354q7 -81 -43.5 -139t-132.5 -78v-4q82 -20 132.5 -79t43.5 -139z" />
    <glyph glyph-name="braceright.case" horiz-adv-x="720" 
d="M309 131l-33 356q-7 80 44 139t133 79v4q-82 20 -133 78t-44 139l33 354q5 50 -8.5 101.5t-45 98t-93 74t-142.5 23.5v4q69 16 134 16q70 0 136.5 -24.5t119.5 -69t81.5 -115.5t20.5 -157l-35 -359q-6 -64 41.5 -109t130.5 -54v-4q-83 -9 -130.5 -55t-41.5 -109l35 -359
q9 -86 -19.5 -157.5t-82 -116t-120 -68.5t-136.5 -24q-65 0 -134 16v4q81 -4 142.5 23.5t93 74t45 97.5t8.5 100z" />
    <glyph glyph-name="bracketleft.case" horiz-adv-x="718" 
d="M352 1427v-1443q0 -18 4.5 -25.5t20.5 -13.5l321 -97v-4l-534 -28v1779l534 -28v-4l-321 -97q-16 -4 -20.5 -12t-4.5 -27z" />
    <glyph glyph-name="bracketright.case" horiz-adv-x="718" 
d="M367 -16v1443q0 18 -4.5 25.5t-20.5 13.5l-322 97v4l535 28v-1779l-535 28v4l322 97q16 6 20.5 13.5t4.5 25.5z" />
    <glyph glyph-name="emdash.case" horiz-adv-x="2048" 
d="M2038 686h-2028v37h2028v-37z" />
    <glyph glyph-name="endash.case" horiz-adv-x="1024" 
d="M1014 686h-1004v37h1004v-37z" />
    <glyph glyph-name="exclamdown.case" horiz-adv-x="540" 
d="M88 0l176 997h4l185 -997h-365zM125 1317q0 59 42 99t101 40q62 0 104 -39.5t42 -99.5q0 -63 -42 -104.5t-104 -41.5q-59 0 -101 42t-42 104z" />
    <glyph glyph-name="guillemotleft.case" horiz-adv-x="917" 
d="M494 260l-435 436v4l435 437l2 -2l-195 -437l195 -436zM856 260l-434 436v4l434 437l2 -2l-194 -437l194 -436z" />
    <glyph glyph-name="guillemotright.case" horiz-adv-x="917" 
d="M496 696l-435 -436l-2 2l195 436l-195 437l2 2l435 -437v-4zM858 696l-434 -436l-2 2l194 436l-194 437l2 2l434 -437v-4z" />
    <glyph glyph-name="guilsinglleft.case" horiz-adv-x="555" 
d="M59 700l435 437l2 -2l-197 -437l197 -436l-2 -2l-435 436v4z" />
    <glyph glyph-name="guilsinglright.case" horiz-adv-x="555" 
d="M496 696l-435 -436l-2 2l195 436l-195 437l2 2l435 -437v-4z" />
    <glyph glyph-name="hyphen.case" horiz-adv-x="718" 
d="M94 686v39h533v-39h-533z" />
    <glyph glyph-name="parenleft.case" horiz-adv-x="671" 
d="M111 705q0 510 299 774q102 92 237 139l4 -4q-101 -84 -166 -205q-83 -150 -119 -315.5t-36 -388.5t36 -389t119 -316q65 -121 166 -205l-4 -4q-135 47 -237 139q-299 264 -299 775z" />
    <glyph glyph-name="parenright.case" horiz-adv-x="671" 
d="M563 705q0 -510 -301 -775q-102 -92 -237 -139l-5 4q99 83 168 205q82 150 118 316.5t36 388.5t-36 388t-118 316q-69 122 -168 205l5 4q135 -47 237 -139q301 -265 301 -774z" />
    <glyph glyph-name="questiondown.case" horiz-adv-x="944" 
d="M504 993q147 -62 147 -188q0 -56 -32.5 -106.5t-92.5 -112.5q-9 -9 -59 -62t-57 -61q-51 -58 -75 -109t-24 -116q0 -97 59.5 -157.5t149.5 -60.5q24 0 60 5q29 5 36.5 9.5t14.5 24.5l153 363h4l132 -334q-98 -48 -217 -76t-230 -28q-194 0 -310 84t-116 229
q0 154 154 283l198 170q58 46 82.5 90.5t24.5 103.5q0 15 -4 47zM672 1321q0 -62 -42.5 -103.5t-101.5 -41.5q-62 0 -103.5 41t-41.5 104q0 60 41.5 99.5t103.5 39.5q59 0 101.5 -40t42.5 -99z" />
    <glyph glyph-name="slash.case" horiz-adv-x="778" 
d="M713 1620l-609 -1813l-38 13l610 1812z" />
    <glyph glyph-name="braceleft.salt" horiz-adv-x="501" 
d="M291 449q0 -26 -15 -80l-90 -318q-20 -67 -20 -123q0 -180 203 -180q51 0 106 12l6 -34q-69 -15 -108 -15q-113 0 -180.5 53.5t-67.5 165.5q0 46 25 133l90 306q14 47 14 80q0 133 -182 133v36q182 0 182 132q0 32 -14 79l-90 306q-25 87 -25 133q0 112 67 165.5
t181 53.5q53 0 108 -12l-6 -35q-55 12 -106 12q-95 0 -150 -44t-55 -138q0 -49 22 -123l90 -318q15 -54 15 -79q0 -60 -32.5 -100t-92.5 -50v-2q60 -10 92.5 -49.5t32.5 -99.5z" />
    <glyph glyph-name="braceright.salt" horiz-adv-x="501" 
d="M211 449q0 60 32.5 99.5t92.5 49.5v2q-60 10 -92.5 50t-32.5 100q0 28 14 79l90 318q23 77 23 123q0 94 -55 138t-150 44q-51 0 -106 -12l-7 35q56 12 109 12q114 0 181 -53.5t67 -165.5q0 -46 -25 -133l-90 -306q-14 -47 -14 -79q0 -132 182 -132v-36q-182 0 -182 -133
q0 -33 14 -80l90 -306q25 -87 25 -133q0 -112 -67.5 -165.5t-180.5 -53.5q-40 0 -109 15l7 34q55 -12 106 -12q203 0 203 180q0 52 -21 123l-90 318q-14 51 -14 80z" />
    <glyph glyph-name="bracketleft.salt" horiz-adv-x="526" 
d="M506 -246v-37h-342v1760h342v-37h-303v-1686h303z" />
    <glyph glyph-name="bracketright.salt" horiz-adv-x="526" 
d="M20 -283v37h304v1686h-304v37h342v-1760h-342z" />
    <glyph glyph-name="guillemotleft.salt" horiz-adv-x="876" 
d="M59 516l402 436l28 -26l-378 -410l378 -412l-28 -24zM387 516l401 436l29 -26l-379 -410l379 -412l-29 -24z" />
    <glyph glyph-name="guillemotright.salt" horiz-adv-x="876" 
d="M815 516l-401 -436l-29 26l379 410l-379 412l29 24zM487 516l-401 -436l-29 26l379 410l-379 412l29 24z" />
    <glyph glyph-name="guilsinglleft.salt" horiz-adv-x="548" 
d="M59 516l402 436l28 -26l-378 -410l378 -412l-28 -24z" />
    <glyph glyph-name="guilsinglright.salt" horiz-adv-x="548" 
d="M86 952l401 -436l-401 -436l-29 24l379 412l-379 410z" />
    <glyph glyph-name="parenleft.salt" horiz-adv-x="565" 
d="M111 596q0 170 44 338t140 322.5t231 250.5l19 -28q-191 -139 -294.5 -382t-103.5 -501t103.5 -501t294.5 -382l-19 -28q-135 96 -231 250.5t-140 322.5t-44 338z" />
    <glyph glyph-name="parenright.salt" horiz-adv-x="565" 
d="M455 596q0 -170 -44 -338t-140.5 -322.5t-231.5 -250.5l-19 28q191 139 294.5 382t103.5 501t-103.5 501t-294.5 382l19 28q135 -96 231.5 -250.5t140.5 -322.5t44 -338z" />
    <glyph glyph-name="braceleft.salt.case" horiz-adv-x="501" 
d="M72 688v37q182 0 182 131q0 33 -14 80l-90 305q-25 87 -25 133q0 112 67 165.5t181 53.5q53 0 108 -12l-6 -35q-60 13 -106 13q-95 0 -150 -44.5t-55 -138.5q0 -49 22 -123l90 -317q15 -54 15 -80q0 -60 -32.5 -99.5t-92.5 -49.5v-2q60 -10 92.5 -50t32.5 -100
q0 -26 -15 -80l-90 -317q-20 -67 -20 -123q0 -180 203 -180q51 0 106 12l6 -35q-52 -14 -108 -14q-113 0 -180.5 53.5t-67.5 165.5q0 45 25 133l90 305q14 47 14 80q0 133 -182 133z" />
    <glyph glyph-name="braceright.salt.case" horiz-adv-x="501" 
d="M430 725v-37q-182 0 -182 -133q0 -33 14 -80l90 -305q25 -88 25 -133q0 -112 -67.5 -165.5t-180.5 -53.5q-57 0 -109 14l7 35q55 -12 106 -12q203 0 203 180q0 53 -21 123l-90 317q-14 51 -14 80q0 60 32.5 100t92.5 50v2q-60 10 -92.5 49.5t-32.5 99.5q0 29 14 80
l90 317q23 77 23 123q0 94 -55 138.5t-150 44.5q-46 0 -106 -13l-7 35q56 12 109 12q114 0 181 -53.5t67 -165.5q0 -46 -25 -133l-90 -305q-14 -47 -14 -80q0 -131 182 -131z" />
    <glyph glyph-name="bracketleft.salt.case" horiz-adv-x="526" 
d="M506 -141v-37h-342v1759h342v-37h-303v-1685h303z" />
    <glyph glyph-name="bracketright.salt.case" horiz-adv-x="526" 
d="M20 -178v37h304v1685h-304v37h342v-1759h-342z" />
    <glyph glyph-name="guillemotleft.salt.case" horiz-adv-x="876" 
d="M59 700l402 437l28 -27l-378 -410l378 -411l-28 -25zM387 700l401 437l29 -27l-379 -410l379 -411l-29 -25z" />
    <glyph glyph-name="guillemotright.salt.case" horiz-adv-x="876" 
d="M815 700l-401 -436l-29 27l379 409l-379 412l29 25zM487 700l-401 -436l-29 27l379 409l-379 412l29 25z" />
    <glyph glyph-name="guilsinglleft.salt.case" horiz-adv-x="548" 
d="M59 700l402 437l28 -27l-378 -410l378 -411l-28 -25z" />
    <glyph glyph-name="guilsinglright.salt.case" horiz-adv-x="548" 
d="M86 1137l401 -437l-401 -436l-29 25l379 411l-379 410z" />
    <glyph glyph-name="parenleft.salt.case" horiz-adv-x="565" 
d="M111 702q0 170 44 338t140 323t231 251l19 -29q-191 -139 -294.5 -382t-103.5 -501t103.5 -500.5t294.5 -381.5l-19 -29q-135 96 -231 250.5t-140 322.5t-44 338z" />
    <glyph glyph-name="parenright.salt.case" horiz-adv-x="565" 
d="M455 702q0 -170 -44 -338t-140.5 -322.5t-231.5 -250.5l-19 29q191 139 294.5 381.5t103.5 500.5t-103.5 501t-294.5 382l19 29q135 -96 231.5 -251t140.5 -323t44 -338z" />
    <glyph glyph-name="eight.subs" 
d="M295 -8q-106 0 -177 42.5t-71 104.5q0 99 154 127q-60 23 -93.5 67.5t-33.5 100.5q0 72 61.5 119t165.5 47q99 0 162 -41t63 -96q0 -103 -151 -119l55 -22q133 -51 133 -154q0 -77 -69.5 -126.5t-198.5 -49.5zM336 215l-119 45q-43 -38 -43 -113q0 -52 36.5 -89.5
t96.5 -37.5q59 0 90 27t31 66q0 35 -21.5 59t-70.5 43zM201 479q0 -67 106 -108l51 -21q48 40 48 107q0 47 -29.5 80.5t-77.5 33.5q-46 0 -72 -28t-26 -64z" />
    <glyph glyph-name="five.subs" 
d="M133 473l-10 -158q104 58 205 58q105 0 165 -52.5t60 -132.5q0 -99 -73 -147.5t-201 -48.5q-147 0 -242 39l102 192h2l58 -178q7 -19 28 -22q24 -3 41 -3q56 0 90.5 41.5t34.5 108.5q0 64 -40.5 101.5t-121.5 37.5q-67 0 -135 -30l-4 2l17 313q216 -6 217 -6q51 0 84 2
q30 1 43 2.5t29.5 7t25.5 16.5l14 17h4l-8 -78q-9 -88 -94 -88h-109q-77 0 -182 6z" />
    <glyph glyph-name="four.subs" 
d="M438 80q0 -13 15 -23l86 -55v-2h-355v2l92 55q13 10 13 23v67h-293v5l323 440h119v-414h31q21 0 31 17l96 167h4l-14 -215h-148v-67zM57 178h232v316z" />
    <glyph glyph-name="nine.subs" 
d="M236 219q-85 0 -140 49t-55 131q0 88 66 144.5t184 56.5q144 0 211 -81t67 -224q0 -140 -75 -221.5t-218 -81.5q-109 0 -213 26l72 170h4l92 -153q10 -15 29 -15h19q37 0 61.5 17.5t37 55t17 83t4.5 113.5q-40 -37 -75.5 -53.5t-87.5 -16.5zM297 266q32 0 52.5 9.5
t49.5 33.5q-2 145 -24.5 202.5t-83.5 57.5q-90 0 -90 -159q0 -144 96 -144z" />
    <glyph glyph-name="one.subs" horiz-adv-x="516" 
d="M352 606v-516q0 -16 15 -22l133 -66v-2h-453v2l133 66q15 8 15 22v381q0 13 -15 18l-145 46v4z" />
    <glyph glyph-name="parenleft.subs" horiz-adv-x="393" 
d="M219 297q0 -278 154 -422l-2 -4q-155 53 -232.5 163.5t-77.5 262.5q0 153 77.5 264t232.5 164l2 -2q-154 -144 -154 -426z" />
    <glyph glyph-name="parenright.subs" horiz-adv-x="393" 
d="M174 297q0 282 -154 426l3 2q155 -53 232 -164t77 -264q0 -152 -77.5 -262.5t-231.5 -163.5l-3 4q154 144 154 422z" />
    <glyph glyph-name="seven.subs" 
d="M332 0h-201q80 140 172.5 272.5t153.5 206.5h-301q-22 0 -32 -3t-22 -15l-53 -55h-2l25 186h510l-70 -78q-16 -16 -23 -33q-72 -169 -157 -481z" />
    <glyph glyph-name="six.subs" 
d="M369 373q88 0 142 -48.5t54 -131.5q0 -87 -67.5 -144t-184.5 -57q-142 0 -210 81t-68 222t76 223t219 82q106 0 213 -29l-72 -168h-4l-92 154q-9 12 -25 12h-24q-37 0 -61.5 -17.5t-37.5 -54.5t-17.5 -82.5t-4.5 -113.5q38 38 74 55t90 17zM307 326q-31 0 -52 -10.5
t-50 -36.5q0 -144 23 -201.5t87 -57.5q88 0 88 162q0 144 -96 144z" />
    <glyph glyph-name="three.subs" 
d="M559 168q0 -76 -75.5 -126t-207.5 -50q-138 0 -239 37l102 198h4l58 -186q5 -14 20 -16q14 -2 47 -2q55 0 91 38t36 105q0 128 -168 137v4q150 24 150 154q0 53 -24.5 80.5t-69.5 27.5h-37q-19 0 -25 -16l-84 -184h-4l-82 186q113 45 246 45q118 0 179 -37t61 -106
q0 -109 -162 -142v-4q88 -4 136 -42t48 -101z" />
    <glyph glyph-name="two.subs" 
d="M549 209l-29 -209h-491v4q102 90 196 184q150 147 150 252q0 129 -111 129h-24q-19 0 -25 -16l-84 -188h-4l-82 190q120 45 242 45q121 0 188.5 -44t67.5 -124q0 -48 -20.5 -87t-67.5 -75.5t-105.5 -68.5t-152.5 -74v-4h215q29 0 38 2t21 14l74 70h4z" />
    <glyph glyph-name="zero.subs" 
d="M301 571q-61 0 -80.5 -62.5t-19.5 -213.5q0 -150 19.5 -212.5t80.5 -62.5q62 0 81 62t19 213q0 152 -19 214t-81 62zM301 600q135 0 203.5 -82.5t68.5 -222.5q0 -139 -68.5 -221t-203.5 -82q-134 0 -202 82t-68 221t68.5 222t201.5 83z" />
    <glyph glyph-name="eight.sups" 
d="M295 852q-106 0 -177 42.5t-71 104.5q0 99 154 127q-60 23 -93.5 67.5t-33.5 100.5q0 72 61.5 119t165.5 47q99 0 162 -41t63 -96q0 -103 -151 -119l55 -22q133 -51 133 -154q0 -77 -69.5 -126.5t-198.5 -49.5zM336 1075l-119 45q-26 -23 -34.5 -48.5t-8.5 -63.5
q0 -52 36.5 -89.5t96.5 -37.5q59 0 90 27t31 65q0 35 -21.5 59t-70.5 43zM201 1339q0 -67 106 -108l51 -21q48 40 48 107q0 48 -29.5 81.5t-77.5 33.5q-46 0 -72 -28.5t-26 -64.5z" />
    <glyph glyph-name="five.sups" 
d="M133 1333l-10 -157q102 57 205 57q105 0 165 -52t60 -132q0 -99 -73 -148t-201 -49q-147 0 -242 39l102 192h2l58 -178q7 -19 28 -22q16 -2 41 -2q56 0 90.5 41t34.5 108q0 64 -40.5 101.5t-121.5 37.5q-67 0 -135 -30l-4 2l17 313q216 -6 217 -6q51 0 84 2q78 3 98 27
l14 16h4l-8 -78q-9 -88 -94 -88h-109q-77 0 -182 6z" />
    <glyph glyph-name="four.sups" 
d="M436 940q0 -12 15 -22l86 -56v-2h-355v2l92 56q13 10 13 22v68h-293v4l323 440h119v-414h31q21 0 31 17l96 168h4l-14 -215h-148v-68zM55 1038h232v316z" />
    <glyph glyph-name="nine.sups" 
d="M236 1079q-85 0 -140 49.5t-55 131.5q0 88 66 144t184 56q144 0 211 -81t67 -224q0 -140 -75 -221.5t-218 -81.5q-105 0 -213 27l72 170h4l92 -154q9 -14 29 -14h19q37 0 61.5 17.5t37 54.5t17 82.5t4.5 113.5q-40 -37 -75.5 -53.5t-87.5 -16.5zM297 1126q32 0 52.5 9.5
t49.5 33.5q-2 145 -24.5 203t-83.5 58q-90 0 -90 -160q0 -144 96 -144z" />
    <glyph glyph-name="one.sups" horiz-adv-x="516" 
d="M352 1466v-516q0 -16 15 -22l133 -66v-2h-453v2l133 66q15 8 15 22v381q0 14 -15 19l-145 45v4z" />
    <glyph glyph-name="parenleft.sups" horiz-adv-x="393" 
d="M219 1143q0 -278 154 -422l-2 -4q-155 53 -232.5 163.5t-77.5 262.5q0 153 77.5 264t232.5 164l2 -2q-154 -144 -154 -426z" />
    <glyph glyph-name="parenright.sups" horiz-adv-x="393" 
d="M174 1143q0 282 -154 426l3 2q155 -53 232 -164t77 -264q0 -152 -77.5 -262.5t-231.5 -163.5l-3 4q154 144 154 422z" />
    <glyph glyph-name="seven.sups" 
d="M332 860h-201q80 140 172.5 272.5t153.5 206.5h-301q-22 0 -32 -3t-22 -15l-53 -55h-2l25 186h510l-70 -78q-16 -16 -23 -33q-72 -169 -157 -481z" />
    <glyph glyph-name="six.sups" 
d="M367 1233q88 0 142 -48.5t54 -131.5q0 -87 -67.5 -144t-184.5 -57q-142 0 -210 81t-68 222t76 223t219 82q109 0 213 -28l-72 -168h-4l-92 153q-10 13 -25 13h-24q-37 0 -61.5 -17.5t-37.5 -55t-17.5 -83t-4.5 -113.5q38 38 74 55t90 17zM305 1186q-31 0 -52 -10.5
t-50 -36.5q0 -144 23 -201t87 -57q88 0 88 161q0 144 -96 144z" />
    <glyph glyph-name="three.sups" 
d="M559 1028q0 -76 -75.5 -126t-207.5 -50q-138 0 -239 37l102 198h4l58 -186q5 -14 20 -16q14 -2 47 -2q55 0 91 38t36 105q0 128 -168 137v4q150 24 150 154q0 53 -24.5 81t-69.5 28h-37q-18 0 -25 -17l-84 -184h-4l-82 186q113 45 246 45q118 0 179 -37t61 -106
q0 -108 -162 -141v-5q88 -4 136 -42t48 -101z" />
    <glyph glyph-name="two.sups" 
d="M549 1069l-29 -209h-491v4q94 83 196 185q73 71 111.5 131.5t38.5 119.5q0 130 -111 130h-24q-18 0 -25 -17l-84 -188h-4l-82 190q120 45 242 45q121 0 188.5 -44t67.5 -124q0 -48 -20.5 -87t-67.5 -75.5t-105.5 -68.5t-152.5 -74v-4h215q29 0 38 2t21 14l74 70h4z" />
    <glyph glyph-name="zero.sups" 
d="M301 1432q-61 0 -80.5 -63t-19.5 -214q0 -149 19.5 -211.5t80.5 -62.5q62 0 81 61.5t19 212.5q0 152 -19 214.5t-81 62.5zM301 1460q135 0 203.5 -82.5t68.5 -222.5q0 -139 -68.5 -221t-203.5 -82q-134 0 -202 82t-68 221t68.5 222t201.5 83z" />
    <glyph glyph-name="i.trk" horiz-adv-x="606" 
d="M305 1139q-59 0 -100 38.5t-41 96.5q0 62 40.5 101.5t100.5 39.5q61 0 102.5 -39.5t41.5 -101.5q0 -58 -41.5 -96.5t-102.5 -38.5zM588 0h-543v4l121 88q13 10 16.5 18.5t3.5 26.5v713q0 21 -3.5 29t-16.5 18l-121 102v5h399v-867q0 -17 4 -25t19 -20l121 -88v-4z" />
    </font>
</defs>
</svg>
